<?xml version="1.0" encoding="utf-8"?>
<!-- Generator: Adobe Illustrator 15.0.0, SVG Export Plug-In . SVG Version: 6.00 Build 0)  -->
<!DOCTYPE svg PUBLIC "-//W3C//DTD SVG 1.1//EN" "http://www.w3.org/Graphics/SVG/1.1/DTD/svg11.dtd">
<svg version="1.1" id="Calque_1" xmlns="http://www.w3.org/2000/svg" xmlns:xlink="http://www.w3.org/1999/xlink" x="0px" y="0px"
	 width="460px" height="420.004px" viewBox="170 29.996 460 420.004" enable-background="new 170 29.996 460 420.004"
	 xml:space="preserve">
<path fill="#339966" stroke="#FFFFFF" stroke-width="8" stroke-miterlimit="10" d="M623.82,30.76c-3.74-1.56-8.04-0.68-10.9,2.16
	L400,245.86L187.08,32.94c-2.86-2.86-7.2-3.72-10.9-2.18C172.44,32.3,170,35.96,170,40v180c0,2.66,1.06,5.2,2.92,7.08l220,220
	c1.96,1.939,4.521,2.92,7.08,2.92s5.12-0.98,7.08-2.92l220-220c1.86-1.88,2.92-4.42,2.92-7.08V40
	C630,35.96,627.56,32.3,623.82,30.76z"/>
</svg>
