<?xml version="1.0" encoding="utf-8"?>
<!-- Generator: Adobe Illustrator 15.0.0, SVG Export Plug-In . SVG Version: 6.00 Build 0)  -->
<!DOCTYPE svg PUBLIC "-//W3C//DTD SVG 1.1//EN" "http://www.w3.org/Graphics/SVG/1.1/DTD/svg11.dtd">
<svg version="1.1" id="Layer_1" xmlns="http://www.w3.org/2000/svg" xmlns:xlink="http://www.w3.org/1999/xlink" x="0px" y="0px"
	 width="777px" height="472px" viewBox="0 -45 777 472" enable-background="new 0 -45 777 472" xml:space="preserve">
<g opacity="0.92">
	<g id="XMLID_106_">
		<g id="XMLID_113_">
			<path id="XMLID_114_" fill="#F26541" d="M594.62,278.788c-1.137,8.183-8.408,13.938-16.288,12.803
				c-1.666-0.227-3.257-0.757-4.62-1.515c-1.516,0.379-3.183,0.379-4.85,0.15c-7.879-1.136-13.333-8.636-12.121-16.817
				c1.138-8.183,8.485-13.938,16.288-12.88c1.363,0.152,2.576,0.531,3.712,1.062c0.076,0.151,0.151,0.304,0.229,0.38
				c0.15,0.15,0.454,0.303,0.682,0.227c0.151,0,0.304-0.151,0.455-0.227l0,0c1.439-0.229,2.878-0.304,4.395-0.076
				C590.379,263.029,595.832,270.605,594.62,278.788z"/>
		</g>
		<g id="XMLID_111_">
			<path id="XMLID_112_" fill="#689B56" d="M594.241,252.045c0,0-2.879,6.061-8.258,6.667c-4.848,0.53-7.424,2.272-7.878,2.652
				c0,0,0,0-0.076-0.076c-0.075-0.076-0.15-0.228-0.15-0.379c0-0.228-0.076-0.379,0-0.606c0-0.076,0.074-0.152,0.15-0.228
				c0,0.075,0,0.151,0,0.151s0-0.076,0.076-0.228l0,0c0.303-1.212,2.045-6.894,5.833-8.485
				C588.106,249.773,594.241,252.045,594.241,252.045z"/>
		</g>
		<g id="XMLID_109_">
			<path id="XMLID_110_" fill="#784C36" d="M578.106,262.045c-0.152,0.076-0.304,0.227-0.455,0.227
				c-0.228,0.076-0.53-0.076-0.682-0.227c-0.076-0.15-0.151-0.227-0.229-0.379h0.076c0-2.348-0.076-7.955-0.455-8.561
				c-0.454-0.834-1.287-1.213-1.136-2.197c0.151-0.985,2.575-1.667,3.104,0.455c0.53,1.894-0.227,7.727-0.379,8.712
				c-0.075,0.075-0.075,0.151-0.15,0.228c-0.075,0.227,0,0.379,0,0.606c0,0.151,0.075,0.227,0.15,0.379c0,0,0,0,0.076,0.075l0,0
				l-0.075,0.683C578.03,262.045,578.03,262.045,578.106,262.045z"/>
		</g>
		<path id="XMLID_108_" fill="#F26541" d="M578.106,260.076C578.106,260.076,578.03,260.076,578.106,260.076"/>
		<path id="XMLID_107_" fill="#F26541" d="M578.106,260L578.106,260"/>
	</g>
</g>
<g>
	<g>
		<path fill="#7DB450" d="M569.924,251.591c-0.833-0.985-1.439-2.424-1.742-3.333c-0.075,0.151-0.151,0.227-0.228,0.303
			c-0.379,0.304-0.834,0.53-1.213,0.834c-2.575,1.817-5.075,3.561-7.65,5.379c-0.075,0-0.151,0-0.304,0
			c1.818-2.424,3.562-4.773,5.38-7.123c0.15-0.227,0.379-0.455,0.529-0.682c0.151-0.228,0.605-0.303,0.833-0.228l-5.15-2.576
			c-0.151,0.228-0.304,0.455-0.455,0.683c-1.666,2.271-3.408,4.545-5.151,6.894c0.758-3.031,1.517-5.985,2.273-8.864
			c0.15-0.529,0.227-1.061,0.378-1.516c0,0,0,0-0.151-1.666c-4.394-0.151-5.604-1.516-7.954-2.045
			c0.075,0.076,0.151,0.076,0.229,0.151l0,0c0.303,0.228,0.303,0.53,0.227,1.062c-0.227,1.061-0.303,2.121-0.53,3.182
			c-0.833,4.85-2.349,9.395-5.303,13.409c-1.516,2.045-3.105,4.015-4.697,5.985c-0.908,1.136-0.908,2.424,0.229,3.182
			c3.409,2.273,6.818,4.47,10.303,6.591c1.062,0.683,2.197,0.304,2.879-0.833c0.304-0.455,0.53-0.908,0.759-1.363
			c2.349-4.546,4.924-8.939,9.241-11.971C565.075,255.076,567.5,253.333,569.924,251.591z"/>
		<path fill="#689B56" d="M582.045,257.576c-4.999,0.229-8.938-1.818-12.121-5.985c-0.833-0.985-1.439-2.424-1.742-3.333
			c0.076-0.152,0.076-0.229,0.076-0.303c-0.076-0.15-0.229-0.379-0.305-0.455c-0.074-0.15-0.227-0.227-0.378-0.227
			c-0.683-0.229-1.363-0.455-2.046-0.531l-5.15-2.576l-1.517-1.439l-0.682-0.682l-0.758-0.757c0,0,0,0-0.151-1.667
			c-4.394-0.151-5.605-1.516-7.954-2.045c-0.076-0.076-0.228-0.076-0.303-0.151c-5.985-2.272-9.396-7.728-8.939-14.091
			c0.454-6.137,5.757-11.591,11.895-12.197c4.015-0.378,6.591,0.303,10.303,2.879c2.349-1.212,4.849-2.045,7.5-2.272
			c7.576-0.757,15.076,3.788,18.106,10.833c1.287,3.105,1.667,6.287,1.287,9.545c-0.075,0.605,0.075,0.984,0.605,1.439
			c3.939,3.258,5.758,7.5,5,12.5C593.637,253.029,587.953,257.273,582.045,257.576z"/>
	</g>
</g>
<g opacity="0.92">
	<path fill="#F26541" d="M643.561,236.288c23.788-4.317,33.409,36.288,16.288,43.483c2.349,5.455,5,10.379,9.849,11.818
		c-6.97,1.364-13.409-5.757-18.334-10.682c-21.287,1.363-36.742-39.545-10.303-44.092L643.561,236.288z"/>
	<path fill="#7DB450" d="M640.151,237.576c-4.242-4.167-10.833-2.879-13.788-9.092c-0.682-1.514,0.834-1.817,1.97-2.349
		c-1.97-2.271-4.695-3.182-5.15-7.803c0.605-0.683,1.438-1.138,3.03-1.288c-4.395-3.409-10.151-4.47-11.971-12.045
		c1.517-0.303,1.591-1.439,3.638-1.439c-2.5-1.363-4.092-4.924-3.03-7.576c10.983,1.137,14.242,14.546,20.758,22.88
		c0.303-5.152-1.364-11.062-0.985-16.288c0.304-4.242,0.833-10.53,5.834-12.045c2.272,1.742,3.333,5.379,1.591,7.273
		c1.213,0.756,3.334-0.076,4.395,0.984c1.97,6.516-0.983,10.227-3.788,14.091c0.53,1.212,2.879-0.455,3.562,0.53
		c1.591,3.788,1.212,6.591-0.758,8.408c1.287,0.91,3.712-0.075,4.092,2.272c0,5.909-5.305,7.88-6.896,12.88L640.151,237.576z"/>
</g>
<g opacity="0.92">
	<path fill="#7DB450" d="M684.091,241.895c0-0.229,0.075-1.062,0-1.289c-0.984-4.924-5.075-7.271-6.439-11.817
		c0-1.212,0.606-1.743,1.818-1.517c-0.985-3.561-3.712-5.832-2.804-10.983c0.834-0.683,2.5-0.304,3.939-0.151
		c-1.137-3.41-3.637-11.213,0.303-14.016c4.092,2.045,4.772,6.97,4.924,12.273c1.138-0.152,1.288-1.592,2.273-0.304
		c1.895-3.106,1.212-9.317,4.47-10.757c3.562,0.455,2.954,4.395,2.5,8.105c0.151,1.062,2.879-1.59,3.863,0.379
		c0.53,2.955-1.894,6.516-3.712,8.562c6.288,1.591-2.349,8.938,1.666,10.833c-1.363,5.455-8.105,4.167-9.924,9.092
		c0.076,0.53-0.229,1.061,0.076,1.363L684.091,241.895z"/>
	<path fill="#F79434" d="M688.03,241.516c1.363,1.438,4.242,1.211,6.212,3.484c0.606,0.682,0.53,2.121,0.985,3.105l-2.5,16.365
		c-2.804,13.484-5.834,26.666-12.651,35.15c-5.605-9.016-5-23.105-5.758-35.985l-1.363-16.515c0.605-0.909,5.758-6.363,11.592-5.985
		L688.03,241.516z"/>
</g>
<g opacity="0.8">
	<path fill="#CADC46" d="M606.061,226.212c8.939-3.409,12.121,3.485,17.803,11.364c6.213,8.712,18.409,15.833,17.046,28.939
		c-2.121,20.529-35.605,26.287-41.137,2.575c-1.439-6.212,1.061-12.879-0.303-19.924c-2.121-10.909-6.818-16.288,4.546-21.591
		L606.061,226.212z"/>
	<path fill="#784C36" d="M606.591,219.167c0.15-2.272,3.105-3.562,3.409-5.757c-5.229-3.409-7.046,5.682-6.971,9.242
		c0,0,1.212,4.697,1.138,5.529l2.12-1.438c-0.529-1.818-0.833-4.167-0.228-5.53L606.591,219.167z"/>
	<path fill="#689B56" d="M606.212,220c0.833-2.424,10.984-6.136,12.271-3.788c1.896,3.485-9.469,7.5-12.651,5.833L606.212,220z"/>
	<path fill="#689B56" d="M603.258,223.105c-1.062-1.061-3.106-1.741-4.85-1.135c0.909,2.65,3.409,2.803,5.379,3.256L603.258,223.105
		z"/>
</g>
<g opacity="0.89">
	<path fill="#F4DD35" d="M690,282.045c-1.363,9.471-9.772,16.137-18.939,14.85c-1.97-0.304-3.712-0.834-5.379-1.744
		c-1.818,0.379-3.712,0.455-5.605,0.229c-9.092-1.288-15.455-10-14.092-19.545c1.364-9.545,9.85-16.212,18.939-14.924
		c1.516,0.227,2.955,0.682,4.317,1.212c0.076,0.151,0.151,0.303,0.305,0.455c0.227,0.228,0.529,0.303,0.833,0.228
		c0.15,0,0.303-0.152,0.529-0.303l0,0c1.667-0.303,3.333-0.303,5.075-0.076C685.075,263.788,691.363,272.5,690,282.045z"/>
	<path fill="#689B56" d="M689.546,250.984c0,0-3.334,7.045-9.546,7.728c-5.683,0.606-8.638,2.652-9.092,3.03c0,0,0,0-0.076-0.076
		c-0.074-0.076-0.15-0.227-0.15-0.378c0-0.228-0.075-0.455,0-0.683c0.076-0.075,0.076-0.15,0.15-0.227c0,0.076,0,0.151,0,0.151
		s0-0.076,0.076-0.228l0,0c0.379-1.438,2.35-7.955,6.742-9.849C682.424,248.333,689.546,250.984,689.546,250.984z"/>
	<path fill="#784C36" d="M670.832,262.576c-0.15,0.076-0.303,0.229-0.529,0.303c-0.303,0.076-0.605-0.076-0.833-0.229
		c-0.151-0.15-0.229-0.303-0.304-0.455l0.075,0.076c0-2.728-0.075-9.166-0.529-9.924c-0.53-0.908-1.439-1.363-1.288-2.576
		c0.151-1.211,3.029-1.894,3.637,0.53c0.605,2.197-0.229,8.939-0.379,10.076c-0.075,0.076-0.075,0.151-0.151,0.228
		c-0.076,0.228,0,0.455,0,0.682c0,0.15,0.075,0.303,0.151,0.378c0,0,0,0,0.076,0.076c-0.076,0.075-0.076,0.075-0.076,0.075
		l-0.075,0.758C670.758,262.576,670.758,262.576,670.832,262.576z"/>
	<path fill="none" d="M670.832,260.303l-0.074,0.076"/>
	<path fill="none" d="M670.832,260.227L670.832,260.227"/>
</g>
<path fill="#84624B" d="M690.228,262.121l-1.818,22.197l-128.637,0.15l-1.438-22.349h-19.772v-80.15H374.773v143.788l27.273,12.5
	h15.15c5.757-36.895,37.728-65.152,76.287-65.152c38.562,0,70.455,28.258,76.288,65.152h128.03v-76.137H690.228z"/>
<path fill="#383635" d="M425.832,355.984c-33.862,0-103.636-0.228-132.727-0.758c-21.515,0-11.061-3.712-95.757-93.031
	c-3.409,10.531-3.788,11.668-6.212,19.244c28.03,11.97,42.424,36.894,42.424,62.5c0,37.12-30.227,67.271-67.349,67.271
	c-37.121,0-67.349-30.228-67.349-67.349s30.228-67.349,67.349-67.349c5.984,0,10,0.758,13.333,1.439
	c3.938-12.576,6.364-20.833,10.076-33.409c15.151-51.438,13.637-47.651,54.849-47.955v10.379
	c-36.136-0.151-30.606-4.241-39.167,30.53l102.878,54.545l18.485-51.363c-30.076-6.668-33.257-5.152-30.304-10.986h56.971v9.85
	l-15.076,0.303l-20.833,56.062c70.833,45.605,57.727,37.121,73.333,47.271l35.379,0.304v-1.666
	c4.242-33.712,33.104-59.168,67.121-59.168c19.241,0,37.045,7.879,50,22.121c39.621,43.485,8.104,114.243-50,114.243
	C460.303,418.939,428.863,392.5,425.832,355.984z M493.332,405.303c47.651,0,72.426-56.212,41.288-91.438
	c-30.454-34.47-87.954-18.863-95.529,27.651v1.817c2.425,0.076-4.318,0.076,56.061,0.228c4.091,0,7.804,7.047,3.409,10.909
	c-2.271,1.971,1.363,1.439-60.151,0.304C441.516,386.742,466.666,405.303,493.332,405.303z M111.667,343.788
	c0,30.075,24.47,54.545,54.622,54.545c30.075,0,54.545-24.47,54.545-54.545c0-20.229-10.985-40-33.485-50.379
	c-17.5,55.833-16.137,54.47-21.288,55c-1.894,0.15-5.379-1.742-5.303-5.303c0.076-4.318-1.895,1.666,15.454-52.956
	C138.182,284.621,111.667,312.954,111.667,343.788z M299.545,344.924c36.667,0.53,27.803,0.606,75.228-0.604
	c-11.894-7.651-1.894-1.212-59.394-38.106L299.545,344.924z M202.5,250.682l85.379,93.03l15.303-42.196l-98.636-53.484
	L202.5,250.682z"/>
<path d="M727.717,35.763H542.286v-6.422c0-1.775-1.888-3.211-4.215-3.211c-2.325,0-4.214,1.436-4.214,3.211v9.633v93.117v9.632
	v73.853c0,1.775,1.889,3.211,4.214,3.211c2.327,0,4.215-1.436,4.215-3.211v-70.641h185.431c2.331,0,4.215-1.436,4.215-3.212V38.974
	C731.932,37.198,730.048,35.763,727.717,35.763z M723.365,138.513H540.28v-6.422V42.185h183.085V138.513z"/>
<rect x="596.816" y="47.225" width="125.12" height="9.268"/>
<rect x="596.816" y="65.761" width="125.12" height="9.269"/>
<rect x="541.205" y="84.298" width="180.73" height="9.269"/>
<rect x="541.205" y="102.834" width="180.73" height="9.269"/>
<rect x="541.205" y="121.371" width="180.73" height="9.268"/>
<g>
	<g id="ermine">
		<g transform="rotate(-90 300,167.5)">
			<path id="s" d="M546.446,50.369l-0.943,0.628l-1.572-0.628l1.572-0.629L546.446,50.369z"/>
		</g>
		<path id="s_1_" d="M546.446,50.369l-0.629-0.943l0.629-1.572l0.629,1.572L546.446,50.369z"/>
		<g transform="rotate(90 300,167.5)">
			<path id="s_2_" d="M546.446,50.369l0.942-0.629l1.571,0.629l-1.571,0.628L546.446,50.369z"/>
		</g>
		<path d="M546.446,50.369l2.828,6.916l-2.199-0.943l-0.629,1.257l-0.629-1.257l-2.201,0.943L546.446,50.369z"/>
	</g>
	<g>
		<g id="ermine_1_">
			<g transform="rotate(-90 300,167.5)">
				<path id="s_3_" d="M556.924,50.369l-0.943,0.628l-1.572-0.628l1.572-0.629L556.924,50.369z"/>
			</g>
			<path id="s_4_" d="M556.924,50.369l-0.629-0.943l0.629-1.572l0.628,1.572L556.924,50.369z"/>
			<g transform="rotate(90 300,167.5)">
				<path id="s_5_" d="M556.924,50.369l0.942-0.629l1.571,0.629l-1.571,0.628L556.924,50.369z"/>
			</g>
			<path d="M556.924,50.369l2.828,6.916l-2.2-0.943l-0.628,1.257l-0.629-1.257l-2.201,0.943L556.924,50.369z"/>
		</g>
		<g>
			<g id="ermine_2_">
				<g transform="rotate(-90 300,167.5)">
					<path id="s_6_" d="M567.402,50.369l-0.942,0.628l-1.572-0.628l1.572-0.629L567.402,50.369z"/>
				</g>
				<path id="s_7_" d="M567.402,50.369l-0.628-0.943l0.628-1.572l0.628,1.572L567.402,50.369z"/>
				<g transform="rotate(90 300,167.5)">
					<path id="s_8_" d="M567.402,50.369l0.942-0.629l1.572,0.629l-1.572,0.628L567.402,50.369z"/>
				</g>
				<path d="M567.402,50.369l2.829,6.916l-2.201-0.943l-0.628,1.257l-0.628-1.257l-2.201,0.943L567.402,50.369z"/>
			</g>
			<g>
				<g id="ermine_3_">
					<g transform="rotate(-90 300,167.5)">
						<path id="s_9_" d="M577.88,50.369l-0.943,0.628l-1.571-0.628l1.571-0.629L577.88,50.369z"/>
					</g>
					<path id="s_10_" d="M577.88,50.369l-0.629-0.943l0.629-1.572l0.628,1.572L577.88,50.369z"/>
					<g transform="rotate(90 300,167.5)">
						<path id="s_11_" d="M577.88,50.369l0.942-0.629l1.572,0.629l-1.572,0.628L577.88,50.369z"/>
					</g>
					<path d="M577.88,50.369l2.829,6.916l-2.201-0.943l-0.628,1.257l-0.629-1.257l-2.2,0.943L577.88,50.369z"/>
				</g>
				<g>
					<g id="ermine_4_">
						<g transform="rotate(-90 300,167.5)">
							<path id="s_12_" d="M551.684,58.926l-0.942,0.629l-1.571-0.629l1.571-0.629L551.684,58.926z"/>
						</g>
						<path id="s_13_" d="M551.684,58.926l-0.628-0.943l0.628-1.572l0.629,1.572L551.684,58.926z"/>
						<g transform="rotate(90 300,167.5)">
							<path id="s_14_" d="M551.684,58.926l0.943-0.629l1.572,0.629l-1.572,0.629L551.684,58.926z"/>
						</g>
						<path d="M551.684,58.926l2.83,6.916l-2.201-0.943l-0.629,1.257l-0.628-1.257l-2.2,0.943L551.684,58.926z"/>
					</g>
					<g id="ermine_5_">
						<g transform="rotate(-90 300,167.5)">
							<path id="s_15_" d="M562.162,58.926l-0.943,0.629l-1.571-0.629l1.571-0.629L562.162,58.926z"/>
						</g>
						<path id="s_16_" d="M562.162,58.926l-0.629-0.943l0.629-1.572l0.629,1.572L562.162,58.926z"/>
						<g transform="rotate(90 300,167.5)">
							<path id="s_17_" d="M562.162,58.926l0.943-0.629l1.572,0.629l-1.572,0.629L562.162,58.926z"/>
						</g>
						<path d="M562.162,58.926l2.829,6.916l-2.2-0.943l-0.629,1.257l-0.629-1.257l-2.2,0.943L562.162,58.926z"/>
					</g>
					<g>
						<g id="ermine_6_">
							<g transform="rotate(-90 300,167.5)">
								<path id="s_18_" d="M572.641,58.926l-0.943,0.629l-1.571-0.629l1.571-0.629L572.641,58.926z"/>
							</g>
							<path id="s_19_" d="M572.641,58.926l-0.629-0.943l0.629-1.572l0.629,1.572L572.641,58.926z"/>
							<g transform="rotate(90 300,167.5)">
								<path id="s_20_" d="M572.641,58.926l0.943-0.629l1.571,0.629l-1.571,0.629L572.641,58.926z"/>
							</g>
							<path d="M572.641,58.926l2.829,6.916l-2.2-0.943l-0.629,1.257l-0.629-1.257l-2.2,0.943L572.641,58.926z"/>
						</g>
						<g>
							<g id="ermine_7_">
								<g transform="rotate(-90 300,167.5)">
									<path id="s_21_" d="M546.446,67.483l-0.943,0.629l-1.572-0.629l1.572-0.628L546.446,67.483z"/>
								</g>
								<path id="s_22_" d="M546.446,67.483l-0.629-0.943l0.629-1.572l0.629,1.572L546.446,67.483z"/>
								<g transform="rotate(90 300,167.5)">
									<path id="s_23_" d="M546.446,67.483l0.942-0.628l1.571,0.628l-1.571,0.629L546.446,67.483z"/>
								</g>
								<path d="M546.446,67.483l2.828,6.916l-2.199-0.943l-0.629,1.257l-0.629-1.257l-2.201,0.943L546.446,67.483z"/>
							</g>
							<g>
								<g id="ermine_8_">
									<g transform="rotate(-90 300,167.5)">
										<path id="s_24_" d="M556.924,67.483l-0.943,0.629l-1.572-0.629l1.572-0.628L556.924,67.483z"/>
									</g>
									<path id="s_25_" d="M556.924,67.483l-0.629-0.943l0.629-1.572l0.628,1.572L556.924,67.483z"/>
									<g transform="rotate(90 300,167.5)">
										<path id="s_26_" d="M556.924,67.483l0.942-0.628l1.571,0.628l-1.571,0.629L556.924,67.483z"/>
									</g>
									<path d="M556.924,67.483l2.828,6.916l-2.2-0.943l-0.628,1.257l-0.629-1.257l-2.201,0.943L556.924,67.483z"/>
								</g>
								<g>
									<g id="ermine_9_">
										<g transform="rotate(-90 300,167.5)">
											<path id="s_27_" d="M567.402,67.483l-0.942,0.629l-1.572-0.629l1.572-0.628L567.402,67.483z"/>
										</g>
										<path id="s_28_" d="M567.402,67.483l-0.628-0.943l0.628-1.572l0.628,1.572L567.402,67.483z"/>
										<g transform="rotate(90 300,167.5)">
											<path id="s_29_" d="M567.402,67.483l0.942-0.628l1.572,0.628l-1.572,0.629L567.402,67.483z"/>
										</g>
										<path d="M567.402,67.483l2.829,6.916l-2.201-0.943l-0.628,1.257l-0.628-1.257l-2.201,0.943L567.402,67.483z"/>
									</g>
									<g>
										<g id="ermine_10_">
											<g transform="rotate(-90 300,167.5)">
												<path id="s_30_" d="M577.88,67.483l-0.943,0.629l-1.571-0.629l1.571-0.628L577.88,67.483z"/>
											</g>
											<path id="s_31_" d="M577.88,67.483l-0.629-0.943l0.629-1.572l0.628,1.572L577.88,67.483z"/>
											<g transform="rotate(90 300,167.5)">
												<path id="s_32_" d="M577.88,67.483l0.942-0.628l1.572,0.628l-1.572,0.629L577.88,67.483z"/>
											</g>
											<path d="M577.88,67.483l2.829,6.916l-2.201-0.943l-0.628,1.257l-0.629-1.257l-2.2,0.943L577.88,67.483z"/>
										</g>
									</g>
								</g>
							</g>
						</g>
					</g>
				</g>
			</g>
		</g>
	</g>
</g>
<path d="M374.773,64.983"/>
</svg>
