<?xml version="1.0" encoding="utf-8"?>
<!-- Generator: Adobe Illustrator 15.0.0, SVG Export Plug-In . SVG Version: 6.00 Build 0)  -->
<!DOCTYPE svg PUBLIC "-//W3C//DTD SVG 1.1//EN" "http://www.w3.org/Graphics/SVG/1.1/DTD/svg11.dtd">
<svg version="1.1" id="Layer_1" xmlns="http://www.w3.org/2000/svg" xmlns:xlink="http://www.w3.org/1999/xlink" x="0px" y="0px"
	 width="651px" height="269px" viewBox="68.5 154.5 651 269" enable-background="new 68.5 154.5 651 269" xml:space="preserve">
<g opacity="0.92">
	<g id="XMLID_106_">
		<g id="XMLID_113_">
			<path id="XMLID_114_" fill="#F26541" d="M594.621,278.788c-1.137,8.182-8.409,13.939-16.288,12.803
				c-1.666-0.227-3.257-0.757-4.621-1.515c-1.515,0.379-3.182,0.379-4.849,0.151c-7.879-1.136-13.333-8.636-12.121-16.818
				c1.137-8.182,8.485-13.939,16.288-12.879c1.363,0.151,2.576,0.53,3.712,1.061c0.076,0.151,0.151,0.303,0.228,0.379
				c0.151,0.151,0.454,0.303,0.682,0.227c0.151,0,0.304-0.151,0.455-0.227l0,0c1.439-0.228,2.878-0.303,4.394-0.076
				C590.379,263.03,595.833,270.606,594.621,278.788z"/>
		</g>
		<g id="XMLID_111_">
			<path id="XMLID_112_" fill="#689B56" d="M594.242,252.045c0,0-2.879,6.061-8.258,6.667c-4.848,0.53-7.424,2.273-7.878,2.652
				c0,0,0,0-0.076-0.076c-0.075-0.076-0.151-0.228-0.151-0.379c0-0.228-0.076-0.379,0-0.606c0-0.076,0.075-0.152,0.151-0.228
				c0,0.076,0,0.152,0,0.152s0-0.076,0.076-0.228l0,0c0.303-1.212,2.045-6.894,5.833-8.485
				C588.106,249.773,594.242,252.045,594.242,252.045z"/>
		</g>
		<g id="XMLID_109_">
			<path id="XMLID_110_" fill="#784C36" d="M578.106,262.045c-0.152,0.076-0.304,0.227-0.455,0.227
				c-0.228,0.076-0.53-0.076-0.682-0.227c-0.076-0.151-0.151-0.227-0.228-0.379h0.076c0-2.348-0.076-7.955-0.455-8.561
				c-0.454-0.833-1.287-1.212-1.136-2.197s2.575-1.667,3.105,0.455c0.53,1.894-0.227,7.727-0.379,8.712
				c-0.075,0.076-0.075,0.152-0.151,0.228c-0.075,0.227,0,0.378,0,0.606c0,0.151,0.076,0.227,0.151,0.379c0,0,0,0,0.076,0.076l0,0
				l-0.075,0.682C578.03,262.045,578.03,262.045,578.106,262.045z"/>
		</g>
		<path id="XMLID_108_" fill="#F26541" d="M578.106,260.076C578.106,260.076,578.03,260.076,578.106,260.076"/>
		<path id="XMLID_107_" fill="#F26541" d="M578.106,260L578.106,260"/>
	</g>
</g>
<g>
	<g>
		<path fill="#7DB450" d="M569.924,251.591c-0.833-0.985-1.439-2.424-1.742-3.333c-0.075,0.151-0.151,0.227-0.227,0.303
			c-0.379,0.303-0.834,0.53-1.213,0.833c-2.575,1.818-5.075,3.561-7.651,5.379c-0.075,0-0.151,0-0.303,0
			c1.818-2.424,3.561-4.773,5.379-7.122c0.151-0.227,0.379-0.455,0.53-0.682c0.151-0.228,0.605-0.303,0.833-0.228l-5.151-2.576
			c-0.151,0.228-0.303,0.455-0.455,0.682c-1.666,2.272-3.408,4.545-5.151,6.894c0.758-3.031,1.516-5.985,2.273-8.864
			c0.151-0.53,0.227-1.061,0.378-1.515c0,0,0,0-0.151-1.667c-4.394-0.151-5.605-1.515-7.954-2.045
			c0.075,0.076,0.151,0.076,0.228,0.152l0,0c0.303,0.227,0.303,0.53,0.227,1.061c-0.227,1.061-0.303,2.121-0.53,3.182
			c-0.833,4.849-2.349,9.394-5.303,13.409c-1.516,2.045-3.106,4.015-4.697,5.985c-0.909,1.136-0.909,2.424,0.228,3.182
			c3.409,2.273,6.818,4.47,10.303,6.591c1.061,0.682,2.197,0.303,2.879-0.833c0.303-0.455,0.53-0.909,0.758-1.364
			c2.349-4.545,4.924-8.939,9.242-11.97C565.076,255.076,567.5,253.333,569.924,251.591z"/>
		<path fill="#689B56" d="M582.045,257.576c-4.999,0.228-8.938-1.818-12.121-5.985c-0.833-0.985-1.439-2.424-1.742-3.333
			c0.076-0.152,0.076-0.228,0.076-0.303c-0.076-0.151-0.228-0.379-0.304-0.455c-0.075-0.151-0.227-0.227-0.378-0.227
			c-0.683-0.228-1.364-0.455-2.046-0.531l-5.151-2.576l-1.516-1.439l-0.682-0.682l-0.758-0.757c0,0,0,0-0.151-1.667
			c-4.394-0.151-5.605-1.515-7.954-2.045c-0.076-0.076-0.228-0.076-0.303-0.151c-5.985-2.273-9.395-7.728-8.939-14.091
			c0.454-6.137,5.757-11.591,11.894-12.197c4.015-0.378,6.591,0.303,10.303,2.879c2.349-1.212,4.849-2.045,7.5-2.273
			c7.576-0.757,15.076,3.788,18.106,10.833c1.288,3.106,1.667,6.288,1.288,9.545c-0.076,0.606,0.075,0.985,0.605,1.439
			c3.939,3.258,5.758,7.5,5,12.5C593.637,253.03,587.954,257.273,582.045,257.576z"/>
	</g>
</g>
<g opacity="0.92">
	<path fill="#F26541" d="M643.561,236.288c23.788-4.318,33.409,36.288,16.288,43.484c2.349,5.455,5,10.379,9.849,11.818
		c-6.97,1.364-13.409-5.757-18.334-10.682c-21.287,1.363-36.742-39.545-10.303-44.091L643.561,236.288z"/>
	<path fill="#7DB450" d="M640.151,237.576c-4.242-4.167-10.833-2.879-13.788-9.091c-0.682-1.515,0.834-1.818,1.97-2.349
		c-1.97-2.272-4.696-3.182-5.151-7.803c0.606-0.682,1.439-1.137,3.03-1.288c-4.394-3.409-10.151-4.47-11.97-12.045
		c1.516-0.303,1.591-1.439,3.637-1.439c-2.5-1.364-4.091-4.924-3.03-7.576c10.984,1.136,14.242,14.545,20.758,22.879
		c0.303-5.152-1.364-11.061-0.985-16.288c0.303-4.242,0.833-10.53,5.834-12.045c2.272,1.743,3.333,5.379,1.59,7.273
		c1.213,0.757,3.334-0.076,4.395,0.985c1.97,6.515-0.984,10.227-3.788,14.091c0.53,1.212,2.879-0.455,3.561,0.53
		c1.591,3.788,1.212,6.591-0.757,8.409c1.287,0.909,3.712-0.076,4.091,2.272c0,5.909-5.304,7.879-6.895,12.879L640.151,237.576z"/>
</g>
<g opacity="0.92">
	<path fill="#7DB450" d="M684.091,241.894c0-0.228,0.076-1.061,0-1.288c-0.984-4.924-5.075-7.272-6.439-11.818
		c0-1.212,0.606-1.743,1.818-1.516c-0.985-3.561-3.712-5.833-2.803-10.984c0.833-0.682,2.5-0.303,3.939-0.152
		c-1.137-3.409-3.637-11.212,0.303-14.015c4.091,2.045,4.772,6.97,4.924,12.273c1.137-0.152,1.288-1.591,2.273-0.303
		c1.894-3.106,1.212-9.318,4.47-10.757c3.561,0.455,2.954,4.394,2.5,8.106c0.151,1.061,2.879-1.591,3.863,0.379
		c0.53,2.954-1.894,6.515-3.712,8.561c6.288,1.591-2.349,8.939,1.666,10.833c-1.363,5.455-8.105,4.167-9.924,9.091
		c0.076,0.531-0.228,1.061,0.076,1.364L684.091,241.894z"/>
	<path fill="#F79434" d="M688.03,241.515c1.363,1.439,4.242,1.212,6.212,3.485c0.606,0.682,0.53,2.121,0.985,3.106l-2.5,16.364
		c-2.804,13.485-5.834,26.667-12.651,35.151c-5.606-9.015-5-23.106-5.758-35.985l-1.363-16.515
		c0.605-0.909,5.757-6.363,11.591-5.985L688.03,241.515z"/>
</g>
<g opacity="0.8">
	<path fill="#CADC46" d="M606.061,226.212c8.939-3.409,12.121,3.485,17.803,11.364c6.213,8.712,18.409,15.833,17.046,28.939
		c-2.121,20.53-35.606,26.288-41.137,2.576c-1.439-6.212,1.061-12.879-0.303-19.924c-2.121-10.909-6.818-16.288,4.546-21.591
		L606.061,226.212z"/>
	<path fill="#784C36" d="M606.591,219.167c0.151-2.272,3.106-3.561,3.409-5.757c-5.228-3.409-7.045,5.682-6.97,9.242
		c0,0,1.212,4.697,1.137,5.53l2.121-1.439c-0.53-1.818-0.833-4.167-0.228-5.53L606.591,219.167z"/>
	<path fill="#689B56" d="M606.212,220c0.833-2.424,10.985-6.136,12.272-3.788c1.895,3.485-9.469,7.5-12.651,5.833L606.212,220z"/>
	<path fill="#689B56" d="M603.258,223.106c-1.061-1.061-3.106-1.742-4.849-1.136c0.909,2.651,3.409,2.803,5.379,3.257
		L603.258,223.106z"/>
</g>
<g opacity="0.89">
	<path fill="#F4DD35" d="M690,282.045c-1.363,9.47-9.772,16.136-18.939,14.849c-1.97-0.303-3.712-0.833-5.379-1.743
		c-1.818,0.379-3.712,0.455-5.605,0.228c-9.092-1.288-15.455-10-14.092-19.545c1.364-9.545,9.849-16.212,18.939-14.924
		c1.516,0.227,2.955,0.682,4.318,1.212c0.076,0.152,0.151,0.303,0.304,0.455c0.227,0.228,0.53,0.303,0.833,0.228
		c0.151,0,0.303-0.152,0.53-0.303l0,0c1.667-0.303,3.333-0.303,5.075-0.076C685.076,263.788,691.363,272.5,690,282.045z"/>
	<path fill="#689B56" d="M689.546,250.985c0,0-3.334,7.045-9.546,7.727c-5.682,0.606-8.637,2.652-9.091,3.03c0,0,0,0-0.076-0.076
		c-0.075-0.076-0.151-0.227-0.151-0.378c0-0.228-0.075-0.455,0-0.682c0.076-0.076,0.076-0.151,0.151-0.227c0,0.076,0,0.151,0,0.151
		s0-0.076,0.076-0.227l0,0c0.379-1.439,2.349-7.955,6.742-9.849C682.424,248.333,689.546,250.985,689.546,250.985z"/>
	<path fill="#784C36" d="M670.833,262.576c-0.151,0.076-0.303,0.228-0.53,0.303c-0.303,0.076-0.605-0.076-0.833-0.228
		c-0.151-0.151-0.228-0.303-0.303-0.455l0.075,0.076c0-2.728-0.075-9.167-0.53-9.924c-0.53-0.909-1.439-1.364-1.288-2.576
		c0.152-1.212,3.03-1.894,3.637,0.53c0.606,2.197-0.228,8.939-0.379,10.076c-0.075,0.076-0.075,0.151-0.151,0.227
		c-0.076,0.228,0,0.455,0,0.682c0,0.151,0.075,0.303,0.151,0.378c0,0,0,0,0.076,0.076c-0.076,0.076-0.076,0.076-0.076,0.076
		l-0.075,0.757C670.758,262.576,670.758,262.576,670.833,262.576z"/>
	<path fill="none" d="M670.833,260.303l-0.075,0.076"/>
	<path fill="none" d="M670.833,260.227L670.833,260.227"/>
</g>
<path fill="#84624B" d="M690.228,262.121l-1.818,22.197l-128.637,0.151l-1.439-22.349h-19.772V181.97H374.773v143.788l27.273,12.5
	h15.151c5.757-36.895,37.727-65.152,76.287-65.152c38.562,0,70.455,28.257,76.288,65.152h128.03v-76.137H690.228z"/>
<path fill="#383635" d="M425.833,355.984c-33.863,0-103.636-0.227-132.727-0.757c-21.515,0-11.061-3.712-95.757-93.031
	c-3.409,10.53-3.788,11.667-6.212,19.243c28.03,11.97,42.424,36.894,42.424,62.5c0,37.121-30.227,67.272-67.349,67.272
	c-37.121,0-67.348-30.228-67.348-67.349s30.227-67.348,67.348-67.348c5.985,0,10,0.758,13.333,1.439
	c3.939-12.576,6.364-20.833,10.076-33.409c15.152-51.439,13.637-47.651,54.849-47.955v10.379
	c-36.136-0.151-30.606-4.242-39.167,30.53l102.878,54.545l18.485-51.364c-30.076-6.667-33.257-5.151-30.303-10.985h56.97v9.849
	l-15.076,0.303l-20.833,56.061c70.833,45.606,57.727,37.121,73.333,47.272l35.379,0.303v-1.666
	c4.242-33.712,33.105-59.167,67.121-59.167c19.242,0,37.045,7.879,50,22.121c39.621,43.485,8.105,114.243-50,114.243
	C460.303,418.939,428.863,392.5,425.833,355.984z M493.333,405.303c47.651,0,72.425-56.212,41.288-91.439
	c-30.454-34.469-87.954-18.863-95.53,27.652v1.817c2.425,0.076-4.318,0.076,56.061,0.228c4.091,0,7.803,7.046,3.409,10.909
	c-2.272,1.97,1.363,1.439-60.151,0.303C441.516,386.742,466.667,405.303,493.333,405.303z M111.667,343.788
	c0,30.075,24.47,54.545,54.622,54.545c30.076,0,54.545-24.47,54.545-54.545c0-20.228-10.985-40-33.485-50.379
	c-17.5,55.833-16.137,54.47-21.288,55c-1.894,0.151-5.379-1.742-5.303-5.303c0.076-4.318-1.894,1.666,15.454-52.955
	C138.182,284.621,111.667,312.954,111.667,343.788z M299.545,344.924c36.667,0.53,27.803,0.606,75.228-0.605
	c-11.894-7.651-1.894-1.212-59.394-38.106L299.545,344.924z M202.5,250.682l85.379,93.03l15.303-42.196l-98.636-53.485
	L202.5,250.682z"/>
</svg>
