<?xml version="1.0" encoding="utf-8"?>
<!-- Generator: Adobe Illustrator 19.0.0, SVG Export Plug-In . SVG Version: 6.00 Build 0)  -->
<svg version="1.1" id="Layer_1" xmlns="http://www.w3.org/2000/svg" xmlns:xlink="http://www.w3.org/1999/xlink" x="0px" y="0px"
	 viewBox="0 0 426 279.8" style="enable-background:new 0 0 426 279.8;" xml:space="preserve">
<style type="text/css">
	.st0{fill:url(#XMLID_38_);}
	.st1{fill:url(#XMLID_51_);}
	.st2{fill:url(#XMLID_52_);}
	.st3{fill:url(#XMLID_53_);}
	.st4{fill:url(#XMLID_54_);}
	.st5{fill:url(#XMLID_55_);}
	.st6{fill:url(#XMLID_56_);}
	.st7{fill:url(#XMLID_57_);}
	.st8{fill:url(#XMLID_59_);}
	.st9{fill:url(#XMLID_77_);}
	.st10{fill:url(#XMLID_125_);}
	.st11{fill:url(#XMLID_134_);}
	.st12{fill:url(#XMLID_233_);}
	.st13{fill:url(#XMLID_255_);}
	.st14{fill:url(#XMLID_256_);}
	.st15{fill:url(#XMLID_257_);}
	.st16{fill:url(#XMLID_260_);}
	.st17{fill:url(#XMLID_353_);}
	.st18{fill:url(#XMLID_363_);}
	.st19{fill:url(#XMLID_366_);}
	.st20{fill:url(#XMLID_370_);}
	.st21{fill:url(#XMLID_377_);}
	.st22{fill:url(#XMLID_379_);}
	.st23{fill:url(#XMLID_385_);}
	.st24{fill:url(#XMLID_402_);}
	.st25{fill:url(#XMLID_404_);}
	.st26{fill:url(#XMLID_409_);}
	.st27{fill:url(#XMLID_425_);}
	.st28{fill:url(#XMLID_462_);}
	.st29{fill:url(#XMLID_467_);}
	.st30{fill:url(#XMLID_468_);}
	.st31{fill:url(#XMLID_470_);}
	.st32{fill:url(#XMLID_485_);}
	.st33{fill:url(#XMLID_486_);}
	.st34{fill:url(#XMLID_487_);}
	.st35{fill:url(#XMLID_489_);}
	.st36{fill:url(#XMLID_490_);}
	.st37{fill:url(#XMLID_491_);}
	.st38{fill:url(#XMLID_492_);}
	.st39{fill:url(#XMLID_493_);}
	.st40{fill:url(#XMLID_509_);}
	.st41{fill:url(#XMLID_510_);}
	.st42{fill:url(#XMLID_511_);}
	.st43{fill:url(#XMLID_513_);}
	.st44{fill:url(#XMLID_514_);}
	.st45{fill:url(#XMLID_515_);}
	.st46{fill:#7DB450;}
	.st47{font-family:'RidemyBikeProBold';}
	.st48{font-size:24.1369px;}
	.st49{fill:#656869;}
	.st50{font-size:21.011px;}
	.st51{fill:#F79333;}
	.st52{font-size:22px;}
	.st53{fill:#F8BF14;}
	.st54{fill-rule:evenodd;clip-rule:evenodd;fill:#58595B;}
	.st55{fill:none;stroke:url(#XMLID_516_);stroke-width:17.4;stroke-miterlimit:10;stroke-dasharray:2.6,2.6;}
	.st56{fill:#96BF54;}
	.st57{font-family:'ArcherPro-Book';}
	.st58{font-size:9px;}
	.st59{font-size:10px;}
	.st60{font-family:'ArcherPro-MediumItalic';}
	.st61{font-size:12px;}
	.st62{font-family:'ThirstyRoughBol';}
	.st63{font-size:11.4px;}
	.st64{fill-rule:evenodd;clip-rule:evenodd;fill:#D4D826;}
	.st65{fill:#F26541;}
	.st66{fill:#689B56;}
	.st67{fill:#784C36;}
	.st68{fill-rule:evenodd;clip-rule:evenodd;fill:#F26541;}
	.st69{fill-rule:evenodd;clip-rule:evenodd;fill:#7DB450;}
	.st70{fill-rule:evenodd;clip-rule:evenodd;fill:#F79434;}
	.st71{fill-rule:evenodd;clip-rule:evenodd;fill:#CADC46;}
	.st72{fill-rule:evenodd;clip-rule:evenodd;fill:#784C36;}
	.st73{fill-rule:evenodd;clip-rule:evenodd;fill:#689B56;}
	.st74{fill:#F4DD35;}
	.st75{fill:none;}
	.st76{fill:#84624B;}
	.st77{fill:#383635;}
	.st78{fill:#6F7073;}
	.st79{font-family:'FestivoLC-Basic';}
	.st80{font-size:16px;}
	.st81{font-size:11px;}
	.st82{fill:#58595B;}
	.st83{fill:#FFFFFF;}
	.st84{font-family:'TrendSansOne-Italic';}
	.st85{font-size:5.7551px;}
	.st86{font-family:'ArcherPro-Medium';}
	.st87{font-size:10.0574px;}
	.st88{fill:#F79434;}
	.st89{fill-rule:evenodd;clip-rule:evenodd;fill:#6F7073;}
	.st90{fill-rule:evenodd;clip-rule:evenodd;fill:#434445;}
	.st91{font-size:9.45px;}
	.st92{fill:#434445;}
	.st93{fill:none;stroke:#FFFFFF;stroke-width:0.454;stroke-miterlimit:10;}
	.st94{fill:none;stroke:#000000;stroke-width:0.25;stroke-miterlimit:10;}
	.st95{fill:none;stroke:#000000;stroke-width:0.25;stroke-miterlimit:10;stroke-dasharray:2.002,2.002;}
	.st96{opacity:0.92;}
	.st97{opacity:0.8;}
	.st98{opacity:0.89;}
	.st99{fill:#D95A39;}
	.st100{fill-rule:evenodd;clip-rule:evenodd;fill:#D95A39;}
	.st101{fill-rule:evenodd;clip-rule:evenodd;fill:#547837;}
	.st102{fill-rule:evenodd;clip-rule:evenodd;fill:#CC9259;}
	.st103{fill-rule:evenodd;clip-rule:evenodd;fill:#B3C23B;}
	.st104{fill:#C7B52E;}
	.st105{font-family:'TrendRoughSans-One';}
	.st106{font-size:7.8564px;}
	.st107{font-size:8.025px;}
	.st108{font-family:'TrendSansOne';}
	.st109{font-size:6.7303px;}
</style>
<g id="XMLID_40_">
	<g id="XMLID_390_">
		<linearGradient id="XMLID_38_" gradientUnits="userSpaceOnUse" x1="15.4914" y1="230.3143" x2="253.6152" y2="230.3143">
			<stop  offset="0" style="stop-color:#BCBEC0"/>
			<stop  offset="1" style="stop-color:#F8BF14"/>
		</linearGradient>
		<polygon id="XMLID_476_" class="st0" points="15.5,204 18.1,204.2 18.1,256.5 15.5,256.6 		"/>
		<linearGradient id="XMLID_51_" gradientUnits="userSpaceOnUse" x1="15.4914" y1="230.3142" x2="253.6152" y2="230.3142">
			<stop  offset="0" style="stop-color:#BCBEC0"/>
			<stop  offset="1" style="stop-color:#F8BF14"/>
		</linearGradient>
		<polygon id="XMLID_475_" class="st1" points="20.7,204.4 23.3,204.6 23.3,256.1 20.7,256.3 		"/>
		<linearGradient id="XMLID_52_" gradientUnits="userSpaceOnUse" x1="15.4914" y1="230.3142" x2="253.6152" y2="230.3142">
			<stop  offset="0" style="stop-color:#BCBEC0"/>
			<stop  offset="1" style="stop-color:#F8BF14"/>
		</linearGradient>
		<polygon id="XMLID_474_" class="st2" points="25.9,204.8 28.5,204.9 28.5,255.7 25.9,255.9 		"/>
		<linearGradient id="XMLID_53_" gradientUnits="userSpaceOnUse" x1="15.4914" y1="230.3142" x2="253.6152" y2="230.3142">
			<stop  offset="0" style="stop-color:#BCBEC0"/>
			<stop  offset="1" style="stop-color:#F8BF14"/>
		</linearGradient>
		<polygon id="XMLID_473_" class="st3" points="31.1,205.1 33.7,205.3 33.7,255.3 31.1,255.5 		"/>
		<linearGradient id="XMLID_54_" gradientUnits="userSpaceOnUse" x1="15.4914" y1="230.3143" x2="253.6153" y2="230.3143">
			<stop  offset="0" style="stop-color:#BCBEC0"/>
			<stop  offset="1" style="stop-color:#F8BF14"/>
		</linearGradient>
		<polygon id="XMLID_472_" class="st4" points="36.3,205.5 38.9,205.7 38.9,254.9 36.3,255.1 		"/>
		<linearGradient id="XMLID_55_" gradientUnits="userSpaceOnUse" x1="15.4914" y1="230.3143" x2="253.6153" y2="230.3143">
			<stop  offset="0" style="stop-color:#BCBEC0"/>
			<stop  offset="1" style="stop-color:#F8BF14"/>
		</linearGradient>
		<polygon id="XMLID_471_" class="st5" points="41.5,205.9 44.1,206.1 44.1,254.5 41.5,254.7 		"/>
		<linearGradient id="XMLID_56_" gradientUnits="userSpaceOnUse" x1="15.4914" y1="230.3143" x2="253.6153" y2="230.3143">
			<stop  offset="0" style="stop-color:#BCBEC0"/>
			<stop  offset="1" style="stop-color:#F8BF14"/>
		</linearGradient>
		<polygon id="XMLID_454_" class="st6" points="46.7,206.3 49.3,206.5 49.3,254.1 46.7,254.3 		"/>
		<linearGradient id="XMLID_57_" gradientUnits="userSpaceOnUse" x1="15.4914" y1="230.3142" x2="253.6153" y2="230.3142">
			<stop  offset="0" style="stop-color:#BCBEC0"/>
			<stop  offset="1" style="stop-color:#F8BF14"/>
		</linearGradient>
		<polygon id="XMLID_453_" class="st7" points="51.9,206.7 54.5,206.9 54.5,253.8 51.9,254 		"/>
		<linearGradient id="XMLID_59_" gradientUnits="userSpaceOnUse" x1="15.4914" y1="230.3142" x2="253.6153" y2="230.3142">
			<stop  offset="0" style="stop-color:#BCBEC0"/>
			<stop  offset="1" style="stop-color:#F8BF14"/>
		</linearGradient>
		<polygon id="XMLID_452_" class="st8" points="57.1,207.1 59.7,207.3 59.7,253.4 57.1,253.6 		"/>
		<linearGradient id="XMLID_77_" gradientUnits="userSpaceOnUse" x1="15.4916" y1="230.3142" x2="253.6154" y2="230.3142">
			<stop  offset="0" style="stop-color:#BCBEC0"/>
			<stop  offset="1" style="stop-color:#F8BF14"/>
		</linearGradient>
		<polygon id="XMLID_451_" class="st9" points="62.3,207.4 64.9,207.6 64.9,253 62.3,253.2 		"/>
		<linearGradient id="XMLID_125_" gradientUnits="userSpaceOnUse" x1="15.4916" y1="230.3143" x2="253.6154" y2="230.3143">
			<stop  offset="0" style="stop-color:#BCBEC0"/>
			<stop  offset="1" style="stop-color:#F8BF14"/>
		</linearGradient>
		<polygon id="XMLID_449_" class="st10" points="67.5,207.8 70.1,208 70.1,252.6 67.5,252.8 		"/>
		<linearGradient id="XMLID_134_" gradientUnits="userSpaceOnUse" x1="15.4913" y1="230.3143" x2="253.6151" y2="230.3143">
			<stop  offset="0" style="stop-color:#BCBEC0"/>
			<stop  offset="1" style="stop-color:#F8BF14"/>
		</linearGradient>
		<polygon id="XMLID_448_" class="st11" points="72.7,208.2 75.3,208.4 75.3,252.2 72.7,252.4 		"/>
		<linearGradient id="XMLID_233_" gradientUnits="userSpaceOnUse" x1="15.4913" y1="230.3143" x2="253.6151" y2="230.3143">
			<stop  offset="0" style="stop-color:#BCBEC0"/>
			<stop  offset="1" style="stop-color:#F8BF14"/>
		</linearGradient>
		<polygon id="XMLID_447_" class="st12" points="77.9,208.6 80.5,208.8 80.5,251.8 77.9,252 		"/>
		<linearGradient id="XMLID_255_" gradientUnits="userSpaceOnUse" x1="15.4912" y1="230.3142" x2="253.6151" y2="230.3142">
			<stop  offset="0" style="stop-color:#BCBEC0"/>
			<stop  offset="1" style="stop-color:#F8BF14"/>
		</linearGradient>
		<polygon id="XMLID_445_" class="st13" points="83.1,209 85.7,209.2 85.7,251.4 83.1,251.6 		"/>
		<linearGradient id="XMLID_256_" gradientUnits="userSpaceOnUse" x1="15.4917" y1="230.3142" x2="253.6155" y2="230.3142">
			<stop  offset="0" style="stop-color:#BCBEC0"/>
			<stop  offset="1" style="stop-color:#F8BF14"/>
		</linearGradient>
		<polygon id="XMLID_444_" class="st14" points="88.3,209.4 90.9,209.6 90.9,251.1 88.3,251.3 		"/>
		<linearGradient id="XMLID_257_" gradientUnits="userSpaceOnUse" x1="15.4917" y1="230.3142" x2="253.6155" y2="230.3142">
			<stop  offset="0" style="stop-color:#BCBEC0"/>
			<stop  offset="1" style="stop-color:#F8BF14"/>
		</linearGradient>
		<polygon id="XMLID_443_" class="st15" points="93.5,209.8 96.1,209.9 96.1,250.7 93.5,250.9 		"/>
		<linearGradient id="XMLID_260_" gradientUnits="userSpaceOnUse" x1="15.4912" y1="230.3143" x2="253.6151" y2="230.3143">
			<stop  offset="0" style="stop-color:#BCBEC0"/>
			<stop  offset="1" style="stop-color:#F8BF14"/>
		</linearGradient>
		<polygon id="XMLID_442_" class="st16" points="98.7,210.1 101.3,210.3 101.3,250.3 98.7,250.5 		"/>
		<linearGradient id="XMLID_353_" gradientUnits="userSpaceOnUse" x1="15.4912" y1="230.3143" x2="253.615" y2="230.3143">
			<stop  offset="0" style="stop-color:#BCBEC0"/>
			<stop  offset="1" style="stop-color:#F8BF14"/>
		</linearGradient>
		<polygon id="XMLID_441_" class="st17" points="103.9,210.5 106.5,210.7 106.5,249.9 103.9,250.1 		"/>
		<linearGradient id="XMLID_363_" gradientUnits="userSpaceOnUse" x1="15.4912" y1="230.3143" x2="253.615" y2="230.3143">
			<stop  offset="0" style="stop-color:#BCBEC0"/>
			<stop  offset="1" style="stop-color:#F8BF14"/>
		</linearGradient>
		<polygon id="XMLID_440_" class="st18" points="109.1,210.9 111.7,211.1 111.7,249.5 109.1,249.7 		"/>
		<linearGradient id="XMLID_366_" gradientUnits="userSpaceOnUse" x1="15.4918" y1="230.3142" x2="253.6156" y2="230.3142">
			<stop  offset="0" style="stop-color:#BCBEC0"/>
			<stop  offset="1" style="stop-color:#F8BF14"/>
		</linearGradient>
		<polygon id="XMLID_439_" class="st19" points="114.3,211.3 116.9,211.5 116.9,249.1 114.3,249.3 		"/>
		<linearGradient id="XMLID_370_" gradientUnits="userSpaceOnUse" x1="15.4918" y1="230.3142" x2="253.6156" y2="230.3142">
			<stop  offset="0" style="stop-color:#BCBEC0"/>
			<stop  offset="1" style="stop-color:#F8BF14"/>
		</linearGradient>
		<polygon id="XMLID_438_" class="st20" points="119.5,211.7 122.1,211.9 122.1,248.8 119.5,248.9 		"/>
		<linearGradient id="XMLID_377_" gradientUnits="userSpaceOnUse" x1="15.4912" y1="230.3142" x2="253.615" y2="230.3142">
			<stop  offset="0" style="stop-color:#BCBEC0"/>
			<stop  offset="1" style="stop-color:#F8BF14"/>
		</linearGradient>
		<polygon id="XMLID_437_" class="st21" points="124.7,212.1 127.3,212.3 127.3,248.4 124.7,248.6 		"/>
		<linearGradient id="XMLID_379_" gradientUnits="userSpaceOnUse" x1="15.4911" y1="230.3143" x2="253.615" y2="230.3143">
			<stop  offset="0" style="stop-color:#BCBEC0"/>
			<stop  offset="1" style="stop-color:#F8BF14"/>
		</linearGradient>
		<polygon id="XMLID_436_" class="st22" points="129.9,212.5 132.5,212.6 132.5,248 129.9,248.2 		"/>
		<linearGradient id="XMLID_385_" gradientUnits="userSpaceOnUse" x1="15.4911" y1="230.3143" x2="253.615" y2="230.3143">
			<stop  offset="0" style="stop-color:#BCBEC0"/>
			<stop  offset="1" style="stop-color:#F8BF14"/>
		</linearGradient>
		<polygon id="XMLID_435_" class="st23" points="135.1,212.8 137.7,213 137.7,247.6 135.1,247.8 		"/>
		<linearGradient id="XMLID_402_" gradientUnits="userSpaceOnUse" x1="15.4919" y1="230.3143" x2="253.6157" y2="230.3143">
			<stop  offset="0" style="stop-color:#BCBEC0"/>
			<stop  offset="1" style="stop-color:#F8BF14"/>
		</linearGradient>
		<polygon id="XMLID_434_" class="st24" points="140.3,213.2 142.9,213.4 142.9,247.2 140.3,247.4 		"/>
		<linearGradient id="XMLID_404_" gradientUnits="userSpaceOnUse" x1="15.4919" y1="230.3142" x2="253.6157" y2="230.3142">
			<stop  offset="0" style="stop-color:#BCBEC0"/>
			<stop  offset="1" style="stop-color:#F8BF14"/>
		</linearGradient>
		<polygon id="XMLID_433_" class="st25" points="145.5,213.6 148.1,213.8 148.1,246.8 145.5,247 		"/>
		<linearGradient id="XMLID_409_" gradientUnits="userSpaceOnUse" x1="15.4919" y1="230.3142" x2="253.6157" y2="230.3142">
			<stop  offset="0" style="stop-color:#BCBEC0"/>
			<stop  offset="1" style="stop-color:#F8BF14"/>
		</linearGradient>
		<polygon id="XMLID_432_" class="st26" points="150.7,214 153.3,214.2 153.3,246.4 150.7,246.6 		"/>
		<linearGradient id="XMLID_425_" gradientUnits="userSpaceOnUse" x1="15.4911" y1="230.3142" x2="253.6149" y2="230.3142">
			<stop  offset="0" style="stop-color:#BCBEC0"/>
			<stop  offset="1" style="stop-color:#F8BF14"/>
		</linearGradient>
		<polygon id="XMLID_431_" class="st27" points="155.9,214.4 158.5,214.6 158.5,246.1 155.9,246.3 		"/>
		<linearGradient id="XMLID_462_" gradientUnits="userSpaceOnUse" x1="15.4911" y1="230.3143" x2="253.6149" y2="230.3143">
			<stop  offset="0" style="stop-color:#BCBEC0"/>
			<stop  offset="1" style="stop-color:#F8BF14"/>
		</linearGradient>
		<polygon id="XMLID_430_" class="st28" points="161.1,214.8 163.7,215 163.7,245.7 161.1,245.9 		"/>
		<linearGradient id="XMLID_467_" gradientUnits="userSpaceOnUse" x1="15.491" y1="230.3143" x2="253.6149" y2="230.3143">
			<stop  offset="0" style="stop-color:#BCBEC0"/>
			<stop  offset="1" style="stop-color:#F8BF14"/>
		</linearGradient>
		<polygon id="XMLID_429_" class="st29" points="166.3,215.1 168.9,215.3 168.9,245.3 166.3,245.5 		"/>
		<linearGradient id="XMLID_468_" gradientUnits="userSpaceOnUse" x1="15.492" y1="230.3143" x2="253.6158" y2="230.3143">
			<stop  offset="0" style="stop-color:#BCBEC0"/>
			<stop  offset="1" style="stop-color:#F8BF14"/>
		</linearGradient>
		<polygon id="XMLID_428_" class="st30" points="171.5,215.5 174.1,215.7 174.1,244.9 171.5,245.1 		"/>
		<linearGradient id="XMLID_470_" gradientUnits="userSpaceOnUse" x1="15.492" y1="230.3142" x2="253.6158" y2="230.3142">
			<stop  offset="0" style="stop-color:#BCBEC0"/>
			<stop  offset="1" style="stop-color:#F8BF14"/>
		</linearGradient>
		<polygon id="XMLID_427_" class="st31" points="176.7,215.9 179.3,216.1 179.3,244.5 176.7,244.7 		"/>
		<linearGradient id="XMLID_485_" gradientUnits="userSpaceOnUse" x1="15.491" y1="230.3142" x2="253.6149" y2="230.3142">
			<stop  offset="0" style="stop-color:#BCBEC0"/>
			<stop  offset="1" style="stop-color:#F8BF14"/>
		</linearGradient>
		<polygon id="XMLID_421_" class="st32" points="181.9,216.3 184.5,216.5 184.5,244.1 181.9,244.3 		"/>
		<linearGradient id="XMLID_486_" gradientUnits="userSpaceOnUse" x1="15.491" y1="230.3142" x2="253.6148" y2="230.3142">
			<stop  offset="0" style="stop-color:#BCBEC0"/>
			<stop  offset="1" style="stop-color:#F8BF14"/>
		</linearGradient>
		<polygon id="XMLID_420_" class="st33" points="187.1,216.7 189.7,216.9 189.7,243.7 187.1,243.9 		"/>
		<linearGradient id="XMLID_487_" gradientUnits="userSpaceOnUse" x1="15.491" y1="230.3143" x2="253.6148" y2="230.3143">
			<stop  offset="0" style="stop-color:#BCBEC0"/>
			<stop  offset="1" style="stop-color:#F8BF14"/>
		</linearGradient>
		<polygon id="XMLID_419_" class="st34" points="192.3,217.1 194.9,217.3 194.9,243.4 192.3,243.6 		"/>
		<linearGradient id="XMLID_489_" gradientUnits="userSpaceOnUse" x1="15.491" y1="230.3143" x2="253.6148" y2="230.3143">
			<stop  offset="0" style="stop-color:#BCBEC0"/>
			<stop  offset="1" style="stop-color:#F8BF14"/>
		</linearGradient>
		<polygon id="XMLID_418_" class="st35" points="197.5,217.5 200.1,217.7 200.1,243 197.5,243.2 		"/>
		<linearGradient id="XMLID_490_" gradientUnits="userSpaceOnUse" x1="15.491" y1="230.3143" x2="253.6148" y2="230.3143">
			<stop  offset="0" style="stop-color:#BCBEC0"/>
			<stop  offset="1" style="stop-color:#F8BF14"/>
		</linearGradient>
		<polygon id="XMLID_417_" class="st36" points="202.7,217.8 205.3,218 205.3,242.6 202.7,242.8 		"/>
		<linearGradient id="XMLID_491_" gradientUnits="userSpaceOnUse" x1="15.491" y1="230.3142" x2="253.6148" y2="230.3142">
			<stop  offset="0" style="stop-color:#BCBEC0"/>
			<stop  offset="1" style="stop-color:#F8BF14"/>
		</linearGradient>
		<polygon id="XMLID_416_" class="st37" points="207.9,218.2 210.5,218.4 210.5,242.2 207.9,242.4 		"/>
		<linearGradient id="XMLID_492_" gradientUnits="userSpaceOnUse" x1="15.4933" y1="230.3142" x2="253.6171" y2="230.3142">
			<stop  offset="0" style="stop-color:#BCBEC0"/>
			<stop  offset="1" style="stop-color:#F8BF14"/>
		</linearGradient>
		<polygon id="XMLID_415_" class="st38" points="213.1,218.6 215.7,218.8 215.7,241.8 213.1,242 		"/>
		<linearGradient id="XMLID_493_" gradientUnits="userSpaceOnUse" x1="15.4909" y1="230.3142" x2="253.6148" y2="230.3142">
			<stop  offset="0" style="stop-color:#BCBEC0"/>
			<stop  offset="1" style="stop-color:#F8BF14"/>
		</linearGradient>
		<polygon id="XMLID_414_" class="st39" points="218.3,219 220.9,219.2 220.9,241.4 218.3,241.6 		"/>
		<linearGradient id="XMLID_509_" gradientUnits="userSpaceOnUse" x1="15.4909" y1="230.3143" x2="253.6148" y2="230.3143">
			<stop  offset="0" style="stop-color:#BCBEC0"/>
			<stop  offset="1" style="stop-color:#F8BF14"/>
		</linearGradient>
		<polygon id="XMLID_411_" class="st40" points="223.5,219.4 226.1,219.6 226.1,241.1 223.5,241.2 		"/>
		<linearGradient id="XMLID_510_" gradientUnits="userSpaceOnUse" x1="15.4909" y1="230.3143" x2="253.6147" y2="230.3143">
			<stop  offset="0" style="stop-color:#BCBEC0"/>
			<stop  offset="1" style="stop-color:#F8BF14"/>
		</linearGradient>
		<polygon id="XMLID_395_" class="st41" points="228.7,219.8 231.3,220 231.3,240.7 228.7,240.9 		"/>
		<linearGradient id="XMLID_511_" gradientUnits="userSpaceOnUse" x1="15.4909" y1="230.3143" x2="253.6147" y2="230.3143">
			<stop  offset="0" style="stop-color:#BCBEC0"/>
			<stop  offset="1" style="stop-color:#F8BF14"/>
		</linearGradient>
		<polygon id="XMLID_394_" class="st42" points="233.9,220.2 236.5,220.3 236.5,240.3 233.9,240.5 		"/>
		<linearGradient id="XMLID_513_" gradientUnits="userSpaceOnUse" x1="15.4935" y1="230.3142" x2="253.6174" y2="230.3142">
			<stop  offset="0" style="stop-color:#BCBEC0"/>
			<stop  offset="1" style="stop-color:#F8BF14"/>
		</linearGradient>
		<polygon id="XMLID_393_" class="st43" points="239.1,220.5 241.7,220.7 241.7,239.9 239.1,240.1 		"/>
		<linearGradient id="XMLID_514_" gradientUnits="userSpaceOnUse" x1="15.4909" y1="230.3142" x2="253.6147" y2="230.3142">
			<stop  offset="0" style="stop-color:#BCBEC0"/>
			<stop  offset="1" style="stop-color:#F8BF14"/>
		</linearGradient>
		<polygon id="XMLID_392_" class="st44" points="244.3,220.9 246.9,221.1 246.9,239.5 244.3,239.7 		"/>
		<linearGradient id="XMLID_515_" gradientUnits="userSpaceOnUse" x1="15.4909" y1="230.3142" x2="253.6147" y2="230.3142">
			<stop  offset="0" style="stop-color:#BCBEC0"/>
			<stop  offset="1" style="stop-color:#F8BF14"/>
		</linearGradient>
		<polygon id="XMLID_391_" class="st45" points="249.5,221.3 252.1,221.5 252.1,239.1 249.5,239.3 		"/>
	</g>
</g>
<text id="XMLID_413_" transform="matrix(1 0 0 1 7.5128 22.8119)" class="st46 st47 st48">Distribution Marchambul : moins de km, plus frais...</text>
<text id="XMLID_412_" transform="matrix(1 0 0 1 7.5118 160.5153)" class="st49 st47 st50">Grande distribution</text>
<text id="XMLID_389_" transform="matrix(1 0 0 1 301.7481 24.244)" class="st51 st47 st52">et moins d’intermédiaires</text>
<polygon id="XMLID_337_" class="st53" points="230.1,253.3 253.1,230.3 230.1,207.3 249.7,207.3 272.7,230.3 249.7,253.3 "/>
<path id="XMLID_325_" class="st54" d="M15.9,195.3c0.7,0,0.8,0.5,1,1.1c0.2,0,0.4-0.1,0.6-0.1c0,0.1,0.1,0.1,0.1,0.1
	c0,0.7-0.3,1.2-0.9,1.4c0,0.2-0.1,0.3-0.1,0.5c0.1,0.1,0.2,0.2,0.2,0.4c0.4,0.3,1.1,0.4,1.6,0.7v0.7c0.5,0.8,0.8,1.9,1.7,2.2
	c0.1,0.1,0.1,0.1,0.1,0.3c0.1-0.1,0.3-0.1,0.3-0.1c0.1-1.2,0.5-2.6,0.4-3.5c-0.3-0.3-1.2-0.4-1.5-0.6c-0.3-0.2-0.4-1,0-1.3
	c0,0.1-0.1,0.2,0,0.3c0.2,0.1,0.1-0.3,0.3-0.2c0,0.1-0.1,0.2,0,0.3c0.2,0.1,0.1-0.2,0.3-0.2c0,0.1-0.1,0.3,0.1,0.3
	c0.1,0,0-0.3,0.2-0.2c0.1,0-0.2,0.3,0,0.3c0.2,0,0.1-0.3,0.3-0.2c0,0.1-0.2,0.3,0,0.3c0.1,0,0.1-0.3,0.2-0.2c0,0.1-0.1,0.2,0,0.3
	c0.2,0.1,0.1-0.2,0.3-0.2c0,0.1-0.1,0.3,0.1,0.3c0.1,0,0.1-0.3,0.2-0.2c-0.1,0.1-0.1,0.3,0,0.2c0.2,0,0-0.3,0.2-0.2
	c0,0.1-0.1,0.3,0,0.3c0.2,0,0.1-0.2,0.2-0.2c0,0.1-0.1,0.2,0,0.3c0.2,0.1,0.1-0.2,0.3-0.2c0.1,0-0.2,0.2,0,0.2
	c0.2,0.1,0.1-0.2,0.3-0.2c0.1,0-0.1,0.3,0.1,0.3c0.1,0,0.1-0.3,0.2-0.2c0,0.1-0.1,0.2,0,0.3c0.2,0.1,0.2-0.4,0.3-0.2
	c0,0-0.2,0.3,0,0.2c0.1,0.1,0.1-0.3,0.3-0.2c-0.2,0.5-0.1,0.9-0.5,1.1c-0.6,0.3-1.5-0.1-1.7,0.6c-0.1,0.1,0,0.2,0,0.4
	c0,0.9-0.4,1.9-0.4,2.9c0.6,0.1,0.3,1.2-0.2,1.2c-0.6,4-1.3,8.2-1.9,12.3c-0.5-0.1-0.8,0.1-1.1,0c-0.3-0.1-0.4-0.7-0.9-0.7
	c0-0.6,0.3-1.1,0.2-1.7c0-0.2-0.2-0.3-0.2-0.4c-0.1-0.4,0.2-1.1-0.4-1.3c0-1.8-0.3-3.3-0.8-4.7c-0.4,1.3-0.6,2.8-0.6,4.4
	c0,0.1-0.2,0.1-0.1,0.2c0.1,0.1,0.1,0.2,0.1,0.4c-0.2,0.2-0.2,0.6-0.2,1c-0.4,0.3-0.2,0.9-0.3,1.3c0.2,0.3,0.3,1-0.2,1.1
	c0,0.6-1.1,0.7-1.3,0.3c0.3-0.5,0.6-1,0.7-1.7c0.1-0.6-0.3-1.1-0.4-1.6c0-0.1,0-0.3,0-0.3c-0.6-0.5,0.3-1.1,0.1-2
	c-0.4,0.4-1.6,0.4-2.1,0.1c-0.2-0.8-0.2-1.7-0.4-2.6c0.1-0.1,0.2-0.1,0.2-0.2c-0.3-0.2-0.1-1,0.1-1.2c0.4,0,0.4,0.4,0.6,0.5
	c0.1-0.2,0.1-0.5,0.1-0.7c0-0.1-0.2-0.1-0.2-0.2c0.2-0.7,0.4-1.6,0.2-2.4c0.1-0.2,0.2-0.4,0.4-0.6c0-0.2,0.1-0.2,0-0.4
	c0.2-0.2,0.2-0.5,0.2-0.8c0.1-1.2,0.7-2.1,0.9-3.2c0.5,0,0.9-0.3,1.4-0.2c0.1-0.1,0.1-0.3,0.3-0.4c0-0.1-0.1-0.3,0-0.5
	c-0.9-0.1-1.6-1.6,0-1.5c0-0.2,0.1-0.3,0.1-0.5C15.4,195.6,15.7,195.5,15.9,195.3 M23.2,198.1c-1.4-0.2-2.7-0.4-4-0.7
	c-0.1,1.4,1.8,0.7,1.9,1.9c-0.1,0,0,0.2,0,0C21.2,198.4,23.2,199.3,23.2,198.1 M17.8,202.3c-0.1,0.7-0.1,1.4-0.1,2.1
	c0,0.4,0.2,0.8,0.2,1.2c0.1,1.2,0,2.4,0.1,3.6c0,0.2,0.1,0.3,0.2,0.5c0,0.2-0.1,0.5-0.1,0.7c0,0.5,0,1.1,0,1.5
	c0,0.2,0.1,0.4,0.1,0.6c0,0.2-0.2,0.2-0.3,0.4c0,0.1-0.2,0.9-0.2,1c0,0.1,0.1,0.2,0.1,0.4c0.1,0.4,0,0.9,0.4,1.1
	c0.5-2.9,0.9-6,1.5-8.9c0.2-1,0.4-1.9,0.4-2.9c-0.2-0.1-0.2,0.4-0.4,0.4C18.9,203.6,18,203.3,17.8,202.3 M13.4,202.8
	c-0.2,0.6-0.4,1.1-0.5,1.7c-0.2,0-0.2,0-0.3,0c-0.3,0.3-0.3,0.9,0,1.1c0,0.4-0.1,0.7-0.4,0.8v0.6c0.1,0,0.2-0.1,0.4,0
	c0.2,0.1,0.2,0.3,0.2,0.5c0.2-0.1,0.3,0.1,0.3,0c0.3-1.4,0.1-2.8,0.4-4.1C13.5,203.2,13.4,203.1,13.4,202.8 M11.9,206.5
	c-0.1,0.2-0.1,0.5-0.1,0.8c0.1,0,0.1,0.1,0.3,0c0.1-0.2,0.1-0.5,0.1-0.8C12.1,206.5,12.1,206.5,11.9,206.5"/>
<path id="XMLID_319_" class="st54" d="M14.2,239.2c0.6,0,0.8,0.5,1,1c0.2,0,0.4-0.1,0.6-0.1c0,0.1,0.1,0.1,0.1,0.1
	c0,0.7-0.3,1.2-0.9,1.4c0,0.2-0.1,0.3-0.1,0.5c0.1,0.1,0.2,0.2,0.2,0.4c0.4,0.3,1.1,0.3,1.5,0.7v0.7c0.5,0.8,0.7,1.8,1.7,2.2
	c0.1,0.1,0.1,0.1,0.1,0.3c0.1-0.1,0.3-0.1,0.3-0.1c0.1-1.1,0.5-2.6,0.4-3.5c-0.3-0.3-1.1-0.4-1.5-0.6c-0.3-0.2-0.4-1,0-1.3
	c0,0.1-0.1,0.2,0,0.3c0.2,0.1,0.1-0.3,0.3-0.2c0,0.1-0.1,0.2,0,0.3c0.2,0.1,0.1-0.2,0.3-0.2c0,0.1-0.1,0.3,0.1,0.3
	c0.1,0,0-0.3,0.2-0.2c0.1,0-0.2,0.2,0,0.3c0.2,0,0.1-0.3,0.3-0.2c0,0.1-0.2,0.3,0,0.3c0.1,0,0.1-0.2,0.2-0.2c0,0.1-0.1,0.2,0,0.3
	c0.2,0,0.1-0.2,0.3-0.2c0,0.1-0.1,0.3,0.1,0.3c0.1,0,0.1-0.3,0.2-0.2c-0.1,0.1-0.1,0.3,0,0.2c0.2,0,0-0.3,0.2-0.2
	c0,0.1-0.1,0.3,0,0.3c0.2,0,0.1-0.2,0.2-0.2c0,0.1-0.1,0.2,0,0.3c0.2,0.1,0.1-0.2,0.3-0.2c0.1,0-0.1,0.2,0,0.2
	c0.2,0.1,0.1-0.2,0.3-0.2c0.1,0-0.1,0.3,0.1,0.3c0.1,0,0.1-0.3,0.2-0.2c0,0.1-0.1,0.2,0,0.3c0.2,0.1,0.1-0.3,0.3-0.2
	c0,0-0.2,0.3,0,0.2c0.1,0.1,0.1-0.2,0.3-0.2c-0.2,0.5-0.1,0.9-0.5,1.1c-0.6,0.3-1.5-0.1-1.7,0.6c-0.1,0.1,0,0.2,0,0.4
	c0,0.9-0.4,1.8-0.4,2.9c0.5,0.1,0.3,1.1-0.2,1.2c-0.6,3.9-1.2,8.1-1.9,12c-0.5-0.1-0.7,0.1-1.1,0c-0.3-0.1-0.4-0.7-0.8-0.7
	c0-0.6,0.3-1,0.2-1.6c0-0.2-0.2-0.3-0.2-0.4c-0.1-0.4,0.2-1-0.4-1.3c0-1.8-0.3-3.2-0.8-4.6c-0.4,1.3-0.6,2.7-0.6,4.3
	c0,0.1-0.2,0.1-0.1,0.2c0.1,0.1,0.1,0.2,0.1,0.4c-0.2,0.2-0.2,0.5-0.2,1c-0.4,0.3-0.2,0.9-0.3,1.3c0.2,0.3,0.3,1-0.2,1
	c0,0.5-1.1,0.7-1.3,0.3c0.3-0.5,0.6-1,0.7-1.6c0.1-0.6-0.3-1-0.4-1.5c0-0.1,0-0.3,0-0.3c-0.6-0.5,0.3-1.1,0.1-1.9
	c-0.4,0.3-1.6,0.4-2,0.1c-0.1-0.8-0.2-1.7-0.4-2.5c0.1-0.1,0.2-0.1,0.2-0.2c-0.3-0.2-0.1-1,0.1-1.2c0.4,0,0.4,0.4,0.6,0.5
	c0.1-0.2,0.1-0.5,0.1-0.7c0-0.1-0.2-0.1-0.2-0.2c0.2-0.7,0.4-1.6,0.2-2.4c0.1-0.2,0.2-0.4,0.4-0.6c0-0.2,0.1-0.2,0-0.4
	c0.2-0.2,0.2-0.5,0.2-0.8c0.1-1.1,0.7-2.1,0.9-3.1c0.5,0,0.9-0.3,1.3-0.2c0.1-0.1,0.1-0.3,0.3-0.4c0-0.1-0.1-0.3,0-0.5
	c-0.8-0.1-1.5-1.6,0-1.5c0-0.2,0.1-0.3,0.1-0.5C13.8,239.5,14,239.3,14.2,239.2 M21.4,241.9c-1.3-0.2-2.6-0.4-3.9-0.6
	c-0.1,1.4,1.8,0.7,1.8,1.9c-0.1,0,0,0.2,0,0C19.4,242.2,21.4,243,21.4,241.9 M16.1,246c-0.1,0.7-0.1,1.4-0.1,2
	c0,0.4,0.2,0.8,0.2,1.2c0.1,1.2,0,2.4,0.1,3.5c0,0.2,0.1,0.3,0.2,0.5c0,0.2-0.1,0.5-0.1,0.7c0,0.5,0,1.1,0,1.5
	c0,0.2,0.1,0.4,0.1,0.6c0,0.2-0.2,0.2-0.3,0.4c0,0.1-0.2,0.9-0.2,1c0,0.1,0.1,0.2,0.1,0.4c0.1,0.4,0,0.9,0.4,1
	c0.5-2.9,0.9-5.8,1.4-8.7c0.2-0.9,0.4-1.9,0.4-2.8c-0.2-0.1-0.2,0.4-0.4,0.4C17.2,247.3,16.3,247,16.1,246 M11.8,246.5
	c-0.2,0.5-0.4,1.1-0.5,1.7c-0.1,0-0.2,0-0.3,0c-0.2,0.2-0.3,0.9,0,1.1c0,0.4-0.1,0.7-0.4,0.8v0.6c0.1,0,0.2-0.1,0.4,0
	c0.2,0.1,0.2,0.3,0.2,0.5c0.2-0.1,0.2,0.1,0.3,0c0.3-1.4,0.1-2.8,0.4-4C11.9,246.9,11.8,246.8,11.8,246.5 M10.4,250.1
	c-0.1,0.2-0.1,0.5-0.1,0.8c0.1,0,0.1,0.1,0.3,0c0.1-0.2,0.1-0.5,0.1-0.8C10.5,250.1,10.5,250.1,10.4,250.1"/>
<path id="XMLID_313_" class="st54" d="M13.8,218.3c0.6,0,0.8,0.5,0.9,1c0.2,0,0.3-0.1,0.6-0.1c0,0.1,0.1,0.1,0.1,0.1
	c0,0.7-0.3,1.1-0.9,1.3c0,0.2-0.1,0.3-0.1,0.5c0.1,0.1,0.2,0.2,0.1,0.4c0.4,0.3,1,0.3,1.5,0.6v0.6c0.5,0.8,0.7,1.7,1.6,2.1
	c0,0.1,0.1,0.1,0.1,0.3C17.8,225,18,225,18,225c0.1-1.1,0.5-2.4,0.4-3.3c-0.3-0.3-1.1-0.4-1.4-0.6c-0.3-0.2-0.4-1,0-1.2
	c0,0.1-0.1,0.2,0,0.3c0.2,0,0.1-0.2,0.3-0.2c0,0.1-0.1,0.2,0,0.3c0.2,0.1,0.1-0.2,0.3-0.2c0,0.1-0.1,0.3,0.1,0.3
	c0.1,0,0-0.3,0.2-0.2c0.1,0-0.2,0.2,0,0.3c0.2,0,0.1-0.3,0.3-0.2c0,0.1-0.2,0.3,0,0.3c0.1,0,0.1-0.2,0.2-0.2c0,0.1-0.1,0.2,0,0.3
	c0.2,0,0.1-0.2,0.3-0.2c0,0.1-0.1,0.3,0.1,0.3c0.1,0,0.1-0.3,0.2-0.2c-0.1,0.1-0.1,0.2,0,0.2c0.2,0,0-0.3,0.2-0.2
	c0,0.1-0.1,0.3,0,0.3c0.1,0,0.1-0.2,0.2-0.2c0,0.1-0.1,0.2,0,0.3c0.2,0.1,0.1-0.2,0.3-0.2c0.1,0-0.1,0.2,0,0.2
	c0.2,0.1,0.1-0.2,0.3-0.2c0,0-0.1,0.2,0.1,0.3c0.1,0,0.1-0.2,0.2-0.2c0,0.1-0.1,0.2,0,0.3c0.2,0.1,0.1-0.3,0.3-0.2
	c0,0-0.2,0.2,0,0.2c0.1,0.1,0.1-0.2,0.3-0.2c-0.2,0.5-0.1,0.8-0.5,1.1c-0.6,0.3-1.4-0.1-1.6,0.5c-0.1,0.1,0,0.2,0,0.3
	c0,0.8-0.4,1.7-0.4,2.7c0.5,0,0.3,1.1-0.2,1.1c-0.5,3.7-1.2,7.6-1.8,11.4c-0.4-0.1-0.7,0.1-1,0c-0.2-0.1-0.4-0.7-0.8-0.6
	c0-0.6,0.3-1,0.2-1.5c0-0.1-0.2-0.3-0.2-0.4c-0.1-0.4,0.1-1-0.3-1.2c0-1.7-0.3-3.1-0.8-4.3c-0.3,1.2-0.5,2.6-0.6,4.1
	c0,0.1-0.1,0.1-0.1,0.2c0.1,0.1,0.1,0.2,0.1,0.4c-0.2,0.2-0.2,0.5-0.2,0.9c-0.4,0.3-0.2,0.8-0.3,1.2c0.2,0.3,0.3,0.9-0.1,1
	c0,0.5-1,0.7-1.2,0.3c0.3-0.4,0.6-1,0.6-1.5c0.1-0.6-0.3-1-0.4-1.5c0-0.1,0-0.2,0-0.3c-0.5-0.5,0.3-1,0.1-1.8
	c-0.4,0.3-1.5,0.4-1.9,0.1c-0.1-0.8-0.2-1.6-0.4-2.4c0.1-0.1,0.2-0.1,0.2-0.2c-0.3-0.2-0.1-0.9,0.1-1.1c0.4,0,0.3,0.4,0.6,0.5
	c0.1-0.2,0.1-0.5,0.1-0.7c0-0.1-0.2-0.1-0.2-0.2c0.1-0.7,0.3-1.5,0.2-2.3c0.1-0.2,0.2-0.4,0.3-0.5c0-0.2,0.1-0.2,0-0.3
	c0.2-0.2,0.2-0.4,0.2-0.7c0.1-1.1,0.6-2,0.9-2.9c0.4,0,0.9-0.3,1.3-0.2c0.1-0.1,0.1-0.3,0.3-0.3c0-0.1-0.1-0.3,0-0.5
	c-0.8-0.1-1.4-1.5,0-1.4c0-0.2,0.1-0.3,0.1-0.5C13.4,218.6,13.7,218.5,13.8,218.3 M20.6,220.9c-1.2-0.2-2.5-0.4-3.7-0.6
	c-0.1,1.3,1.7,0.6,1.7,1.8c-0.1,0,0,0.2,0,0C18.8,221.2,20.6,222,20.6,220.9 M15.6,224.8c-0.1,0.6-0.1,1.3-0.1,1.9
	c0,0.4,0.2,0.7,0.2,1.1c0.1,1.1,0,2.2,0.1,3.3c0,0.2,0.1,0.3,0.1,0.5c0,0.2-0.1,0.4-0.1,0.7c0,0.5,0,1,0,1.4c0,0.2,0.1,0.4,0.1,0.6
	c0,0.2-0.2,0.2-0.3,0.4c0,0.1-0.2,0.8-0.2,0.9c0,0.1,0.1,0.2,0.1,0.3c0.1,0.4,0,0.9,0.4,1c0.5-2.7,0.9-5.5,1.4-8.3
	c0.2-0.9,0.4-1.8,0.4-2.7c-0.2-0.1-0.2,0.4-0.4,0.4C16.7,226.1,15.9,225.7,15.6,224.8 M11.6,225.3c-0.2,0.5-0.4,1-0.5,1.6
	c-0.1,0-0.2,0-0.3,0c-0.2,0.2-0.3,0.8,0,1c0,0.3-0.1,0.6-0.3,0.7v0.5c0.1,0,0.2-0.1,0.3,0c0.1,0.1,0.2,0.3,0.2,0.5
	c0.2-0.1,0.2,0.1,0.3,0c0.3-1.3,0.1-2.6,0.3-3.8C11.6,225.6,11.5,225.5,11.6,225.3 M10.2,228.7c-0.1,0.2-0.1,0.5-0.1,0.7
	c0.1,0,0.1,0.1,0.3,0c0.1-0.2,0.1-0.4,0.1-0.7C10.3,228.7,10.3,228.7,10.2,228.7"/>
<path id="XMLID_306_" class="st54" d="M167.7,229c-0.3,1,0.1,3,0.5,4.1c0.2-0.2,0.7,0,0.6-0.5c0.4,1.2-0.5,3.6,0,4.8
	c-0.2-0.3-0.7-0.3-0.8,0.1c-0.4,0.7,0.8,0.1,0.7,0.6c-1,0.9-3.7,0.6-4.9,0c0.1,2.6-4.3,3-3.9,0c-0.6-0.2-0.5,1.5-0.6,0.2
	c-5.2-0.2-10.4-0.2-15.5,0c-0.1,2.1-3.9,3-4.1,0.2c-0.9,0,0.1,0.8-0.3,1c-0.5-0.4-0.2-1.6-0.1-2.1c-2.3-1-3.7,1.3-4.8,1.3
	c-0.2-1.1,1-0.1,1.1-1.1c-0.3-0.7-1.4,0.8-1.4-0.3c-0.2-1,1.2,0.3,1.3-0.5c0.1-0.7-0.9-0.2-1.4-0.3c-0.6,0.1,0.4,1.4-0.5,1.2
	c-0.1-1,0-1.7-0.7-1.5c-0.2-2.5-0.5-5-0.7-7.5c0.8-0.1,0.4,1.2,0.9,1.3c0.8-1.4-0.3-4.3-0.2-6.4c8.7-0.7,18-1.3,26.4-0.5
	c-0.1,1.9-0.1,3.8-0.2,5.8c0.8,0.1,0.3-1.2,0.5-1.7c2.8,0.1,5.4,0.4,8,0.9C168.2,228.8,168.5,230.5,167.7,229 M162.2,231.7
	c2.1,0.1,2.5,1.7,4.4,1.1c-0.5,0,0.1-0.5,0.4-0.4c0.2-1.3-0.3-2-0.4-3.1c-1.4-0.1-2.9-0.2-4.3-0.3
	C162.3,229.9,162.3,230.8,162.2,231.7 M160,231.4c0.5,0,1.1,0,1.6,0.1c0-0.8,0.1-1.5,0.1-2.3c-0.5,0-1.1-0.1-1.6-0.1
	C160.1,229.8,160,230.6,160,231.4 M167.7,236.7c0.3,0,0.5,0,0.8,0.1c0-0.3,0.1-0.6,0.1-1c-0.3,0-0.5,0-0.8-0.1
	C167.7,236,167.7,236.3,167.7,236.7 M140.9,239.2c1.3,0.8,2.3-1,1.3-1.8c-1.4-0.2-2.1,1-1.3,1.6c0.3-0.3,0.2-0.9-0.1-1.2
	c0.4,0.2,1.2-0.2,1.4,0.1c-0.7,0.2,0.5,0,0.2,0.6c-0.4,0-0.4,0.2-0.2,0.4c-0.4-0.4-0.4,0.1-0.8,0.2
	C141.6,238.5,140.8,238.9,140.9,239.2 M162.9,237.9c-0.3-0.3-1.5-0.8-1.8-0.1c0.5,0.1,1-0.1,1.4,0.3c-0.5-0.2,0.1,0.9-0.4,0.7
	c-1,0.2-0.5-0.9-1.1-1c0.2,0.4-0.6,0.6,0,0.8c0.1-0.1,0-0.4,0.2-0.4C160.2,239.8,163.4,240,162.9,237.9"/>
<path id="XMLID_299_" class="st54" d="M66,214.1c-0.3,0.9,0.1,2.6,0.4,3.5c0.2-0.2,0.6,0,0.6-0.4c0.4,1.1-0.4,3.1,0,4.1
	c-0.2-0.2-0.6-0.3-0.7,0.1c-0.3,0.6,0.7,0.1,0.6,0.6c-0.8,0.8-3.2,0.5-4.2,0c0.1,2.3-3.7,2.5-3.3,0c-0.5-0.2-0.4,1.3-0.5,0.1
	c-4.4-0.4-18.1-0.4-22.5,0c-0.1,1.8-3.3,2.6-3.5,0.2c-0.8,0,0.1,0.7-0.3,0.8c-0.4-0.3-0.2-1.4-0.1-1.8c-2-0.9-3.1,1.2-4.1,1.2
	c-0.2-0.9,0.8-0.1,0.9-0.9c-0.3-0.6-1.2,0.7-1.2-0.2c-0.1-0.9,1,0.2,1.1-0.4c0.1-0.6-0.8-0.1-1.2-0.2c-0.5,0,0.4,1.2-0.4,1
	c-0.1-0.8,0-1.4-0.6-1.3c-0.2-2.1-0.4-4.3-0.6-6.4c0.7-0.1,0.3,1,0.8,1.1c0.7-1.2-0.2-3.7-0.2-5.4c7.3-0.8,24.9-1.5,32-0.5
	c-0.1,1.6-0.2,3.3-0.2,4.9c0.7,0.1,0.2-1,0.4-1.5c2.4,0.1,4.6,0.4,6.7,0.8C66.4,213.9,66.6,215.4,66,214.1 M61.3,216.4
	c1.8,0.1,2.1,1.5,3.7,0.9c-0.4,0,0.1-0.4,0.4-0.3c0.2-1.1-0.2-1.8-0.3-2.7c-1.2-0.1-2.4-0.2-3.6-0.3
	C61.4,214.9,61.4,215.6,61.3,216.4 M59.4,216.1c0.5,0,0.9,0.1,1.4,0.1c0-0.7,0.1-1.3,0.1-2c-0.5,0-0.9-0.1-1.4-0.1
	C59.5,214.8,59.5,215.5,59.4,216.1 M65.9,220.7c0.2,0,0.4,0,0.7,0.1c0-0.3,0-0.5,0.1-0.8c-0.2,0-0.4,0-0.7-0.1
	C66,220.2,65.9,220.4,65.9,220.7 M33.9,222.8c1.1,0.7,2-0.9,1.1-1.6c-1.2-0.2-1.8,0.8-1.1,1.4c0.2-0.2,0.2-0.8-0.1-1
	c0.3,0.2,1-0.2,1.2,0.1c-0.6,0.2,0.5,0,0.2,0.5c-0.3,0-0.3,0.1-0.1,0.3c-0.4-0.3-0.3,0.1-0.7,0.2C34.5,222.2,33.8,222.5,33.9,222.8
	 M61.8,221.7c-0.3-0.2-1.3-0.7-1.5-0.1c0.5,0.1,0.9-0.1,1.2,0.2c-0.4-0.1,0.1,0.8-0.4,0.6c-0.9,0.2-0.4-0.8-0.9-0.9
	c0.1,0.3-0.5,0.5,0,0.7c0-0.1,0-0.3,0.2-0.3C59.5,223.3,62.2,223.5,61.8,221.7"/>
<path id="XMLID_298_" class="st54" d="M113.3,229.1c-1,2.4-2,5.4-3,8.2c-0.6,1.5-0.9,3.3-3.3,3.1c-0.2-2.2-0.3-4.4-0.5-6.7
	c-0.5-0.4-0.9-0.8-1.4-1.2c-0.3-0.3-1.1-1-1.6-1.1c-0.5-0.1-2.1,0.3-2.8,0.4c-2.8,0.4-6,0.5-8.7,0.6c-0.3,0.7-0.2,1.6-0.5,2.3
	c-1.1,0.9-1.7-0.2-2.4-1c-0.5-0.6-1-1.2-1.3-1.5c-0.7,0-1.3,0-1.7-0.3c0-0.4,0-0.8,0.4-0.9c-1.6-1.5-3.5-2.7-5.1-4.3
	c0.9-1.1,2.4-0.3,3.4,0.1c1.1,0.4,2.2,1,3.2,1.3c-0.2-1.2-0.4-2.3-0.5-3.6c0.9-0.3,1.7-0.2,2.4,0.3c1.2,0.9,2.5,2.6,3.7,3.4
	c1.9-0.4,3.6-0.9,5.4-1.4c-2.2-2.6-5.8-4.2-9.1-5.9c-2.2-1.1-4.3-2.4-6.4-3.4c1.1-2,2.9-1,5-0.4c6.4,2,12.4,3.8,18.8,5.8
	c1,0.3,2.4,0.9,3.1,0.9c1,0,2.5-0.6,3.8-1c1.3-0.4,2.8-0.6,3.8-1c1.4-0.5,2.6-1.4,4.4-1c0.4,0.1,0.8,0.4,1.4,0.5
	c1.3,0.4,2.9,0.1,2.9,1.7c0,1.1-1.5,2-2.3,2.4C121.3,227.2,117,228.2,113.3,229.1"/>
<path id="XMLID_297_" class="st54" d="M84,252.3c-0.7,0.6-1.7-0.8-2.6-0.8c-1.2-0.1-2.7,1.1-4.2,1.1c-1.7,0-3.4-1.4-4.8-1.4
	c-1.7,0-3.3,1.5-5.1,1.4c-2-0.1-2.7-1.6-4.5-1.7c-2,0.5-2.9,1.4-4.9,1.4c-1.9,0-3-1.7-4.5-1.7c-1.9,0-3.1,1.4-4.6,1.4
	c-1.3,0-2.3-1.2-4-1.5c-1.6-0.2-2.9,0.7-4.4,0.9c1.4-4.5,4.5-1.1,7.5-0.8c2,0.2,4.3-1.3,6-1.2c1.7,0.1,2.9,1.5,4.3,1.5
	c1.4,0,2.7-1.3,4.4-1.4c1.3,0,2.5,1.3,4,1.5c1.7,0.2,3.3-1.1,5.3-1.2c1.6,0,3,1.4,4.5,1.5C79.6,251.3,83.3,248,84,252.3"/>
<path id="XMLID_286_" class="st54" d="M43.3,243.9c1.5,0.9,4.2,0.5,6.6,0.4c0-0.5-0.8-0.1-1.2-0.2c4.8-4.8,16.8-3,24.6-5
	c0.8,1.2,2.6,0.1,4.5,0.3c0.2,3.7-0.6,6.5-1,9.7c1.2-2.5,1-6.3,1.5-9.4c3.3,0,5.3,1.3,6.9,3c-0.5,2.4-0.6,5.3-1.1,7.8
	c-2-1.9-4.6-0.8-7.5-0.2c0.2-0.2,0.2-0.5,0.2-0.9c-0.5,0.1,0,1-0.7,1c-1.6,0-2.1-1.1-3.6-1.3c-2-0.2-3.7,1.3-5.6,1.2
	c-1.3-0.1-2.3-1.4-3.6-1.5c-2-0.2-3.8,1.3-5.8,1.2c-1.8-0.1-2.4-1.1-4.3-1.7c-2.2,0.5-3.3,1.8-5.3,1.6c-2.5-0.2-4.9-3.2-7.8-0.6
	c-0.6-2-2.1-3.9-1.4-6.5c1-0.3,1.8-0.8,1.5-2.2c0.8,0.1,2.2-0.4,2.6,0.1c0.3-0.4,0.4-1.4,1.1-0.8c0.4-2-0.7-2.5-1.1-3.7
	c4.3-0.6,8.8-0.1,12.2,0.9c0.3,0.8-0.7,0.4-1.1,0.5c-0.3,1.5,0.6,1.8,0.8,2.8c-1.8,1.7-5.6,1.6-6.9,3.8
	C46.2,244.3,44.9,243.9,43.3,243.9 M47.1,239.2c0.9,0,1.7-0.1,2.6-0.1c0-0.4,0-0.8,0-1.2c-0.6-0.1-1.3-0.2-2.6-0.1
	C47.1,238.3,47.1,238.8,47.1,239.2 M50.3,237.9c0,0.4,0,0.8,0,1.2c1-0.2,2.8,0.3,3-0.6c-0.3,0-0.3-0.4-0.3-0.7
	C51.8,238,51.3,237.6,50.3,237.9 M45.9,239.3c-0.1-0.5,0-0.9,0.2-1.2c-0.4,0-0.8,0-1.2,0C44.9,239,45.1,239.5,45.9,239.3
	 M67.4,241.4c0,0.7,1.8-0.5,2.8-0.4C71.2,240.1,68.2,241.4,67.4,241.4 M42.8,243.6c-1,0.1-1.6-0.4-1.9-1.1c-0.1,0.5,0.1,0.9,0.3,1.2
	C41.8,243.6,43.3,244.2,42.8,243.6 M73.9,241.9c0.8-0.1,2.6-0.3,2.3-0.6C75.3,241.3,74.4,241.3,73.9,241.9 M79.6,241.6
	c-0.7-0.4,1.5,1.2,1.9,0.4C80.7,242,80.4,241.5,79.6,241.6 M61.8,243.1c1.1-0.2,2.2-0.3,3-0.8C63.7,242.3,61.8,242.8,61.8,243.1
	 M50.1,244.3c3.5,0.2,8.3-0.1,11.2-1.2C58.1,243.9,53.6,243.6,50.1,244.3"/>
<linearGradient id="XMLID_516_" gradientUnits="userSpaceOnUse" x1="48.8516" y1="94.9204" x2="213.9326" y2="94.9204">
	<stop  offset="0" style="stop-color:#D4D826"/>
	<stop  offset="1" style="stop-color:#96BF54"/>
</linearGradient>
<line id="XMLID_284_" class="st55" x1="48.9" y1="94.9" x2="213.9" y2="94.9"/>
<polygon id="XMLID_282_" class="st56" points="191.9,115.9 212.9,94.9 191.9,74 209.7,74 230.7,94.9 209.7,115.9 "/>
<text id="XMLID_261_" transform="matrix(1 0 0 1 9.0104 39.6358)"><tspan x="0" y="0" class="st57 st58">A</tspan><tspan x="6.3" y="0" class="st57 st58">gri</tspan><tspan x="17" y="0" class="st57 st58">c</tspan><tspan x="21.1" y="0" class="st57 st58">ul</tspan><tspan x="28.5" y="0" class="st57 st58">t</tspan><tspan x="31.3" y="0" class="st57 st58">eu</tspan><tspan x="40.5" y="0" class="st57 st58">r</tspan><tspan x="43.7" y="0" class="st57 st58">s locau</tspan><tspan x="70.2" y="0" class="st57 st58">x</tspan><tspan x="74.5" y="0" class="st57 st58">, </tspan><tspan x="0" y="10.8" class="st57 st58">culture diversifiée</tspan></text>
<text id="XMLID_258_" transform="matrix(1 0 0 1 8.4635 176.1729)"><tspan x="0" y="0" class="st57 st58">P</tspan><tspan x="5" y="0" class="st57 st58">r</tspan><tspan x="8" y="0" class="st57 st58">oduc</tspan><tspan x="26.7" y="0" class="st57 st58">t</tspan><tspan x="29.5" y="0" class="st57 st58">eu</tspan><tspan x="38.7" y="0" class="st57 st58">r</tspan><tspan x="41.9" y="0" class="st57 st58">s lointains,</tspan><tspan x="0" y="10.8" class="st57 st58">monoculture</tspan></text>
<g id="XMLID_254_">
	<text id="XMLID_231_" transform="matrix(1 0 0 1 272.8922 241.2842)" class="st57 st59">Un panier</text>
</g>
<g id="XMLID_26_">
	<text id="XMLID_218_" transform="matrix(1 0 0 1 229.0677 274.2842)" class="st57 st59">(*moyenne pour une carotte)</text>
</g>
<g id="XMLID_253_">
	<text id="XMLID_137_" transform="matrix(1 0 0 1 276.3033 252.6885)" class="st57 st59">habituel</text>
</g>
<g id="XMLID_252_">
	<text id="XMLID_135_" transform="matrix(1 0 0 1 229.068 105.6729)" class="st60 st61">Un panier</text>
</g>
<text id="XMLID_41_" transform="matrix(1 0 0 1 229.068 117.1974)" class="st56 st62 st63">Marchambul</text>
<path id="XMLID_244_" class="st64" d="M39.2,60.2c1.6,0.1,2.1,1.3,2.5,2.6c0.6,0,0.9-0.2,1.5-0.2c0.1,0.1,0.2,0.2,0.3,0.3
	c-0.1,1.8-0.9,3-2.3,3.5c-0.1,0.5-0.3,0.8-0.3,1.3c0.3,0.2,0.5,0.5,0.4,1c1.1,0.7,2.8,0.9,4,1.7v1.7c1.2,2.1,1.9,4.7,4.3,5.6
	c0.1,0.2,0.3,0.3,0.2,0.7c0.2-0.3,0.7-0.3,0.8-0.3c0.2-2.9,1.3-6.5,1.1-8.8c-0.8-0.8-2.9-0.9-3.9-1.6c-0.8-0.6-1-2.6-0.1-3.3
	c0,0.3-0.4,0.6-0.1,0.7c0.6,0.1,0.3-0.6,0.8-0.6c0,0.3-0.4,0.6-0.1,0.7c0.6,0.2,0.3-0.6,0.8-0.5c-0.1,0.3-0.2,0.7,0.2,0.7
	c0.3-0.1,0.1-0.7,0.5-0.6c0.2,0.1-0.4,0.6,0.1,0.7c0.5,0,0.2-0.7,0.7-0.6c0,0.3-0.4,0.7,0.1,0.7c0.4,0,0.2-0.6,0.6-0.6
	c0.1,0.3-0.3,0.6,0,0.7c0.5,0.1,0.2-0.6,0.7-0.5c-0.1,0.2-0.3,0.8,0.2,0.7c0.2-0.1,0.3-0.8,0.6-0.5C52.8,65.5,52.6,66,53,66
	c0.4,0,0.1-0.7,0.6-0.6c0,0.2-0.3,0.7,0.1,0.7c0.4,0,0.2-0.6,0.6-0.6c0.1,0.3-0.3,0.6,0,0.7c0.6,0.1,0.3-0.5,0.7-0.5
	c0.3,0-0.4,0.5,0,0.6c0.6,0.2,0.3-0.5,0.7-0.5c0.1,0-0.2,0.7,0.2,0.7c0.3-0.1,0.2-0.6,0.6-0.6c0,0.2-0.3,0.6,0,0.7
	c0.6,0.2,0.4-0.9,0.8-0.5c-0.1,0.1-0.4,0.7,0,0.6c0.4,0.3,0.3-0.6,0.7-0.6c-0.6,1.3-0.2,2.2-1.3,2.8c-1.5,0.8-3.7-0.2-4.4,1.4
	c-0.1,0.4,0,0.6,0,0.9c-0.1,2.3-0.9,4.6-1.1,7.3c1.4,0.1,0.7,2.9-0.5,3c-1.5,10-3.1,20.6-4.8,30.8c-1.2-0.3-1.9,0.4-2.7-0.1
	c-0.7-0.4-1-1.8-2.1-1.7c0-1.5,0.9-2.7,0.5-4.2c-0.1-0.4-0.4-0.7-0.5-1.1c-0.2-1.1,0.4-2.7-0.9-3.4c0.1-4.6-0.8-8.3-2-11.7
	c-0.9,3.3-1.5,6.9-1.6,11c-0.1,0.2-0.4,0.2-0.3,0.6c0.2,0.2,0.2,0.6,0.2,1c-0.5,0.5-0.6,1.4-0.5,2.4c-1,0.8-0.6,2.2-0.7,3.4
	c0.5,0.7,0.7,2.5-0.4,2.6c0.1,1.4-2.7,1.8-3.4,0.7c0.7-1.2,1.6-2.6,1.7-4.2c0.1-1.5-0.7-2.6-1.1-4c0-0.3-0.1-0.7,0.1-0.8
	c-1.4-1.4,0.7-2.8,0.3-5c-1,0.9-4,1-5.2,0.2c-0.4-2.1-0.6-4.4-1-6.4c0.2-0.2,0.5-0.2,0.6-0.4c-0.8-0.6-0.3-2.5,0.3-2.9
	c1,0,0.9,1,1.6,1.2c0.2-0.5,0.2-1.3,0.3-1.8c0-0.3-0.5-0.2-0.5-0.6c0.4-1.9,0.9-4.1,0.6-6.1c0.2-0.5,0.5-1,0.9-1.4
	c-0.1-0.4,0.2-0.5,0.1-0.9c0.5-0.5,0.4-1.2,0.5-1.9c0.2-2.9,1.7-5.3,2.3-7.9c1.2-0.1,2.3-0.8,3.5-0.6c0.2-0.3,0.4-0.8,0.8-0.9
	c-0.1-0.4-0.1-0.7-0.1-1.2c-2.2-0.3-3.9-4-0.1-3.8c-0.1-0.6,0.2-0.8,0.3-1.2C38.2,61,38.7,60.7,39.2,60.2 M57.5,67.2
	c-3.4-0.5-6.7-1.1-10.1-1.6c-0.3,3.5,4.6,1.7,4.7,4.8c-0.2,0.1,0,0.5,0,0.1C52.6,68,57.5,70.1,57.5,67.2 M44,77.7
	c-0.3,1.7-0.2,3.6-0.3,5.2c-0.1,1,0.4,2,0.5,3c0.2,2.9-0.1,6,0.3,8.9c0.1,0.5,0.4,0.9,0.4,1.3c0.1,0.6-0.2,1.2-0.2,1.8
	c0,1.3,0,2.7,0.1,3.9c0,0.5,0.4,1.1,0.3,1.5c-0.1,0.5-0.5,0.6-0.7,1.1c-0.1,0.3-0.5,2.2-0.5,2.5c0,0.3,0.2,0.6,0.3,0.9
	c0.2,1,0,2.4,1.1,2.6c1.4-7.3,2.3-14.9,3.7-22.3c0.4-2.4,1.1-4.8,1-7.2c-0.5-0.2-0.5,1.1-1.1,1.1C46.9,81,44.7,80.2,44,77.7
	 M33.1,79.1c-0.5,1.4-1,2.8-1.3,4.4c-0.4,0.1-0.5-0.1-0.8-0.1c-0.6,0.6-0.7,2.3,0.1,2.7c0,0.9-0.2,1.7-0.9,1.9v1.4
	c0.4-0.1,0.6-0.3,0.9-0.1c0.4,0.2,0.5,0.7,0.5,1.3c0.4-0.3,0.6,0.2,0.8,0.1c0.7-3.5,0.3-7,0.9-10.4C33.3,79.9,33,79.7,33.1,79.1
	 M29.4,88.1c-0.2,0.6-0.1,1.3-0.3,1.9c0.3,0,0.4,0.2,0.7,0.1C30,89.6,30,89,30,88.2C29.7,88.1,29.8,88.2,29.4,88.1"/>
<g id="XMLID_18_">
	<path id="XMLID_216_" class="st65" d="M109.7,91c0.1,1,1,1.7,2,1.6c0.2,0,0.4-0.1,0.6-0.2c0.2,0,0.4,0.1,0.6,0
		c1-0.1,1.6-1.1,1.5-2.1c-0.1-1-1-1.7-2-1.6c-0.2,0-0.3,0.1-0.5,0.1c0,0,0,0,0,0c0,0-0.1,0-0.1,0c0,0,0,0-0.1,0c0,0,0,0,0,0
		c-0.2,0-0.4,0-0.5,0C110.2,89.1,109.5,90,109.7,91z"/>
	<path id="XMLID_215_" class="st66" d="M109.7,87.7c0,0,0.4,0.7,1,0.8c0.6,0.1,0.9,0.3,1,0.3c0,0,0,0,0,0c0,0,0,0,0,0c0,0,0,0,0-0.1
		c0,0,0,0,0,0c0,0,0,0,0,0s0,0,0,0l0,0c0-0.2-0.3-0.8-0.7-1C110.5,87.5,109.7,87.7,109.7,87.7z"/>
	<path id="XMLID_214_" class="st67" d="M111.7,89C111.7,89,111.7,89,111.7,89c0.1,0,0.1,0,0.1,0c0,0,0,0,0,0c0,0,0,0,0,0
		c0-0.3,0-1,0.1-1.1c0.1-0.1,0.2-0.1,0.1-0.3c0-0.1-0.3-0.2-0.4,0.1c-0.1,0.2,0,1,0,1.1c0,0,0,0,0,0c0,0,0,0,0,0.1
		C111.7,88.9,111.7,88.9,111.7,89C111.7,88.9,111.7,88.9,111.7,89C111.7,88.9,111.7,88.9,111.7,89L111.7,89
		C111.7,89,111.7,89,111.7,89z"/>
	<line id="XMLID_213_" class="st65" x1="111.7" y1="88.7" x2="111.7" y2="88.7"/>
	<line id="XMLID_212_" class="st65" x1="111.7" y1="88.7" x2="111.7" y2="88.7"/>
	<path id="XMLID_533_" class="st46" d="M113.6,88.3c0.5,0.4,0.9,0.9,1.1,1.5c0,0.1,0.1,0.1,0.1,0.2c0.1,0.1,0.2,0.2,0.4,0.1
		c0.4-0.3,0.8-0.5,1.3-0.8c0.1-0.1,0.1-0.2,0-0.4c-0.2-0.2-0.4-0.5-0.6-0.7c-0.4-0.5-0.6-1.1-0.7-1.7c0-0.1,0-0.3-0.1-0.4
		c0-0.1,0-0.1,0-0.1l0,0c0,0,0,0,0,0c-0.3,0.1-0.4,0.2-1,0.3c0,0.2,0,0.2,0,0.2c0,0.1,0,0.1,0,0.2c0.1,0.4,0.2,0.7,0.3,1.1
		c-0.2-0.3-0.4-0.6-0.6-0.9c0,0,0-0.1-0.1-0.1l-0.6,0.3c0,0,0.1,0,0.1,0c0,0,0,0.1,0.1,0.1c0.2,0.3,0.4,0.6,0.7,0.9c0,0,0,0,0,0
		c-0.3-0.2-0.6-0.4-0.9-0.7c0,0-0.1-0.1-0.1-0.1c0,0,0,0,0,0c0,0.1-0.1,0.3-0.2,0.4C113,87.9,113.3,88.1,113.6,88.3z"/>
	<path id="XMLID_201_" class="st66" d="M111.2,88.4c0.6,0,1.1-0.2,1.5-0.7c0.1-0.1,0.2-0.3,0.2-0.4c0,0,0,0,0,0c0,0,0,0,0-0.1
		c0,0,0,0,0,0c0.1,0,0.2-0.1,0.3-0.1l0.6-0.3l0.2-0.2l0.1-0.1l0.1-0.1c0,0,0,0,0-0.2c0.5,0,0.7-0.2,1-0.3c0,0,0,0,0,0
		c0.7-0.3,1.2-1,1.1-1.7c-0.1-0.8-0.7-1.4-1.5-1.5c-0.5,0-0.8,0-1.3,0.4c-0.3-0.2-0.6-0.3-0.9-0.3c-0.9-0.1-1.9,0.5-2.2,1.3
		c-0.2,0.4-0.2,0.8-0.2,1.2c0,0.1,0,0.1-0.1,0.2c-0.5,0.4-0.7,0.9-0.6,1.5C109.8,87.9,110.5,88.4,111.2,88.4z"/>
	<path id="XMLID_522_" class="st68" d="M103.9,85.9c3.3,0.6,1.3,5.6-1.3,5.4c-0.6,0.6-1.4,1.5-2.3,1.3c0.6-0.2,0.9-0.8,1.2-1.5
		c-2.1-0.9-0.9-5.9,2-5.4L103.9,85.9z"/>
	<path id="XMLID_199_" class="st69" d="M104,86c0.5-0.5,1.3-0.4,1.7-1.1c0.1-0.2-0.1-0.2-0.2-0.3c0.2-0.3,0.6-0.4,0.6-1
		c-0.1-0.1-0.2-0.1-0.4-0.2c0.5-0.4,1.3-0.6,1.5-1.5c-0.2,0-0.2-0.2-0.5-0.2c0.3-0.2,0.5-0.6,0.4-0.9c-1.4,0.1-1.8,1.8-2.6,2.8
		c0-0.6,0.2-1.4,0.1-2c0-0.5-0.1-1.3-0.7-1.5c-0.3,0.2-0.4,0.7-0.2,0.9c-0.1,0.1-0.4,0-0.5,0.1c-0.2,0.8,0.1,1.3,0.5,1.7
		c-0.1,0.1-0.4-0.1-0.4,0.1c-0.2,0.5-0.1,0.8,0.1,1c-0.2,0.1-0.5,0-0.5,0.3c0,0.7,0.7,1,0.9,1.6L104,86z"/>
	<path id="XMLID_512_" class="st69" d="M98.2,86.5c0,0,0-0.1,0-0.2c-0.2-0.6-1.1-0.4-1.2-1.1c0.5-0.2-0.6-1.1,0.2-1.3
		c-0.2-0.3-0.5-0.7-0.5-1.1c0.1-0.2,0.5,0.1,0.5-0.1c-0.1-0.5-0.1-0.9,0.3-1c0.4,0.2,0.3,0.9,0.6,1.3c0.1-0.2,0.1,0,0.3,0
		c0-0.7,0.1-1.3,0.6-1.5c0.5,0.3,0.2,1.3,0,1.7c0.2,0,0.4-0.1,0.5,0c0.1,0.6-0.2,0.9-0.3,1.4c0.1,0,0.2,0,0.2,0.2
		c-0.2,0.6-0.7,0.9-0.8,1.5c0,0,0,0.1,0,0.2L98.2,86.5z"/>
	<path id="XMLID_197_" class="st70" d="M98.1,86.4c-0.2,0.2-0.5,0.2-0.8,0.4c-0.1,0.1-0.1,0.3-0.1,0.4l0.3,2
		c0.3,1.7,0.7,3.3,1.6,4.3c0.7-1.1,0.6-2.8,0.7-4.4l0.2-2c-0.1-0.1-0.7-0.8-1.4-0.7L98.1,86.4z"/>
	<path id="XMLID_196_" class="st71" d="M108.3,84.6c-1.1-0.4-1.5,0.4-2.2,1.4c-0.8,1.1-2.3,2-2.1,3.6c0.3,2.5,4.4,3.2,5.1,0.3
		c0.2-0.8-0.1-1.6,0-2.5c0.3-1.3,0.8-2-0.6-2.7L108.3,84.6z"/>
	<path id="XMLID_195_" class="st72" d="M108.2,83.7c0-0.3-0.4-0.4-0.4-0.7c0.6-0.4,0.9,0.7,0.9,1.1c0,0-0.1,0.6-0.1,0.7l-0.3-0.2
		c0.1-0.2,0.1-0.5,0-0.7L108.2,83.7z"/>
	<path id="XMLID_194_" class="st73" d="M108.2,83.8c-0.1-0.3-1.4-0.8-1.5-0.5c-0.2,0.4,1.2,0.9,1.6,0.7L108.2,83.8z"/>
	<path id="XMLID_192_" class="st73" d="M108.6,84.2c0.1-0.1,0.4-0.2,0.6-0.1c-0.1,0.3-0.4,0.3-0.7,0.4L108.6,84.2z"/>
	<path id="XMLID_191_" class="st74" d="M97.9,91.4c0.2,1.2,1.2,2,2.3,1.8c0.2,0,0.5-0.1,0.7-0.2c0.2,0.1,0.5,0.1,0.7,0
		c1.1-0.2,1.9-1.2,1.7-2.4c-0.2-1.2-1.2-2-2.3-1.8c-0.2,0-0.4,0.1-0.5,0.2c0,0,0,0,0,0.1c0,0-0.1,0-0.1,0c0,0,0,0-0.1,0c0,0,0,0,0,0
		c-0.2,0-0.4,0-0.6,0C98.5,89.2,97.7,90.3,97.9,91.4z"/>
	<path id="XMLID_190_" class="st66" d="M98,87.6c0,0,0.4,0.9,1.2,1c0.7,0.1,1.1,0.3,1.1,0.4c0,0,0,0,0,0c0,0,0,0,0,0
		c0,0,0-0.1,0-0.1c0,0,0,0,0,0c0,0,0,0,0,0s0,0,0,0l0,0c0-0.2-0.3-1-0.8-1.2C98.8,87.3,98,87.6,98,87.6z"/>
	<path id="XMLID_189_" class="st67" d="M100.3,89C100.3,89.1,100.3,89.1,100.3,89c0.1,0,0.1,0,0.2,0c0,0,0,0,0-0.1c0,0,0,0,0,0
		c0-0.3,0-1.1,0.1-1.2c0.1-0.1,0.2-0.2,0.2-0.3c0-0.1-0.4-0.2-0.4,0.1c-0.1,0.3,0,1.1,0.1,1.2c0,0,0,0,0,0c0,0,0,0.1,0,0.1
		c0,0,0,0,0,0c0,0,0,0,0,0C100.3,88.9,100.3,88.9,100.3,89L100.3,89C100.3,89,100.3,89,100.3,89z"/>
	<line id="XMLID_188_" class="st75" x1="100.3" y1="88.8" x2="100.3" y2="88.8"/>
	<line id="XMLID_187_" class="st75" x1="100.3" y1="88.7" x2="100.3" y2="88.8"/>
	<path id="XMLID_186_" class="st76" d="M97.9,89l0.2,2.7l15.9,0l0.2-2.8h2.4v-9.9h20.2v17.8l-3.4,1.5h-1.9c-0.7-4.6-4.7-8-9.4-8
		s-8.7,3.5-9.4,8H96.9V89H97.9z"/>
	<path id="XMLID_142_" class="st77" d="M122.2,108.4c-7.2,0-11.1-8.7-6.2-14.1c1.6-1.8,3.8-2.7,6.2-2.7c4.2,0,7.8,3.1,8.3,7.3V99
		l4.4,0c1.9-1.2,0.3-0.2,9.1-5.8l-2.6-6.9l-1.9,0V85h7c0.4,0.7,0,0.5-3.7,1.4l2.3,6.3l12.7-6.7c-1.1-4.3-0.4-3.8-4.8-3.8v-1.3
		c5.1,0,4.9-0.4,6.8,5.9c0.5,1.6,0.8,2.6,1.2,4.1c0.4-0.1,0.9-0.2,1.6-0.2c4.6,0,8.3,3.7,8.3,8.3c0,4.6-3.7,8.3-8.3,8.3
		c-4.6,0-8.3-3.7-8.3-8.3c0-3.2,1.8-6.2,5.2-7.7c-0.3-0.9-0.3-1.1-0.8-2.4c-10.5,11-9.2,11.5-11.8,11.5c-3.6,0.1-12.2,0.1-16.4,0.1
		C130.1,105.1,126.3,108.4,122.2,108.4z M129,100.4c-7.6,0.1-7.1,0.2-7.4,0c-0.5-0.5-0.1-1.4,0.4-1.4c7.5,0,6.6,0,6.9,0v-0.2
		c-0.9-5.7-8-7.7-11.8-3.4c-3.8,4.4-0.8,11.3,5.1,11.3C125.5,106.7,128.6,104.4,129,100.4z M161.3,92.4c2.1,6.7,1.9,6,1.9,6.5
		c0,0.4-0.4,0.7-0.7,0.7c-0.6-0.1-0.5,0.1-2.6-6.8c-2.8,1.3-4.1,3.7-4.1,6.2c0,3.7,3,6.7,6.7,6.7c3.7,0,6.7-3,6.7-6.7
		C169.3,95.3,166,91.8,161.3,92.4z M144.2,94.4c-7.1,4.6-5.9,3.8-7.3,4.7c5.9,0.1,4.8,0.1,9.3,0.1L144.2,94.4z M157.8,87.2
		l-12.2,6.6l1.9,5.2l10.5-11.5L157.8,87.2z"/>
</g>
<text id="XMLID_113_" transform="matrix(1 0 0 1 195.3498 191.9652)" class="st78 st79 st80">700km //</text>
<g id="XMLID_60_">
	<text id="XMLID_139_" transform="matrix(1 0 0 1 264.9078 192.8394)"><tspan x="0" y="0" class="st78 st79 st80">9 jours</tspan><tspan x="43.7" y="0" class="st78 st79 st81">*</tspan></text>
</g>
<text id="XMLID_111_" transform="matrix(1 0 0 1 167.0607 57.5636)" class="st46 st79 st80">45km //</text>
<g id="XMLID_123_">
	<text id="XMLID_230_" transform="matrix(1 0 0 1 225.496 57.5632)" class="st46 st79 st80">1 jour </text>
</g>
<g id="XMLID_66_">
	<path id="XMLID_69_" class="st82" d="M239.4,243.4h-41v-10.9h6.8c0-0.1,0-0.2,0-0.3h-7.6V231h2.6c0-0.6,0.1-1.1,0.1-1.7h1.8
		c0,0.5,0.1,1,0.1,1.6c1.3,0-0.1,0,1.1,0c0.4,0,0.9,0,1.3,0c0.6,0.1,0.8-0.2,0.8-0.7c0-1.3,0-2.7,0-4.1h28v4.8h1.8
		c0-0.3,0.1-0.6,0.1-1h1.4c0,0.3,0.1,0.6,0.1,1h4.1v1.3h-7.4c0,0.1,0,0.2,0,0.3h6.1V243.4z M219.7,242.4h5.1v-8.5h-5.1V242.4z
		 M225.5,242.4h5.1v-8.5h-5.1V242.4z M208,242.4h5.1v-8.5H208V242.4z M213.9,242.4h5v-8.5h-5V242.4z M205,237.1h-5.4v3.6h5.4V237.1z
		 M237.3,237.4h-4.8v3.3h4.8V237.4z"/>
	<path id="XMLID_68_" class="st82" d="M204.7,225.6v-1.2h5.3c0-0.5,0.1-1,0.1-1.6h6.5c0,0.5,0.1,1,0.1,1.5h3.3
		c0-0.3,0.1-0.7,0.1-1.1h1.9c0,0.3,0,0.7,0.1,1.1h2.7c0-0.3,0.1-0.7,0.1-1.1h1.9c0,0.3,0.1,0.7,0.1,1.1h7.1v1.2H204.7z"/>
	<path id="XMLID_67_" class="st82" d="M236.5,240.1h-3.3c0-0.5,0-1,0-1.5c0-0.6,0.4-0.6,0.7-0.6c0.6,0,1.3,0,1.9,0
		c0.4,0,0.7,0.1,0.7,0.6C236.5,239.1,236.5,239.6,236.5,240.1"/>
</g>
<text id="XMLID_65_" transform="matrix(1 0 0 1 207.9498 231.5372)" class="st83 st84 st85">SUPER</text>
<text id="XMLID_34_" transform="matrix(0.9962 -8.716000e-002 8.716000e-002 0.9962 359.5383 69.191)"><tspan x="0" y="0" class="st46 st86 st87">Dist</tspan><tspan x="18" y="0" class="st46 st86 st87">r</tspan><tspan x="21.8" y="0" class="st46 st86 st87">ibu</tspan><tspan x="35.8" y="0" class="st46 st86 st87">t</tspan><tspan x="39.1" y="0" class="st46 st86 st87">eur</tspan></text>
<text id="XMLID_32_" transform="matrix(0.9962 -8.716000e-002 8.716000e-002 0.9962 361.0118 104.2607)"><tspan x="0" y="0" class="st88 st86 st87">P</tspan><tspan x="5.8" y="0" class="st88 st86 st87">r</tspan><tspan x="9.6" y="0" class="st88 st86 st87">odu</tspan><tspan x="26" y="0" class="st88 st86 st87">c</tspan><tspan x="30.8" y="0" class="st88 st86 st87">t</tspan><tspan x="34.1" y="0" class="st88 st86 st87">eur</tspan></text>
<g id="XMLID_28_">
	<path id="XMLID_31_" class="st51" d="M346.9,110.3c-2.2,0.2-4.5,0.3-6.6,0.9c1.2,3.8,2.7,7.6,4.8,10
		C346.3,118.1,346.7,114.2,346.9,110.3"/>
	<path id="XMLID_30_" class="st51" d="M347,110.4c0.2-4,0-8.4-0.2-12.8l-0.3-3.3c-3.5,0.5-6.9,1.2-10.4,1.5l1,3.8
		c1.1,3.8,2,7.8,3.2,11.5C342.4,110.6,344.7,110.6,347,110.4"/>
	<path id="XMLID_29_" class="st51" d="M345.8,86.6c-0.4-0.5-0.6-1.4-1-1.8c-1.3-1.1-2.8-0.6-3.7-1.3l-1.9,0.3
		c-3.1,0.5-5,4.6-5.2,5.2l2.1,6.8c3.5-0.3,7-1,10.4-1.5L345.8,86.6z"/>
</g>
<g id="XMLID_15_">
	<path id="XMLID_24_" class="st69" d="M356.1,201.1c-2.4-0.7,1.3-6.3-2.2-6.6c0.7-1.5,1.6-4,0.9-5.8c-0.8-1.1-1.9,0.9-2.1,0.2
		c-0.2-2.4-0.4-4.9-2.3-4.8c-1.6,1.3-0.4,5.1-1.1,7.3c-0.7-0.6-0.6,0.2-1.2,0.5c-0.7-3.3-1.7-6.3-4.1-7.1c-1.8,2.2,0.5,6.8,1.5,8.8
		c-0.8,0.1-1.7,0-2.1,0.6c0.1,3.3,1.8,4.4,2.8,6.5c-0.7,0-0.9,0.4-0.8,1.2c0.5,1,1.1,1.8,1.8,2.5c2.8-0.7,5.6-1,8.4-1.4
		C355.9,202.4,356.1,201.8,356.1,201.1"/>
	<path id="XMLID_23_" class="st89" d="M347.4,205.6c1.1,1.2,2.4,2.3,3.1,4.1c0,0.1,0.1,0.7,0.1,0.8l1.6-0.4
		c-0.2-0.2-0.1-0.6-0.2-0.8c0.3-2.6,2.7-3.2,3.7-5C353,204.5,350.2,204.9,347.4,205.6"/>
	<path id="XMLID_22_" class="st70" d="M351.3,239.7c1.1,3.9,2.5,7.5,4.6,10c1.3-3,1.9-6.6,2.2-10.6
		C355.9,239.2,353.5,239.1,351.3,239.7"/>
	<path id="XMLID_21_" class="st90" d="M347.4,223.4l0.9,3.2c1,3.9,1.8,8,2.9,11.8c2.2-0.5,4.6-0.4,6.8-0.6c0.3-4.1,0.3-8.5,0.2-12.9
		l-0.2-2.6C354.5,222.6,350.9,223.2,347.4,223.4"/>
	<path id="XMLID_20_" class="st89" d="M357.9,220.9l-0.5-7.9c-0.4-0.5-0.5-1.4-0.9-1.8c-1.3-1.2-2.8-0.7-3.7-1.4l-1.9,0.2
		c-3.1,0.5-5.2,4.5-5.4,5.2l1.9,7C350.8,221.9,354.3,221.3,357.9,220.9"/>
</g>
<text id="XMLID_14_" transform="matrix(0.9848 -0.1736 0.1736 0.9848 366.7653 214.5117)"><tspan x="0" y="0" class="st78 st86 st91">G</tspan><tspan x="7" y="0" class="st78 st86 st91">r</tspan><tspan x="10.5" y="0" class="st78 st86 st91">ossis</tspan><tspan x="30.6" y="0" class="st78 st86 st91">t</tspan><tspan x="33.7" y="0" class="st78 st86 st91">e</tspan></text>
<text id="XMLID_12_" transform="matrix(0.9848 -0.1736 0.1736 0.9848 366.7363 246.5867)"><tspan x="0" y="0" class="st88 st86 st87">P</tspan><tspan x="5.8" y="0" class="st88 st86 st87">r</tspan><tspan x="9.6" y="0" class="st88 st86 st87">odu</tspan><tspan x="25.9" y="0" class="st88 st86 st87">c</tspan><tspan x="30.8" y="0" class="st88 st86 st87">t</tspan><tspan x="34.1" y="0" class="st88 st86 st87">eur</tspan></text>
<text id="XMLID_11_" transform="matrix(0.9848 -0.1736 0.1736 0.9848 366.7649 231.5728)"><tspan x="0" y="0" class="st92 st86 st91">P</tspan><tspan x="5.3" y="0" class="st92 st86 st91">ét</tspan><tspan x="13" y="0" class="st92 st86 st91">r</tspan><tspan x="16.5" y="0" class="st92 st86 st91">ole</tspan></text>
<g id="XMLID_7_">
	<line id="XMLID_10_" class="st93" x1="347.2" y1="222.1" x2="357.9" y2="220.9"/>
	<line id="XMLID_9_" class="st93" x1="349" y1="238.8" x2="359.6" y2="237.5"/>
	<line id="XMLID_8_" class="st93" x1="345.3" y1="204.1" x2="356" y2="202.8"/>
</g>
<text id="XMLID_6_" transform="matrix(0.9848 -0.1736 0.1736 0.9848 366.7662 196.5799)"><tspan x="0" y="0" class="st46 st86 st91">Dist</tspan><tspan x="16.9" y="0" class="st46 st86 st91">r</tspan><tspan x="20.5" y="0" class="st46 st86 st91">ibu</tspan><tspan x="33.6" y="0" class="st46 st86 st91">t</tspan><tspan x="36.7" y="0" class="st46 st86 st91">eur</tspan></text>
<g id="XMLID_1_">
	<line id="XMLID_5_" class="st94" x1="8.5" y1="138.5" x2="9.5" y2="138.5"/>
	<line id="XMLID_4_" class="st95" x1="11.5" y1="138.5" x2="410.8" y2="138.5"/>
	<line id="XMLID_2_" class="st94" x1="411.8" y1="138.5" x2="412.8" y2="138.5"/>
</g>
<g id="XMLID_112_">
	<g id="XMLID_334_" class="st96">
		<g id="XMLID_1158_">
			<g id="XMLID_1165_">
				<path id="XMLID_1166_" class="st65" d="M259.3,89.5c0.3,1.8,1.9,3.1,3.6,2.9c0.4-0.1,0.7-0.2,1-0.3c0.3,0.1,0.7,0.1,1.1,0
					c1.8-0.2,3-1.9,2.7-3.8c-0.3-1.8-1.9-3.1-3.6-2.9c-0.3,0-0.6,0.1-0.8,0.2c0,0,0,0.1-0.1,0.1c0,0-0.1,0.1-0.2,0
					c0,0-0.1,0-0.1-0.1c0,0,0,0,0,0c-0.3-0.1-0.6-0.1-1,0C260.2,86,259,87.7,259.3,89.5z"/>
			</g>
			<g id="XMLID_1163_">
				<path id="XMLID_1164_" class="st66" d="M259.4,83.5c0,0,0.6,1.4,1.8,1.5c1.1,0.1,1.7,0.5,1.8,0.6c0,0,0,0,0,0c0,0,0,0,0-0.1
					c0,0,0-0.1,0-0.1c0,0,0,0,0-0.1c0,0,0,0,0,0s0,0,0,0l0,0c-0.1-0.3-0.5-1.5-1.3-1.9C260.8,83,259.4,83.5,259.4,83.5z"/>
			</g>
			<g id="XMLID_1161_">
				<path id="XMLID_1162_" class="st67" d="M263,85.7C263,85.8,263,85.8,263,85.7c0.2,0.1,0.2,0,0.3,0c0,0,0-0.1,0.1-0.1
					c0,0,0,0,0,0c0-0.5,0-1.8,0.1-1.9c0.1-0.2,0.3-0.3,0.3-0.5c0-0.2-0.6-0.4-0.7,0.1c-0.1,0.4,0,1.7,0.1,1.9c0,0,0,0,0,0.1
					c0,0,0,0.1,0,0.1c0,0,0,0.1,0,0.1c0,0,0,0,0,0c0,0,0,0,0,0L263,85.7C263,85.7,263,85.7,263,85.7z"/>
			</g>
			<path id="XMLID_1160_" class="st65" d="M263,85.3C263,85.3,263,85.3,263,85.3"/>
			<path id="XMLID_1159_" class="st65" d="M263,85.3C263,85.3,263,85.3,263,85.3"/>
		</g>
	</g>
	<g id="XMLID_241_" class="st96">
		<g id="XMLID_1182_">
			<g id="XMLID_1191_">
				<path id="XMLID_1192_" class="st65" d="M272.2,87.9c0.3,1.8,1.9,3.1,3.6,2.9c0.4-0.1,0.7-0.2,1-0.3c0.3,0.1,0.7,0.1,1.1,0
					c1.8-0.2,3-1.9,2.7-3.8c-0.3-1.8-1.9-3.1-3.6-2.9c-0.3,0-0.6,0.1-0.8,0.2c0,0,0,0.1-0.1,0.1c0,0-0.1,0.1-0.2,0
					c0,0-0.1,0-0.1-0.1c0,0,0,0,0,0c-0.3-0.1-0.6-0.1-1,0C273.1,84.4,271.9,86.1,272.2,87.9z"/>
			</g>
			<g id="XMLID_1189_">
				<path id="XMLID_1190_" class="st65" d="M269.5,92c0.3,1.8,1.9,3.1,3.6,2.9c0.4-0.1,0.7-0.2,1-0.3c0.3,0.1,0.7,0.1,1.1,0
					c1.8-0.2,3-1.9,2.7-3.8c-0.3-1.8-1.9-3.1-3.6-2.9c-0.3,0-0.6,0.1-0.8,0.2c0,0,0,0.1-0.1,0.1c0,0-0.1,0.1-0.2,0
					c0,0-0.1,0-0.1-0.1c0,0,0,0,0,0c-0.3-0.1-0.6-0.1-1,0C270.5,88.5,269.3,90.2,269.5,92z"/>
			</g>
			<g id="XMLID_1187_">
				<path id="XMLID_1188_" class="st66" d="M272.2,81.9c0,0,0.6,1.4,1.8,1.5c1.1,0.1,1.7,0.5,1.8,0.6c0,0,0,0,0,0c0,0,0,0,0-0.1
					c0,0,0-0.1,0-0.1c0,0,0,0,0-0.1c0,0,0,0,0,0s0,0,0,0l0,0c-0.1-0.3-0.5-1.5-1.3-1.9C273.6,81.4,272.2,81.9,272.2,81.9z"/>
			</g>
			<g id="XMLID_1185_">
				<path id="XMLID_1186_" class="st67" d="M275.8,84.2C275.9,84.2,275.9,84.2,275.8,84.2c0.2,0.1,0.2,0,0.3,0c0,0,0-0.1,0.1-0.1
					c0,0,0,0,0,0c0-0.5,0-1.8,0.1-1.9c0.1-0.2,0.3-0.3,0.3-0.5c0-0.2-0.6-0.4-0.7,0.1c-0.1,0.4,0,1.7,0.1,1.9c0,0,0,0,0,0.1
					c0,0,0,0.1,0,0.1c0,0,0,0.1,0,0.1c0,0,0,0,0,0c0,0,0,0,0,0L275.8,84.2C275.9,84.2,275.9,84.2,275.8,84.2z"/>
			</g>
			<path id="XMLID_1184_" class="st65" d="M275.9,83.7C275.9,83.7,275.9,83.7,275.9,83.7"/>
			<path id="XMLID_1183_" class="st65" d="M275.8,83.7C275.8,83.7,275.8,83.7,275.8,83.7"/>
		</g>
	</g>
	<g id="XMLID_235_" class="st96">
		<path id="XMLID_239_" class="st68" d="M250.6,81.9c5.9,1,2.4,10.2-2.3,9.9c-1.1,1.1-2.6,2.7-4.1,2.4c1.1-0.3,1.7-1.4,2.2-2.6
			c-3.8-1.6-1.7-10.7,3.6-9.7L250.6,81.9z"/>
		<path id="XMLID_236_" class="st69" d="M250.8,82.1c1-0.9,2.4-0.6,3.1-2c0.2-0.3-0.2-0.4-0.4-0.5c0.4-0.5,1-0.7,1.2-1.7
			c-0.1-0.1-0.3-0.3-0.7-0.3c1-0.8,2.3-1,2.7-2.7c-0.3-0.1-0.3-0.3-0.8-0.3c0.6-0.3,0.9-1.1,0.7-1.7c-2.5,0.2-3.2,3.3-4.6,5.1
			c-0.1-1.1,0.3-2.5,0.2-3.6c-0.1-1-0.2-2.4-1.3-2.7c-0.5,0.4-0.8,1.2-0.4,1.6c-0.3,0.2-0.7,0-1,0.2c-0.4,1.5,0.2,2.3,0.8,3.2
			c-0.1,0.3-0.6-0.1-0.8,0.1c-0.3,0.9-0.3,1.5,0.2,1.9c-0.3,0.2-0.8,0-0.9,0.5c0,1.3,1.2,1.8,1.5,2.9L250.8,82.1z"/>
	</g>
	<g id="XMLID_225_" class="st96">
		<path id="XMLID_229_" class="st69" d="M238.6,81.2c0.1-0.1,0-0.2,0-0.3c-0.4-1.1-1.9-0.8-2.2-2c0.9-0.4-1-2.1,0.4-2.4
			c-0.4-0.5-0.9-1.3-0.8-1.9c0.2-0.4,0.8,0.1,0.9-0.1c-0.1-0.8-0.2-1.7,0.6-1.8c0.7,0.3,0.6,1.7,1,2.4c0.2-0.3,0.2,0,0.5,0.1
			c0-1.2,0.2-2.3,1.1-2.7c0.9,0.6,0.3,2.4,0.1,3.1c0.3,0,0.7-0.1,0.9,0c0.2,1.2-0.4,1.6-0.6,2.4c0.3-0.1,0.4,0.1,0.4,0.3
			c-0.3,1-1.2,1.5-1.4,2.6c0,0,0,0.2,0,0.3L238.6,81.2z"/>
		<path id="XMLID_226_" class="st70" d="M238.4,81.2c-0.3,0.3-1,0.3-1.4,0.8c-0.1,0.2-0.1,0.5-0.2,0.7l0.6,3.7c0.6,3,1.3,6,2.8,7.9
			c1.3-2,1.1-5.2,1.3-8l0.3-3.7c-0.1-0.2-1.3-1.4-2.6-1.3L238.4,81.2z"/>
	</g>
	<g id="XMLID_132_" class="st96">
		<path id="XMLID_136_" class="st69" d="M268.5,83.3c0.1-0.1,0-0.2,0-0.3c-0.4-1.1-1.9-0.8-2.2-2c0.9-0.4-1-2.1,0.4-2.4
			c-0.4-0.5-0.9-1.3-0.8-1.9c0.2-0.4,0.8,0.1,0.9-0.1c-0.1-0.8-0.2-1.7,0.6-1.8c0.7,0.3,0.6,1.7,1,2.4c0.2-0.3,0.2,0,0.5,0.1
			c0-1.2,0.2-2.3,1.1-2.7c0.9,0.6,0.3,2.4,0.1,3.1c0.3,0,0.7-0.1,0.9,0c0.2,1.2-0.4,1.6-0.6,2.4c0.3-0.1,0.4,0.1,0.4,0.3
			c-0.3,1-1.2,1.5-1.4,2.6c0,0,0,0.2,0,0.3L268.5,83.3z"/>
		<path id="XMLID_133_" class="st70" d="M268.3,83.2c-0.3,0.3-1,0.3-1.4,0.8c-0.1,0.2-0.1,0.5-0.2,0.7l0.6,3.7c0.6,3,1.3,6,2.8,7.9
			c1.3-2,1.1-5.2,1.3-8l0.3-3.7c-0.1-0.2-1.3-1.4-2.6-1.3L268.3,83.2z"/>
	</g>
	<g id="XMLID_207_" class="st97">
		<path id="XMLID_222_" class="st71" d="M258.2,80.7c-2-0.8-2.7,0.8-4,2.5c-1.4,2-4.1,3.5-3.8,6.5c0.5,4.6,8,5.9,9.2,0.6
			c0.3-1.4-0.2-2.9,0.1-4.4c0.5-2.4,1.5-3.6-1-4.8L258.2,80.7z"/>
		<path id="XMLID_219_" class="st72" d="M258.1,79.1c0-0.5-0.7-0.8-0.8-1.3c1.2-0.8,1.6,1.3,1.6,2.1c0,0-0.3,1-0.3,1.2l-0.5-0.3
			c0.1-0.4,0.2-0.9,0-1.2L258.1,79.1z"/>
		<path id="XMLID_211_" class="st73" d="M258.2,79.3c-0.2-0.5-2.4-1.4-2.7-0.8c-0.4,0.8,2.1,1.7,2.8,1.3L258.2,79.3z"/>
		<path id="XMLID_208_" class="st73" d="M258.8,80c0.2-0.2,0.7-0.4,1.1-0.3c-0.2,0.6-0.8,0.6-1.2,0.7L258.8,80z"/>
	</g>
	<g id="XMLID_138_" class="st98">
		<path id="XMLID_179_" class="st74" d="M238,90.2c0.3,2.1,2.2,3.6,4.2,3.3c0.4-0.1,0.8-0.2,1.2-0.4c0.4,0.1,0.8,0.1,1.3,0
			c2-0.3,3.5-2.2,3.2-4.4c-0.3-2.1-2.2-3.6-4.2-3.3c-0.3,0-0.7,0.1-1,0.3c0,0,0,0.1-0.1,0.1c0,0-0.1,0.1-0.2,0.1c0,0-0.1,0-0.1-0.1
			c0,0,0,0,0,0c-0.4-0.1-0.7-0.1-1.1,0C239.1,86.1,237.7,88.1,238,90.2z"/>
		<path id="XMLID_170_" class="st66" d="M238.1,83.3c0,0,0.7,1.6,2.1,1.7c1.3,0.1,1.9,0.6,2,0.7c0,0,0,0,0,0c0,0,0-0.1,0-0.1
			c0-0.1,0-0.1,0-0.2c0,0,0,0,0-0.1c0,0,0,0,0,0s0,0,0-0.1l0,0c-0.1-0.3-0.5-1.8-1.5-2.2C239.7,82.7,238.1,83.3,238.1,83.3z"/>
		<path id="XMLID_164_" class="st67" d="M242.3,85.9c0,0,0.1,0.1,0.1,0.1c0.1,0,0.1,0,0.2-0.1c0,0,0-0.1,0.1-0.1c0,0,0,0,0,0
			c0-0.6,0-2.1,0.1-2.2c0.1-0.2,0.3-0.3,0.3-0.6c0-0.3-0.7-0.4-0.8,0.1c-0.1,0.5,0.1,2,0.1,2.3c0,0,0,0,0,0.1c0,0,0,0.1,0,0.2
			c0,0,0,0.1,0,0.1c0,0,0,0,0,0c0,0,0,0,0,0L242.3,85.9C242.3,85.9,242.3,85.9,242.3,85.9z"/>
		<path id="XMLID_163_" class="st75" d="M242.3,85.4C242.3,85.4,242.3,85.4,242.3,85.4"/>
		<path id="XMLID_155_" class="st75" d="M242.3,85.3C242.3,85.3,242.3,85.3,242.3,85.3"/>
	</g>
	<path id="XMLID_49_" class="st76" d="M280.5,86.1v1.7h-43.7v-2.3h-2.7v11.3h49.1V86.1H280.5z M280.7,92h-43.9v-2.3h43.9V92z"/>
</g>
<g id="XMLID_508_" class="st96">
	<g id="XMLID_618_">
		<g id="XMLID_1113_">
			<path id="XMLID_1114_" class="st99" d="M300.9,225.1c0.3,1.8,1.8,3,3.6,2.8c0.4-0.1,0.7-0.2,1-0.3c0.3,0.1,0.7,0.1,1.1,0
				c1.7-0.2,2.9-1.9,2.7-3.7c-0.3-1.8-1.8-3-3.6-2.8c-0.3,0-0.6,0.1-0.8,0.2c0,0,0,0.1-0.1,0.1c0,0-0.1,0.1-0.2,0c0,0-0.1,0-0.1-0.1
				c0,0,0,0,0,0c-0.3-0.1-0.6-0.1-1,0C301.9,221.7,300.7,223.3,300.9,225.1z"/>
		</g>
		<g id="XMLID_1111_">
			<path id="XMLID_1112_" class="st66" d="M301,219.3c0,0,0.6,1.3,1.8,1.4c1.1,0.1,1.6,0.5,1.7,0.6c0,0,0,0,0,0c0,0,0,0,0-0.1
				c0,0,0-0.1,0-0.1c0,0,0,0,0,0c0,0,0,0,0,0s0,0,0,0l0,0c-0.1-0.3-0.4-1.5-1.3-1.8C302.3,218.8,301,219.3,301,219.3z"/>
		</g>
		<g id="XMLID_1094_">
			<path id="XMLID_1110_" class="st67" d="M304.5,221.4C304.6,221.5,304.6,221.5,304.5,221.4c0.1,0.1,0.2,0,0.2,0c0,0,0-0.1,0.1-0.1
				c0,0,0,0,0,0c0-0.5,0-1.7,0.1-1.9c0.1-0.2,0.3-0.3,0.2-0.5c0-0.2-0.6-0.4-0.7,0.1c-0.1,0.4,0,1.7,0.1,1.9c0,0,0,0,0,0
				c0,0,0,0.1,0,0.1c0,0,0,0.1,0,0.1c0,0,0,0,0,0c0,0,0,0,0,0L304.5,221.4C304.5,221.4,304.5,221.4,304.5,221.4z"/>
		</g>
		<path id="XMLID_620_" class="st65" d="M304.5,221C304.5,221,304.5,221,304.5,221"/>
		<path id="XMLID_619_" class="st65" d="M304.5,221C304.5,221,304.5,221,304.5,221"/>
	</g>
</g>
<g id="XMLID_481_" class="st96">
	<g id="XMLID_1171_">
		<g id="XMLID_1180_">
			<path id="XMLID_1181_" class="st99" d="M313.5,223.6c0.3,1.8,1.8,3,3.6,2.8c0.4-0.1,0.7-0.2,1-0.3c0.3,0.1,0.7,0.1,1.1,0
				c1.7-0.2,2.9-1.9,2.7-3.7c-0.3-1.8-1.8-3-3.6-2.8c-0.3,0-0.6,0.1-0.8,0.2c0,0,0,0.1-0.1,0.1c0,0-0.1,0.1-0.2,0c0,0-0.1,0-0.1-0.1
				c0,0,0,0,0,0c-0.3-0.1-0.6-0.1-1,0C314.4,220.1,313.2,221.8,313.5,223.6z"/>
		</g>
		<g id="XMLID_1178_">
			<path id="XMLID_1179_" class="st99" d="M310.9,227.6c0.3,1.8,1.8,3,3.6,2.8c0.4-0.1,0.7-0.2,1-0.3c0.3,0.1,0.7,0.1,1.1,0
				c1.7-0.2,2.9-1.9,2.7-3.7c-0.3-1.8-1.8-3-3.6-2.8c-0.3,0-0.6,0.1-0.8,0.2c0,0,0,0.1-0.1,0.1c0,0-0.1,0.1-0.2,0c0,0-0.1,0-0.1-0.1
				c0,0,0,0,0,0c-0.3-0.1-0.6-0.1-1,0C311.9,224.1,310.7,225.8,310.9,227.6z"/>
		</g>
		<g id="XMLID_1176_">
			<path id="XMLID_1177_" class="st66" d="M313.6,217.7c0,0,0.6,1.3,1.8,1.4c1.1,0.1,1.6,0.5,1.7,0.6c0,0,0,0,0,0c0,0,0,0,0-0.1
				c0,0,0-0.1,0-0.1c0,0,0,0,0,0c0,0,0,0,0,0s0,0,0,0l0,0c-0.1-0.3-0.4-1.5-1.3-1.8C314.9,217.2,313.6,217.7,313.6,217.7z"/>
		</g>
		<g id="XMLID_1174_">
			<path id="XMLID_1175_" class="st67" d="M317.1,219.9C317.1,219.9,317.2,219.9,317.1,219.9c0.1,0.1,0.2,0,0.2,0c0,0,0-0.1,0.1-0.1
				c0,0,0,0,0,0c0-0.5,0-1.7,0.1-1.9c0.1-0.2,0.3-0.3,0.2-0.5c0-0.2-0.6-0.4-0.7,0.1c-0.1,0.4,0,1.7,0.1,1.9c0,0,0,0,0,0
				c0,0,0,0.1,0,0.1c0,0,0,0.1,0,0.1c0,0,0,0,0,0c0,0,0,0,0,0L317.1,219.9C317.1,219.9,317.1,219.9,317.1,219.9z"/>
		</g>
		<path id="XMLID_1173_" class="st65" d="M317.1,219.5C317.1,219.5,317.1,219.5,317.1,219.5"/>
		<path id="XMLID_1172_" class="st65" d="M317.1,219.4C317.1,219.5,317.1,219.4,317.1,219.4"/>
	</g>
</g>
<g id="XMLID_382_" class="st96">
	<path id="XMLID_386_" class="st100" d="M292.5,217.7c5.8,1,2.4,9.9-2.3,9.6c-1.1,1.1-2.5,2.6-4,2.3c1.1-0.3,1.6-1.4,2.1-2.6
		c-3.7-1.6-1.6-10.4,3.6-9.5L292.5,217.7z"/>
	<path id="XMLID_383_" class="st101" d="M292.6,217.8c0.9-0.9,2.4-0.6,3-2c0.1-0.3-0.2-0.4-0.4-0.5c0.4-0.5,1-0.7,1.1-1.7
		c-0.1-0.1-0.3-0.3-0.7-0.3c1-0.7,2.2-1,2.6-2.6c-0.3-0.1-0.3-0.3-0.8-0.3c0.6-0.3,0.9-1.1,0.7-1.7c-2.4,0.2-3.1,3.2-4.5,5
		c-0.1-1.1,0.3-2.4,0.2-3.6c-0.1-0.9-0.2-2.3-1.3-2.6c-0.5,0.4-0.7,1.2-0.3,1.6c-0.3,0.2-0.7,0-1,0.2c-0.4,1.4,0.2,2.2,0.8,3.1
		c-0.1,0.3-0.6-0.1-0.8,0.1c-0.3,0.8-0.3,1.4,0.2,1.8c-0.3,0.2-0.8,0-0.9,0.5c0,1.3,1.2,1.7,1.5,2.8L292.6,217.8z"/>
</g>
<g id="XMLID_368_" class="st96">
	<path id="XMLID_372_" class="st101" d="M280.7,217c0.1-0.1,0-0.2,0-0.3c-0.4-1.1-1.9-0.8-2.2-2c0.9-0.4-1-2,0.4-2.4
		c-0.4-0.5-0.9-1.2-0.8-1.9c0.2-0.4,0.8,0.1,0.8-0.1c-0.1-0.8-0.2-1.7,0.5-1.8c0.7,0.3,0.6,1.7,1,2.3c0.2-0.3,0.2,0,0.5,0.1
		c0-1.2,0.2-2.2,1.1-2.7c0.9,0.6,0.3,2.3,0.1,3.1c0.3,0,0.7-0.1,0.9,0c0.2,1.1-0.4,1.6-0.6,2.4c0.3,0,0.4,0.1,0.4,0.3
		c-0.3,1-1.2,1.5-1.4,2.6c0,0,0,0.2,0,0.3L280.7,217z"/>
	<path id="XMLID_369_" class="st102" d="M280.5,216.9c-0.3,0.3-0.9,0.3-1.3,0.8c-0.1,0.2-0.1,0.5-0.2,0.7l0.5,3.6
		c0.6,2.9,1.3,5.8,2.8,7.7c1.2-2,1.1-5,1.3-7.9l0.3-3.6c-0.1-0.2-1.3-1.4-2.5-1.3L280.5,216.9z"/>
</g>
<g id="XMLID_358_" class="st96">
	<path id="XMLID_362_" class="st101" d="M309.9,219c0.1-0.1,0-0.2,0-0.3c-0.4-1.1-1.9-0.8-2.2-2c0.9-0.4-1-2,0.4-2.4
		c-0.4-0.5-0.9-1.2-0.8-1.9c0.2-0.4,0.8,0.1,0.8-0.1c-0.1-0.8-0.2-1.7,0.5-1.8c0.7,0.3,0.6,1.7,1,2.3c0.2-0.3,0.2,0,0.5,0.1
		c0-1.2,0.2-2.2,1.1-2.7c0.9,0.6,0.3,2.3,0.1,3.1c0.3,0,0.7-0.1,0.9,0c0.2,1.1-0.4,1.6-0.6,2.4c0.3,0,0.4,0.1,0.4,0.3
		c-0.3,1-1.2,1.5-1.4,2.6c0,0,0,0.2,0,0.3L309.9,219z"/>
	<path id="XMLID_359_" class="st102" d="M309.7,218.9c-0.3,0.3-0.9,0.3-1.3,0.8c-0.1,0.2-0.1,0.5-0.2,0.7l0.5,3.6
		c0.6,2.9,1.3,5.8,2.8,7.7c1.2-2,1.1-5,1.3-7.9l0.3-3.6c-0.1-0.2-1.3-1.4-2.5-1.3L309.7,218.9z"/>
</g>
<g id="XMLID_345_" class="st97">
	<path id="XMLID_355_" class="st103" d="M299.9,216.5c-1.9-0.7-2.7,0.8-3.9,2.5c-1.4,1.9-4,3.5-3.7,6.3c0.5,4.5,7.8,5.7,9,0.6
		c0.3-1.4-0.2-2.8,0.1-4.3c0.5-2.4,1.5-3.6-1-4.7L299.9,216.5z"/>
	<path id="XMLID_352_" class="st72" d="M299.8,214.9c0-0.5-0.7-0.8-0.7-1.3c1.1-0.7,1.5,1.2,1.5,2c0,0-0.3,1-0.2,1.2l-0.5-0.3
		c0.1-0.4,0.2-0.9,0-1.2L299.8,214.9z"/>
	<path id="XMLID_349_" class="st73" d="M299.8,215.1c-0.2-0.5-2.4-1.3-2.7-0.8c-0.4,0.8,2.1,1.6,2.8,1.3L299.8,215.1z"/>
	<path id="XMLID_346_" class="st73" d="M300.5,215.8c0.2-0.2,0.7-0.4,1.1-0.2c-0.2,0.6-0.8,0.6-1.2,0.7L300.5,215.8z"/>
</g>
<g id="XMLID_45_" class="st98">
	<path id="XMLID_342_" class="st104" d="M280.1,225.8c0.3,2.1,2.1,3.5,4.1,3.3c0.4-0.1,0.8-0.2,1.2-0.4c0.4,0.1,0.8,0.1,1.2,0
		c2-0.3,3.4-2.2,3.1-4.3c-0.3-2.1-2.1-3.5-4.1-3.3c-0.3,0-0.6,0.1-0.9,0.3c0,0,0,0.1-0.1,0.1c0,0-0.1,0.1-0.2,0.1c0,0-0.1,0-0.1-0.1
		c0,0,0,0,0,0c-0.4-0.1-0.7-0.1-1.1,0C281.2,221.8,279.8,223.7,280.1,225.8z"/>
	<path id="XMLID_339_" class="st66" d="M280.2,219c0,0,0.7,1.5,2.1,1.7c1.2,0.1,1.9,0.6,2,0.7c0,0,0,0,0,0c0,0,0-0.1,0-0.1
		c0-0.1,0-0.1,0-0.2c0,0,0,0,0-0.1c0,0,0,0,0,0s0,0,0-0.1l0,0c-0.1-0.3-0.5-1.7-1.5-2.1C281.8,218.4,280.2,219,280.2,219z"/>
	<path id="XMLID_124_" class="st67" d="M284.3,221.6c0,0,0.1,0.1,0.1,0.1c0.1,0,0.1,0,0.2-0.1c0,0,0-0.1,0.1-0.1c0,0,0,0,0,0
		c0-0.6,0-2,0.1-2.2c0.1-0.2,0.3-0.3,0.3-0.6c0-0.3-0.7-0.4-0.8,0.1c-0.1,0.5,0.1,2,0.1,2.2c0,0,0,0,0,0.1c0,0,0,0.1,0,0.2
		c0,0,0,0.1,0,0.1c0,0,0,0,0,0c0,0,0,0,0,0L284.3,221.6C284.3,221.5,284.3,221.6,284.3,221.6z"/>
	<path id="XMLID_116_" class="st75" d="M284.3,221C284.3,221.1,284.3,221.1,284.3,221"/>
	<path id="XMLID_115_" class="st75" d="M284.3,221C284.3,221,284.3,221,284.3,221"/>
</g>
<path id="XMLID_16_" class="st76" d="M321.6,221.8v1.7c0,0-0.1,0-0.1,0c-2.5,0-4.9,0-7.4,0c-2.3,0-4.6,0-6.8,0c-1.3,0-2.5,0-3.8,0
	c-0.6,0-1.3,0-1.9,0c-0.5,0-0.8,0.3-1.3,0.6c0,0-0.1,0.1-0.1,0c0,0-0.1,0-0.1,0c-0.3-0.2-0.6-0.4-0.9-0.5c-0.5-0.2-1.2,0-1.7,0
	c-0.6,0-1.3,0-1.9,0c-1.2,0-2.5,0-3.7,0c-2.2,0-4.4,0-6.6,0c-0.3,0-6.3,0-6.3,0v-2.3c-0.3,0-0.6,0-1,0c-0.4,0-1.1-0.1-1.4,0.2
	c-0.3,0.3-0.3,0.4-0.3,0.9c0,0.4,0,0.8,0,1.2c0,0.8,0,1.5,0,2.3c0,0.4,0,0.8,0,1.2c0,0.1,0,0.3,0,0.4c0,0.2,0.2,0.3,0.3,0.4
	c0,0.1,0,0.1,0.1,0.2c0,0.1,0.1,0.2,0,0.2c0,0.1-0.1,0.2-0.1,0.3c-0.3,0.4-0.2,0.6-0.2,1.1c0,0.4,0,0.9,0,1.3c0,0.4,0,0.8,0,1.2
	c0,0,0.1,0,0.1,0c0.1,0,0.2,0,0.3,0c0.2,0,0.3,0,0.5,0c0.2,0,0.5,0,0.7,0c0.3,0,0.6,0,0.9,0c0.4,0,0.7,0,1.1,0c0.4,0,0.8,0,1.3,0
	c0.5,0,0.9,0,1.4,0c0.5,0,1,0,1.5,0c0.6,0,1.1,0,1.7,0c0.6,0,1.2,0,1.8,0c0.6,0,1.2,0,1.9,0c0.6,0,1.3,0,1.9,0c0.7,0,1.3,0,2,0
	c0.7,0,1.4,0,2.1,0c0.7,0,1.4,0,2.1,0c0.7,0,1.4,0,2.1,0c0.7,0,1.4,0,2.1,0c0.7,0,1.4,0,2.1,0c0.7,0,1.4,0,2.1,0c0.7,0,1.4,0,2,0
	c0.7,0,1.3,0,2,0c0.6,0,1.3,0,1.9,0c0.6,0,1.2,0,1.8,0c0.6,0,1.2,0,1.7,0c0.5,0,1.1,0,1.6,0c0.5,0,1,0,1.5,0c0.5,0,0.9,0,1.4,0
	c0.4,0,0.8,0,1.2,0c0.3,0,0.7,0,1,0c0.3,0,0.6,0,0.9,0c0.1,0,0.2,0,0.4,0c0.1,0,0.1,0,0.2,0c0,0,0.1,0,0.1,0c0.1,0,0.1-0.1,0.2-0.1
	c0,0,0.1,0,0.1,0c0.1,0,0.1,0.1,0.2,0c0,0,0,0,0.1,0c0.1-0.1,0.2-0.1,0.2-0.3c0-0.1,0-0.3,0-0.4c0-0.3,0-0.5,0-0.8c0-0.5,0-1,0-1.6
	c0-0.9,0-1.9,0-2.8c0-0.8,0.2-1.9-0.4-2.5c-0.5-0.4,0.1-0.6,0.3-1c0-0.1,0.1-1,0.1-1C324.2,221.8,321.6,221.8,321.6,221.8z
	 M321.8,227.5H279v-2.2h42.9V227.5z"/>
<path id="XMLID_39_" class="st69" d="M338,82.2l1.6-0.5c-0.2-0.1-0.1-0.5-0.2-0.8c0.2-2.5,2.5-3.2,3.5-5c0,0,0,0,0.1,0
	c0.3-0.5,0.4-1.1,0.4-1.9c-2.4-0.6,1.1-6.3-2.4-6.4c0.7-1.5,1.4-4,0.7-5.8c-0.8-1.1-1.9,0.9-2.1,0.3c-0.3-2.3-0.5-4.8-2.4-4.6
	c-1.5,1.3-0.3,5.1-0.9,7.2c-0.7-0.6-0.6,0.2-1.1,0.5c-0.8-3.2-1.8-6.2-4.3-6.9c-1.7,2.3,0.7,6.7,1.8,8.6c-0.8,0.1-1.7,0.1-2,0.6
	c0.2,3.3,1.9,4.3,3,6.3c-0.7,0-0.9,0.4-0.8,1.2c0.5,1,1.2,1.7,1.8,2.4c0,0,0,0,0,0c1.2,1.1,2.4,2.2,3.1,3.9
	C337.8,81.6,337.9,82.1,338,82.2"/>
<g id="XMLID_17_">
	<path id="XMLID_517_" class="st82" d="M87.2,203c0.4,1.5,1.2,2.8,1.8,4.2c1,2.5-0.8,5.7-3.4,6.2c-1.3,0.3-2.6,0-3.7-0.6
		c-2.3,0.7-4.3,0-5.8-1.9c-1.9,1-3.8,1.5-6,1c-2.1-0.5-3.7-1.9-4.9-3.6c-1-1.4-1.6-2.9-1.4-4.7c0.2-2.6,1.7-4.5,3.5-6.2
		c-0.4-3.3,1.6-5.7,3.9-6.4c1.2-0.4,2.5-0.3,3.7,0.2c1.6,0.7,2.6,1.8,3.2,3.4c4.2-0.2,6.8,1.6,7.1,6.2C86,201.4,86.9,202,87.2,203z
		 M76.8,194.8c-0.6-1.9-2.6-3.1-4.6-2.8c-2.3,0.2-3.9,2.1-4,3.8C69.5,192.8,74.5,191.6,76.8,194.8z M71.5,197.8
		c-1.8-0.1-3.9,0.9-4.3,2.4c2.5-2.6,7.5-1.7,8.8,1.1C75.4,199.1,73.8,197.9,71.5,197.8z M83.4,199.4c0.1-1.3-0.9-2.7-2.5-3.3
		c-1.5-0.6-3.1-0.4-4.1,0.7C79.6,195.7,82.2,196.8,83.4,199.4z"/>
</g>
<text id="XMLID_13_" transform="matrix(1 0 0 1 67.2012 208.4095)" class="st83 st105 st106">CO2</text>
<g id="XMLID_33_">
	<path id="XMLID_42_" class="st82" d="M149.8,208.8c0.4,1.5,1.2,2.9,1.8,4.3c1.1,2.6-0.8,5.8-3.5,6.4c-1.4,0.3-2.6,0-3.8-0.6
		c-2.4,0.7-4.3,0-5.9-2c-1.9,1-3.9,1.6-6.1,1c-2.2-0.6-3.8-1.9-5-3.7c-1-1.4-1.6-3-1.5-4.8c0.2-2.7,1.7-4.6,3.6-6.4
		c-0.4-3.4,1.6-5.8,4-6.5c1.3-0.4,2.5-0.3,3.8,0.2c1.6,0.7,2.7,1.9,3.2,3.5c4.3-0.2,7,1.6,7.2,6.3
		C148.6,207.2,149.5,207.8,149.8,208.8z M139.2,200.5c-0.7-1.9-2.6-3.1-4.7-2.9c-2.4,0.2-4,2.2-4,3.9
		C131.8,198.4,136.8,197.2,139.2,200.5z M133.8,203.5c-1.8-0.1-4,1-4.4,2.4c2.5-2.6,7.7-1.8,9,1.2
		C137.8,204.9,136.2,203.6,133.8,203.5z M146,205.1c0.1-1.3-1-2.7-2.5-3.4c-1.5-0.6-3.1-0.4-4.2,0.7
		C142.1,201.4,144.7,202.5,146,205.1z"/>
</g>
<text id="XMLID_19_" transform="matrix(1 0 0 1 129.4132 214.3436)" class="st83 st105 st107">CO2</text>
<g id="XMLID_37_">
	<path id="XMLID_79_" class="st82" d="M200.7,213.8v12.3h-5v-0.3h-3.6h-0.3h-3.6h-0.3h-3.6h-0.3h-3.6h-0.3h-3.6h-0.3v0.3h-5v-12.3
		l14.9-9L200.7,213.8z M179.8,224.1h-3.6v1.3h3.6V224.1z M179.8,222.4h-3.6v1.3h3.6V222.4z M179.8,220.8h-3.6v1.3h3.6V220.8z
		 M179.8,219.1h-3.6v1.3h3.6V219.1z M179.8,217.4h-3.6v1.3h3.6V217.4z M179.8,214.4c-1.8,0.4-3.1,0.8-3.6,1v1.7h3.6V214.4z
		 M183.8,224.1h-3.6v1.3h3.6V224.1z M183.8,222.4h-3.6v1.3h3.6V222.4z M183.8,220.8h-3.6v1.3h3.6V220.8z M183.8,219.1h-3.6v1.3h3.6
		V219.1z M183.8,217.4h-3.6v1.3h3.6V217.4z M183.8,213.9c-1.3,0.1-2.6,0.3-3.6,0.5v2.8h3.6V213.9z M187.8,224.1h-3.6v1.3h3.6V224.1z
		 M187.8,222.4h-3.6v1.3h3.6V222.4z M187.8,220.8h-3.6v1.3h3.6V220.8z M187.8,219.1h-3.6v1.3h3.6V219.1z M187.8,217.4h-3.6v1.3h3.6
		V217.4z M187.8,213.9c-0.6,0-1.3-0.1-2-0.1c-0.6,0-1.1,0-1.7,0.1v3.3h3.6V213.9z M188.1,217.1h3.6v-2.7c-1.1-0.2-2.3-0.4-3.6-0.5
		V217.1z M188.1,218.8h3.6v-1.3h-3.6V218.8z M188.1,220.4h3.6v-1.3h-3.6V220.4z M188.1,222.1h3.6v-1.3h-3.6V222.1z M188.1,223.7h3.6
		v-1.3h-3.6V223.7z M191.8,224.1h-3.6v1.3h3.6V224.1z M195.7,224.1h-3.6v1.3h3.6V224.1z M195.7,222.4h-3.6v1.3h3.6V222.4z
		 M195.7,220.8h-3.6v1.3h3.6V220.8z M195.7,219.1h-3.6v1.3h3.6V219.1z M195.7,217.4h-3.6v1.3h3.6V217.4z M195.7,215.5
		c0,0-1.5-0.5-3.6-1v2.6h3.6V215.5z M199.5,214.4h-26.3v-6.9h26.3V214.4z"/>
	<text id="XMLID_78_" transform="matrix(1 0 0 1 172.7326 212.6402)" class="st83 st108 st109">RUNGIS</text>
</g>
</svg>
