<?xml version="1.0" encoding="utf-8"?>
<!-- Generator: Adobe Illustrator 19.0.0, SVG Export Plug-In . SVG Version: 6.00 Build 0)  -->
<svg version="1.1" id="Layer_1" xmlns="http://www.w3.org/2000/svg" xmlns:xlink="http://www.w3.org/1999/xlink" x="0px" y="0px"
	 viewBox="0 0 612 792" style="enable-background:new 0 0 612 792;" xml:space="preserve">
<style type="text/css">
	.st0{fill:url(#XMLID_25_);}
	.st1{fill:url(#XMLID_27_);}
	.st2{fill:url(#XMLID_35_);}
	.st3{fill:url(#XMLID_36_);}
	.st4{fill:url(#XMLID_38_);}
	.st5{fill:url(#XMLID_43_);}
	.st6{fill:url(#XMLID_44_);}
	.st7{fill:url(#XMLID_46_);}
	.st8{fill:url(#XMLID_47_);}
	.st9{fill:url(#XMLID_48_);}
	.st10{fill:url(#XMLID_50_);}
	.st11{fill:url(#XMLID_51_);}
	.st12{fill:url(#XMLID_52_);}
	.st13{fill:url(#XMLID_53_);}
	.st14{fill:url(#XMLID_54_);}
	.st15{fill:url(#XMLID_55_);}
	.st16{fill:url(#XMLID_56_);}
	.st17{fill:url(#XMLID_57_);}
	.st18{fill:url(#XMLID_58_);}
	.st19{fill:url(#XMLID_59_);}
	.st20{fill:url(#XMLID_61_);}
	.st21{fill:url(#XMLID_62_);}
	.st22{fill:url(#XMLID_63_);}
	.st23{fill:url(#XMLID_64_);}
	.st24{fill:url(#XMLID_70_);}
	.st25{fill:url(#XMLID_71_);}
	.st26{fill:url(#XMLID_72_);}
	.st27{fill:url(#XMLID_73_);}
	.st28{fill:url(#XMLID_74_);}
	.st29{fill:url(#XMLID_75_);}
	.st30{fill:url(#XMLID_76_);}
	.st31{fill:url(#XMLID_77_);}
	.st32{fill:url(#XMLID_80_);}
	.st33{fill:url(#XMLID_81_);}
	.st34{fill:url(#XMLID_82_);}
	.st35{fill:url(#XMLID_83_);}
	.st36{fill:url(#XMLID_84_);}
	.st37{fill:url(#XMLID_85_);}
	.st38{fill:url(#XMLID_86_);}
	.st39{fill:url(#XMLID_87_);}
	.st40{fill:url(#XMLID_88_);}
	.st41{fill:url(#XMLID_89_);}
	.st42{fill:url(#XMLID_90_);}
	.st43{fill:url(#XMLID_91_);}
	.st44{fill:url(#XMLID_92_);}
	.st45{fill:url(#XMLID_93_);}
	.st46{fill:#7DB450;}
	.st47{font-family:'RidemyBikeProBold';}
	.st48{font-size:24.1369px;}
	.st49{fill:#656869;}
	.st50{font-size:21.011px;}
	.st51{fill:#F79333;}
	.st52{font-size:22px;}
	.st53{fill:#F8BF14;}
	.st54{fill:#58595B;}
	.st55{fill:none;stroke:url(#XMLID_94_);stroke-width:17.4;stroke-miterlimit:10;stroke-dasharray:2.6,2.6;}
	.st56{fill:#96BF54;}
	.st57{font-family:'ArcherPro-Book';}
	.st58{font-size:9px;}
	.st59{font-size:10px;}
	.st60{font-family:'ArcherPro-MediumItalic';}
	.st61{font-size:12px;}
	.st62{font-family:'ThirstyRoughBol';}
	.st63{font-size:11.4px;}
	.st64{fill:#D4D826;}
	.st65{fill:#F26541;}
	.st66{fill:#689B56;}
	.st67{fill:#784C36;}
	.st68{fill:none;}
	.st69{fill:#F79434;}
	.st70{fill:#CADC46;}
	.st71{fill:#F4DD35;}
	.st72{fill:#84624B;}
	.st73{fill:#383635;}
	.st74{fill:#6F7073;}
	.st75{font-family:'FestivoLC-Basic';}
	.st76{font-size:16px;}
	.st77{font-size:11px;}
	.st78{fill:#FFFFFF;}
	.st79{font-family:'TrendSansOne-Italic';}
	.st80{font-size:5.7551px;}
	.st81{font-family:'ArcherPro-Medium';}
	.st82{font-size:10.0574px;}
	.st83{fill:#434445;}
	.st84{font-size:9.45px;}
	.st85{fill:none;stroke:#FFFFFF;stroke-width:0.454;stroke-miterlimit:10;}
	.st86{fill:none;stroke:#000000;stroke-width:0.25;stroke-miterlimit:10;}
	.st87{fill:none;stroke:#000000;stroke-width:0.25;stroke-miterlimit:10;stroke-dasharray:2.002,2.002;}
	.st88{opacity:0.92;}
	.st89{opacity:0.8;}
	.st90{opacity:0.89;}
	.st91{fill:#D95A39;}
	.st92{fill:#547837;}
	.st93{fill:#CC9259;}
	.st94{fill:#B3C23B;}
	.st95{fill:#C7B52E;}
	.st96{font-family:'TrendRoughSans-One';}
	.st97{font-size:7.8564px;}
	.st98{font-size:8.025px;}
	.st99{font-family:'TrendSansOne';}
	.st100{font-size:6.7303px;}
</style>
<g id="XMLID_40_">
	<g id="XMLID_390_">
		
			<linearGradient id="XMLID_25_" gradientUnits="userSpaceOnUse" x1="58.4918" y1="485.7" x2="296.6156" y2="485.7" gradientTransform="matrix(1 0 0 -1 0 792)">
			<stop  offset="0" style="stop-color:#BCBEC0"/>
			<stop  offset="1" style="stop-color:#F8BF14"/>
		</linearGradient>
		<polygon id="XMLID_476_" class="st0" points="58.5,280 61.1,280.2 61.1,332.5 58.5,332.6 		"/>
		
			<linearGradient id="XMLID_27_" gradientUnits="userSpaceOnUse" x1="58.4918" y1="485.65" x2="296.6156" y2="485.65" gradientTransform="matrix(1 0 0 -1 0 792)">
			<stop  offset="0" style="stop-color:#BCBEC0"/>
			<stop  offset="1" style="stop-color:#F8BF14"/>
		</linearGradient>
		<polygon id="XMLID_475_" class="st1" points="63.7,280.4 66.3,280.6 66.3,332.1 63.7,332.3 		"/>
		
			<linearGradient id="XMLID_35_" gradientUnits="userSpaceOnUse" x1="58.4918" y1="485.65" x2="296.6156" y2="485.65" gradientTransform="matrix(1 0 0 -1 0 792)">
			<stop  offset="0" style="stop-color:#BCBEC0"/>
			<stop  offset="1" style="stop-color:#F8BF14"/>
		</linearGradient>
		<polygon id="XMLID_474_" class="st2" points="68.9,280.8 71.5,280.9 71.5,331.7 68.9,331.9 		"/>
		
			<linearGradient id="XMLID_36_" gradientUnits="userSpaceOnUse" x1="58.4918" y1="485.7" x2="296.6156" y2="485.7" gradientTransform="matrix(1 0 0 -1 0 792)">
			<stop  offset="0" style="stop-color:#BCBEC0"/>
			<stop  offset="1" style="stop-color:#F8BF14"/>
		</linearGradient>
		<polygon id="XMLID_473_" class="st3" points="74.1,281.1 76.7,281.3 76.7,331.3 74.1,331.5 		"/>
		
			<linearGradient id="XMLID_38_" gradientUnits="userSpaceOnUse" x1="58.4918" y1="485.7" x2="296.6156" y2="485.7" gradientTransform="matrix(1 0 0 -1 0 792)">
			<stop  offset="0" style="stop-color:#BCBEC0"/>
			<stop  offset="1" style="stop-color:#F8BF14"/>
		</linearGradient>
		<polygon id="XMLID_472_" class="st4" points="79.3,281.5 81.9,281.7 81.9,330.9 79.3,331.1 		"/>
		
			<linearGradient id="XMLID_43_" gradientUnits="userSpaceOnUse" x1="58.4918" y1="485.7" x2="296.6156" y2="485.7" gradientTransform="matrix(1 0 0 -1 0 792)">
			<stop  offset="0" style="stop-color:#BCBEC0"/>
			<stop  offset="1" style="stop-color:#F8BF14"/>
		</linearGradient>
		<polygon id="XMLID_471_" class="st5" points="84.5,281.9 87.1,282.1 87.1,330.5 84.5,330.7 		"/>
		
			<linearGradient id="XMLID_44_" gradientUnits="userSpaceOnUse" x1="58.4918" y1="485.7" x2="296.6156" y2="485.7" gradientTransform="matrix(1 0 0 -1 0 792)">
			<stop  offset="0" style="stop-color:#BCBEC0"/>
			<stop  offset="1" style="stop-color:#F8BF14"/>
		</linearGradient>
		<polygon id="XMLID_454_" class="st6" points="89.7,282.3 92.3,282.5 92.3,330.1 89.7,330.3 		"/>
		
			<linearGradient id="XMLID_46_" gradientUnits="userSpaceOnUse" x1="58.4918" y1="485.65" x2="296.6157" y2="485.65" gradientTransform="matrix(1 0 0 -1 0 792)">
			<stop  offset="0" style="stop-color:#BCBEC0"/>
			<stop  offset="1" style="stop-color:#F8BF14"/>
		</linearGradient>
		<polygon id="XMLID_453_" class="st7" points="94.9,282.7 97.5,282.9 97.5,329.8 94.9,330 		"/>
		
			<linearGradient id="XMLID_47_" gradientUnits="userSpaceOnUse" x1="58.4918" y1="485.65" x2="296.6157" y2="485.65" gradientTransform="matrix(1 0 0 -1 0 792)">
			<stop  offset="0" style="stop-color:#BCBEC0"/>
			<stop  offset="1" style="stop-color:#F8BF14"/>
		</linearGradient>
		<polygon id="XMLID_452_" class="st8" points="100.1,283.1 102.7,283.3 102.7,329.4 100.1,329.6 		"/>
		
			<linearGradient id="XMLID_48_" gradientUnits="userSpaceOnUse" x1="58.492" y1="485.7" x2="296.6158" y2="485.7" gradientTransform="matrix(1 0 0 -1 0 792)">
			<stop  offset="0" style="stop-color:#BCBEC0"/>
			<stop  offset="1" style="stop-color:#F8BF14"/>
		</linearGradient>
		<polygon id="XMLID_451_" class="st9" points="105.3,283.4 107.9,283.6 107.9,329 105.3,329.2 		"/>
		
			<linearGradient id="XMLID_50_" gradientUnits="userSpaceOnUse" x1="58.492" y1="485.7" x2="296.6158" y2="485.7" gradientTransform="matrix(1 0 0 -1 0 792)">
			<stop  offset="0" style="stop-color:#BCBEC0"/>
			<stop  offset="1" style="stop-color:#F8BF14"/>
		</linearGradient>
		<polygon id="XMLID_449_" class="st10" points="110.5,283.8 113.1,284 113.1,328.6 110.5,328.8 		"/>
		
			<linearGradient id="XMLID_51_" gradientUnits="userSpaceOnUse" x1="58.4917" y1="485.7" x2="296.6155" y2="485.7" gradientTransform="matrix(1 0 0 -1 0 792)">
			<stop  offset="0" style="stop-color:#BCBEC0"/>
			<stop  offset="1" style="stop-color:#F8BF14"/>
		</linearGradient>
		<polygon id="XMLID_448_" class="st11" points="115.7,284.2 118.3,284.4 118.3,328.2 115.7,328.4 		"/>
		
			<linearGradient id="XMLID_52_" gradientUnits="userSpaceOnUse" x1="58.4916" y1="485.7" x2="296.6155" y2="485.7" gradientTransform="matrix(1 0 0 -1 0 792)">
			<stop  offset="0" style="stop-color:#BCBEC0"/>
			<stop  offset="1" style="stop-color:#F8BF14"/>
		</linearGradient>
		<polygon id="XMLID_447_" class="st12" points="120.9,284.6 123.5,284.8 123.5,327.8 120.9,328 		"/>
		
			<linearGradient id="XMLID_53_" gradientUnits="userSpaceOnUse" x1="58.4916" y1="485.7" x2="296.6154" y2="485.7" gradientTransform="matrix(1 0 0 -1 0 792)">
			<stop  offset="0" style="stop-color:#BCBEC0"/>
			<stop  offset="1" style="stop-color:#F8BF14"/>
		</linearGradient>
		<polygon id="XMLID_445_" class="st13" points="126.1,285 128.7,285.2 128.7,327.4 126.1,327.6 		"/>
		
			<linearGradient id="XMLID_54_" gradientUnits="userSpaceOnUse" x1="58.4921" y1="485.65" x2="296.6159" y2="485.65" gradientTransform="matrix(1 0 0 -1 0 792)">
			<stop  offset="0" style="stop-color:#BCBEC0"/>
			<stop  offset="1" style="stop-color:#F8BF14"/>
		</linearGradient>
		<polygon id="XMLID_444_" class="st14" points="131.3,285.4 133.9,285.6 133.9,327.1 131.3,327.3 		"/>
		
			<linearGradient id="XMLID_55_" gradientUnits="userSpaceOnUse" x1="58.4921" y1="485.65" x2="296.6159" y2="485.65" gradientTransform="matrix(1 0 0 -1 0 792)">
			<stop  offset="0" style="stop-color:#BCBEC0"/>
			<stop  offset="1" style="stop-color:#F8BF14"/>
		</linearGradient>
		<polygon id="XMLID_443_" class="st15" points="136.5,285.8 139.1,285.9 139.1,326.7 136.5,326.9 		"/>
		
			<linearGradient id="XMLID_56_" gradientUnits="userSpaceOnUse" x1="58.4916" y1="485.7" x2="296.6154" y2="485.7" gradientTransform="matrix(1 0 0 -1 0 792)">
			<stop  offset="0" style="stop-color:#BCBEC0"/>
			<stop  offset="1" style="stop-color:#F8BF14"/>
		</linearGradient>
		<polygon id="XMLID_442_" class="st16" points="141.7,286.1 144.3,286.3 144.3,326.3 141.7,326.5 		"/>
		
			<linearGradient id="XMLID_57_" gradientUnits="userSpaceOnUse" x1="58.4916" y1="485.7" x2="296.6154" y2="485.7" gradientTransform="matrix(1 0 0 -1 0 792)">
			<stop  offset="0" style="stop-color:#BCBEC0"/>
			<stop  offset="1" style="stop-color:#F8BF14"/>
		</linearGradient>
		<polygon id="XMLID_441_" class="st17" points="146.9,286.5 149.5,286.7 149.5,325.9 146.9,326.1 		"/>
		
			<linearGradient id="XMLID_58_" gradientUnits="userSpaceOnUse" x1="58.4916" y1="485.7" x2="296.6154" y2="485.7" gradientTransform="matrix(1 0 0 -1 0 792)">
			<stop  offset="0" style="stop-color:#BCBEC0"/>
			<stop  offset="1" style="stop-color:#F8BF14"/>
		</linearGradient>
		<polygon id="XMLID_440_" class="st18" points="152.1,286.9 154.7,287.1 154.7,325.5 152.1,325.7 		"/>
		
			<linearGradient id="XMLID_59_" gradientUnits="userSpaceOnUse" x1="58.4921" y1="485.7" x2="296.616" y2="485.7" gradientTransform="matrix(1 0 0 -1 0 792)">
			<stop  offset="0" style="stop-color:#BCBEC0"/>
			<stop  offset="1" style="stop-color:#F8BF14"/>
		</linearGradient>
		<polygon id="XMLID_439_" class="st19" points="157.3,287.3 159.9,287.5 159.9,325.1 157.3,325.3 		"/>
		
			<linearGradient id="XMLID_61_" gradientUnits="userSpaceOnUse" x1="58.4922" y1="485.7" x2="296.616" y2="485.7" gradientTransform="matrix(1 0 0 -1 0 792)">
			<stop  offset="0" style="stop-color:#BCBEC0"/>
			<stop  offset="1" style="stop-color:#F8BF14"/>
		</linearGradient>
		<polygon id="XMLID_438_" class="st20" points="162.5,287.7 165.1,287.9 165.1,324.8 162.5,324.9 		"/>
		
			<linearGradient id="XMLID_62_" gradientUnits="userSpaceOnUse" x1="58.4915" y1="485.65" x2="296.6154" y2="485.65" gradientTransform="matrix(1 0 0 -1 0 792)">
			<stop  offset="0" style="stop-color:#BCBEC0"/>
			<stop  offset="1" style="stop-color:#F8BF14"/>
		</linearGradient>
		<polygon id="XMLID_437_" class="st21" points="167.7,288.1 170.3,288.3 170.3,324.4 167.7,324.6 		"/>
		
			<linearGradient id="XMLID_63_" gradientUnits="userSpaceOnUse" x1="58.4915" y1="485.65" x2="296.6154" y2="485.65" gradientTransform="matrix(1 0 0 -1 0 792)">
			<stop  offset="0" style="stop-color:#BCBEC0"/>
			<stop  offset="1" style="stop-color:#F8BF14"/>
		</linearGradient>
		<polygon id="XMLID_436_" class="st22" points="172.9,288.5 175.5,288.6 175.5,324 172.9,324.2 		"/>
		
			<linearGradient id="XMLID_64_" gradientUnits="userSpaceOnUse" x1="58.4915" y1="485.7" x2="296.6153" y2="485.7" gradientTransform="matrix(1 0 0 -1 0 792)">
			<stop  offset="0" style="stop-color:#BCBEC0"/>
			<stop  offset="1" style="stop-color:#F8BF14"/>
		</linearGradient>
		<polygon id="XMLID_435_" class="st23" points="178.1,288.8 180.7,289 180.7,323.6 178.1,323.8 		"/>
		
			<linearGradient id="XMLID_70_" gradientUnits="userSpaceOnUse" x1="58.4922" y1="485.7" x2="296.6161" y2="485.7" gradientTransform="matrix(1 0 0 -1 0 792)">
			<stop  offset="0" style="stop-color:#BCBEC0"/>
			<stop  offset="1" style="stop-color:#F8BF14"/>
		</linearGradient>
		<polygon id="XMLID_434_" class="st24" points="183.3,289.2 185.9,289.4 185.9,323.2 183.3,323.4 		"/>
		
			<linearGradient id="XMLID_71_" gradientUnits="userSpaceOnUse" x1="58.4922" y1="485.7" x2="296.6161" y2="485.7" gradientTransform="matrix(1 0 0 -1 0 792)">
			<stop  offset="0" style="stop-color:#BCBEC0"/>
			<stop  offset="1" style="stop-color:#F8BF14"/>
		</linearGradient>
		<polygon id="XMLID_433_" class="st25" points="188.5,289.6 191.1,289.8 191.1,322.8 188.5,323 		"/>
		
			<linearGradient id="XMLID_72_" gradientUnits="userSpaceOnUse" x1="58.4923" y1="485.7" x2="296.6161" y2="485.7" gradientTransform="matrix(1 0 0 -1 0 792)">
			<stop  offset="0" style="stop-color:#BCBEC0"/>
			<stop  offset="1" style="stop-color:#F8BF14"/>
		</linearGradient>
		<polygon id="XMLID_432_" class="st26" points="193.7,290 196.3,290.2 196.3,322.4 193.7,322.6 		"/>
		
			<linearGradient id="XMLID_73_" gradientUnits="userSpaceOnUse" x1="58.4915" y1="485.65" x2="296.6153" y2="485.65" gradientTransform="matrix(1 0 0 -1 0 792)">
			<stop  offset="0" style="stop-color:#BCBEC0"/>
			<stop  offset="1" style="stop-color:#F8BF14"/>
		</linearGradient>
		<polygon id="XMLID_431_" class="st27" points="198.9,290.4 201.5,290.6 201.5,322.1 198.9,322.3 		"/>
		
			<linearGradient id="XMLID_74_" gradientUnits="userSpaceOnUse" x1="58.4914" y1="485.65" x2="296.6153" y2="485.65" gradientTransform="matrix(1 0 0 -1 0 792)">
			<stop  offset="0" style="stop-color:#BCBEC0"/>
			<stop  offset="1" style="stop-color:#F8BF14"/>
		</linearGradient>
		<polygon id="XMLID_430_" class="st28" points="204.1,290.8 206.7,291 206.7,321.7 204.1,321.9 		"/>
		
			<linearGradient id="XMLID_75_" gradientUnits="userSpaceOnUse" x1="58.4914" y1="485.7" x2="296.6153" y2="485.7" gradientTransform="matrix(1 0 0 -1 0 792)">
			<stop  offset="0" style="stop-color:#BCBEC0"/>
			<stop  offset="1" style="stop-color:#F8BF14"/>
		</linearGradient>
		<polygon id="XMLID_429_" class="st29" points="209.3,291.1 211.9,291.3 211.9,321.3 209.3,321.5 		"/>
		
			<linearGradient id="XMLID_76_" gradientUnits="userSpaceOnUse" x1="58.4923" y1="485.7" x2="296.6162" y2="485.7" gradientTransform="matrix(1 0 0 -1 0 792)">
			<stop  offset="0" style="stop-color:#BCBEC0"/>
			<stop  offset="1" style="stop-color:#F8BF14"/>
		</linearGradient>
		<polygon id="XMLID_428_" class="st30" points="214.5,291.5 217.1,291.7 217.1,320.9 214.5,321.1 		"/>
		
			<linearGradient id="XMLID_77_" gradientUnits="userSpaceOnUse" x1="58.4924" y1="485.7" x2="296.6162" y2="485.7" gradientTransform="matrix(1 0 0 -1 0 792)">
			<stop  offset="0" style="stop-color:#BCBEC0"/>
			<stop  offset="1" style="stop-color:#F8BF14"/>
		</linearGradient>
		<polygon id="XMLID_427_" class="st31" points="219.7,291.9 222.3,292.1 222.3,320.5 219.7,320.7 		"/>
		
			<linearGradient id="XMLID_80_" gradientUnits="userSpaceOnUse" x1="58.4914" y1="485.7" x2="296.6152" y2="485.7" gradientTransform="matrix(1 0 0 -1 0 792)">
			<stop  offset="0" style="stop-color:#BCBEC0"/>
			<stop  offset="1" style="stop-color:#F8BF14"/>
		</linearGradient>
		<polygon id="XMLID_421_" class="st32" points="224.9,292.3 227.5,292.5 227.5,320.1 224.9,320.3 		"/>
		
			<linearGradient id="XMLID_81_" gradientUnits="userSpaceOnUse" x1="58.4914" y1="485.7" x2="296.6152" y2="485.7" gradientTransform="matrix(1 0 0 -1 0 792)">
			<stop  offset="0" style="stop-color:#BCBEC0"/>
			<stop  offset="1" style="stop-color:#F8BF14"/>
		</linearGradient>
		<polygon id="XMLID_420_" class="st33" points="230.1,292.7 232.7,292.9 232.7,319.7 230.1,319.9 		"/>
		
			<linearGradient id="XMLID_82_" gradientUnits="userSpaceOnUse" x1="58.4914" y1="485.65" x2="296.6152" y2="485.65" gradientTransform="matrix(1 0 0 -1 0 792)">
			<stop  offset="0" style="stop-color:#BCBEC0"/>
			<stop  offset="1" style="stop-color:#F8BF14"/>
		</linearGradient>
		<polygon id="XMLID_419_" class="st34" points="235.3,293.1 237.9,293.3 237.9,319.4 235.3,319.6 		"/>
		
			<linearGradient id="XMLID_83_" gradientUnits="userSpaceOnUse" x1="58.4914" y1="485.65" x2="296.6152" y2="485.65" gradientTransform="matrix(1 0 0 -1 0 792)">
			<stop  offset="0" style="stop-color:#BCBEC0"/>
			<stop  offset="1" style="stop-color:#F8BF14"/>
		</linearGradient>
		<polygon id="XMLID_418_" class="st35" points="240.5,293.5 243.1,293.7 243.1,319 240.5,319.2 		"/>
		
			<linearGradient id="XMLID_84_" gradientUnits="userSpaceOnUse" x1="58.4913" y1="485.7" x2="296.6152" y2="485.7" gradientTransform="matrix(1 0 0 -1 0 792)">
			<stop  offset="0" style="stop-color:#BCBEC0"/>
			<stop  offset="1" style="stop-color:#F8BF14"/>
		</linearGradient>
		<polygon id="XMLID_417_" class="st36" points="245.7,293.8 248.3,294 248.3,318.6 245.7,318.8 		"/>
		
			<linearGradient id="XMLID_85_" gradientUnits="userSpaceOnUse" x1="58.4913" y1="485.7" x2="296.6152" y2="485.7" gradientTransform="matrix(1 0 0 -1 0 792)">
			<stop  offset="0" style="stop-color:#BCBEC0"/>
			<stop  offset="1" style="stop-color:#F8BF14"/>
		</linearGradient>
		<polygon id="XMLID_416_" class="st37" points="250.9,294.2 253.5,294.4 253.5,318.2 250.9,318.4 		"/>
		
			<linearGradient id="XMLID_86_" gradientUnits="userSpaceOnUse" x1="58.4937" y1="485.7" x2="296.6175" y2="485.7" gradientTransform="matrix(1 0 0 -1 0 792)">
			<stop  offset="0" style="stop-color:#BCBEC0"/>
			<stop  offset="1" style="stop-color:#F8BF14"/>
		</linearGradient>
		<polygon id="XMLID_415_" class="st38" points="256.1,294.6 258.7,294.8 258.7,317.8 256.1,318 		"/>
		
			<linearGradient id="XMLID_87_" gradientUnits="userSpaceOnUse" x1="58.4913" y1="485.7" x2="296.6151" y2="485.7" gradientTransform="matrix(1 0 0 -1 0 792)">
			<stop  offset="0" style="stop-color:#BCBEC0"/>
			<stop  offset="1" style="stop-color:#F8BF14"/>
		</linearGradient>
		<polygon id="XMLID_414_" class="st39" points="261.3,295 263.9,295.2 263.9,317.4 261.3,317.6 		"/>
		
			<linearGradient id="XMLID_88_" gradientUnits="userSpaceOnUse" x1="58.4913" y1="485.7" x2="296.6151" y2="485.7" gradientTransform="matrix(1 0 0 -1 0 792)">
			<stop  offset="0" style="stop-color:#BCBEC0"/>
			<stop  offset="1" style="stop-color:#F8BF14"/>
		</linearGradient>
		<polygon id="XMLID_411_" class="st40" points="266.5,295.4 269.1,295.6 269.1,317.1 266.5,317.2 		"/>
		
			<linearGradient id="XMLID_89_" gradientUnits="userSpaceOnUse" x1="58.4913" y1="485.65" x2="296.6151" y2="485.65" gradientTransform="matrix(1 0 0 -1 0 792)">
			<stop  offset="0" style="stop-color:#BCBEC0"/>
			<stop  offset="1" style="stop-color:#F8BF14"/>
		</linearGradient>
		<polygon id="XMLID_395_" class="st41" points="271.7,295.8 274.3,296 274.3,316.7 271.7,316.9 		"/>
		
			<linearGradient id="XMLID_90_" gradientUnits="userSpaceOnUse" x1="58.4913" y1="485.65" x2="296.6151" y2="485.65" gradientTransform="matrix(1 0 0 -1 0 792)">
			<stop  offset="0" style="stop-color:#BCBEC0"/>
			<stop  offset="1" style="stop-color:#F8BF14"/>
		</linearGradient>
		<polygon id="XMLID_394_" class="st42" points="276.9,296.2 279.5,296.3 279.5,316.3 276.9,316.5 		"/>
		
			<linearGradient id="XMLID_91_" gradientUnits="userSpaceOnUse" x1="58.4939" y1="485.7" x2="296.6177" y2="485.7" gradientTransform="matrix(1 0 0 -1 0 792)">
			<stop  offset="0" style="stop-color:#BCBEC0"/>
			<stop  offset="1" style="stop-color:#F8BF14"/>
		</linearGradient>
		<polygon id="XMLID_393_" class="st43" points="282.1,296.5 284.7,296.7 284.7,315.9 282.1,316.1 		"/>
		
			<linearGradient id="XMLID_92_" gradientUnits="userSpaceOnUse" x1="58.4912" y1="485.7" x2="296.6151" y2="485.7" gradientTransform="matrix(1 0 0 -1 0 792)">
			<stop  offset="0" style="stop-color:#BCBEC0"/>
			<stop  offset="1" style="stop-color:#F8BF14"/>
		</linearGradient>
		<polygon id="XMLID_392_" class="st44" points="287.3,296.9 289.9,297.1 289.9,315.5 287.3,315.7 		"/>
		
			<linearGradient id="XMLID_93_" gradientUnits="userSpaceOnUse" x1="58.4912" y1="485.7" x2="296.6151" y2="485.7" gradientTransform="matrix(1 0 0 -1 0 792)">
			<stop  offset="0" style="stop-color:#BCBEC0"/>
			<stop  offset="1" style="stop-color:#F8BF14"/>
		</linearGradient>
		<polygon id="XMLID_391_" class="st45" points="292.5,297.3 295.1,297.5 295.1,315.1 292.5,315.3 		"/>
	</g>
</g>
<text id="XMLID_413_" transform="matrix(1 0 0 1 50.5132 98.8118)" class="st46 st47 st48">Distribution Marchambul : moins de km, plus frais...</text>
<text id="XMLID_412_" transform="matrix(1 0 0 1 50.5122 236.5153)" class="st49 st47 st50">Grande distribution</text>
<text id="XMLID_389_" transform="matrix(1 0 0 1 344.7485 100.244)" class="st51 st47 st52">et moins d’intermédiaires</text>
<polygon id="XMLID_337_" class="st53" points="273.1,329.3 296.1,306.3 273.1,283.3 292.7,283.3 315.7,306.3 292.7,329.3 "/>
<path id="XMLID_325_" class="st54" d="M58.9,271.3c0.7,0,0.8,0.5,1,1.1c0.2,0,0.4-0.1,0.6-0.1c0,0.1,0.1,0.1,0.1,0.1
	c0,0.7-0.3,1.2-0.9,1.4c0,0.2-0.1,0.3-0.1,0.5c0.1,0.1,0.2,0.2,0.2,0.4c0.4,0.3,1.1,0.4,1.6,0.7v0.7c0.5,0.8,0.8,1.9,1.7,2.2
	c0.1,0.1,0.1,0.1,0.1,0.3c0.1-0.1,0.3-0.1,0.3-0.1c0.1-1.2,0.5-2.6,0.4-3.5c-0.3-0.3-1.2-0.4-1.5-0.6s-0.4-1,0-1.3
	c0,0.1-0.1,0.2,0,0.3c0.2,0.1,0.1-0.3,0.3-0.2c0,0.1-0.1,0.2,0,0.3c0.2,0.1,0.1-0.2,0.3-0.2c0,0.1-0.1,0.3,0.1,0.3
	c0.1,0,0-0.3,0.2-0.2c0.1,0-0.2,0.3,0,0.3s0.1-0.3,0.3-0.2c0,0.1-0.2,0.3,0,0.3c0.1,0,0.1-0.3,0.2-0.2c0,0.1-0.1,0.2,0,0.3
	c0.2,0,0.1-0.2,0.3-0.2c0,0.1-0.1,0.3,0.1,0.3c0.1,0,0.1-0.3,0.2-0.2c-0.1,0.1-0.1,0.3,0,0.2c0.2,0,0-0.3,0.2-0.2
	c0,0.1-0.1,0.3,0,0.3c0.2,0,0.1-0.2,0.2-0.2c0,0.1-0.1,0.2,0,0.3c0.2,0.1,0.1-0.2,0.3-0.2c0.1,0-0.2,0.2,0,0.2
	c0.2,0.1,0.1-0.2,0.3-0.2c0.1,0-0.1,0.3,0.1,0.3c0.1,0,0.1-0.3,0.2-0.2c0,0.1-0.1,0.2,0,0.3c0.2,0.1,0.2-0.4,0.3-0.2
	c0,0-0.2,0.3,0,0.2c0.1,0.1,0.1-0.3,0.3-0.2c-0.2,0.5-0.1,0.9-0.5,1.1c-0.6,0.3-1.5-0.1-1.7,0.6c-0.1,0.1,0,0.2,0,0.4
	c0,0.9-0.4,1.9-0.4,2.9c0.6,0.1,0.3,1.2-0.2,1.2c-0.6,4-1.3,8.2-1.9,12.3c-0.5-0.1-0.8,0.1-1.1,0s-0.4-0.7-0.9-0.7
	c0-0.6,0.3-1.1,0.2-1.7c0-0.2-0.2-0.3-0.2-0.4c-0.1-0.4,0.2-1.1-0.4-1.3c0-1.9-0.3-3.3-0.8-4.7c-0.4,1.3-0.6,2.8-0.6,4.4
	c0,0.1-0.2,0.1-0.1,0.2c0.1,0.1,0.1,0.2,0.1,0.4c-0.2,0.2-0.2,0.6-0.2,1c-0.4,0.3-0.2,0.9-0.3,1.3c0.2,0.3,0.3,1-0.2,1.1
	c0,0.6-1.1,0.7-1.3,0.3c0.3-0.5,0.6-1,0.7-1.7c0.1-0.6-0.3-1.1-0.4-1.6c0-0.1,0-0.3,0-0.3c-0.6-0.5,0.3-1.1,0.1-2
	c-0.4,0.4-1.6,0.4-2.1,0.1c-0.2-0.8-0.2-1.7-0.4-2.6c0.1-0.1,0.2-0.1,0.2-0.2c-0.3-0.2-0.1-1,0.1-1.2c0.4,0,0.4,0.4,0.6,0.5
	c0.1-0.2,0.1-0.5,0.1-0.7c0-0.1-0.2-0.1-0.2-0.2c0.2-0.7,0.4-1.6,0.2-2.4c0.1-0.2,0.2-0.4,0.4-0.6c0-0.2,0.1-0.2,0-0.4
	c0.2-0.2,0.2-0.5,0.2-0.8c0.1-1.2,0.7-2.1,0.9-3.2c0.5,0,0.9-0.3,1.4-0.2c0.1-0.1,0.1-0.3,0.3-0.4c0-0.1-0.1-0.3,0-0.5
	c-0.9-0.1-1.6-1.6,0-1.5c0-0.2,0.1-0.3,0.1-0.5C58.4,271.6,58.7,271.5,58.9,271.3 M66.2,274.1c-1.4-0.2-2.7-0.4-4-0.6
	c-0.1,1.4,1.8,0.7,1.9,1.9c-0.1,0,0,0.2,0,0C64.2,274.4,66.2,275.3,66.2,274.1 M60.8,278.3c-0.1,0.7-0.1,1.4-0.1,2.1
	c0,0.4,0.2,0.8,0.2,1.2c0.1,1.2,0,2.4,0.1,3.6c0,0.2,0.1,0.3,0.2,0.5c0,0.2-0.1,0.5-0.1,0.7c0,0.5,0,1.1,0,1.5
	c0,0.2,0.1,0.4,0.1,0.6s-0.2,0.2-0.3,0.4c0,0.1-0.2,0.9-0.2,1s0.1,0.2,0.1,0.4c0.1,0.4,0,0.9,0.4,1.1c0.5-2.9,0.9-6,1.5-8.9
	c0.2-1,0.4-1.9,0.4-2.9c-0.2-0.1-0.2,0.4-0.4,0.4C61.9,279.6,61,279.3,60.8,278.3 M56.4,278.8c-0.2,0.6-0.4,1.1-0.5,1.7
	c-0.2,0-0.2,0-0.3,0c-0.3,0.3-0.3,0.9,0,1.1c0,0.4-0.1,0.7-0.4,0.8v0.6c0.1,0,0.2-0.1,0.4,0s0.2,0.3,0.2,0.5c0.2-0.1,0.3,0.1,0.3,0
	c0.3-1.4,0.1-2.8,0.4-4.1C56.5,279.2,56.4,279.1,56.4,278.8 M54.9,282.5c-0.1,0.2-0.1,0.5-0.1,0.8c0.1,0,0.1,0.1,0.3,0
	c0.1-0.2,0.1-0.5,0.1-0.8C55.1,282.5,55.1,282.5,54.9,282.5"/>
<path id="XMLID_319_" class="st54" d="M57.2,315.2c0.6,0,0.8,0.5,1,1c0.2,0,0.4-0.1,0.6-0.1c0,0.1,0.1,0.1,0.1,0.1
	c0,0.7-0.3,1.2-0.9,1.3c0,0.2-0.1,0.3-0.1,0.5c0.1,0.1,0.2,0.2,0.2,0.4c0.4,0.3,1.1,0.3,1.5,0.7v0.7c0.5,0.8,0.7,1.8,1.7,2.2
	c0.1,0.1,0.1,0.1,0.1,0.3c0.1-0.1,0.3-0.1,0.3-0.1c0.1-1.1,0.5-2.6,0.4-3.5c-0.3-0.3-1.1-0.4-1.5-0.6c-0.3-0.2-0.4-1,0-1.3
	c0,0.1-0.1,0.2,0,0.3c0.2,0.1,0.1-0.3,0.3-0.2c0,0.1-0.1,0.2,0,0.3c0.2,0.1,0.1-0.2,0.3-0.2c0,0.1-0.1,0.3,0.1,0.3
	c0.1,0,0-0.3,0.2-0.2c0.1,0-0.2,0.2,0,0.3c0.2,0,0.1-0.3,0.3-0.2c0,0.1-0.2,0.3,0,0.3c0.1,0,0.1-0.2,0.2-0.2c0,0.1-0.1,0.2,0,0.3
	c0.2,0,0.1-0.2,0.3-0.2c0,0.1-0.1,0.3,0.1,0.3c0.1,0,0.1-0.3,0.2-0.2c-0.1,0.1-0.1,0.3,0,0.2c0.2,0,0-0.3,0.2-0.2
	c0,0.1-0.1,0.3,0,0.3c0.2,0,0.1-0.2,0.2-0.2c0,0.1-0.1,0.2,0,0.3c0.2,0.1,0.1-0.2,0.3-0.2c0.1,0-0.1,0.2,0,0.2
	c0.2,0.1,0.1-0.2,0.3-0.2c0.1,0-0.1,0.3,0.1,0.3c0.1,0,0.1-0.3,0.2-0.2c0,0.1-0.1,0.2,0,0.3c0.2,0.1,0.1-0.3,0.3-0.2
	c0,0-0.2,0.3,0,0.2c0.1,0.1,0.1-0.2,0.3-0.2c-0.2,0.5-0.1,0.9-0.5,1.1c-0.6,0.3-1.5-0.1-1.7,0.6c-0.1,0.1,0,0.2,0,0.4
	c0,0.9-0.4,1.8-0.4,2.9c0.5,0.1,0.3,1.1-0.2,1.2c-0.6,3.9-1.2,8.1-1.9,12c-0.5-0.1-0.7,0.1-1.1,0c-0.3-0.1-0.4-0.7-0.8-0.7
	c0-0.6,0.3-1,0.2-1.6c0-0.2-0.2-0.3-0.2-0.4c-0.1-0.4,0.2-1-0.4-1.3c0-1.8-0.3-3.2-0.8-4.6c-0.4,1.3-0.6,2.7-0.6,4.3
	c0,0.1-0.2,0.1-0.1,0.2c0.1,0.1,0.1,0.2,0.1,0.4c-0.2,0.2-0.2,0.5-0.2,1c-0.4,0.3-0.2,0.9-0.3,1.3c0.2,0.3,0.3,1-0.2,1
	c0,0.5-1.1,0.7-1.3,0.3c0.3-0.5,0.6-1,0.7-1.6c0.1-0.6-0.3-1-0.4-1.5c0-0.1,0-0.3,0-0.3c-0.6-0.5,0.3-1.1,0.1-1.9
	c-0.4,0.3-1.6,0.4-2,0.1c-0.1-0.8-0.2-1.7-0.4-2.5c0.1-0.1,0.2-0.1,0.2-0.2c-0.3-0.2-0.1-1,0.1-1.2c0.4,0,0.4,0.4,0.6,0.5
	c0.1-0.2,0.1-0.5,0.1-0.7c0-0.1-0.2-0.1-0.2-0.2c0.2-0.7,0.4-1.6,0.2-2.4c0.1-0.2,0.2-0.4,0.4-0.6c0-0.2,0.1-0.2,0-0.4
	c0.2-0.2,0.2-0.5,0.2-0.8c0.1-1.1,0.7-2.1,0.9-3.1c0.5,0,0.9-0.3,1.3-0.2c0.1-0.1,0.1-0.3,0.3-0.4c0-0.1-0.1-0.3,0-0.5
	c-0.8-0.1-1.5-1.6,0-1.5c0-0.2,0.1-0.3,0.1-0.5C56.8,315.5,57,315.3,57.2,315.2 M64.4,317.9c-1.3-0.2-2.6-0.4-3.9-0.6
	c-0.1,1.4,1.8,0.7,1.8,1.9c-0.1,0,0,0.2,0,0C62.4,318.2,64.4,319,64.4,317.9 M59.1,322c-0.1,0.7-0.1,1.4-0.1,2
	c0,0.4,0.2,0.8,0.2,1.2c0.1,1.2,0,2.4,0.1,3.5c0,0.2,0.1,0.3,0.2,0.5c0,0.2-0.1,0.5-0.1,0.7c0,0.5,0,1.1,0,1.5
	c0,0.2,0.1,0.4,0.1,0.6s-0.2,0.2-0.3,0.4c0,0.1-0.2,0.9-0.2,1s0.1,0.2,0.1,0.4c0.1,0.4,0,0.9,0.4,1c0.5-2.9,0.9-5.8,1.4-8.7
	c0.2-0.9,0.4-1.9,0.4-2.8c-0.2-0.1-0.2,0.4-0.4,0.4C60.2,323.3,59.3,323,59.1,322 M54.8,322.5c-0.2,0.5-0.4,1.1-0.5,1.7
	c-0.1,0-0.2,0-0.3,0c-0.2,0.2-0.3,0.9,0,1.1c0,0.4-0.1,0.7-0.4,0.8v0.6c0.1,0,0.2-0.1,0.4,0s0.2,0.3,0.2,0.5c0.2-0.1,0.2,0.1,0.3,0
	c0.3-1.4,0.1-2.8,0.4-4C54.9,322.9,54.8,322.8,54.8,322.5 M53.4,326.1c-0.1,0.2-0.1,0.5-0.1,0.8c0.1,0,0.1,0.1,0.3,0
	c0.1-0.2,0.1-0.5,0.1-0.8C53.5,326.1,53.5,326.1,53.4,326.1"/>
<path id="XMLID_313_" class="st54" d="M56.8,294.3c0.6,0,0.8,0.5,0.9,1c0.2,0,0.3-0.1,0.6-0.1c0,0.1,0.1,0.1,0.1,0.1
	c0,0.7-0.3,1.1-0.9,1.3c0,0.2-0.1,0.3-0.1,0.5c0.1,0.1,0.2,0.2,0.1,0.4c0.4,0.3,1,0.3,1.5,0.6v0.6c0.5,0.8,0.7,1.7,1.6,2.1
	c0,0.1,0.1,0.1,0.1,0.3C60.8,301,61,301,61,301c0.1-1.1,0.5-2.4,0.4-3.3c-0.3-0.3-1.1-0.4-1.4-0.6c-0.3-0.2-0.4-1,0-1.2
	c0,0.1-0.1,0.2,0,0.3c0.2,0,0.1-0.2,0.3-0.2c0,0.1-0.1,0.2,0,0.3c0.2,0.1,0.1-0.2,0.3-0.2c0,0.1-0.1,0.3,0.1,0.3
	c0.1,0,0-0.3,0.2-0.2c0.1,0-0.2,0.2,0,0.3c0.2,0,0.1-0.3,0.3-0.2c0,0.1-0.2,0.3,0,0.3c0.1,0,0.1-0.2,0.2-0.2c0,0.1-0.1,0.2,0,0.3
	c0.2,0,0.1-0.2,0.3-0.2c0,0.1-0.1,0.3,0.1,0.3c0.1,0,0.1-0.3,0.2-0.2c-0.1,0.1-0.1,0.2,0,0.2c0.2,0,0-0.3,0.2-0.2
	c0,0.1-0.1,0.3,0,0.3s0.1-0.2,0.2-0.2c0,0.1-0.1,0.2,0,0.3c0.2,0.1,0.1-0.2,0.3-0.2c0.1,0-0.1,0.2,0,0.2c0.2,0.1,0.1-0.2,0.3-0.2
	c0,0-0.1,0.2,0.1,0.3c0.1,0,0.1-0.2,0.2-0.2c0,0.1-0.1,0.2,0,0.3c0.2,0.1,0.1-0.3,0.3-0.2c0,0-0.2,0.2,0,0.2
	c0.1,0.1,0.1-0.2,0.3-0.2c-0.2,0.5-0.1,0.8-0.5,1.1c-0.6,0.3-1.4-0.1-1.6,0.5c-0.1,0.1,0,0.2,0,0.3c0,0.8-0.4,1.7-0.4,2.7
	c0.5,0,0.3,1.1-0.2,1.1c-0.5,3.7-1.2,7.6-1.8,11.4c-0.4-0.1-0.7,0.1-1,0c-0.2-0.1-0.4-0.7-0.8-0.6c0-0.6,0.3-1,0.2-1.5
	c0-0.1-0.2-0.3-0.2-0.4c-0.1-0.4,0.1-1-0.3-1.2c0-1.7-0.3-3.1-0.8-4.3c-0.3,1.2-0.5,2.6-0.6,4.1c0,0.1-0.1,0.1-0.1,0.2
	c0.1,0.1,0.1,0.2,0.1,0.4c-0.2,0.2-0.2,0.5-0.2,0.9c-0.4,0.3-0.2,0.8-0.3,1.2c0.2,0.3,0.3,0.9-0.1,1c0,0.5-1,0.7-1.2,0.3
	c0.3-0.4,0.6-1,0.6-1.5c0.1-0.6-0.3-1-0.4-1.5c0-0.1,0-0.2,0-0.3c-0.5-0.5,0.3-1,0.1-1.8c-0.4,0.3-1.5,0.4-1.9,0.1
	c-0.1-0.8-0.2-1.6-0.4-2.4c0.1-0.1,0.2-0.1,0.2-0.1c-0.3-0.2-0.1-0.9,0.1-1.1c0.4,0,0.3,0.4,0.6,0.5c0.1-0.2,0.1-0.5,0.1-0.7
	c0-0.1-0.2-0.1-0.2-0.2c0.1-0.7,0.3-1.5,0.2-2.3c0.1-0.2,0.2-0.4,0.3-0.5c0-0.2,0.1-0.2,0-0.3c0.2-0.2,0.2-0.4,0.2-0.7
	c0.1-1.1,0.6-2,0.9-2.9c0.4,0,0.9-0.3,1.3-0.2c0.1-0.1,0.1-0.3,0.3-0.3c0-0.1-0.1-0.3,0-0.5c-0.8-0.1-1.4-1.5,0-1.4
	c0-0.2,0.1-0.3,0.1-0.5C56.4,294.6,56.7,294.5,56.8,294.3 M63.6,296.9c-1.2-0.2-2.5-0.4-3.7-0.6c-0.1,1.3,1.7,0.6,1.7,1.8
	c-0.1,0,0,0.2,0,0C61.8,297.2,63.6,298,63.6,296.9 M58.6,300.8c-0.1,0.6-0.1,1.3-0.1,1.9c0,0.4,0.2,0.7,0.2,1.1
	c0.1,1.1,0,2.2,0.1,3.3c0,0.2,0.1,0.3,0.1,0.5s-0.1,0.4-0.1,0.7c0,0.5,0,1,0,1.4c0,0.2,0.1,0.4,0.1,0.6s-0.2,0.2-0.3,0.4
	c0,0.1-0.2,0.8-0.2,0.9s0.1,0.2,0.1,0.3c0.1,0.4,0,0.9,0.4,1c0.5-2.7,0.9-5.5,1.4-8.3c0.2-0.9,0.4-1.8,0.4-2.7
	c-0.2-0.1-0.2,0.4-0.4,0.4C59.7,302.1,58.9,301.7,58.6,300.8 M54.6,301.3c-0.2,0.5-0.4,1-0.5,1.6c-0.1,0-0.2,0-0.3,0
	c-0.2,0.2-0.3,0.8,0,1c0,0.3-0.1,0.6-0.3,0.7v0.5c0.1,0,0.2-0.1,0.3,0s0.2,0.3,0.2,0.5c0.2-0.1,0.2,0.1,0.3,0
	c0.3-1.3,0.1-2.6,0.3-3.8C54.6,301.6,54.5,301.5,54.6,301.3 M53.2,304.7c-0.1,0.2-0.1,0.5-0.1,0.7c0.1,0,0.1,0.1,0.3,0
	c0.1-0.2,0.1-0.4,0.1-0.7C53.3,304.7,53.3,304.7,53.2,304.7"/>
<path id="XMLID_306_" class="st54" d="M210.7,305c-0.3,1,0.1,3,0.5,4.1c0.2-0.2,0.7,0,0.6-0.5c0.4,1.2-0.5,3.6,0,4.8
	c-0.2-0.3-0.7-0.3-0.8,0.1c-0.4,0.7,0.8,0.1,0.7,0.6c-1,0.9-3.7,0.6-4.9,0c0.1,2.6-4.3,3-3.9,0c-0.6-0.2-0.5,1.5-0.6,0.2
	c-5.2-0.2-10.4-0.2-15.5,0c-0.1,2.1-3.9,3-4.1,0.2c-0.9,0,0.1,0.8-0.3,1c-0.5-0.4-0.2-1.6-0.1-2.1c-2.3-1-3.7,1.3-4.8,1.3
	c-0.2-1.1,1-0.1,1.1-1.1c-0.3-0.7-1.4,0.8-1.4-0.3c-0.2-1,1.2,0.3,1.3-0.5c0.1-0.7-0.9-0.2-1.4-0.3c-0.6,0.1,0.4,1.4-0.5,1.2
	c-0.1-1,0-1.7-0.7-1.5c-0.2-2.5-0.5-5-0.7-7.5c0.8-0.1,0.4,1.2,0.9,1.3c0.8-1.4-0.3-4.3-0.2-6.4c8.7-0.7,18-1.3,26.4-0.5
	c-0.1,1.9-0.1,3.8-0.2,5.8c0.8,0.1,0.3-1.2,0.5-1.7c2.8,0.1,5.4,0.4,8,0.9C211.2,304.8,211.5,306.5,210.7,305 M205.2,307.7
	c2.1,0.1,2.5,1.7,4.4,1.1c-0.5,0,0.1-0.5,0.4-0.4c0.2-1.3-0.3-2-0.4-3.1c-1.4-0.1-2.9-0.2-4.3-0.3
	C205.3,305.9,205.3,306.8,205.2,307.7 M203,307.4c0.5,0,1.1,0,1.6,0.1c0-0.8,0.1-1.5,0.1-2.3c-0.5,0-1.1-0.1-1.6-0.1
	C203.1,305.8,203,306.6,203,307.4 M210.7,312.7c0.3,0,0.5,0,0.8,0.1c0-0.3,0.1-0.6,0.1-1c-0.3,0-0.5,0-0.8-0.1
	C210.7,312,210.7,312.3,210.7,312.7 M183.9,315.2c1.3,0.8,2.3-1,1.3-1.8c-1.4-0.2-2.1,1-1.3,1.6c0.3-0.3,0.2-0.9-0.1-1.2
	c0.4,0.2,1.2-0.2,1.4,0.1c-0.7,0.2,0.5,0,0.2,0.6c-0.4,0-0.4,0.2-0.2,0.4c-0.4-0.4-0.4,0.1-0.8,0.2
	C184.6,314.5,183.8,314.9,183.9,315.2 M205.9,313.9c-0.3-0.3-1.5-0.8-1.8-0.1c0.5,0.1,1-0.1,1.4,0.3c-0.5-0.2,0.1,0.9-0.4,0.7
	c-1,0.2-0.5-0.9-1.1-1c0.2,0.4-0.6,0.6,0,0.8c0.1-0.1,0-0.4,0.2-0.4C203.2,315.8,206.4,316,205.9,313.9"/>
<path id="XMLID_299_" class="st54" d="M109,290.1c-0.3,0.9,0.1,2.6,0.4,3.5c0.2-0.2,0.6,0,0.6-0.4c0.4,1.1-0.4,3.1,0,4.1
	c-0.2-0.2-0.6-0.3-0.7,0.1c-0.3,0.6,0.7,0.1,0.6,0.6c-0.8,0.8-3.2,0.5-4.2,0c0.1,2.3-3.7,2.5-3.3,0c-0.5-0.2-0.4,1.3-0.5,0.1
	c-4.4-0.4-18.1-0.4-22.5,0c-0.1,1.8-3.3,2.6-3.5,0.2c-0.8,0,0.1,0.7-0.3,0.8c-0.4-0.3-0.2-1.4-0.1-1.8c-2-0.9-3.1,1.2-4.1,1.2
	c-0.2-0.9,0.8-0.1,0.9-0.9c-0.3-0.6-1.2,0.7-1.2-0.2c-0.1-0.9,1,0.2,1.1-0.4s-0.8-0.1-1.2-0.2c-0.5,0,0.4,1.2-0.4,1
	c-0.1-0.8,0-1.4-0.6-1.3c-0.2-2.1-0.4-4.3-0.6-6.4c0.7-0.1,0.3,1,0.8,1.1c0.7-1.2-0.2-3.7-0.2-5.4c7.3-0.8,24.9-1.5,32-0.5
	c-0.1,1.6-0.2,3.3-0.2,4.9c0.7,0.1,0.2-1,0.4-1.5c2.4,0.1,4.6,0.4,6.7,0.8C109.4,289.9,109.6,291.4,109,290.1 M104.3,292.4
	c1.8,0.1,2.1,1.5,3.7,0.9c-0.4,0,0.1-0.4,0.4-0.3c0.2-1.1-0.2-1.8-0.3-2.7c-1.2-0.1-2.4-0.2-3.6-0.3
	C104.4,290.9,104.4,291.6,104.3,292.4 M102.4,292.1c0.5,0,0.9,0,1.4,0.1c0-0.7,0.1-1.3,0.1-2c-0.5,0-0.9-0.1-1.4-0.1
	C102.5,290.8,102.5,291.5,102.4,292.1 M108.9,296.7c0.2,0,0.4,0,0.7,0.1c0-0.3,0-0.5,0.1-0.8c-0.2,0-0.4,0-0.7-0.1
	C109,296.1,108.9,296.4,108.9,296.7 M76.9,298.8c1.1,0.7,2-0.9,1.1-1.6c-1.2-0.2-1.8,0.8-1.1,1.4c0.2-0.2,0.2-0.8-0.1-1
	c0.3,0.2,1-0.2,1.2,0.1c-0.6,0.2,0.5,0,0.2,0.5c-0.3,0-0.3,0.1-0.1,0.3c-0.4-0.3-0.3,0.1-0.7,0.2C77.5,298.2,76.8,298.5,76.9,298.8
	 M104.8,297.7c-0.3-0.2-1.3-0.7-1.5-0.1c0.5,0.1,0.9-0.1,1.2,0.2c-0.4-0.1,0.1,0.8-0.4,0.6c-0.9,0.2-0.4-0.8-0.9-0.9
	c0.1,0.3-0.5,0.5,0,0.7c0-0.1,0-0.3,0.2-0.3C102.5,299.3,105.2,299.5,104.8,297.7"/>
<path id="XMLID_298_" class="st54" d="M156.3,305.1c-1,2.4-2,5.4-3,8.2c-0.6,1.5-0.9,3.3-3.3,3.1c-0.2-2.2-0.3-4.4-0.5-6.7
	c-0.5-0.4-0.9-0.8-1.4-1.2c-0.3-0.3-1.1-1-1.6-1.1s-2.1,0.3-2.8,0.4c-2.8,0.4-6,0.5-8.7,0.6c-0.3,0.7-0.2,1.6-0.5,2.3
	c-1.1,0.9-1.7-0.2-2.4-1c-0.5-0.6-1-1.2-1.3-1.5c-0.7,0-1.3,0-1.7-0.3c0-0.4,0-0.8,0.4-0.9c-1.6-1.5-3.5-2.7-5.1-4.3
	c0.9-1.1,2.4-0.3,3.4,0.1c1.1,0.4,2.2,1,3.2,1.3c-0.2-1.2-0.4-2.3-0.5-3.6c0.9-0.3,1.7-0.2,2.4,0.3c1.2,0.9,2.5,2.6,3.7,3.4
	c1.9-0.4,3.6-0.9,5.4-1.4c-2.2-2.6-5.8-4.2-9.1-5.9c-2.2-1.1-4.3-2.4-6.4-3.4c1.1-2,2.9-1,5-0.4c6.4,2,12.4,3.8,18.8,5.8
	c1,0.3,2.4,0.9,3.1,0.9c1,0,2.5-0.6,3.8-1s2.8-0.6,3.8-1c1.4-0.5,2.6-1.4,4.4-1c0.4,0.1,0.8,0.4,1.4,0.5c1.3,0.4,2.9,0.1,2.9,1.7
	c0,1.1-1.5,2-2.3,2.4C164.3,303.2,160,304.2,156.3,305.1"/>
<path id="XMLID_297_" class="st54" d="M127,328.3c-0.7,0.6-1.7-0.8-2.6-0.8c-1.2-0.1-2.7,1.1-4.2,1.1c-1.7,0-3.4-1.4-4.8-1.4
	c-1.7,0-3.3,1.5-5.1,1.4c-2-0.1-2.7-1.6-4.5-1.7c-2,0.5-2.9,1.4-4.9,1.4c-1.9,0-3-1.7-4.5-1.7c-1.9,0-3.1,1.4-4.6,1.4
	c-1.3,0-2.3-1.2-4-1.5c-1.6-0.2-2.9,0.7-4.4,0.9c1.4-4.5,4.5-1.1,7.5-0.8c2,0.2,4.3-1.3,6-1.2c1.7,0.1,2.9,1.5,4.3,1.5
	s2.7-1.3,4.4-1.4c1.3,0,2.5,1.3,4,1.5c1.7,0.2,3.3-1.1,5.3-1.2c1.6,0,3,1.4,4.5,1.5C122.6,327.3,126.3,324,127,328.3"/>
<path id="XMLID_286_" class="st54" d="M86.3,319.9c1.5,0.9,4.2,0.5,6.6,0.4c0-0.5-0.8-0.1-1.2-0.2c4.8-4.8,16.8-3,24.6-5
	c0.8,1.2,2.6,0.1,4.5,0.3c0.2,3.7-0.6,6.5-1,9.7c1.2-2.5,1-6.3,1.5-9.4c3.3,0,5.3,1.3,6.9,3c-0.5,2.4-0.6,5.3-1.1,7.8
	c-2-1.9-4.6-0.8-7.5-0.2c0.2-0.2,0.2-0.5,0.2-0.9c-0.5,0.1,0,1-0.7,1c-1.6,0-2.1-1.1-3.6-1.3c-2-0.2-3.7,1.3-5.6,1.2
	c-1.3-0.1-2.3-1.4-3.6-1.5c-2-0.2-3.8,1.3-5.8,1.2c-1.8-0.1-2.4-1.1-4.3-1.7c-2.2,0.5-3.3,1.8-5.3,1.6c-2.5-0.2-4.9-3.2-7.8-0.6
	c-0.6-2-2.1-3.9-1.4-6.5c1-0.3,1.8-0.8,1.5-2.2c0.8,0.1,2.2-0.4,2.6,0.1c0.3-0.4,0.4-1.4,1.1-0.8c0.4-2-0.7-2.5-1.1-3.7
	c4.3-0.6,8.8-0.1,12.2,0.9c0.3,0.8-0.7,0.4-1.1,0.5c-0.3,1.5,0.6,1.8,0.8,2.8c-1.8,1.7-5.6,1.6-6.9,3.8
	C89.2,320.3,87.9,319.9,86.3,319.9 M90.1,315.2c0.9,0,1.7-0.1,2.6-0.1c0-0.4,0-0.8,0-1.2c-0.6-0.1-1.3-0.2-2.6-0.1
	C90.1,314.3,90.1,314.8,90.1,315.2 M93.3,313.9c0,0.4,0,0.8,0,1.2c1-0.2,2.8,0.3,3-0.6c-0.3,0-0.3-0.4-0.3-0.7
	C94.8,314,94.3,313.6,93.3,313.9 M88.9,315.3c-0.1-0.5,0-0.9,0.2-1.2c-0.4,0-0.8,0-1.2,0C87.9,315,88.1,315.5,88.9,315.3
	 M110.4,317.4c0,0.7,1.8-0.5,2.8-0.4C114.2,316.1,111.2,317.4,110.4,317.4 M85.8,319.6c-1,0.1-1.6-0.4-1.9-1.1
	c-0.1,0.5,0.1,0.9,0.3,1.2C84.8,319.6,86.3,320.2,85.8,319.6 M116.9,317.9c0.8-0.1,2.6-0.3,2.3-0.6
	C118.3,317.3,117.4,317.3,116.9,317.9 M122.6,317.6c-0.7-0.4,1.5,1.2,1.9,0.4C123.7,318,123.4,317.5,122.6,317.6 M104.8,319.1
	c1.1-0.2,2.2-0.3,3-0.8C106.7,318.3,104.8,318.8,104.8,319.1 M93.1,320.3c3.5,0.2,8.3-0.1,11.2-1.2
	C101.1,319.9,96.6,319.6,93.1,320.3"/>
<linearGradient id="XMLID_94_" gradientUnits="userSpaceOnUse" x1="91.9" y1="621.1" x2="256.9" y2="621.1" gradientTransform="matrix(1 0 0 -1 0 792)">
	<stop  offset="0" style="stop-color:#D4D826"/>
	<stop  offset="1" style="stop-color:#96BF54"/>
</linearGradient>
<line id="XMLID_284_" class="st55" x1="91.9" y1="170.9" x2="256.9" y2="170.9"/>
<polygon id="XMLID_282_" class="st56" points="234.9,191.9 255.9,170.9 234.9,150 252.7,150 273.7,170.9 252.7,191.9 "/>
<text transform="matrix(1 0 0 1 52.0107 115.6357)" class="st57 st58">A</text>
<text transform="matrix(1 0 0 1 58.3107 115.6357)" class="st57 st58">gri</text>
<text transform="matrix(1 0 0 1 69.0107 115.6357)" class="st57 st58">c</text>
<text transform="matrix(1 0 0 1 73.1107 115.6357)" class="st57 st58">ul</text>
<text transform="matrix(1 0 0 1 80.5107 115.6357)" class="st57 st58">t</text>
<text transform="matrix(1 0 0 1 83.3107 115.6357)" class="st57 st58">eu</text>
<text transform="matrix(1 0 0 1 92.5107 115.6357)" class="st57 st58">r</text>
<text transform="matrix(1 0 0 1 95.7107 115.6357)" class="st57 st58">s locau</text>
<text transform="matrix(1 0 0 1 122.2107 115.6357)" class="st57 st58">x</text>
<text transform="matrix(1 0 0 1 126.5107 115.6357)" class="st57 st58">, </text>
<text transform="matrix(1 0 0 1 52.0107 126.4357)" class="st57 st58">culture diversifiée</text>
<text transform="matrix(1 0 0 1 51.4639 252.1729)" class="st57 st58">P</text>
<text transform="matrix(1 0 0 1 56.4639 252.1729)" class="st57 st58">r</text>
<text transform="matrix(1 0 0 1 59.4639 252.1729)" class="st57 st58">oduc</text>
<text transform="matrix(1 0 0 1 78.1639 252.1729)" class="st57 st58">t</text>
<text transform="matrix(1 0 0 1 80.9639 252.1729)" class="st57 st58">eu</text>
<text transform="matrix(1 0 0 1 90.1639 252.1729)" class="st57 st58">r</text>
<text transform="matrix(1 0 0 1 93.3639 252.1729)" class="st57 st58">s lointains,</text>
<text transform="matrix(1 0 0 1 51.4639 262.9729)" class="st57 st58">monoculture</text>
<g id="XMLID_254_">
	<text id="XMLID_363_" transform="matrix(1 0 0 1 315.8926 317.2842)" class="st57 st59">Un panier</text>
</g>
<g id="XMLID_26_">
	<text id="XMLID_356_" transform="matrix(1 0 0 1 272.0681 350.2842)" class="st57 st59">(*moyenne pour une carotte)</text>
</g>
<g id="XMLID_253_">
	<text id="XMLID_353_" transform="matrix(1 0 0 1 319.3037 328.6885)" class="st57 st59">habituel</text>
</g>
<g id="XMLID_252_">
	<text id="XMLID_409_" transform="matrix(1 0 0 1 272.0684 181.6729)" class="st60 st61">Un panier</text>
</g>
<text id="XMLID_41_" transform="matrix(1 0 0 1 272.0684 193.1973)" class="st56 st62 st63">Marchambul</text>
<path id="XMLID_244_" class="st64" d="M82.2,136.2c1.6,0.1,2.1,1.3,2.5,2.6c0.6,0,0.9-0.2,1.5-0.2c0.1,0.1,0.2,0.2,0.3,0.3
	c-0.1,1.8-0.9,3-2.3,3.5c-0.1,0.5-0.3,0.8-0.3,1.3c0.3,0.2,0.5,0.5,0.4,1c1.1,0.7,2.8,0.9,4,1.7v1.7c1.2,2.1,1.9,4.7,4.3,5.6
	c0.1,0.2,0.3,0.3,0.2,0.7c0.2-0.3,0.7-0.3,0.8-0.3c0.2-2.9,1.3-6.5,1.1-8.8c-0.8-0.8-2.9-0.9-3.9-1.6c-0.8-0.6-1-2.6-0.1-3.3
	c0,0.3-0.4,0.6-0.1,0.7c0.6,0.1,0.3-0.6,0.8-0.6c0,0.3-0.4,0.6-0.1,0.7c0.6,0.2,0.3-0.6,0.8-0.5c-0.1,0.3-0.2,0.7,0.2,0.7
	c0.3-0.1,0.1-0.7,0.5-0.6c0.2,0.1-0.4,0.6,0.1,0.7c0.5,0,0.2-0.7,0.7-0.6c0,0.3-0.4,0.7,0.1,0.7c0.4,0,0.2-0.6,0.6-0.6
	c0.1,0.3-0.3,0.6,0,0.7c0.5,0.1,0.2-0.6,0.7-0.5c-0.1,0.2-0.3,0.8,0.2,0.7c0.2-0.1,0.3-0.8,0.6-0.5c-0.2,0.1-0.4,0.7,0.1,0.6
	c0.4,0,0.1-0.7,0.6-0.6c0,0.2-0.3,0.7,0.1,0.7s0.2-0.6,0.6-0.6c0.1,0.3-0.3,0.6,0,0.7c0.6,0.1,0.3-0.5,0.7-0.5c0.3,0-0.4,0.5,0,0.6
	c0.6,0.2,0.3-0.5,0.7-0.5c0.1,0-0.2,0.7,0.2,0.7c0.3-0.1,0.2-0.6,0.6-0.6c0,0.2-0.3,0.6,0,0.7c0.6,0.2,0.4-0.9,0.8-0.5
	c-0.1,0.1-0.4,0.7,0,0.6c0.4,0.3,0.3-0.6,0.7-0.6c-0.6,1.3-0.2,2.2-1.3,2.8c-1.5,0.8-3.7-0.2-4.4,1.4c-0.1,0.4,0,0.6,0,0.9
	c-0.1,2.3-0.9,4.6-1.1,7.3c1.4,0.1,0.7,2.9-0.5,3c-1.5,10-3.1,20.6-4.8,30.8c-1.2-0.3-1.9,0.4-2.7-0.1c-0.7-0.4-1-1.8-2.1-1.7
	c0-1.5,0.9-2.7,0.5-4.2c-0.1-0.4-0.4-0.7-0.5-1.1c-0.2-1.1,0.4-2.7-0.9-3.4c0.1-4.6-0.8-8.3-2-11.7c-0.9,3.3-1.5,6.9-1.6,11
	c-0.1,0.2-0.4,0.2-0.3,0.6c0.2,0.2,0.2,0.6,0.2,1c-0.5,0.5-0.6,1.4-0.5,2.4c-1,0.8-0.6,2.2-0.7,3.4c0.5,0.7,0.7,2.5-0.4,2.6
	c0.1,1.4-2.7,1.8-3.4,0.7c0.7-1.2,1.6-2.6,1.7-4.2c0.1-1.5-0.7-2.6-1.1-4c0-0.3-0.1-0.7,0.1-0.8c-1.4-1.4,0.7-2.8,0.3-5
	c-1,0.9-4,1-5.2,0.2c-0.4-2.1-0.6-4.4-1-6.4c0.2-0.2,0.5-0.2,0.6-0.4c-0.8-0.6-0.3-2.5,0.3-2.9c1,0,0.9,1,1.6,1.2
	c0.2-0.5,0.2-1.3,0.3-1.8c0-0.3-0.5-0.2-0.5-0.6c0.4-1.9,0.9-4.1,0.6-6.1c0.2-0.5,0.5-1,0.9-1.4c-0.1-0.4,0.2-0.5,0.1-0.9
	c0.5-0.5,0.4-1.2,0.5-1.9c0.2-2.9,1.7-5.3,2.3-7.9c1.2-0.1,2.3-0.8,3.5-0.6c0.2-0.3,0.4-0.8,0.8-0.9c-0.1-0.4-0.1-0.7-0.1-1.2
	c-2.2-0.3-3.9-4-0.1-3.8c-0.1-0.6,0.2-0.8,0.3-1.2C81.2,137,81.7,136.7,82.2,136.2 M100.5,143.2c-3.4-0.5-6.7-1.1-10.1-1.6
	c-0.3,3.5,4.6,1.7,4.7,4.8c-0.2,0.1,0,0.5,0,0.1C95.6,144,100.5,146.1,100.5,143.2 M87,153.7c-0.3,1.7-0.2,3.6-0.3,5.2
	c-0.1,1,0.4,2,0.5,3c0.2,2.9-0.1,6,0.3,8.9c0.1,0.5,0.4,0.9,0.4,1.3c0.1,0.6-0.2,1.2-0.2,1.8c0,1.3,0,2.7,0.1,3.9
	c0,0.5,0.4,1.1,0.3,1.5c-0.1,0.5-0.5,0.6-0.7,1.1c-0.1,0.3-0.5,2.2-0.5,2.5s0.2,0.6,0.3,0.9c0.2,1,0,2.4,1.1,2.6
	c1.4-7.3,2.3-14.9,3.7-22.3c0.4-2.4,1.1-4.8,1-7.2c-0.5-0.2-0.5,1.1-1.1,1.1C89.9,157,87.7,156.2,87,153.7 M76.1,155.1
	c-0.5,1.4-1,2.8-1.3,4.4c-0.4,0.1-0.5-0.1-0.8-0.1c-0.6,0.6-0.7,2.3,0.1,2.7c0,0.9-0.2,1.7-0.9,1.9v1.4c0.4-0.1,0.6-0.3,0.9-0.1
	c0.4,0.2,0.5,0.7,0.5,1.3c0.4-0.3,0.6,0.2,0.8,0.1c0.7-3.5,0.3-7,0.9-10.4C76.3,155.9,76,155.7,76.1,155.1 M72.4,164.1
	c-0.2,0.6-0.1,1.3-0.3,1.9c0.3,0,0.4,0.2,0.7,0.1c0.2-0.5,0.2-1.2,0.2-1.9C72.7,164.1,72.8,164.2,72.4,164.1"/>
<g id="XMLID_18_">
	<path id="XMLID_216_" class="st65" d="M152.7,167c0.1,1,1,1.7,2,1.6c0.2,0,0.4-0.1,0.6-0.2c0.2,0,0.4,0.1,0.6,0
		c1-0.1,1.6-1.1,1.5-2.1s-1-1.7-2-1.6c-0.2,0-0.3,0.1-0.5,0.1l0,0h-0.1c0,0,0,0-0.1,0l0,0c-0.2,0-0.4,0-0.5,0
		C153.2,165.1,152.5,166,152.7,167z"/>
	<path id="XMLID_215_" class="st66" d="M152.7,163.7c0,0,0.4,0.7,1,0.8s0.9,0.3,1,0.3l0,0l0,0c0,0,0,0,0-0.1l0,0l0,0l0,0l0,0
		c0-0.2-0.3-0.8-0.7-1C153.5,163.5,152.7,163.7,152.7,163.7z"/>
	<path id="XMLID_214_" class="st67" d="M154.7,165L154.7,165c0.1,0,0.1,0,0.1,0l0,0l0,0c0-0.3,0-1,0.1-1.1s0.2-0.1,0.1-0.3
		s-0.3-0.2-0.4,0.1c-0.1,0.2,0,1,0,1.1l0,0C154.6,164.8,154.6,164.8,154.7,165C154.7,164.9,154.7,164.9,154.7,165
		C154.7,164.9,154.7,164.9,154.7,165C154.7,164.9,154.7,164.9,154.7,165L154.7,165L154.7,165z"/>
	<line id="XMLID_213_" class="st68" x1="154.7" y1="164.7" x2="154.7" y2="164.7"/>
	<line id="XMLID_212_" class="st68" x1="154.7" y1="164.7" x2="154.7" y2="164.7"/>
	<path id="XMLID_533_" class="st46" d="M156.6,164.3c0.5,0.4,0.9,0.9,1.1,1.5c0,0.1,0.1,0.1,0.1,0.2c0.1,0.1,0.2,0.2,0.4,0.1
		c0.4-0.3,0.8-0.5,1.3-0.8c0.1-0.1,0.1-0.2,0-0.4c-0.2-0.2-0.4-0.5-0.6-0.7c-0.4-0.5-0.6-1.1-0.7-1.7c0-0.1,0-0.3-0.1-0.4
		c0-0.1,0-0.1,0-0.1l0,0l0,0c-0.3,0.1-0.4,0.2-1,0.3c0,0.2,0,0.2,0,0.2c0,0.1,0,0.1,0,0.2c0.1,0.4,0.2,0.7,0.3,1.1
		c-0.2-0.3-0.4-0.6-0.6-0.9c0,0,0-0.1-0.1-0.1l-0.6,0.3h0.1c0,0,0,0.1,0.1,0.1c0.2,0.3,0.4,0.6,0.7,0.9l0,0
		c-0.3-0.2-0.6-0.4-0.9-0.7l-0.1-0.1l0,0c0,0.1-0.1,0.3-0.2,0.4C156,163.9,156.3,164.1,156.6,164.3z"/>
	<path id="XMLID_201_" class="st66" d="M154.2,164.4c0.6,0,1.1-0.2,1.5-0.7c0.1-0.1,0.2-0.3,0.2-0.4l0,0c0,0,0,0,0-0.1l0,0
		c0.1,0,0.2-0.1,0.3-0.1l0.6-0.3l0.2-0.2l0.1-0.1l0.1-0.1c0,0,0,0,0-0.2c0.5,0,0.7-0.2,1-0.3l0,0c0.7-0.3,1.2-1,1.1-1.7
		c-0.1-0.8-0.7-1.4-1.5-1.5c-0.5,0-0.8,0-1.3,0.4c-0.3-0.2-0.6-0.3-0.9-0.3c-0.9-0.1-1.9,0.5-2.2,1.3c-0.2,0.4-0.2,0.8-0.2,1.2
		c0,0.1,0,0.1-0.1,0.2c-0.5,0.4-0.7,0.9-0.6,1.5C152.8,163.9,153.5,164.4,154.2,164.4z"/>
	<path id="XMLID_522_" class="st65" d="M146.9,161.9c3.3,0.6,1.3,5.6-1.3,5.4c-0.6,0.6-1.4,1.5-2.3,1.3c0.6-0.2,0.9-0.8,1.2-1.5
		c-2.1-0.9-0.9-5.9,2-5.4L146.9,161.9z"/>
	<path id="XMLID_199_" class="st46" d="M147.1,162c0.5-0.5,1.3-0.4,1.7-1.1c0.1-0.2-0.1-0.2-0.2-0.3c0.2-0.3,0.6-0.4,0.6-1
		c-0.1-0.1-0.2-0.1-0.4-0.2c0.5-0.4,1.3-0.6,1.5-1.5c-0.2,0-0.2-0.2-0.5-0.2c0.3-0.2,0.5-0.6,0.4-0.9c-1.4,0.1-1.8,1.8-2.6,2.8
		c0-0.6,0.2-1.4,0.1-2c0-0.5-0.1-1.3-0.7-1.5c-0.3,0.2-0.4,0.7-0.2,0.9c-0.1,0.1-0.4,0-0.5,0.1c-0.2,0.8,0.1,1.3,0.5,1.7
		c-0.1,0.1-0.4-0.1-0.4,0.1c-0.2,0.5-0.1,0.8,0.1,1c-0.2,0.1-0.5,0-0.5,0.3c0,0.7,0.7,1,0.9,1.6L147.1,162z"/>
	<path id="XMLID_512_" class="st46" d="M141.2,162.5c0,0,0-0.1,0-0.2c-0.2-0.6-1.1-0.4-1.2-1.1c0.5-0.2-0.6-1.1,0.2-1.3
		c-0.2-0.3-0.5-0.7-0.5-1.1c0.1-0.2,0.5,0.1,0.5-0.1c-0.1-0.5-0.1-0.9,0.3-1c0.4,0.2,0.3,0.9,0.6,1.3c0.1-0.2,0.1,0,0.3,0
		c0-0.7,0.1-1.3,0.6-1.5c0.5,0.3,0.2,1.3,0,1.7c0.2,0,0.4-0.1,0.5,0c0.1,0.6-0.2,0.9-0.3,1.4c0.1,0,0.2,0,0.2,0.2
		c-0.2,0.6-0.7,0.9-0.8,1.5c0,0,0,0.1,0,0.2L141.2,162.5z"/>
	<path id="XMLID_197_" class="st69" d="M141.1,162.4c-0.2,0.2-0.5,0.2-0.8,0.4c-0.1,0.1-0.1,0.3-0.1,0.4l0.3,2
		c0.3,1.7,0.7,3.3,1.6,4.3c0.7-1.1,0.6-2.8,0.7-4.4l0.2-2c-0.1-0.1-0.7-0.8-1.4-0.7H141.1z"/>
	<path id="XMLID_196_" class="st70" d="M151.3,160.6c-1.1-0.4-1.5,0.4-2.2,1.4c-0.8,1.1-2.3,2-2.1,3.6c0.3,2.5,4.4,3.2,5.1,0.3
		c0.2-0.8-0.1-1.6,0-2.5c0.3-1.3,0.8-2-0.6-2.7L151.3,160.6z"/>
	<path id="XMLID_195_" class="st67" d="M151.2,159.7c0-0.3-0.4-0.4-0.4-0.7c0.6-0.4,0.9,0.7,0.9,1.1c0,0-0.1,0.6-0.1,0.7l-0.3-0.2
		c0.1-0.2,0.1-0.5,0-0.7L151.2,159.7z"/>
	<path id="XMLID_194_" class="st66" d="M151.2,159.8c-0.1-0.3-1.4-0.8-1.5-0.5c-0.2,0.4,1.2,0.9,1.6,0.7L151.2,159.8z"/>
	<path id="XMLID_192_" class="st66" d="M151.6,160.2c0.1-0.1,0.4-0.2,0.6-0.1c-0.1,0.3-0.4,0.3-0.7,0.4L151.6,160.2z"/>
	<path id="XMLID_191_" class="st71" d="M140.9,167.4c0.2,1.2,1.2,2,2.3,1.8c0.2,0,0.5-0.1,0.7-0.2c0.2,0.1,0.5,0.1,0.7,0
		c1.1-0.2,1.9-1.2,1.7-2.4s-1.2-2-2.3-1.8c-0.2,0-0.4,0.1-0.5,0.2c0,0,0,0,0,0.1h-0.1c0,0,0,0-0.1,0l0,0c-0.2,0-0.4,0-0.6,0
		C141.5,165.2,140.7,166.3,140.9,167.4z"/>
	<path id="XMLID_190_" class="st66" d="M141,163.6c0,0,0.4,0.9,1.2,1c0.7,0.1,1.1,0.3,1.1,0.4l0,0l0,0v-0.1l0,0l0,0l0,0l0,0
		c0-0.2-0.3-1-0.8-1.2C141.8,163.3,141,163.6,141,163.6z"/>
	<path id="XMLID_189_" class="st67" d="M143.3,165C143.3,165.1,143.3,165.1,143.3,165c0.1,0,0.1,0,0.2,0c0,0,0,0,0-0.1l0,0
		c0-0.3,0-1.1,0.1-1.2c0.1-0.1,0.2-0.2,0.2-0.3s-0.4-0.2-0.4,0.1c-0.1,0.3,0,1.1,0.1,1.2l0,0v0.1l0,0l0,0
		C143.3,164.9,143.3,164.9,143.3,165L143.3,165L143.3,165z"/>
	<line id="XMLID_188_" class="st68" x1="143.3" y1="164.8" x2="143.3" y2="164.8"/>
	<line id="XMLID_187_" class="st68" x1="143.3" y1="164.7" x2="143.3" y2="164.8"/>
	<path id="XMLID_186_" class="st72" d="M140.9,165l0.2,2.7H157l0.2-2.8h2.4V155h20.2v17.8l-3.4,1.5h-1.9c-0.7-4.6-4.7-8-9.4-8
		s-8.7,3.5-9.4,8h-15.8V165H140.9z"/>
	<path id="XMLID_142_" class="st73" d="M165.2,184.4c-7.2,0-11.1-8.7-6.2-14.1c1.6-1.8,3.8-2.7,6.2-2.7c4.2,0,7.8,3.1,8.3,7.3v0.2
		h4.4c1.9-1.2,0.3-0.2,9.1-5.8l-2.6-6.9h-1.9V161h7c0.4,0.7,0,0.5-3.7,1.4l2.3,6.3l12.7-6.7c-1.1-4.3-0.4-3.8-4.8-3.8v-1.3
		c5.1,0,4.9-0.4,6.8,5.9c0.5,1.6,0.8,2.6,1.2,4.1c0.4-0.1,0.9-0.2,1.6-0.2c4.6,0,8.3,3.7,8.3,8.3s-3.7,8.3-8.3,8.3s-8.3-3.7-8.3-8.3
		c0-3.2,1.8-6.2,5.2-7.7c-0.3-0.9-0.3-1.1-0.8-2.4c-10.5,11-9.2,11.5-11.8,11.5c-3.6,0.1-12.2,0.1-16.4,0.1
		C173.1,181.1,169.3,184.4,165.2,184.4z M172,176.4c-7.6,0.1-7.1,0.2-7.4,0c-0.5-0.5-0.1-1.4,0.4-1.4c7.5,0,6.6,0,6.9,0v-0.2
		c-0.9-5.7-8-7.7-11.8-3.4c-3.8,4.4-0.8,11.3,5.1,11.3C168.5,182.7,171.6,180.4,172,176.4z M204.3,168.4c2.1,6.7,1.9,6,1.9,6.5
		c0,0.4-0.4,0.7-0.7,0.7c-0.6-0.1-0.5,0.1-2.6-6.8c-2.8,1.3-4.1,3.7-4.1,6.2c0,3.7,3,6.7,6.7,6.7s6.7-3,6.7-6.7
		C212.3,171.3,209,167.8,204.3,168.4z M187.2,170.4c-7.1,4.6-5.9,3.8-7.3,4.7c5.9,0.1,4.8,0.1,9.3,0.1L187.2,170.4z M200.8,163.2
		l-12.2,6.6l1.9,5.2l10.5-11.5L200.8,163.2z"/>
</g>
<text id="XMLID_113_" transform="matrix(1 0 0 1 238.3501 267.9651)" class="st74 st75 st76">700km //</text>
<g id="XMLID_60_">
	<text transform="matrix(1 0 0 1 307.9082 268.8393)" class="st74 st75 st76">9 jours</text>
	<text transform="matrix(1 0 0 1 351.6082 268.8393)" class="st74 st75 st77">*</text>
</g>
<text id="XMLID_111_" transform="matrix(1 0 0 1 210.0611 133.5635)" class="st46 st75 st76">45km //</text>
<g id="XMLID_123_">
	<text id="XMLID_377_" transform="matrix(1 0 0 1 268.4963 133.5632)" class="st46 st75 st76">1 jour </text>
</g>
<g id="XMLID_66_">
	<path id="XMLID_69_" class="st54" d="M282.4,319.4h-41v-10.9h6.8c0-0.1,0-0.2,0-0.3h-7.6V307h2.6c0-0.6,0.1-1.1,0.1-1.7h1.8
		c0,0.5,0.1,1,0.1,1.6c1.3,0-0.1,0,1.1,0c0.4,0,0.9,0,1.3,0c0.6,0.1,0.8-0.2,0.8-0.7c0-1.3,0-2.7,0-4.1h28v4.8h1.8
		c0-0.3,0.1-0.6,0.1-1h1.4c0,0.3,0.1,0.6,0.1,1h4.1v1.3h-7.4c0,0.1,0,0.2,0,0.3h6.1v10.9H282.4z M262.7,318.4h5.1v-8.5h-5.1V318.4z
		 M268.5,318.4h5.1v-8.5h-5.1V318.4z M251,318.4h5.1v-8.5H251V318.4z M256.9,318.4h5v-8.5h-5V318.4z M248,313.1h-5.4v3.6h5.4V313.1z
		 M280.3,313.4h-4.8v3.3h4.8V313.4z"/>
	<path id="XMLID_68_" class="st54" d="M247.7,301.6v-1.2h5.3c0-0.5,0.1-1,0.1-1.6h6.5c0,0.5,0.1,1,0.1,1.5h3.3
		c0-0.3,0.1-0.7,0.1-1.1h1.9c0,0.3,0,0.7,0.1,1.1h2.7c0-0.3,0.1-0.7,0.1-1.1h1.9c0,0.3,0.1,0.7,0.1,1.1h7.1v1.2h-29.3V301.6z"/>
	<path id="XMLID_67_" class="st54" d="M279.5,316.1h-3.3c0-0.5,0-1,0-1.5c0-0.6,0.4-0.6,0.7-0.6c0.6,0,1.3,0,1.9,0
		c0.4,0,0.7,0.1,0.7,0.6C279.5,315.1,279.5,315.6,279.5,316.1"/>
</g>
<text id="XMLID_65_" transform="matrix(1 0 0 1 250.9502 307.5371)" class="st78 st79 st80">SUPER</text>
<text transform="matrix(0.9962 -8.716000e-002 8.716000e-002 0.9962 402.5386 145.191)" class="st46 st81 st82">Dist</text>
<text transform="matrix(0.9962 -8.716000e-002 8.716000e-002 0.9962 420.4702 143.6221)" class="st46 st81 st82">r</text>
<text transform="matrix(0.9962 -8.716000e-002 8.716000e-002 0.9962 424.2558 143.2909)" class="st46 st81 st82">ibu</text>
<text transform="matrix(0.9962 -8.716000e-002 8.716000e-002 0.9962 438.2026 142.0707)" class="st46 st81 st82">t</text>
<text transform="matrix(0.9962 -8.716000e-002 8.716000e-002 0.9962 441.49 141.783)" class="st46 st81 st82">eur</text>
<text transform="matrix(0.9962 -8.716000e-002 8.716000e-002 0.9962 404.0122 180.2607)" class="st69 st81 st82">P</text>
<text transform="matrix(0.9962 -8.716000e-002 8.716000e-002 0.9962 409.7902 179.7552)" class="st69 st81 st82">r</text>
<text transform="matrix(0.9962 -8.716000e-002 8.716000e-002 0.9962 413.5757 179.424)" class="st69 st81 st82">odu</text>
<text transform="matrix(0.9962 -8.716000e-002 8.716000e-002 0.9962 429.9134 177.9945)" class="st69 st81 st82">c</text>
<text transform="matrix(0.9962 -8.716000e-002 8.716000e-002 0.9962 434.6952 177.5762)" class="st69 st81 st82">t</text>
<text transform="matrix(0.9962 -8.716000e-002 8.716000e-002 0.9962 437.9826 177.2885)" class="st69 st81 st82">eur</text>
<g id="XMLID_28_">
	<path id="XMLID_31_" class="st51" d="M389.9,186.3c-2.2,0.2-4.5,0.3-6.6,0.9c1.2,3.8,2.7,7.6,4.8,10
		C389.3,194.1,389.7,190.2,389.9,186.3"/>
	<path id="XMLID_30_" class="st51" d="M390,186.4c0.2-4,0-8.4-0.2-12.8l-0.3-3.3c-3.5,0.5-6.9,1.2-10.4,1.5l1,3.8
		c1.1,3.8,2,7.8,3.2,11.5C385.4,186.6,387.7,186.6,390,186.4"/>
	<path id="XMLID_29_" class="st51" d="M388.8,162.6c-0.4-0.5-0.6-1.4-1-1.8c-1.3-1.1-2.8-0.6-3.7-1.3l-1.9,0.3
		c-3.1,0.5-5,4.6-5.2,5.2l2.1,6.8c3.5-0.3,7-1,10.4-1.5L388.8,162.6z"/>
</g>
<g id="XMLID_15_">
	<path id="XMLID_24_" class="st46" d="M399.1,277.1c-2.4-0.7,1.3-6.3-2.2-6.6c0.7-1.5,1.6-4,0.9-5.8c-0.8-1.1-1.9,0.9-2.1,0.2
		c-0.2-2.4-0.4-4.9-2.3-4.8c-1.6,1.3-0.4,5.1-1.1,7.3c-0.7-0.6-0.6,0.2-1.2,0.5c-0.7-3.3-1.7-6.3-4.1-7.1c-1.8,2.2,0.5,6.8,1.5,8.8
		c-0.8,0.1-1.7,0-2.1,0.6c0.1,3.3,1.8,4.4,2.8,6.5c-0.7,0-0.9,0.4-0.8,1.2c0.5,1,1.1,1.8,1.8,2.5c2.8-0.7,5.6-1,8.4-1.4
		C398.9,278.4,399.1,277.8,399.1,277.1"/>
	<path id="XMLID_23_" class="st74" d="M390.4,281.6c1.1,1.2,2.4,2.3,3.1,4.1c0,0.1,0.1,0.7,0.1,0.8l1.6-0.4
		c-0.2-0.2-0.1-0.6-0.2-0.8c0.3-2.6,2.7-3.2,3.7-5C396,280.5,393.2,280.9,390.4,281.6"/>
	<path id="XMLID_22_" class="st69" d="M394.3,315.7c1.1,3.9,2.5,7.5,4.6,10c1.3-3,1.9-6.6,2.2-10.6
		C398.9,315.2,396.5,315.1,394.3,315.7"/>
	<path id="XMLID_21_" class="st83" d="M390.4,299.4l0.9,3.2c1,3.9,1.8,8,2.9,11.8c2.2-0.5,4.6-0.4,6.8-0.6c0.3-4.1,0.3-8.5,0.2-12.9
		l-0.2-2.6C397.5,298.6,393.9,299.2,390.4,299.4"/>
	<path id="XMLID_20_" class="st74" d="M400.9,296.9l-0.5-7.9c-0.4-0.5-0.5-1.4-0.9-1.8c-1.3-1.2-2.8-0.7-3.7-1.4l-1.9,0.2
		c-3.1,0.5-5.2,4.5-5.4,5.2l1.9,7C393.8,297.9,397.3,297.3,400.9,296.9"/>
</g>
<text transform="matrix(0.9848 -0.1736 0.1736 0.9848 409.766 290.5116)" class="st74 st81 st84">G</text>
<text transform="matrix(0.9848 -0.1736 0.1736 0.9848 416.6596 289.2964)" class="st74 st81 st84">r</text>
<text transform="matrix(0.9848 -0.1736 0.1736 0.9848 420.1064 288.6888)" class="st74 st81 st84">ossis</text>
<text transform="matrix(0.9848 -0.1736 0.1736 0.9848 439.9009 285.1994)" class="st74 st81 st84">t</text>
<text transform="matrix(0.9848 -0.1736 0.1736 0.9848 442.9538 284.6613)" class="st74 st81 st84">e</text>
<text transform="matrix(0.9848 -0.1736 0.1736 0.9848 409.7371 322.5866)" class="st69 st81 st82">P</text>
<text transform="matrix(0.9848 -0.1736 0.1736 0.9848 415.4489 321.5797)" class="st69 st81 st82">r</text>
<text transform="matrix(0.9848 -0.1736 0.1736 0.9848 419.1912 320.92)" class="st69 st81 st82">odu</text>
<text transform="matrix(0.9848 -0.1736 0.1736 0.9848 435.2434 318.0903)" class="st69 st81 st82">c</text>
<text transform="matrix(0.9848 -0.1736 0.1736 0.9848 440.0689 317.2397)" class="st69 st81 st82">t</text>
<text transform="matrix(0.9848 -0.1736 0.1736 0.9848 443.3188 316.6668)" class="st69 st81 st82">eur</text>
<text transform="matrix(0.9848 -0.1736 0.1736 0.9848 409.7656 307.5727)" class="st83 st81 st84">P</text>
<text transform="matrix(0.9848 -0.1736 0.1736 0.9848 414.9851 306.6526)" class="st83 st81 st84">ét</text>
<text transform="matrix(0.9848 -0.1736 0.1736 0.9848 422.568 305.3159)" class="st83 st81 st84">r</text>
<text transform="matrix(0.9848 -0.1736 0.1736 0.9848 426.0148 304.7083)" class="st83 st81 st84">ole</text>
<g id="XMLID_7_">
	<line id="XMLID_10_" class="st85" x1="390.2" y1="298.1" x2="400.9" y2="296.9"/>
	<line id="XMLID_9_" class="st85" x1="392" y1="314.8" x2="402.6" y2="313.5"/>
	<line id="XMLID_8_" class="st85" x1="388.4" y1="280.1" x2="399" y2="278.8"/>
</g>
<text transform="matrix(0.9848 -0.1736 0.1736 0.9848 409.7669 272.5798)" class="st46 st81 st84">Dist</text>
<text transform="matrix(0.9848 -0.1736 0.1736 0.9848 426.4101 269.646)" class="st46 st81 st84">r</text>
<text transform="matrix(0.9848 -0.1736 0.1736 0.9848 429.9553 269.021)" class="st46 st81 st84">ibu</text>
<text transform="matrix(0.9848 -0.1736 0.1736 0.9848 442.8562 266.7469)" class="st46 st81 st84">t</text>
<text transform="matrix(0.9848 -0.1736 0.1736 0.9848 445.9091 266.2086)" class="st46 st81 st84">eur</text>
<g id="XMLID_1_">
	<line id="XMLID_5_" class="st86" x1="51.5" y1="214.5" x2="52.5" y2="214.5"/>
	<line id="XMLID_4_" class="st87" x1="54.5" y1="214.5" x2="453.8" y2="214.5"/>
	<line id="XMLID_2_" class="st86" x1="454.8" y1="214.5" x2="455.8" y2="214.5"/>
</g>
<g id="XMLID_112_">
	<g id="XMLID_334_" class="st88">
		<g id="XMLID_1158_">
			<g id="XMLID_1165_">
				<path id="XMLID_1166_" class="st65" d="M302.3,165.5c0.3,1.8,1.9,3.1,3.6,2.9c0.4-0.1,0.7-0.2,1-0.3c0.3,0.1,0.7,0.1,1.1,0
					c1.8-0.2,3-1.9,2.7-3.8c-0.3-1.8-1.9-3.1-3.6-2.9c-0.3,0-0.6,0.1-0.8,0.2c0,0,0,0.1-0.1,0.1c0,0-0.1,0.1-0.2,0
					c0,0-0.1,0-0.1-0.1l0,0c-0.3-0.1-0.6-0.1-1,0C303.2,162,302,163.7,302.3,165.5z"/>
			</g>
			<g id="XMLID_1163_">
				<path id="XMLID_1164_" class="st66" d="M302.4,159.5c0,0,0.6,1.4,1.8,1.5c1.1,0.1,1.7,0.5,1.8,0.6l0,0c0,0,0,0,0-0.1v-0.1
					c0,0,0,0,0-0.1l0,0l0,0l0,0c-0.1-0.3-0.5-1.5-1.3-1.9C303.8,159,302.4,159.5,302.4,159.5z"/>
			</g>
			<g id="XMLID_1161_">
				<path id="XMLID_1162_" class="st67" d="M306,161.7C306,161.8,306,161.8,306,161.7c0.2,0.1,0.2,0,0.3,0c0,0,0-0.1,0.1-0.1l0,0
					c0-0.5,0-1.8,0.1-1.9c0.1-0.2,0.3-0.3,0.3-0.5s-0.6-0.4-0.7,0.1c-0.1,0.4,0,1.7,0.1,1.9c0,0,0,0,0,0.1v0.1v0.1l0,0l0,0
					L306,161.7L306,161.7z"/>
			</g>
			<path id="XMLID_1160_" class="st65" d="M306,161.3L306,161.3"/>
			<path id="XMLID_1159_" class="st65" d="M306,161.3L306,161.3"/>
		</g>
	</g>
	<g id="XMLID_241_" class="st88">
		<g id="XMLID_1182_">
			<g id="XMLID_1191_">
				<path id="XMLID_1192_" class="st65" d="M315.2,163.9c0.3,1.8,1.9,3.1,3.6,2.9c0.4-0.1,0.7-0.2,1-0.3c0.3,0.1,0.7,0.1,1.1,0
					c1.8-0.2,3-1.9,2.7-3.8c-0.3-1.8-1.9-3.1-3.6-2.9c-0.3,0-0.6,0.1-0.8,0.2c0,0,0,0.1-0.1,0.1c0,0-0.1,0.1-0.2,0
					c0,0-0.1,0-0.1-0.1l0,0c-0.3-0.1-0.6-0.1-1,0C316.1,160.4,314.9,162.1,315.2,163.9z"/>
			</g>
			<g id="XMLID_1189_">
				<path id="XMLID_1190_" class="st65" d="M312.5,168c0.3,1.8,1.9,3.1,3.6,2.9c0.4-0.1,0.7-0.2,1-0.3c0.3,0.1,0.7,0.1,1.1,0
					c1.8-0.2,3-1.9,2.7-3.8c-0.3-1.8-1.9-3.1-3.6-2.9c-0.3,0-0.6,0.1-0.8,0.2c0,0,0,0.1-0.1,0.1c0,0-0.1,0.1-0.2,0
					c0,0-0.1,0-0.1-0.1l0,0c-0.3-0.1-0.6-0.1-1,0C313.5,164.5,312.3,166.2,312.5,168z"/>
			</g>
			<g id="XMLID_1187_">
				<path id="XMLID_1188_" class="st66" d="M315.2,157.9c0,0,0.6,1.4,1.8,1.5c1.1,0.1,1.7,0.5,1.8,0.6l0,0c0,0,0,0,0-0.1v-0.1
					c0,0,0,0,0-0.1l0,0l0,0l0,0c-0.1-0.3-0.5-1.5-1.3-1.9C316.6,157.4,315.2,157.9,315.2,157.9z"/>
			</g>
			<g id="XMLID_1185_">
				<path id="XMLID_1186_" class="st67" d="M318.8,160.2C318.9,160.2,318.9,160.2,318.8,160.2c0.2,0.1,0.2,0,0.3,0
					c0,0,0-0.1,0.1-0.1l0,0c0-0.5,0-1.8,0.1-1.9c0.1-0.2,0.3-0.3,0.3-0.5s-0.6-0.4-0.7,0.1c-0.1,0.4,0,1.7,0.1,1.9c0,0,0,0,0,0.1
					v0.1v0.1l0,0l0,0L318.8,160.2C318.9,160.2,318.9,160.2,318.8,160.2z"/>
			</g>
			<path id="XMLID_1184_" class="st65" d="M318.9,159.7L318.9,159.7"/>
			<path id="XMLID_1183_" class="st65" d="M318.8,159.7C318.8,159.7,318.9,159.7,318.8,159.7"/>
		</g>
	</g>
	<g id="XMLID_235_" class="st88">
		<path id="XMLID_239_" class="st65" d="M293.6,157.9c5.9,1,2.4,10.2-2.3,9.9c-1.1,1.1-2.6,2.7-4.1,2.4c1.1-0.3,1.7-1.4,2.2-2.6
			c-3.8-1.6-1.7-10.7,3.6-9.7L293.6,157.9z"/>
		<path id="XMLID_236_" class="st46" d="M293.8,158.1c1-0.9,2.4-0.6,3.1-2c0.2-0.3-0.2-0.4-0.4-0.5c0.4-0.5,1-0.7,1.2-1.7
			c-0.1-0.1-0.3-0.3-0.7-0.3c1-0.8,2.3-1,2.7-2.7c-0.3-0.1-0.3-0.3-0.8-0.3c0.6-0.3,0.9-1.1,0.7-1.7c-2.5,0.2-3.2,3.3-4.6,5.1
			c-0.1-1.1,0.3-2.5,0.2-3.6c-0.1-1-0.2-2.4-1.3-2.7c-0.5,0.4-0.8,1.2-0.4,1.6c-0.3,0.2-0.7,0-1,0.2c-0.4,1.5,0.2,2.3,0.8,3.2
			c-0.1,0.3-0.6-0.1-0.8,0.1c-0.3,0.9-0.3,1.5,0.2,1.9c-0.3,0.2-0.8,0-0.9,0.5c0,1.3,1.2,1.8,1.5,2.9H293.8z"/>
	</g>
	<g id="XMLID_225_" class="st88">
		<path id="XMLID_229_" class="st46" d="M281.6,157.2c0.1-0.1,0-0.2,0-0.3c-0.4-1.1-1.9-0.8-2.2-2c0.9-0.4-1-2.1,0.4-2.4
			c-0.4-0.5-0.9-1.3-0.8-1.9c0.2-0.4,0.8,0.1,0.9-0.1c-0.1-0.8-0.2-1.7,0.6-1.8c0.7,0.3,0.6,1.7,1,2.4c0.2-0.3,0.2,0,0.5,0.1
			c0-1.2,0.2-2.3,1.1-2.7c0.9,0.6,0.3,2.4,0.1,3.1c0.3,0,0.7-0.1,0.9,0c0.2,1.2-0.4,1.6-0.6,2.4c0.3-0.1,0.4,0.1,0.4,0.3
			c-0.3,1-1.2,1.5-1.4,2.6c0,0,0,0.2,0,0.3L281.6,157.2z"/>
		<path id="XMLID_226_" class="st69" d="M281.4,157.2c-0.3,0.3-1,0.3-1.4,0.8c-0.1,0.2-0.1,0.5-0.2,0.7l0.6,3.7c0.6,3,1.3,6,2.8,7.9
			c1.3-2,1.1-5.2,1.3-8l0.3-3.7c-0.1-0.2-1.3-1.4-2.6-1.3L281.4,157.2z"/>
	</g>
	<g id="XMLID_132_" class="st88">
		<path id="XMLID_136_" class="st46" d="M311.5,159.3c0.1-0.1,0-0.2,0-0.3c-0.4-1.1-1.9-0.8-2.2-2c0.9-0.4-1-2.1,0.4-2.4
			c-0.4-0.5-0.9-1.3-0.8-1.9c0.2-0.4,0.8,0.1,0.9-0.1c-0.1-0.8-0.2-1.7,0.6-1.8c0.7,0.3,0.6,1.7,1,2.4c0.2-0.3,0.2,0,0.5,0.1
			c0-1.2,0.2-2.3,1.1-2.7c0.9,0.6,0.3,2.4,0.1,3.1c0.3,0,0.7-0.1,0.9,0c0.2,1.2-0.4,1.6-0.6,2.4c0.3-0.1,0.4,0.1,0.4,0.3
			c-0.3,1-1.2,1.5-1.4,2.6c0,0,0,0.2,0,0.3L311.5,159.3z"/>
		<path id="XMLID_133_" class="st69" d="M311.3,159.2c-0.3,0.3-1,0.3-1.4,0.8c-0.1,0.2-0.1,0.5-0.2,0.7l0.6,3.7c0.6,3,1.3,6,2.8,7.9
			c1.3-2,1.1-5.2,1.3-8l0.3-3.7c-0.1-0.2-1.3-1.4-2.6-1.3L311.3,159.2z"/>
	</g>
	<g id="XMLID_207_" class="st89">
		<path id="XMLID_222_" class="st70" d="M301.2,156.7c-2-0.8-2.7,0.8-4,2.5c-1.4,2-4.1,3.5-3.8,6.5c0.5,4.6,8,5.9,9.2,0.6
			c0.3-1.4-0.2-2.9,0.1-4.4c0.5-2.4,1.5-3.6-1-4.8L301.2,156.7z"/>
		<path id="XMLID_219_" class="st67" d="M301.1,155.1c0-0.5-0.7-0.8-0.8-1.3c1.2-0.8,1.6,1.3,1.6,2.1c0,0-0.3,1-0.3,1.2l-0.5-0.3
			c0.1-0.4,0.2-0.9,0-1.2L301.1,155.1z"/>
		<path id="XMLID_211_" class="st66" d="M301.2,155.3c-0.2-0.5-2.4-1.4-2.7-0.8c-0.4,0.8,2.1,1.7,2.8,1.3L301.2,155.3z"/>
		<path id="XMLID_208_" class="st66" d="M301.8,156c0.2-0.2,0.7-0.4,1.1-0.3c-0.2,0.6-0.8,0.6-1.2,0.7L301.8,156z"/>
	</g>
	<g id="XMLID_138_" class="st90">
		<path id="XMLID_179_" class="st71" d="M281,166.2c0.3,2.1,2.2,3.6,4.2,3.3c0.4-0.1,0.8-0.2,1.2-0.4c0.4,0.1,0.8,0.1,1.3,0
			c2-0.3,3.5-2.2,3.2-4.4c-0.3-2.1-2.2-3.6-4.2-3.3c-0.3,0-0.7,0.1-1,0.3c0,0,0,0.1-0.1,0.1c0,0-0.1,0.1-0.2,0.1c0,0-0.1,0-0.1-0.1
			l0,0c-0.4-0.1-0.7-0.1-1.1,0C282.1,162.1,280.7,164.1,281,166.2z"/>
		<path id="XMLID_170_" class="st66" d="M281.1,159.3c0,0,0.7,1.6,2.1,1.7c1.3,0.1,1.9,0.6,2,0.7l0,0v-0.1c0-0.1,0-0.1,0-0.2
			c0,0,0,0,0-0.1l0,0c0,0,0,0,0-0.1l0,0c-0.1-0.3-0.5-1.8-1.5-2.2C282.7,158.7,281.1,159.3,281.1,159.3z"/>
		<path id="XMLID_164_" class="st67" d="M285.3,161.9l0.1,0.1c0.1,0,0.1,0,0.2-0.1c0,0,0-0.1,0.1-0.1l0,0c0-0.6,0-2.1,0.1-2.2
			c0.1-0.2,0.3-0.3,0.3-0.6s-0.7-0.4-0.8,0.1c-0.1,0.5,0.1,2,0.1,2.3c0,0,0,0,0,0.1c0,0,0,0.1,0,0.2v0.1l0,0l0,0L285.3,161.9
			L285.3,161.9z"/>
		<path id="XMLID_163_" class="st68" d="M285.3,161.4L285.3,161.4"/>
		<path id="XMLID_155_" class="st68" d="M285.3,161.3L285.3,161.3"/>
	</g>
	<path id="XMLID_49_" class="st72" d="M323.5,162.1v1.7h-43.7v-2.3h-2.7v11.3h49.1v-10.7H323.5z M323.7,168h-43.9v-2.3h43.9V168z"/>
</g>
<g id="XMLID_508_" class="st88">
	<g id="XMLID_618_">
		<g id="XMLID_1113_">
			<path id="XMLID_1114_" class="st91" d="M343.9,301.1c0.3,1.8,1.8,3,3.6,2.8c0.4-0.1,0.7-0.2,1-0.3c0.3,0.1,0.7,0.1,1.1,0
				c1.7-0.2,2.9-1.9,2.7-3.7c-0.3-1.8-1.8-3-3.6-2.8c-0.3,0-0.6,0.1-0.8,0.2c0,0,0,0.1-0.1,0.1c0,0-0.1,0.1-0.2,0c0,0-0.1,0-0.1-0.1
				l0,0c-0.3-0.1-0.6-0.1-1,0C344.9,297.7,343.7,299.3,343.9,301.1z"/>
		</g>
		<g id="XMLID_1111_">
			<path id="XMLID_1112_" class="st66" d="M344,295.3c0,0,0.6,1.3,1.8,1.4c1.1,0.1,1.6,0.5,1.7,0.6l0,0c0,0,0,0,0-0.1v-0.1l0,0l0,0
				l0,0l0,0c-0.1-0.3-0.4-1.5-1.3-1.8C345.3,294.8,344,295.3,344,295.3z"/>
		</g>
		<g id="XMLID_1094_">
			<path id="XMLID_1110_" class="st67" d="M347.5,297.4C347.6,297.5,347.6,297.5,347.5,297.4c0.1,0.1,0.2,0,0.2,0s0-0.1,0.1-0.1l0,0
				c0-0.5,0-1.7,0.1-1.9c0.1-0.2,0.3-0.3,0.2-0.5c0-0.2-0.6-0.4-0.7,0.1c-0.1,0.4,0,1.7,0.1,1.9l0,0v0.1v0.1l0,0l0,0L347.5,297.4
				L347.5,297.4z"/>
		</g>
		<path id="XMLID_620_" class="st65" d="M347.5,297L347.5,297"/>
		<path id="XMLID_619_" class="st65" d="M347.5,297L347.5,297"/>
	</g>
</g>
<g id="XMLID_481_" class="st88">
	<g id="XMLID_1171_">
		<g id="XMLID_1180_">
			<path id="XMLID_1181_" class="st91" d="M356.5,299.6c0.3,1.8,1.8,3,3.6,2.8c0.4-0.1,0.7-0.2,1-0.3c0.3,0.1,0.7,0.1,1.1,0
				c1.7-0.2,2.9-1.9,2.7-3.7c-0.3-1.8-1.8-3-3.6-2.8c-0.3,0-0.6,0.1-0.8,0.2c0,0,0,0.1-0.1,0.1c0,0-0.1,0.1-0.2,0c0,0-0.1,0-0.1-0.1
				l0,0c-0.3-0.1-0.6-0.1-1,0C357.4,296.1,356.2,297.8,356.5,299.6z"/>
		</g>
		<g id="XMLID_1178_">
			<path id="XMLID_1179_" class="st91" d="M353.9,303.6c0.3,1.8,1.8,3,3.6,2.8c0.4-0.1,0.7-0.2,1-0.3c0.3,0.1,0.7,0.1,1.1,0
				c1.7-0.2,2.9-1.9,2.7-3.7c-0.3-1.8-1.8-3-3.6-2.8c-0.3,0-0.6,0.1-0.8,0.2c0,0,0,0.1-0.1,0.1c0,0-0.1,0.1-0.2,0c0,0-0.1,0-0.1-0.1
				l0,0c-0.3-0.1-0.6-0.1-1,0C354.9,300.1,353.7,301.8,353.9,303.6z"/>
		</g>
		<g id="XMLID_1176_">
			<path id="XMLID_1177_" class="st66" d="M356.6,293.7c0,0,0.6,1.3,1.8,1.4c1.1,0.1,1.6,0.5,1.7,0.6l0,0c0,0,0,0,0-0.1v-0.1l0,0
				l0,0l0,0l0,0c-0.1-0.3-0.4-1.5-1.3-1.8C357.9,293.2,356.6,293.7,356.6,293.7z"/>
		</g>
		<g id="XMLID_1174_">
			<path id="XMLID_1175_" class="st67" d="M360.1,295.9C360.1,295.9,360.2,295.9,360.1,295.9c0.1,0.1,0.2,0,0.2,0s0-0.1,0.1-0.1l0,0
				c0-0.5,0-1.7,0.1-1.9c0.1-0.2,0.3-0.3,0.2-0.5c0-0.2-0.6-0.4-0.7,0.1c-0.1,0.4,0,1.7,0.1,1.9l0,0v0.1v0.1l0,0l0,0L360.1,295.9
				L360.1,295.9z"/>
		</g>
		<path id="XMLID_1173_" class="st65" d="M360.1,295.5L360.1,295.5"/>
		<path id="XMLID_1172_" class="st65" d="M360.1,295.4C360.1,295.5,360.1,295.4,360.1,295.4"/>
	</g>
</g>
<g id="XMLID_382_" class="st88">
	<path id="XMLID_386_" class="st91" d="M335.5,293.7c5.8,1,2.4,9.9-2.3,9.6c-1.1,1.1-2.5,2.6-4,2.3c1.1-0.3,1.6-1.4,2.1-2.6
		c-3.7-1.6-1.6-10.4,3.6-9.5L335.5,293.7z"/>
	<path id="XMLID_383_" class="st92" d="M335.6,293.8c0.9-0.9,2.4-0.6,3-2c0.1-0.3-0.2-0.4-0.4-0.5c0.4-0.5,1-0.7,1.1-1.7
		c-0.1-0.1-0.3-0.3-0.7-0.3c1-0.7,2.2-1,2.6-2.6c-0.3-0.1-0.3-0.3-0.8-0.3c0.6-0.3,0.9-1.1,0.7-1.7c-2.4,0.2-3.1,3.2-4.5,5
		c-0.1-1.1,0.3-2.4,0.2-3.6c-0.1-0.9-0.2-2.3-1.3-2.6c-0.5,0.4-0.7,1.2-0.3,1.6c-0.3,0.2-0.7,0-1,0.2c-0.4,1.4,0.2,2.2,0.8,3.1
		c-0.1,0.3-0.6-0.1-0.8,0.1c-0.3,0.8-0.3,1.4,0.2,1.8c-0.3,0.2-0.8,0-0.9,0.5c0,1.3,1.2,1.7,1.5,2.8L335.6,293.8z"/>
</g>
<g id="XMLID_368_" class="st88">
	<path id="XMLID_372_" class="st92" d="M323.7,293c0.1-0.1,0-0.2,0-0.3c-0.4-1.1-1.9-0.8-2.2-2c0.9-0.4-1-2,0.4-2.4
		c-0.4-0.5-0.9-1.2-0.8-1.9c0.2-0.4,0.8,0.1,0.8-0.1c-0.1-0.8-0.2-1.7,0.5-1.8c0.7,0.3,0.6,1.7,1,2.3c0.2-0.3,0.2,0,0.5,0.1
		c0-1.2,0.2-2.2,1.1-2.7c0.9,0.6,0.3,2.3,0.1,3.1c0.3,0,0.7-0.1,0.9,0c0.2,1.1-0.4,1.6-0.6,2.4c0.3,0,0.4,0.1,0.4,0.3
		c-0.3,1-1.2,1.5-1.4,2.6c0,0,0,0.2,0,0.3L323.7,293z"/>
	<path id="XMLID_369_" class="st93" d="M323.5,292.9c-0.3,0.3-0.9,0.3-1.3,0.8c-0.1,0.2-0.1,0.5-0.2,0.7l0.5,3.6
		c0.6,2.9,1.3,5.8,2.8,7.7c1.2-2,1.1-5,1.3-7.9l0.3-3.6c-0.1-0.2-1.3-1.4-2.5-1.3L323.5,292.9z"/>
</g>
<g id="XMLID_358_" class="st88">
	<path id="XMLID_362_" class="st92" d="M352.9,295c0.1-0.1,0-0.2,0-0.3c-0.4-1.1-1.9-0.8-2.2-2c0.9-0.4-1-2,0.4-2.4
		c-0.4-0.5-0.9-1.2-0.8-1.9c0.2-0.4,0.8,0.1,0.8-0.1c-0.1-0.8-0.2-1.7,0.5-1.8c0.7,0.3,0.6,1.7,1,2.3c0.2-0.3,0.2,0,0.5,0.1
		c0-1.2,0.2-2.2,1.1-2.7c0.9,0.6,0.3,2.3,0.1,3.1c0.3,0,0.7-0.1,0.9,0c0.2,1.1-0.4,1.6-0.6,2.4c0.3,0,0.4,0.1,0.4,0.3
		c-0.3,1-1.2,1.5-1.4,2.6c0,0,0,0.2,0,0.3L352.9,295z"/>
	<path id="XMLID_359_" class="st93" d="M352.7,294.9c-0.3,0.3-0.9,0.3-1.3,0.8c-0.1,0.2-0.1,0.5-0.2,0.7l0.5,3.6
		c0.6,2.9,1.3,5.8,2.8,7.7c1.2-2,1.1-5,1.3-7.9l0.3-3.6c-0.1-0.2-1.3-1.4-2.5-1.3L352.7,294.9z"/>
</g>
<g id="XMLID_345_" class="st89">
	<path id="XMLID_355_" class="st94" d="M342.9,292.5c-1.9-0.7-2.7,0.8-3.9,2.5c-1.4,1.9-4,3.5-3.7,6.3c0.5,4.5,7.8,5.7,9,0.6
		c0.3-1.4-0.2-2.8,0.1-4.3c0.5-2.4,1.5-3.6-1-4.7L342.9,292.5z"/>
	<path id="XMLID_352_" class="st67" d="M342.8,290.9c0-0.5-0.7-0.8-0.7-1.3c1.1-0.7,1.5,1.2,1.5,2c0,0-0.3,1-0.2,1.2l-0.5-0.3
		c0.1-0.4,0.2-0.9,0-1.2L342.8,290.9z"/>
	<path id="XMLID_349_" class="st66" d="M342.8,291.1c-0.2-0.5-2.4-1.3-2.7-0.8c-0.4,0.8,2.1,1.6,2.8,1.3L342.8,291.1z"/>
	<path id="XMLID_346_" class="st66" d="M343.5,291.8c0.2-0.2,0.7-0.4,1.1-0.2c-0.2,0.6-0.8,0.6-1.2,0.7L343.5,291.8z"/>
</g>
<g id="XMLID_45_" class="st90">
	<path id="XMLID_342_" class="st95" d="M323.1,301.8c0.3,2.1,2.1,3.5,4.1,3.3c0.4-0.1,0.8-0.2,1.2-0.4c0.4,0.1,0.8,0.1,1.2,0
		c2-0.3,3.4-2.2,3.1-4.3c-0.3-2.1-2.1-3.5-4.1-3.3c-0.3,0-0.6,0.1-0.9,0.3c0,0,0,0.1-0.1,0.1c0,0-0.1,0.1-0.2,0.1c0,0-0.1,0-0.1-0.1
		l0,0c-0.4-0.1-0.7-0.1-1.1,0C324.2,297.8,322.8,299.7,323.1,301.8z"/>
	<path id="XMLID_339_" class="st66" d="M323.2,295c0,0,0.7,1.5,2.1,1.7c1.2,0.1,1.9,0.6,2,0.7l0,0v-0.1c0-0.1,0-0.1,0-0.2
		c0,0,0,0,0-0.1l0,0c0,0,0,0,0-0.1l0,0c-0.1-0.3-0.5-1.7-1.5-2.1C324.8,294.4,323.2,295,323.2,295z"/>
	<path id="XMLID_124_" class="st67" d="M327.3,297.6l0.1,0.1c0.1,0,0.1,0,0.2-0.1c0,0,0-0.1,0.1-0.1l0,0c0-0.6,0-2,0.1-2.2
		s0.3-0.3,0.3-0.6c0-0.3-0.7-0.4-0.8,0.1c-0.1,0.5,0.1,2,0.1,2.2c0,0,0,0,0,0.1c0,0,0,0.1,0,0.2v0.1l0,0l0,0L327.3,297.6
		C327.3,297.5,327.3,297.6,327.3,297.6z"/>
	<path id="XMLID_116_" class="st68" d="M327.3,297C327.3,297.1,327.3,297.1,327.3,297"/>
	<path id="XMLID_115_" class="st68" d="M327.3,297L327.3,297"/>
</g>
<path id="XMLID_16_" class="st72" d="M364.6,297.8v1.7h-0.1c-2.5,0-4.9,0-7.4,0c-2.3,0-4.6,0-6.8,0c-1.3,0-2.5,0-3.8,0
	c-0.6,0-1.3,0-1.9,0c-0.5,0-0.8,0.3-1.3,0.6c0,0-0.1,0.1-0.1,0h-0.1c-0.3-0.2-0.6-0.4-0.9-0.5c-0.5-0.2-1.2,0-1.7,0
	c-0.6,0-1.3,0-1.9,0c-1.2,0-2.5,0-3.7,0c-2.2,0-4.4,0-6.6,0c-0.3,0-6.3,0-6.3,0v-2.3c-0.3,0-0.6,0-1,0s-1.1-0.1-1.4,0.2
	c-0.3,0.3-0.3,0.4-0.3,0.9c0,0.4,0,0.8,0,1.2c0,0.8,0,1.5,0,2.3c0,0.4,0,0.8,0,1.2c0,0.1,0,0.3,0,0.4c0,0.2,0.2,0.3,0.3,0.4
	c0,0.1,0,0.1,0.1,0.2c0,0.1,0.1,0.2,0,0.2c0,0.1-0.1,0.2-0.1,0.3c-0.3,0.4-0.2,0.6-0.2,1.1c0,0.4,0,0.9,0,1.3s0,0.8,0,1.2h0.1
	c0.1,0,0.2,0,0.3,0c0.2,0,0.3,0,0.5,0s0.5,0,0.7,0c0.3,0,0.6,0,0.9,0c0.4,0,0.7,0,1.1,0s0.8,0,1.3,0s0.9,0,1.4,0s1,0,1.5,0
	c0.6,0,1.1,0,1.7,0s1.2,0,1.8,0c0.6,0,1.2,0,1.9,0c0.6,0,1.3,0,1.9,0c0.7,0,1.3,0,2,0s1.4,0,2.1,0s1.4,0,2.1,0s1.4,0,2.1,0
	s1.4,0,2.1,0s1.4,0,2.1,0s1.4,0,2.1,0s1.4,0,2,0c0.7,0,1.3,0,2,0c0.6,0,1.3,0,1.9,0s1.2,0,1.8,0c0.6,0,1.2,0,1.7,0s1.1,0,1.6,0
	s1,0,1.5,0s0.9,0,1.4,0c0.4,0,0.8,0,1.2,0c0.3,0,0.7,0,1,0s0.6,0,0.9,0c0.1,0,0.2,0,0.4,0c0.1,0,0.1,0,0.2,0h0.1
	c0.1,0,0.1-0.1,0.2-0.1h0.1c0.1,0,0.1,0.1,0.2,0c0,0,0,0,0.1,0c0.1-0.1,0.2-0.1,0.2-0.3c0-0.1,0-0.3,0-0.4c0-0.3,0-0.5,0-0.8
	c0-0.5,0-1,0-1.6c0-0.9,0-1.9,0-2.8c0-0.8,0.2-1.9-0.4-2.5c-0.5-0.4,0.1-0.6,0.3-1c0-0.1,0.1-1,0.1-1
	C367.2,297.8,364.6,297.8,364.6,297.8z M364.8,303.5H322v-2.2h42.9v2.2H364.8z"/>
<path id="XMLID_39_" class="st46" d="M381,158.2l1.6-0.5c-0.2-0.1-0.1-0.5-0.2-0.8c0.2-2.5,2.5-3.2,3.5-5c0,0,0,0,0.1,0
	c0.3-0.5,0.4-1.1,0.4-1.9c-2.4-0.6,1.1-6.3-2.4-6.4c0.7-1.5,1.4-4,0.7-5.8c-0.8-1.1-1.9,0.9-2.1,0.3c-0.3-2.3-0.5-4.8-2.4-4.6
	c-1.5,1.3-0.3,5.1-0.9,7.2c-0.7-0.6-0.6,0.2-1.1,0.5c-0.8-3.2-1.8-6.2-4.3-6.9c-1.7,2.3,0.7,6.7,1.8,8.6c-0.8,0.1-1.7,0.1-2,0.6
	c0.2,3.3,1.9,4.3,3,6.3c-0.7,0-0.9,0.4-0.8,1.2c0.5,1,1.2,1.7,1.8,2.4l0,0c1.2,1.1,2.4,2.2,3.1,3.9
	C380.8,157.6,380.9,158.1,381,158.2"/>
<g id="XMLID_17_">
	<path id="XMLID_517_" class="st54" d="M130.2,279c0.4,1.5,1.2,2.8,1.8,4.2c1,2.5-0.8,5.7-3.4,6.2c-1.3,0.3-2.6,0-3.7-0.6
		c-2.3,0.7-4.3,0-5.8-1.9c-1.9,1-3.8,1.5-6,1c-2.1-0.5-3.7-1.9-4.9-3.6c-1-1.4-1.6-2.9-1.4-4.7c0.2-2.6,1.7-4.5,3.5-6.2
		c-0.4-3.3,1.6-5.7,3.9-6.4c1.2-0.4,2.5-0.3,3.7,0.2c1.6,0.7,2.6,1.8,3.2,3.4c4.2-0.2,6.8,1.6,7.1,6.2
		C129,277.4,129.9,278,130.2,279z M119.8,270.8c-0.6-1.9-2.6-3.1-4.6-2.8c-2.3,0.2-3.9,2.1-4,3.8
		C112.5,268.8,117.5,267.6,119.8,270.8z M114.5,273.8c-1.8-0.1-3.9,0.9-4.3,2.4c2.5-2.6,7.5-1.7,8.8,1.1
		C118.4,275.1,116.8,273.9,114.5,273.8z M126.4,275.4c0.1-1.3-0.9-2.7-2.5-3.3c-1.5-0.6-3.1-0.4-4.1,0.7
		C122.6,271.7,125.2,272.8,126.4,275.4z"/>
</g>
<text id="XMLID_13_" transform="matrix(1 0 0 1 110.2016 284.4094)" class="st78 st96 st97">CO2</text>
<g id="XMLID_33_">
	<path id="XMLID_42_" class="st54" d="M192.8,284.8c0.4,1.5,1.2,2.9,1.8,4.3c1.1,2.6-0.8,5.8-3.5,6.4c-1.4,0.3-2.6,0-3.8-0.6
		c-2.4,0.7-4.3,0-5.9-2c-1.9,1-3.9,1.6-6.1,1c-2.2-0.6-3.8-1.9-5-3.7c-1-1.4-1.6-3-1.5-4.8c0.2-2.7,1.7-4.6,3.6-6.4
		c-0.4-3.4,1.6-5.8,4-6.5c1.3-0.4,2.5-0.3,3.8,0.2c1.6,0.7,2.7,1.9,3.2,3.5c4.3-0.2,7,1.6,7.2,6.3
		C191.6,283.2,192.5,283.8,192.8,284.8z M182.2,276.5c-0.7-1.9-2.6-3.1-4.7-2.9c-2.4,0.2-4,2.2-4,3.9
		C174.8,274.4,179.8,273.2,182.2,276.5z M176.8,279.5c-1.8-0.1-4,1-4.4,2.4c2.5-2.6,7.7-1.8,9,1.2
		C180.8,280.9,179.2,279.6,176.8,279.5z M189,281.1c0.1-1.3-1-2.7-2.5-3.4c-1.5-0.6-3.1-0.4-4.2,0.7
		C185.1,277.4,187.7,278.5,189,281.1z"/>
</g>
<text id="XMLID_19_" transform="matrix(1 0 0 1 172.4136 290.3436)" class="st78 st96 st98">CO2</text>
<g id="XMLID_37_">
	<path id="XMLID_79_" class="st54" d="M243.7,289.8v12.3h-5v-0.3h-3.6h-0.3h-3.6h-0.3h-3.6H227h-3.6h-0.3h-3.6h-0.3v0.3h-5v-12.3
		l14.9-9L243.7,289.8z M222.8,300.1h-3.6v1.3h3.6V300.1z M222.8,298.4h-3.6v1.3h3.6V298.4z M222.8,296.8h-3.6v1.3h3.6V296.8z
		 M222.8,295.1h-3.6v1.3h3.6V295.1z M222.8,293.4h-3.6v1.3h3.6V293.4z M222.8,290.4c-1.8,0.4-3.1,0.8-3.6,1v1.7h3.6V290.4z
		 M226.8,300.1h-3.6v1.3h3.6V300.1z M226.8,298.4h-3.6v1.3h3.6V298.4z M226.8,296.8h-3.6v1.3h3.6V296.8z M226.8,295.1h-3.6v1.3h3.6
		V295.1z M226.8,293.4h-3.6v1.3h3.6V293.4z M226.8,289.9c-1.3,0.1-2.6,0.3-3.6,0.5v2.8h3.6V289.9z M230.8,300.1h-3.6v1.3h3.6V300.1z
		 M230.8,298.4h-3.6v1.3h3.6V298.4z M230.8,296.8h-3.6v1.3h3.6V296.8z M230.8,295.1h-3.6v1.3h3.6V295.1z M230.8,293.4h-3.6v1.3h3.6
		V293.4z M230.8,289.9c-0.6,0-1.3-0.1-2-0.1c-0.6,0-1.1,0-1.7,0.1v3.3h3.6L230.8,289.9L230.8,289.9z M231.1,293.1h3.6v-2.7
		c-1.1-0.2-2.3-0.4-3.6-0.5V293.1z M231.1,294.8h3.6v-1.3h-3.6V294.8z M231.1,296.4h3.6v-1.3h-3.6V296.4z M231.1,298.1h3.6v-1.3
		h-3.6V298.1z M231.1,299.7h3.6v-1.3h-3.6V299.7z M234.8,300.1h-3.6v1.3h3.6V300.1z M238.7,300.1h-3.6v1.3h3.6V300.1z M238.7,298.4
		h-3.6v1.3h3.6V298.4z M238.7,296.8h-3.6v1.3h3.6V296.8z M238.7,295.1h-3.6v1.3h3.6V295.1z M238.7,293.4h-3.6v1.3h3.6V293.4z
		 M238.7,291.5c0,0-1.5-0.5-3.6-1v2.6h3.6V291.5z M242.5,290.4h-26.3v-6.9h26.3V290.4z"/>
	<text id="XMLID_78_" transform="matrix(1 0 0 1 215.733 288.6401)" class="st78 st99 st100">RUNGIS</text>
</g>
</svg>
