<?xml version="1.0" encoding="utf-8"?>
<!-- Generator: Adobe Illustrator 15.0.0, SVG Export Plug-In . SVG Version: 6.00 Build 0)  -->
<!DOCTYPE svg PUBLIC "-//W3C//DTD SVG 1.1//EN" "http://www.w3.org/Graphics/SVG/1.1/DTD/svg11.dtd">
<svg version="1.1" id="Calque_1" xmlns="http://www.w3.org/2000/svg" xmlns:xlink="http://www.w3.org/1999/xlink" x="0px" y="0px"
	 width="800px" height="600px" viewBox="0 0 800 600" enable-background="new 0 0 800 600" xml:space="preserve">
<path stroke="#000000" stroke-width="5" stroke-miterlimit="10" d="M243.799,230.732c-7.956,0-14.409,6.445-14.409,14.407
	c0,7.962,6.446,14.407,14.409,14.407c7.954,0,14.407-6.453,14.407-14.407C258.206,237.185,251.753,230.732,243.799,230.732z
	 M263.746,104.392c-20.234-2.875-35.268,0.724-44.83,10.672c-13.706,14.257-9.985,35.766-9.826,36.672
	c0.678,3.728,4.219,6.203,7.969,5.517c3.721-0.68,6.197-4.249,5.518-7.97c-0.03-0.151-2.551-15.615,6.211-24.725
	c6.339-6.588,17.471-8.807,33.026-6.603c13.155,1.864,19.29,14.249,19.546,25.698c0.288,12.898-6.686,27.275-22.905,30.317
	c-18.679,3.495-21.774,14.431-21.125,34.709c0.113,3.714,3.155,6.634,6.837,6.634c0.075,0,0.143,0,0.219-0.007
	c3.789-0.113,6.748-3.275,6.626-7.056c-0.596-18.838,2.068-19.344,9.955-20.815c24.128-4.514,34.498-25.397,34.091-44.091
	C294.682,126.121,284.848,107.388,263.746,104.392z M395.037,326.747c1.713-1.856,2.27-4.498,1.456-6.876
	c-8.619-25.132-17.781-53.162-19.638-60.792c12.77-22.589,19.509-48.204,19.509-74.159c0-83.396-67.841-151.245-151.237-151.245
	S93.881,101.516,93.881,184.92c0,83.396,67.842,151.246,151.246,151.246c28.83,0,56.762-8.136,81.018-23.548l62.144,16.113
	C390.728,329.351,393.33,328.596,395.037,326.747z M326.682,298.596l-0.113,0.438c-1.722-0.445-3.593-0.264-5.208,0.513l-0.083-0.12
	c-22.611,15.063-48.943,23.033-76.15,23.033c-75.842,0-137.54-61.706-137.54-137.54c0-75.842,61.706-137.539,137.54-137.539
	c75.84,0,137.532,61.705,137.532,137.539c0,24.121-6.4,47.917-18.815,69.298c-1.819,3.094-2.642,4.499,15.562,58.054
	L326.682,298.596z M683.604,417.259c-19.767-22.828-47.979-34.406-83.842-34.406c-1.828,0-3.365,0.913-4.627,2.15l-0.181-0.181
	c-0.183,0.181-18.333,17.706-48.81,17.706c-30.203,0-48.633-17.54-48.813-17.714l-0.181,0.182c-1.262-1.23-2.795-2.136-4.612-2.136
	c-35.865,0-64.076,11.577-83.848,34.406c-41.752,48.228-30.65,128.929-30.151,132.34c0.482,3.366,3.373,5.864,6.777,5.864h321.653
	c3.404,0,6.294-2.506,6.776-5.864C714.251,546.181,725.359,465.487,683.604,417.259z M546.153,416.218
	c15.133,0,27.509-3.696,37.063-8.007l-37.063,76.784l-37.065-76.776C518.645,412.528,531.029,416.218,546.153,416.218z
	 M700.825,541.759H391.482c-1.661-18.897-4.038-79.012,27.584-115.532c16.278-18.801,39.548-28.755,69.215-29.615l51.706,107.116
	c2.287,4.74,10.053,4.74,12.341,0l51.705-107.116c29.651,0.86,52.904,10.808,69.176,29.578
	C704.803,462.626,702.463,522.83,700.825,541.759z M546.153,359.721c50.082,0,90.822-40.739,90.822-90.823
	c0-50.083-40.74-90.83-90.822-90.83s-90.821,40.747-90.821,90.83C455.332,318.98,496.078,359.721,546.153,359.721z M546.153,191.766
	c42.527,0,77.126,34.604,77.126,77.132c0,42.529-34.599,77.125-77.126,77.125s-77.124-34.597-77.124-77.125
	C469.029,226.37,503.626,191.766,546.153,191.766z"/>
</svg>
