<?xml version="1.0" encoding="utf-8"?>
<!-- Generator: Adobe Illustrator 15.0.0, SVG Export Plug-In . SVG Version: 6.00 Build 0)  -->
<!DOCTYPE svg PUBLIC "-//W3C//DTD SVG 1.1//EN" "http://www.w3.org/Graphics/SVG/1.1/DTD/svg11.dtd">
<svg version="1.1"
	 id="Calque_1" xmlns:rdf="http://www.w3.org/1999/02/22-rdf-syntax-ns#" xmlns:svg="http://www.w3.org/2000/svg" xmlns:cc="http://creativecommons.org/ns#" xmlns:dc="http://purl.org/dc/elements/1.1/"
	 xmlns="http://www.w3.org/2000/svg" xmlns:xlink="http://www.w3.org/1999/xlink" x="0px" y="0px" width="800px" height="600px"
	 viewBox="0 0 800 600" enable-background="new 0 0 800 600" xml:space="preserve">
<g>
	
		<rect x="117.5" y="27.5" fill="none" stroke="#000000" stroke-width="14" stroke-linecap="round" stroke-linejoin="round" stroke-miterlimit="10" width="511.5" height="511.5"/>
	<g>
		
			<rect x="177.123" y="77.794" fill="none" stroke="#000000" stroke-width="14" stroke-linecap="round" stroke-linejoin="round" stroke-miterlimit="10" width="82.641" height="84.042"/>
		
			<rect x="331.93" y="77.794" fill="none" stroke="#000000" stroke-width="14" stroke-linecap="round" stroke-linejoin="round" stroke-miterlimit="10" width="82.641" height="84.042"/>
		
			<rect x="486.736" y="77.794" fill="none" stroke="#000000" stroke-width="14" stroke-linecap="round" stroke-linejoin="round" stroke-miterlimit="10" width="82.641" height="84.042"/>
	</g>
	<g>
		
			<rect x="177.123" y="228.531" fill="none" stroke="#000000" stroke-width="14" stroke-linecap="round" stroke-linejoin="round" stroke-miterlimit="10" width="82.641" height="84.028"/>
		
			<rect x="331.93" y="228.531" fill="none" stroke="#000000" stroke-width="14" stroke-linecap="round" stroke-linejoin="round" stroke-miterlimit="10" width="82.641" height="84.028"/>
		
			<rect x="486.736" y="228.531" fill="none" stroke="#000000" stroke-width="14" stroke-linecap="round" stroke-linejoin="round" stroke-miterlimit="10" width="82.641" height="84.028"/>
	</g>
	
		<rect x="177.123" y="379.267" fill="none" stroke="#000000" stroke-width="14" stroke-linecap="round" stroke-linejoin="round" stroke-miterlimit="10" width="82.641" height="84.042"/>
	
		<rect x="331.93" y="379.267" fill="none" stroke="#000000" stroke-width="14" stroke-linecap="round" stroke-linejoin="round" stroke-miterlimit="10" width="82.641" height="159.733"/>
	
		<rect x="486.736" y="379.267" fill="none" stroke="#000000" stroke-width="14" stroke-linecap="round" stroke-linejoin="round" stroke-miterlimit="10" width="82.641" height="84.042"/>
</g>
<path stroke="#0A0A0A" stroke-width="0.25" stroke-miterlimit="10" d="M185.434,223.521c0,19.276-15.693,34.911-34.988,34.911
	c-19.324,0-34.988-15.631-34.988-34.911c0-19.295,15.664-34.926,34.988-34.926C169.735,188.595,185.434,204.226,185.434,223.521z"/>
<path stroke="#0A0A0A" stroke-width="0.25" stroke-miterlimit="10" d="M147.05,266.661c-32.567,0-41.015,10.597-49.577,28.138
	c-8.561,17.527-27.84,118.656-27.84,118.656c-1.195,4.43,1.48,8.943,5.806,10.124c4.393,1.171,8.917-1.438,10.124-5.807
	l31.116-99.45L93.007,462.734h22.779l6.997,129.075c0,4.471,3.724,8.188,8.188,8.188c4.621,0,8.337-3.72,8.337-8.188l6.997-129.075
	h7.742l7.593,129.075c0,4.471,3.691,8.188,8.188,8.188c4.53,0,8.188-3.72,8.188-8.188l6.998-129.075h22.778L184.27,318.322
	l27.097,97.664c0.981,4.396,5.398,7.263,9.826,6.253c4.403-1.016,7.256-5.361,6.253-9.826c0,0-15.347-100.087-23.97-117.614
	c-8.59-17.542-17.062-28.138-49.726-28.138H147.05L147.05,266.661z M150.624,273.659c6.486,0.02,12.935,0.604,19.354,1.787
	l-19.503,37.37l-19.503-37.37C137.532,274.18,144.138,273.638,150.624,273.659L150.624,273.659z"/>
<path stroke="#020202" stroke-width="0.25" stroke-miterlimit="10" d="M217.47,411.371c-0.253,0.021-0.502,0.073-0.744,0.146
	c-1.679,0.357-2.866,1.857-2.829,3.573v10.57h-3.126c-6.245,0-11.314,10.369-11.314,23.374v62.082
	c0,13.005,5.069,23.521,11.314,23.521h18.461c6.244,0,12.317-10.557,11.314-23.521l-4.913-62.082
	c-1.002-12.966-4.921-23.374-11.166-23.374h-3.424v-10.57c0.082-1.972-1.45-3.637-3.422-3.719
	C217.57,411.372,217.521,411.371,217.47,411.371z"/>
<path stroke="#0A0A0A" stroke-width="0.25" stroke-miterlimit="10" d="M601.001,188.5c-19.328,0-35.021,15.617-35.021,34.926
	c0,19.309,15.691,34.94,35.021,34.94c19.261,0,34.893-15.631,34.893-34.94C635.894,204.117,620.262,188.5,601.001,188.5
	L601.001,188.5z"/>
<path stroke="#0A0A0A" stroke-width="0.25" stroke-miterlimit="10" d="M597.559,266.512c-32.602,0-45.745,10.611-54.341,28.138
	c-8.533,17.494-4.169,123.271-4.169,123.271c-0.498,4.549,2.771,8.546,7.295,9.081c4.526,0.54,8.648-2.716,9.082-7.146
	l6.997-101.686l2.233,75.928l-6.7,191.161c-0.467,7.569,5.151,14.096,12.655,14.59c0.372,0.062,0.761,0,1.042,0
	c7.165,0,13.281-5.395,13.846-12.653l15.335-157.364l15.78,157.364c0.438,7.256,6.443,12.653,13.548,12.653
	c0.338,0,0.704,0.062,1.042,0c7.604-0.494,13.117-7.021,12.655-14.59L637.16,394.1l2.382-75.928l20.396,100.047
	c0.948,4.388,5.257,7.229,9.678,6.253c4.485-0.96,7.333-5.346,6.4-9.825c0,0-8.681-102.503-17.271-119.997
	c-8.595-17.522-21.889-28.138-54.489-28.138H597.559L597.559,266.512z M600.982,274.552c7.617,0,10.866,1.34,10.866,1.34
	l-7.442,9.975c0,0,3.115,2.016,3.273,4.317c0.161,2.302-4.168,7.295-4.168,7.295l8.337,85.159l-10.866,14.738l-11.02-14.738
	l8.486-85.159c0,0-4.329-4.994-4.169-7.295c0.161-2.301,3.274-4.317,3.274-4.317l-7.594-9.975
	C589.965,275.892,593.363,274.552,600.982,274.552L600.982,274.552z"/>
<path stroke="#0C0C0C" stroke-width="0.25" stroke-miterlimit="10" d="M543.023,417.476c-1.58,0.258-2.799,1.534-2.979,3.126
	l-1.935,10.721l-7.596,0.147c-6.244,0.046-10.107,10.55-11.017,23.522l-4.467,62.082c-0.907,12.975,5.22,23.42,11.464,23.374
	l18.461-0.148c6.244-0.046,11.262-10.518,11.166-23.521l-0.596-62.083c-0.091-12.191-4.566-22.068-10.272-23.227l1.787-9.677
	c0.411-1.931-0.82-3.829-2.751-4.24c-0.271-0.058-0.546-0.084-0.822-0.077C543.321,417.466,543.172,417.466,543.023,417.476z"/>
</svg>
