<?xml version="1.0" encoding="utf-8"?>
<!-- Generator: Adobe Illustrator 15.0.0, SVG Export Plug-In . SVG Version: 6.00 Build 0)  -->
<!DOCTYPE svg PUBLIC "-//W3C//DTD SVG 1.1//EN" "http://www.w3.org/Graphics/SVG/1.1/DTD/svg11.dtd">
<svg version="1.1" id="Calque_1" xmlns="http://www.w3.org/2000/svg" xmlns:xlink="http://www.w3.org/1999/xlink" x="0px" y="0px"
	 width="800px" height="600px" viewBox="0 0 800 600" enable-background="new 0 0 800 600" xml:space="preserve">
<g>
	<path d="M62.999,536.221h634.604c6.182,0,11.199-4.23,11.199-9.445s-5.019-9.445-11.199-9.445h-63.461v-45.925
		c21.904-7.167,37.331-35.089,37.331-70.573c0-41.283-20.859-72.418-48.529-72.418c-27.669,0-48.529,31.135-48.529,72.418
		c0,35.484,15.426,63.406,37.33,70.573v45.925h-89.59v-45.925c21.905-7.167,37.329-35.089,37.329-70.573
		c0-41.283-20.86-72.418-48.529-72.418c-27.668,0-48.528,31.135-48.528,72.418c0,35.484,15.425,63.406,37.329,70.573v45.925H223.517
		V111.161h276.238v195.213c0,5.214,5.019,9.444,11.199,9.444c6.183,0,11.2-4.23,11.2-9.444V92.269H201.118v425.06h-70.926v-45.925
		c21.897-7.167,37.33-35.089,37.33-70.573c0-41.283-20.86-72.418-48.528-72.418c-27.669,0-48.529,31.135-48.529,72.418
		c0,35.484,15.432,63.406,37.33,70.573v45.925H62.999c-6.188,0-11.199,4.23-11.199,9.445S56.81,536.221,62.999,536.221z
		 M601.316,429.389c3.356-1.55,6.664-2.853,8.764-3.367c1.097,1.075,2.553,2.752,3.523,3.872
		c4.113,4.762,8.779,10.156,16.097,11.617c1.293,0.253,2.643,0.371,4.039,0.371c1.717,0,3.53-0.227,5.358-0.534
		c-5.054,8.324-11.131,13.01-16.154,13.01C615.873,454.356,606.697,445.126,601.316,429.389z M596.812,400.894
		c4.181-2.328,9.17-4.596,12.4-5.69c0.694,0.907,1.427,1.938,2.022,2.758c3.682,5.169,7.497,10.522,14.454,12.197
		c1.308,0.32,2.732,0.472,4.284,0.472c5.047,0,11.41-1.726,18.966-5.062c-0.203,4.376-0.666,8.531-1.384,12.418
		c-4.546,2.229-9.415,4.169-12.19,4.816c-1.134-1.096-2.65-2.852-3.665-4.031c-3.994-4.612-8.123-9.388-14.626-11.177
		c-5.831-1.587-12.932-0.177-19.807,2.343C597,407.021,596.812,404.03,596.812,400.894z M622.943,347.306
		c8.742,0,20.719,14.062,24.732,37.151c-0.634,0.223-1.253,0.473-1.849,0.795c-4.459,2.411-9.857,4.773-13.269,5.889
		c-0.748-0.963-1.548-2.091-2.137-2.916c-3.383-4.755-6.884-9.666-12.946-11.682c-2.015-0.655-7.001-2.269-17.909,1.555
		C604.48,358.81,615.037,347.306,622.943,347.306z M489.326,429.389c3.357-1.55,6.667-2.853,8.765-3.367
		c1.1,1.075,2.553,2.752,3.523,3.872c4.112,4.762,8.78,10.156,16.097,11.617c1.292,0.253,2.643,0.371,4.038,0.371
		c1.719,0,3.532-0.227,5.36-0.534c-5.054,8.324-11.131,13.01-16.155,13.01C503.884,454.356,494.708,445.126,489.326,429.389z
		 M484.823,400.831c0-0.132,0.009-0.253,0.016-0.378c4.71-2.361,10.14-4.585,13.401-5.491c0.852,1.003,1.829,2.279,2.584,3.262
		c3.731,4.869,7.966,10.386,15.065,11.979c1.281,0.29,2.693,0.435,4.226,0.435c4.51-0.007,10.199-1.396,16.799-3.873
		c-0.232,3.942-0.695,7.689-1.345,11.217c-4.546,2.229-9.415,4.169-12.191,4.815c-1.134-1.095-2.649-2.851-3.665-4.03
		c-3.994-4.613-8.124-9.388-14.625-11.176c-5.832-1.589-12.932-0.178-19.809,2.341C485.002,407.003,484.823,403.991,484.823,400.831
		z M510.954,347.306c8.931,0,21.233,14.703,24.974,38.713c-4.92,2.339-10.339,4.474-13.588,5.349
		c-0.902-1.058-1.972-2.438-2.709-3.408c-3.606-4.702-7.332-9.571-13.573-11.497c-4.639-1.422-10.834-0.843-18.483,1.682
		C492.476,358.83,503.041,347.306,510.954,347.306z M97.365,429.389c3.359-1.55,6.667-2.853,8.764-3.367
		c1.098,1.075,2.546,2.752,3.517,3.872c4.114,4.762,8.772,10.156,16.104,11.617c1.285,0.253,2.636,0.371,4.04,0.371
		c1.725,0,3.53-0.227,5.353-0.534c-5.04,8.324-11.124,13.01-16.148,13.01C111.924,454.356,102.748,445.126,97.365,429.389z
		 M92.863,400.831c0-0.125,0.007-0.24,0.007-0.365c4.95-2.437,10.504-4.665,13.789-5.548c0.882,1.015,1.912,2.343,2.696,3.351
		c3.778,4.855,8.063,10.365,15.186,11.94c1.277,0.282,2.688,0.42,4.218,0.42c4.353,0,9.833-1.291,16.164-3.576
		c-0.239,3.829-0.687,7.482-1.321,10.919c-4.546,2.229-9.415,4.169-12.191,4.817c-1.135-1.095-2.651-2.854-3.673-4.029
		c-3.987-4.615-8.116-9.39-14.619-11.178c-5.816-1.582-12.924-0.171-19.808,2.348C93.042,407.003,92.863,403.991,92.863,400.831z
		 M118.994,347.306c8.989,0,21.36,14.866,25.032,39.104c-4.851,2.224-10.011,4.193-13.117,4.995
		c-0.933-1.072-2.045-2.494-2.814-3.496c-3.65-4.697-7.428-9.554-13.7-11.462c-4.696-1.435-10.989-0.837-18.806,1.739
		C100.493,358.848,111.072,347.306,118.994,347.306z"/>
	<path d="M697.604,555.111H62.999c-6.188,0-11.199,4.23-11.199,9.446c0,5.214,5.01,9.444,11.199,9.444h634.604
		c6.182,0,11.199-4.23,11.199-9.443C708.803,559.343,703.784,555.111,697.604,555.111z"/>
	<path d="M268.312,422.871c-6.188,0-11.199,4.231-11.199,9.446v47.229c0,5.215,5.01,9.446,11.199,9.446s11.2-4.231,11.2-9.446
		v-47.229C279.511,427.104,274.501,422.871,268.312,422.871z"/>
	<path d="M279.511,337.859c0-5.216-5.01-9.446-11.2-9.446c-6.188,0-11.199,4.23-11.199,9.446v47.229
		c0,5.215,5.01,9.446,11.199,9.446s11.2-4.231,11.2-9.446V337.859z"/>
	<path d="M279.511,243.402c0-5.221-5.01-9.446-11.2-9.446c-6.188,0-11.199,4.226-11.199,9.446v47.228
		c0,5.221,5.01,9.446,11.199,9.446s11.2-4.226,11.2-9.446V243.402z"/>
	<path d="M279.511,148.943c0-5.22-5.01-9.446-11.2-9.446c-6.188,0-11.199,4.227-11.199,9.446v47.229c0,5.22,5.01,9.446,11.199,9.446
		s11.2-4.227,11.2-9.446V148.943z"/>
	<path d="M324.307,422.871c-6.189,0-11.199,4.231-11.199,9.446v47.229c0,5.215,5.01,9.446,11.199,9.446s11.199-4.231,11.199-9.446
		v-47.229C335.506,427.104,330.496,422.871,324.307,422.871z"/>
	<path d="M335.506,337.859c0-5.216-5.01-9.446-11.199-9.446s-11.199,4.23-11.199,9.446v47.229c0,5.215,5.01,9.446,11.199,9.446
		s11.199-4.231,11.199-9.446V337.859z"/>
	<path d="M335.506,243.402c0-5.221-5.01-9.446-11.199-9.446s-11.199,4.226-11.199,9.446v47.228c0,5.221,5.01,9.446,11.199,9.446
		s11.199-4.226,11.199-9.446V243.402z"/>
	<path d="M335.506,148.943c0-5.22-5.01-9.446-11.199-9.446s-11.199,4.227-11.199,9.446v47.229c0,5.22,5.01,9.446,11.199,9.446
		s11.199-4.227,11.199-9.446V148.943z"/>
	<path d="M380.301,422.871c-6.19,0-11.199,4.231-11.199,9.446v47.229c0,5.215,5.009,9.446,11.199,9.446
		c6.19,0,11.199-4.231,11.199-9.446v-47.229C391.5,427.104,386.491,422.871,380.301,422.871z"/>
	<path d="M391.5,337.859c0-5.216-5.008-9.446-11.199-9.446c-6.19,0-11.199,4.23-11.199,9.446v47.229
		c0,5.215,5.009,9.446,11.199,9.446c6.19,0,11.199-4.231,11.199-9.446V337.859z"/>
	<path d="M391.5,243.402c0-5.221-5.008-9.446-11.199-9.446c-6.19,0-11.199,4.226-11.199,9.446v47.228
		c0,5.221,5.009,9.446,11.199,9.446c6.19,0,11.199-4.226,11.199-9.446V243.402z"/>
	<path d="M391.5,148.943c0-5.22-5.008-9.446-11.199-9.446c-6.19,0-11.199,4.227-11.199,9.446v47.229
		c0,5.22,5.009,9.446,11.199,9.446c6.19,0,11.199-4.227,11.199-9.446V148.943z"/>
	<path d="M436.295,422.871c-6.183,0-11.198,4.231-11.198,9.446v47.229c0,5.215,5.017,9.446,11.198,9.446s11.199-4.231,11.199-9.446
		v-47.229C447.494,427.104,442.477,422.871,436.295,422.871z"/>
	<path d="M447.494,337.859c0-5.216-5.019-9.446-11.199-9.446c-6.183,0-11.198,4.23-11.198,9.446v47.229
		c0,5.215,5.017,9.446,11.198,9.446s11.199-4.231,11.199-9.446V337.859z"/>
	<path d="M447.494,243.402c0-5.221-5.019-9.446-11.199-9.446c-6.183,0-11.198,4.226-11.198,9.446v47.228
		c0,5.221,5.017,9.446,11.198,9.446s11.199-4.226,11.199-9.446V243.402z"/>
	<path d="M447.494,148.943c0-5.22-5.019-9.446-11.199-9.446c-6.183,0-11.198,4.227-11.198,9.446v47.229
		c0,5.22,5.017,9.446,11.198,9.446s11.199-4.227,11.199-9.446V148.943z"/>
</g>
</svg>
