<?xml version="1.0" encoding="utf-8"?>
<!-- Generator: Adobe Illustrator 15.0.0, SVG Export Plug-In . SVG Version: 6.00 Build 0)  -->
<!DOCTYPE svg PUBLIC "-//W3C//DTD SVG 1.1//EN" "http://www.w3.org/Graphics/SVG/1.1/DTD/svg11.dtd">
<svg version="1.1" id="Calque_1" xmlns="http://www.w3.org/2000/svg" xmlns:xlink="http://www.w3.org/1999/xlink" x="0px" y="0px"
	 width="1033px" height="623px" viewBox="285.5 234.723 1033 623" enable-background="new 285.5 234.723 1033 623"
	 xml:space="preserve">
<g>
	<rect x="-1442.099" width="1557.497" height="833.472"/>
	<rect x="174.329" y="-303.081" width="841.891" height="252.567"/>
	<text transform="matrix(1 0 0 1 729.9785 -164.1719)" font-family="'Helvetica'" font-size="20.2054">http://thenounproject.com</text>
	<text transform="matrix(1 0 0 1 234.6582 -206.2656)" font-family="'Helvetica-Bold'" font-size="51.8419">The Noun Project</text>
	<text transform="matrix(1 0 0 1 244.0879 -165.8516)" font-family="'Helvetica-Bold'" font-size="33.6756">Icon Template</text>
	<text transform="matrix(1 0 0 1 -1328.4434 88.3984)" font-family="'Helvetica-Bold'" font-size="51.8419">Reminders</text>
	<line fill="none" stroke="#FFFFFF" stroke-miterlimit="10" x1="241.681" y1="-122.074" x2="325.87" y2="-122.074"/>
	<line fill="none" stroke="#FFFFFF" stroke-miterlimit="10" x1="-1332.654" y1="138.912" x2="-1189.532" y2="138.912"/>
	<g>
		<g>
			<g>
				<rect x="-1263.635" y="263.663" width="73.421" height="72.756"/>
				<path d="M-1210.201,356.221h39.965v-39.594h-39.965V356.221z M-1166.515,359.899h-47.398v-46.97h47.398V359.899
					L-1166.515,359.899z M-1225.068,370.954h69.7v-69.062h-69.7V370.954L-1225.068,370.954z M-1151.647,374.641h-77.143v-76.435
					h77.143V374.641L-1151.647,374.641z"/>
				<polygon points="-1224.463,371.552 -1225.666,370.355 -1155.967,301.287 -1154.77,302.482 				"/>
			</g>
		</g>
	</g>
	<rect x="-1332.654" y="488.296" fill="none" width="294.662" height="273.614"/>
	<text transform="matrix(1 0 0 1 -1332.6543 506.2266)" font-family="'Helvetica-Bold'" font-size="25.2567">Strokes</text>
	<text transform="matrix(1 0 0 1 -1332.6543 548.3203)" font-family="'Helvetica'" font-size="20.2054">Try to keep strokes at 4px</text>
	<text transform="matrix(1 0 0 1 -1332.6543 590.4141)" font-family="'Helvetica'" font-size="20.2054">Minimum stroke weight is 2px</text>
	<text transform="matrix(1 0 0 1 -1332.6543 628.3047)" font-family="'Helvetica'" font-size="20.2054">For thicker strokes use even </text>
	<text transform="matrix(1 0 0 1 -1332.6543 653.5547)" font-family="'Helvetica'" font-size="20.2054">numbers: 6px, 8px etc.</text>
	<text transform="matrix(1 0 0 1 -1332.6543 691.4453)" font-family="'Helvetica-Bold'" font-size="20.2054">Remember to expand strokes </text>
	<text transform="matrix(1 0 0 1 -1332.6543 716.7031)" font-family="'Helvetica-Bold'" font-size="20.2054">before saving as an SVG </text>
	<rect x="-974.85" y="488.296" fill="none" width="294.662" height="273.614"/>
	<text transform="matrix(1 0 0 1 -974.8496 506.2266)" font-family="'Helvetica-Bold'" font-size="25.2567">Size</text>
	<text transform="matrix(1 0 0 1 -974.8496 548.3203)" font-family="'Helvetica'" font-size="20.2054">Cannot be wider or taller than </text>
	<text transform="matrix(1 0 0 1 -974.8496 577.7891)" font-family="'Helvetica'" font-size="20.2054">100px (artboard size)</text>
	<text transform="matrix(1 0 0 1 -974.8496 619.8828)" font-family="'Helvetica'" font-size="20.2054">Scale your icon to fill as much of </text>
	<text transform="matrix(1 0 0 1 -974.8496 645.1406)" font-family="'Helvetica'" font-size="20.2054">the artboard as possible</text>
	<rect x="-617.047" y="488.296" fill="none" width="294.661" height="273.614"/>
	<text transform="matrix(1 0 0 1 -617.0488 506.2266)" font-family="'Helvetica-Bold'" font-size="25.2567">Ungroup</text>
	<text transform="matrix(1 0 0 1 -617.0488 548.3203)" font-family="'Helvetica'" font-size="20.2054">If your design has more than one </text>
	<text transform="matrix(1 0 0 1 -617.0488 573.5781)" font-family="'Helvetica'" font-size="20.2054">shape, make sure to ungroup</text>
	<rect x="-246.615" y="488.296" fill="none" width="294.661" height="273.614"/>
	<text transform="matrix(1 0 0 1 -246.6152 506.2266)" font-family="'Helvetica-Bold'" font-size="25.2567">Save as</text>
	<text transform="matrix(1 0 0 1 -246.6152 548.3203)" font-family="'Helvetica'" font-size="20.2054">Save as .SVG and make sure “Use </text>
	<text transform="matrix(1 0 0 1 -246.6152 573.5781)" font-family="'Helvetica'" font-size="20.2054">Artboards” is checked</text>
	<text transform="matrix(1.0074 0 0 1 -882.5957 257.5625)" font-family="'Helvetica'" font-size="21.6627">100px</text>
	<text transform="matrix(1.0074 0 0 1 -170.8457 328.3359)" font-family="'Helvetica-Bold'" font-size="43.3254">.SVG</text>
	<rect x="-890.779" y="293.104" width="86.387" height="85.747"/>
	<rect x="-890.468" y="267.435" width="4.395" height="19.674"/>
	<rect x="-809.107" y="267.435" width="4.403" height="19.674"/>
	<rect x="-894.871" y="272.242" width="94.569" height="4.815"/>
	<g>
		<rect x="-531.217" y="284.93" width="86.757" height="85.501"/>
		<rect x="-472.317" y="241.682" width="27.85" height="27.454"/>
	</g>
	<rect x="-1328.444" y="189.425" stroke="#FFFFFF" stroke-miterlimit="10" width="252.567" height="252.567"/>
	<rect x="-974.85" y="189.425" stroke="#FFFFFF" stroke-miterlimit="10" width="252.567" height="252.567"/>
	<rect x="-612.838" y="189.425" stroke="#FFFFFF" stroke-miterlimit="10" width="252.567" height="252.567"/>
	<rect x="-242.406" y="189.425" stroke="#FFFFFF" stroke-miterlimit="10" width="252.567" height="252.567"/>
</g>
<g>
	<g>
		<path d="M870.093,539.702c0.033,0,0.075-1.532-0.177-2.374c-0.388-1.255-1.153-2.113-2.062-2.93l-64.16-210.229
			c-0.936-3.099-3.806-5.161-7.047-5.161H383.674c-3.25,0-6.12,2.14-7.055,5.254l-63.218,209.622
			c-1.474,0.993-2.635,2.214-3.157,3.975c-0.202,0.697-0.118,1.844-0.118,1.844h-0.547l0.598,8.208
			c1.313,17.386,20.627,43.812,46.38,43.812c4.445,0,6.777-0.682,12.906-2.07V813.09c0,8.158,7.189,14.75,15.331,14.75
			c8.141,0,15.322-6.592,15.322-14.75v-71.072h380.079v71.072c0,8.158,7.188,14.75,15.331,14.75c8.142,0,15.321-6.592,15.321-14.75
			V589.651c6.129,1.39,8.461,2.206,12.906,2.206c25.753,0,44.932-26.555,46.236-43.955l0.741-8.2H870.093L870.093,539.702z
			 M714.259,539.702L686.57,331.267h44.216l46.102,208.437L714.259,539.702L714.259,539.702z M775.312,551.969
			c-4.739,12.258-16.476,22.116-29.256,22.116c-12.778,0-24.489-9.858-29.237-22.116H775.312z M558.93,539.702l9.16-208.437h42.49
			l8.756,208.437H558.93z M619.404,551.969c-4.74,12.258-16.484,22.116-29.256,22.116c-12.772,0-24.499-9.858-29.247-22.116H619.404
			z M403.837,539.702l45.613-208.437h44.511l-28.236,208.437H403.837z M463.477,551.969c-4.73,12.258-16.468,22.116-29.238,22.116
			c-12.764,0-24.499-9.858-29.247-22.116H463.477z M400.108,723.621V572.232c6.129,10.811,20.069,19.633,34.973,19.633
			c16.964,0,30.552-11.434,38.559-24.188c7.997,12.755,21.806,24.188,38.77,24.188c16.956,0,30.872-11.434,38.87-24.188
			c7.998,12.755,21.965,24.188,38.929,24.188c16.956,0,30.956-11.434,38.954-24.188c7.99,12.755,22.008,24.188,38.955,24.188
			c16.972,0,30.98-11.434,38.986-24.188c7.989,12.755,21.157,24.188,38.121,24.188c14.91,0,28.844-8.822,34.965-19.633v151.389
			H400.108z"/>
		<path d="M459.764,654.098c-3.989,0.354-7.745,1.391-11.196,2.938l-1.222-2.576c0.052-0.008,10.279-0.867,14.674-11.593
			c4.127-10.161-2.382-18.555-2.382-18.555s-9.605-0.81-14.666,11.601c-1.684,4.134-1.877,7.544-1.489,10.339l-3.073-6.525
			l-7.989,3.765c0,0,9.118,11.181,12.562,15.405c-11.366,6.729-18.497,19.541-17.233,33.575
			c1.759,19.432,18.934,33.751,38.356,31.991c19.431-1.751,33.751-18.934,32-38.364
			C496.378,666.676,479.178,652.339,459.764,654.098z"/>
		<path d="M544.602,654.098c-3.99,0.354-7.745,1.391-11.205,2.938l-1.213-2.576c0.051-0.008,10.287-0.867,14.683-11.593
			c4.134-10.161-2.392-18.555-2.392-18.555s-9.613-0.81-14.666,11.601c-1.684,4.134-1.894,7.544-1.498,10.339l-3.072-6.525
			l-7.989,3.765c0,0,9.117,11.181,12.569,15.405c-11.374,6.729-18.496,19.541-17.233,33.575
			c1.76,19.432,18.942,33.751,38.365,31.991c19.422-1.751,33.751-18.934,32.008-38.364
			C581.215,666.676,564.032,652.339,544.602,654.098z"/>
		<path d="M629.447,654.098c-3.981,0.354-7.745,1.391-11.205,2.938l-1.212-2.576c0.05-0.008,10.296-0.867,14.674-11.593
			c4.134-10.161-2.374-18.555-2.374-18.555s-9.614-0.81-14.675,11.601c-1.675,4.134-1.895,7.544-1.49,10.339l-3.072-6.525
			l-7.989,3.765c0,0,9.117,11.181,12.562,15.405c-11.365,6.729-18.496,19.541-17.233,33.575
			c1.769,19.432,18.935,33.751,38.365,31.991c19.432-1.751,33.76-18.934,32-38.364C666.044,666.676,648.861,652.339,629.447,654.098
			z"/>
		<path d="M714.276,654.098c-3.982,0.354-7.736,1.391-11.197,2.938l-1.212-2.576c0.051-0.008,10.288-0.867,14.674-11.593
			c4.134-10.161-2.382-18.555-2.382-18.555s-9.615-0.81-14.675,11.601c-1.667,4.134-1.895,7.544-1.49,10.339l-3.064-6.525
			l-7.979,3.765c0,0,9.107,11.181,12.544,15.405c-11.365,6.729-18.479,19.541-17.227,33.575
			c1.761,19.432,18.936,33.751,38.365,31.991c19.423-1.751,33.76-18.934,32-38.364C750.881,666.676,733.698,652.339,714.276,654.098
			z"/>
	</g>
</g>
<g>
	<path d="M1291.765,443.402c-1.916-5.748-25.868-20.12-37.364-20.12c0,0,14.371-11.497,8.621-17.246
		c-3.832-3.833-22.035,15.33-42.155,21.079c-38.323,12.455-92.938,17.245-110.183,22.036c-7.665,1.916-17.244,3.832-31.616,3.832
		c-3.833-5.748-7.665-8.623-13.413-8.623c-4.791,0-9.581,2.875-13.414,8.623c-12.455,0-28.743-0.958-46.947-1.916
		c-40.239-1.916-89.103-25.869-100.601-33.534c-11.497-8.623-11.497-10.539-17.245-9.581c-3.832,0.958,6.707,19.162,6.707,19.162
		c-17.246-1.917-45.031,22.994-40.24,26.826c3.832,2.875,48.863-7.664,57.485-10.539c11.497,3.833,60.359,20.12,78.563,22.995
		c17.246,1.916,36.408,11.496,51.737,14.37c-8.622,29.701-14.372,73.773-24.911,114.973c2.875-0.957,8.624,0,15.33,0
		c-2.874,25.869-6.706,68.024-8.623,93.895c-2.874,32.575-17.245,93.895-25.869,102.518c-22.994,22.036-45.988,29.7-31.616,34.491
		c18.203,4.79,36.407-6.708,51.737-7.664c11.497-0.959,14.371,0,15.33-4.791c2.874-22.036,15.329-102.518,15.329-123.596
		c0-7.665,6.707-61.317,10.539-90.062c3.833,0.958,7.665,0.958,11.497,1.916c3.832,57.485-6.707,132.218-5.75,147.548
		c0.959,17.245-1.914,68.982-1.914,68.982s13.411-0.957,23.951,1.916c16.287,7.665,53.653,12.455,50.779,6.706
		c-1.917-5.747-25.869-13.413-37.366-34.49c-5.749-10.539-5.749-84.312-2.874-106.35c1.916-17.246,2.874-59.401,0.958-82.396
		c4.79,0,8.623,0,12.455-0.958c-1.916-3.832-7.665-80.48-16.288-112.099c-0.957-3.833-1.916-6.707-2.874-9.581
		c30.659-8.622,49.821-13.412,107.309-27.784c15.329-3.832,27.785-8.623,39.282-12.455
		C1243.86,438.612,1293.682,449.151,1291.765,443.402z"/>
	<path d="M1069.486,430.947c8.623,0.958,27.785-6.707,23.953-26.827c-2.875-16.288-14.372-22.037-26.827-19.162
		c-11.497,2.874-18.204,14.371-17.246,23.952C1050.323,420.408,1057.031,429.989,1069.486,430.947z"/>
</g>
</svg>
