<?xml version="1.0" encoding="utf-8"?>
<!-- Generator: Adobe Illustrator 15.0.0, SVG Export Plug-In . SVG Version: 6.00 Build 0)  -->
<!DOCTYPE svg PUBLIC "-//W3C//DTD SVG 1.1//EN" "http://www.w3.org/Graphics/SVG/1.1/DTD/svg11.dtd">
<svg version="1.1" id="Calque_1" xmlns="http://www.w3.org/2000/svg" xmlns:xlink="http://www.w3.org/1999/xlink" x="0px" y="0px"
	 width="800px" height="600px" viewBox="0 0 800 600" enable-background="new 0 0 800 600" xml:space="preserve">
<g>
	<rect x="203.418" y="187.743" width="44.323" height="73.864"/>
	<rect x="277.283" y="187.743" width="44.323" height="73.864"/>
	<rect x="351.16" y="187.743" width="44.322" height="73.864"/>
	<rect x="425.024" y="187.743" width="44.321" height="73.864"/>
	<rect x="498.896" y="187.743" width="44.321" height="73.864"/>
	<rect x="572.759" y="187.743" width="44.322" height="73.864"/>
	<rect x="203.418" y="291.168" width="44.323" height="73.864"/>
	<rect x="277.283" y="291.168" width="44.323" height="73.864"/>
	<rect x="351.16" y="291.168" width="44.322" height="73.864"/>
	<rect x="425.024" y="291.168" width="44.321" height="73.864"/>
	<rect x="498.896" y="291.168" width="44.321" height="73.864"/>
	<rect x="572.759" y="291.168" width="44.322" height="73.864"/>
	<rect x="203.418" y="394.58" width="413.668" height="14.774"/>
	<rect x="203.418" y="438.896" width="44.323" height="73.864"/>
	<rect x="277.283" y="438.896" width="44.323" height="73.864"/>
	<rect x="351.16" y="438.896" width="44.322" height="73.864"/>
	<rect x="425.024" y="438.896" width="44.321" height="73.864"/>
	<rect x="498.896" y="438.896" width="44.321" height="73.864"/>
	<rect x="572.759" y="438.896" width="44.322" height="73.864"/>
	<path d="M661.41,542.309V158.195h29.548v-29.549h-561.41v29.549h29.549v384.114H100v14.774h620.5v-14.774H661.41z M173.871,542.309
		V158.195h472.764v384.114H173.871z"/>
	<rect x="402.866" y="40.001" width="14.774" height="88.645"/>
	<polygon points="417.634,84.331 417.634,40.001 491.51,40.001 461.956,62.166 491.51,84.331 	"/>
</g>
</svg>
