<?xml version="1.0" encoding="UTF-8" standalone="no"?>
<svg width="285px" height="83px" viewBox="0 0 285 83" version="1.1" xmlns="http://www.w3.org/2000/svg" xmlns:xlink="http://www.w3.org/1999/xlink" xmlns:sketch="http://www.bohemiancoding.com/sketch/ns">
    <!-- Generator: Sketch 3.3.3 (12081) - http://www.bohemiancoding.com/sketch -->
    <title>Slice 1</title>
    <desc>Created with Sketch.</desc>
    <defs></defs>
    <g id="Page-1" stroke="none" stroke-width="1" fill="none" fill-rule="evenodd" sketch:type="MSPage">
        <g id="legumes" sketch:type="MSLayerGroup">
            <path d="M126,51 C126,55.9 122.2,59.9 117.5,59.9 C116.5,59.9 115.5,59.7 114.6,59.4 C113.7,59.7 112.8,59.9 111.8,59.9 C107.1,59.9 103.3,55.9 103.3,51 C103.3,46.1 107.1,42.1 111.8,42.1 C112.6,42.1 113.4,42.2 114.1,42.4 C114.1,42.5 114.2,42.5 114.3,42.6 C114.4,42.7 114.6,42.7 114.7,42.7 C114.8,42.7 114.9,42.6 114.9,42.5 L114.9,42.5 C115.7,42.2 116.6,42.1 117.5,42.1 C122.2,42.1 126,46.1 126,51 L126,51 Z" id="XMLID_2008_" fill="#EC6635" sketch:type="MSShapeGroup"></path>
            <path d="M123.5,35.4 C123.5,35.4 122.3,39.2 119.2,40 C116.4,40.7 115,42 114.8,42.2 L114.8,42.2 C114.7,42.2 114.7,42.1 114.7,42 C114.7,41.9 114.6,41.8 114.6,41.7 C114.6,41.6 114.6,41.6 114.7,41.6 L114.7,41.7 C114.7,41.7 114.7,41.7 114.7,41.6 L114.7,41.6 C114.8,40.8 115.3,37.4 117.4,36.2 C119.7,34.5 123.5,35.4 123.5,35.4 L123.5,35.4 Z" id="XMLID_1363_" fill="#6B9A4C" sketch:type="MSShapeGroup"></path>
            <path d="M114.9,42.6 L114.7,42.8 C114.6,42.9 114.4,42.8 114.3,42.7 L114.1,42.5 L114.2,42.5 C114,41.1 113.5,37.8 113.2,37.5 C112.9,37.1 112.4,36.9 112.4,36.3 C112.4,35.7 113.8,35.1 114.3,36.3 C114.7,37.4 114.8,40.8 114.8,41.4 C114.8,41.4 114.8,41.5 114.7,41.5 C114.7,41.6 114.7,41.7 114.8,41.8 C114.8,41.9 114.9,41.9 114.9,42 L114.9,42 L114.9,42.6 L114.9,42.6 L114.9,42.6 Z" id="XMLID_1353_" fill="#825136" sketch:type="MSShapeGroup"></path>
            <path id="XMLID_1335_" sketch:type="MSShapeGroup" d="M114.7,41.3 C114.7,41.4 114.7,41.4 114.7,41.3"></path>
            <path d="M152.2,51 C152.2,55.9 148.4,59.9 143.7,59.9 C142.7,59.9 141.7,59.7 140.8,59.4 C139.9,59.7 139,59.9 138,59.9 C133.3,59.9 129.5,55.9 129.5,51 C129.5,46.1 133.3,42.1 138,42.1 C138.8,42.1 139.6,42.2 140.3,42.4 C140.3,42.5 140.4,42.5 140.5,42.6 C140.6,42.7 140.8,42.7 140.9,42.7 C141,42.7 141.1,42.6 141.1,42.5 L141.1,42.5 C141.9,42.2 142.8,42.1 143.7,42.1 C148.4,42.1 152.2,46.1 152.2,51 L152.2,51 Z" id="XMLID_704_" fill="#EC6635" sketch:type="MSShapeGroup"></path>
            <path d="M149.7,35.4 C149.7,35.4 148.5,39.2 145.4,40 C142.6,40.7 141.2,42 141,42.2 L141,42.2 C140.9,42.2 140.9,42.1 140.9,42 C140.9,41.9 140.8,41.8 140.8,41.7 C140.8,41.6 140.8,41.6 140.9,41.6 L140.9,41.7 C140.9,41.7 140.9,41.7 140.9,41.6 L140.9,41.6 C141,40.8 141.5,37.4 143.6,36.2 C145.9,34.5 149.7,35.4 149.7,35.4 L149.7,35.4 Z" id="XMLID_679_" fill="#6B9A4C" sketch:type="MSShapeGroup"></path>
            <path d="M141.1,42.6 L140.9,42.8 C140.8,42.9 140.6,42.8 140.5,42.7 L140.3,42.5 L140.4,42.5 C140.2,41.1 139.7,37.8 139.4,37.5 C139.1,37.1 138.6,36.9 138.6,36.3 C138.6,35.7 140,35.1 140.5,36.3 C140.9,37.4 141,40.8 141,41.4 C141,41.4 141,41.5 140.9,41.5 C140.9,41.6 140.9,41.7 141,41.8 C141,41.9 141.1,41.9 141.1,42 L141.1,42 L141.1,42.6 C141,42.6 141.1,42.6 141.1,42.6 L141.1,42.6 Z" id="XMLID_630_" fill="#825136" sketch:type="MSShapeGroup"></path>
            <path id="XMLID_498_" sketch:type="MSShapeGroup" d="M140.9,41.3 C140.9,41.4 140.9,41.4 140.9,41.3"></path>
            <path d="M23.2,48.8 C23.2,48.7 23.2,48.2 23.1,48.1 C22.3,45.5 19.9,44.5 18.9,42.1 C18.8,41.4 19.1,41.1 19.8,41.2 C19.1,39.3 17.5,38.3 17.7,35.4 C18.1,35 19,35.1 19.8,35.1 C19,33.3 17.2,29.3 19.2,27.5 C21.5,28.4 22.2,31 22.5,33.9 C23.1,33.7 23.1,33 23.7,33.6 C24.6,31.8 23.8,28.5 25.5,27.5 C27.5,27.6 27.3,29.7 27.3,31.7 C27.4,32.3 28.7,30.7 29.4,31.7 C29.8,33.3 28.8,35.3 27.9,36.5 C31.4,37 27.1,41.5 29.4,42.3 C29,45.3 25.2,45 24.6,47.8 C24.7,48.1 24.5,48.4 24.7,48.5 L23.2,48.8 L23.2,48.8 Z" id="XMLID_7786_" fill="#96BF54" sketch:type="MSShapeGroup"></path>
            <path d="M25.3,48.4 C26.1,49.1 27.7,48.8 28.8,49.9 C29.2,50.2 29.2,51 29.5,51.5 L29.1,60.5 C28.4,67.9 27.5,75.2 24.3,80.2 C20.8,75.7 20.3,68 19.1,61.1 L17.4,52.3 C17.7,51.8 20.2,48.5 23.3,48.4 L25.3,48.4 L25.3,48.4 Z" id="XMLID_7783_" fill="#F19255" sketch:type="MSShapeGroup"></path>
            <path d="M92,37.3 C95.6,37.5 95.7,40.4 96.4,44.1 C97.2,48.1 100.3,52.5 97.7,56.9 C93.7,63.7 81.2,60.3 83,51.2 C83.5,48.8 85.4,46.9 86.1,44.3 C87.1,40.2 86.3,37.6 91.1,37.5 L92,37.3 L92,37.3 Z" id="XMLID_7766_" fill="#D4D826" sketch:type="MSShapeGroup"></path>
            <path d="M93.2,34.9 C93.6,34.1 94.8,34.2 95.3,33.4 C94,31.4 92,34.2 91.4,35.5 C91.4,35.5 91.1,37.3 90.9,37.6 L91.9,37.4 C92,36.7 92.3,35.8 92.7,35.5 L93.2,34.9 L93.2,34.9 Z" id="XMLID_7763_" fill="#825136" sketch:type="MSShapeGroup"></path>
            <path d="M93,35.2 C93.7,34.5 97.8,34.8 97.8,35.8 C97.9,37.3 93.3,36.9 92.5,35.8 L93,35.2 L93,35.2 Z" id="XMLID_7760_" fill="#6B9A4C" sketch:type="MSShapeGroup"></path>
            <path d="M91.5,35.8 C91.3,35.3 90.7,34.7 90,34.6 C89.9,35.7 90.7,36.1 91.3,36.6 L91.5,35.8 L91.5,35.8 Z" id="XMLID_7748_" fill="#6B9A4C" sketch:type="MSShapeGroup"></path>
            <path d="M74.9,42.7 C82.2,42.9 81.3,56.3 75.7,57.5 C75.9,59.4 76.2,61.1 77.5,61.9 C75.4,61.9 74.1,59.2 73.1,57.3 C66.8,56.3 66,42.4 74.1,42.7 L74.9,42.7 L74.9,42.7 Z" id="XMLID_7723_" fill="#EC6635" sketch:type="MSShapeGroup"></path>
            <path d="M73.8,42.9 C72.9,41.3 70.9,41.3 70.6,39.1 C70.5,38.6 71,38.6 71.4,38.5 C71,37.7 70.3,37.2 70.6,35.7 C70.8,35.5 71.1,35.4 71.6,35.5 C70.6,34.1 69,33.4 69.2,30.9 C69.7,30.9 69.8,30.6 70.4,30.7 C69.8,30.1 69.6,28.9 70.2,28.1 C73.3,29.2 73,33.6 74.2,36.7 C74.8,35.1 74.8,33.1 75.4,31.5 C75.9,30.2 76.6,28.2 78.2,28.1 C78.7,28.8 78.7,30 78,30.5 C78.3,30.8 79,30.7 79.2,31.1 C79.2,33.3 78,34.3 76.8,35.3 C76.9,35.7 77.7,35.4 77.8,35.7 C77.9,37 77.6,37.8 76.8,38.3 C77.1,38.7 77.9,38.5 77.8,39.3 C77.3,41.1 75.5,41.4 74.6,42.9 L73.8,42.9 L73.8,42.9 Z" id="XMLID_7720_" fill="#96BF54" sketch:type="MSShapeGroup"></path>
            <path d="M55.3,54.7 C54.5,54.5 53.7,53.9 53.3,53.5 L53.3,53.7 C53.2,54 53.1,54.3 53,54.6 C52.3,56.4 51.5,58.2 50.8,60 C50.8,60 50.7,60 50.6,60.1 C50.7,58.2 50.9,56.4 51,54.5 L51,53.9 C51,53.7 51.2,53.5 51.4,53.5 L47.8,53.9 L47.8,54.4 C47.7,56.2 47.6,57.9 47.4,59.8 C46.8,57.9 46.2,56.2 45.6,54.3 C45.5,54 45.4,53.7 45.3,53.4 C45.3,53.4 45.3,53.4 44.7,52.6 C42.3,54 41.2,53.7 39.8,54.2 L40,54.2 L40,54.2 C40.2,54.2 40.3,54.4 40.5,54.7 C40.8,55.3 41.1,55.9 41.3,56.6 C42.5,59.4 43.3,62.4 43,65.5 C42.9,67.1 42.7,68.7 42.6,70.3 C42.5,71.2 42.9,71.9 43.8,71.9 L51.5,71.9 C52.3,71.9 52.8,71.3 52.7,70.5 C52.7,70.2 52.7,69.8 52.6,69.5 C52.3,66.3 52.2,63.1 53.4,60.1 C54,58.3 54.6,56.5 55.3,54.7 L55.3,54.7 Z" id="XMLID_7619_" fill="#96BF54" sketch:type="MSShapeGroup"></path>
            <path d="M63.7,53.8 C61.1,55.6 58.4,55.9 55.3,54.8 C54.5,54.6 53.7,54 53.3,53.6 C53.3,53.5 53.3,53.4 53.2,53.4 C53.1,53.3 53,53.3 52.9,53.3 L52.6,53.3 C52.2,53.4 51.7,53.5 51.3,53.7 L47.7,54.1 L46.4,53.8 L45.8,53.7 L45.1,53.6 C45.1,53.6 45.1,53.6 44.5,52.8 C42.1,54.2 41,53.9 39.6,54.4 L39.4,54.4 C35.5,55.2 31.8,53.5 29.9,50 C28.1,46.6 29,41.9 32,39.5 C34,37.9 35.6,37.4 38.4,37.5 C39.2,36.1 40.2,34.8 41.6,33.7 C45.3,30.7 50.8,30.6 54.8,33.3 C56.5,34.5 57.8,36 58.7,37.9 C58.9,38.2 59.1,38.4 59.5,38.5 C62.7,38.9 65.1,40.5 66.4,43.4 C68.3,47.5 66.8,51.6 63.7,53.8 L63.7,53.8 Z" id="XMLID_2869_" fill="#6B9A4C" sketch:type="MSShapeGroup"></path>
            <path d="M176.1,37 C175.8,37.1 175.3,37.8 175,37.9 C173.8,36.3 171,35.8 168.9,37.1 C168.7,37 168.5,36.8 168.4,36.7 C170.2,36.1 170.7,35.3 171,32.9 C171.3,30.5 172.8,28.4 175.2,29.1 C176.3,29.7 175.3,31.4 174.1,30.8 C172.9,30.2 172.8,31.9 172.8,32.8 C172.9,35.8 173.7,36.1 176.1,37 L176.1,37 Z" id="XMLID_1307_" fill="#6B9A4C" sketch:type="MSShapeGroup"></path>
            <path d="M176.4,55 C175.6,55.4 174.5,55.2 173.6,54.8 C173.5,54.9 173.5,55 173.4,55.1 C172.6,56.1 171.4,55.6 170.7,55.2 L170.7,55.2 C170.6,55.1 170.5,55.1 170.4,55 C170.3,54.9 170.2,54.9 170.2,54.9 C169.5,55.5 168.9,55.7 167.5,55 C165.9,54.2 160.9,45.2 163.6,38.6 C163.9,37.3 166.4,35.6 168.5,36.7 L168.5,36.7 C168.7,36.8 168.9,36.9 169,37.1 C170.6,36 173.6,36 175.2,37.3 C176.9,35.7 180.2,37.3 180.4,38.6 C183,45.2 178,54.2 176.4,55 L176.4,55 Z" id="XMLID_1310_" fill="#EC6635" sketch:type="MSShapeGroup"></path>
            <path d="M191.7,37.3 C191.6,37.5 191.2,38.4 191.1,38.6 C190.2,41.5 190.1,42.7 188.6,45.4 C187.5,47.4 187.6,47.3 184.1,52 C180.2,58.1 187.6,60.9 187.6,60.9 C191.5,62.1 194.8,59.4 194.8,59.4 C194.8,59.4 198.5,57.2 200.2,52.1 C201.8,47.6 200.8,41.5 200.2,38 C195.6,31 192.7,37.2 191.7,37.3 L191.7,37.3 Z" id="XMLID_271_" fill="#5F4A62" sketch:type="MSShapeGroup"></path>
            <path d="M190.8,37.4 C190.8,37.4 191.3,34.6 193.1,33.5 C194.7,32.6 195.2,31.5 195.4,30.9 C195.5,30.5 195.8,30.3 196.2,30.3 L196.2,30.3 C196.6,30.3 197,30.6 197.1,31.1 C197.2,31.7 197.6,32.7 199,33.6 C201.5,35.2 200.8,38.2 200.8,38.2 C200.8,38.2 198.2,37.9 197.7,35.9 C197.7,35.9 198.3,37.5 195.7,39.6 C194,38 194.2,35.9 194.2,35.9 C194.2,35.9 193.2,37.4 190.8,37.4 L190.8,37.4 Z" id="XMLID_1188_" fill="#6B9A4C" sketch:type="MSShapeGroup"></path>
            <path d="M226.1,49 C226.6,48.3 226.9,47.5 226.9,46.7 C226.1,46.4 223.9,44.9 223.4,44 C222.7,44.3 222,44.7 221.3,45.2 C219.6,46.5 220.6,48.3 221.9,49.4 C223.2,50.4 225.2,50.9 226.1,49 L226.1,49 Z" id="XMLID_635_" fill="#8E694A" sketch:type="MSShapeGroup"></path>
            <path d="M228.4,46.3 C228,46.9 227.5,47 226.9,46.7 C226.1,46.4 223.9,44.9 223.4,44 C223.1,43.5 223,43 223.4,42.4 C224.3,41.3 226.1,41.2 227.5,42.2 C228.9,43.3 229.3,45.1 228.4,46.3 L228.4,46.3 Z" id="XMLID_481_" fill="#854D34" sketch:type="MSShapeGroup"></path>
            <path d="M220.3,49.2 C221.2,45.5 221.2,42.1 221,40.1 C218.9,40.1 215.9,39.7 215.5,39.7 L215.5,39.7 C215.3,40.4 215.1,41.3 214.9,42.3 C214.4,44.7 211.8,49 210.9,50.7 C210,52.3 210.4,56.1 214,56.9 C217.5,57.7 218.9,54.8 220.3,49.2 L220.3,49.2 Z" id="XMLID_268_" fill="#D3BEA8" sketch:type="MSShapeGroup"></path>
            <path d="M223.2,40.1 L221,40.1 C218.9,40.1 215.9,39.7 215.5,39.7 L215.5,39.7 C213.8,39.4 211.9,39.1 211.3,38.7 C210.2,38.1 210.8,36.9 212.1,36 C213.4,35 215.5,33.5 218.7,33.6 C222.8,33.8 224.3,35.9 225.6,38.2 C226.8,40.3 224.9,40 223.2,40.1 L223.2,40.1 Z" id="XMLID_487_" fill="#D2AA91" sketch:type="MSShapeGroup"></path>
            <path d="M228.5,62.9 C226,65.1 223.9,62.8 221.6,59.8 C221.4,58.7 219.6,56.9 218,55.7 C215.4,53 213.3,50.7 215.9,48.5 C219.1,45.7 224.6,46.6 228,50.6 C231.5,54.5 231.7,60 228.5,62.9 L228.5,62.9 Z" id="XMLID_306_" fill="#EBD3BE" sketch:type="MSShapeGroup"></path>
            <path d="M218.1,64.3 C216.4,65.8 213.9,65.5 212.6,63.6 C211.6,62.2 211.7,60.2 212.8,58.9 C213.1,58.5 213.5,58.2 213.9,58 C215,57.4 216.2,57.1 217.1,56.3 L217.9,55.6 C219.5,56.9 221.3,58.7 221.5,59.7 L220.7,60.4 C219.9,61.1 219.3,62.3 218.7,63.3 C218.6,63.8 218.4,64 218.1,64.3 L218.1,64.3 Z" id="XMLID_258_" fill="#EDE0D3" sketch:type="MSShapeGroup"></path>
            <path d="M206.3,39.5 C201.5,40.7 198.5,45.2 199.7,50 L199.8,50.4 C200.1,50.9 200.6,51.3 201.6,51.2 C203.9,51 204.3,50.5 204.7,50.4 C204.7,50.4 207.7,49 213,48.3 C213.4,48.2 213.9,48.4 216.1,47.5 C217,47.1 217.3,46.5 217.3,45.9 L217.2,45.6 C215.9,40.8 211.1,38.2 206.3,39.5 L206.3,39.5 Z" id="XMLID_256_" fill="#7E5137" sketch:type="MSShapeGroup"></path>
            <path d="M216.5,55.7 C216.7,56.8 216.5,57.8 216,58.7 C215.2,60.1 213.6,61.3 212,61.7 C209,62.5 206,61.3 205,58.5 C204.4,55.8 205.4,52.7 204.6,50.4 C204.6,50.4 207.6,49 212.9,48.3 C213.3,50.7 215.8,53 216.5,55.7 L216.5,55.7 Z" id="XMLID_469_" fill="#B98D6C" sketch:type="MSShapeGroup"></path>
            <path d="M81.8,59.6 C81.8,50.5 77,44.8 67.7,44.8 C58.4,44.8 52.8,50.2 52.8,59.4 C52.8,68.6 58.4,75.6 67.7,75.6 C77,75.6 81.8,68.8 81.8,59.6 L81.8,59.6 Z" id="XMLID_926_" fill="#F19255" sketch:type="MSShapeGroup"></path>
            <path d="M68,45.1 L68,45.1 L68.3,45.4 C68.4,45.5 68.4,45.7 68.4,45.8 C68.3,46 68.2,46 68,46 L67.3,46 L66.9,46 C66.8,46 66.6,45.9 66.6,45.7 C66.5,45.6 66.6,45.4 66.7,45.3 C66.8,45.3 66.8,45.2 66.9,45.2 C67.2,45.1 67,44.6 67,44.3 C67,43.9 67,43.4 66.9,42.9 C66.9,42.6 66.9,42.4 66.8,42.1 C66.8,42 66.8,41.9 66.7,41.7 C66.7,41.6 66.6,41.5 66.6,41.4 C66.5,40 66.6,38.7 67.2,40 C67.3,40.1 67.3,40.3 67.3,40.4 C67.5,41.3 67.6,42.2 67.7,43.1 C67.7,43.5 67.8,43.9 67.8,44.4 C67.8,44.6 67.8,44.9 68,45.1 L68,45.1 Z" id="XMLID_284_" fill="#6B9A4C" sketch:type="MSShapeGroup"></path>
            <path d="M76.6,46.1 C76.6,46.1 73.9,47.5 71.4,45.4 C69.2,43.5 67.7,43.2 67.4,43.2 L67.4,43.2 L67.4,43 C67.4,42.9 67.5,42.8 67.5,42.7 L67.6,42.7 L67.6,42.8 C67.6,42.8 67.6,42.8 67.7,42.7 L67.7,42.7 C68.1,42.3 70.3,40.6 72.3,41.5 C74.6,42.5 76.6,46.1 76.6,46.1 L76.6,46.1 Z" id="XMLID_438_" fill="#6B9A4C" sketch:type="MSShapeGroup"></path>
            <path d="M122.8,58.8 C122.6,58.2 122.1,57.7 121.4,57.5 C120.6,57.3 120,56.9 119.4,56.4 C116.9,54.1 112.6,53.4 108.4,54.8 C104.2,56.1 101.2,59.2 100.4,62.5 C100.2,63.3 99.8,64 99.3,64.7 C98.9,65.2 98.7,65.9 98.9,66.5 C99.1,67.1 99.6,67.6 100.3,67.8 C101.1,68 101.9,68.4 102.5,68.9 C105,71.1 109.2,71.9 113.5,70.5 C117.8,69.1 120.8,66 121.5,62.7 C121.7,61.9 122.1,61.3 122.5,60.6 C122.9,60.1 123,59.4 122.8,58.8 L122.8,58.8 Z" id="XMLID_680_" fill="#F8BF14" sketch:type="MSShapeGroup"></path>
            <path d="M123,59.4 L123,59.4 C122.9,59.5 122.9,59.6 122.8,59.7 C122.7,59.8 122.6,59.9 122.5,59.9 C122.3,59.9 122.3,59.7 122.2,59.5 C122.1,59.3 122.1,59.1 122,58.8 C122,58.7 121.9,58.5 121.9,58.4 C121.9,58.3 121.9,58.1 122,58 C122.1,57.9 122.3,57.9 122.4,58 C122.5,58 122.5,58.1 122.5,58.2 C122.7,58.5 123.1,58.1 123.3,58 C123.7,57.8 123.9,58.8 123.5,59 C123.4,59.2 123.2,59.2 123,59.4 L123,59.4 Z" id="XMLID_1286_" fill="#6B9A4C" sketch:type="MSShapeGroup"></path>
            <path d="M142.6,45.2 C141.6,46.3 140.5,46.3 139.4,46.2 L138,46.2 C138.1,46.3 138.2,46.5 138.3,46.7 C138.7,47.3 139.2,47.9 139.1,48.4 C139,48.9 138.3,49.3 137.9,49.5 C137.8,49.5 137.8,49.6 137.8,49.6 C137,50.1 136.2,50.3 135,50.4 L134.2,50.4 L133.7,50.4 C134,50.9 134.3,51.5 134.4,52.1 C134.5,52.9 134.3,53.5 133.6,54 C132.5,54.9 131.7,55.1 131.2,55.1 C131.2,55.2 131.2,55.4 131.3,55.5 C131.4,55.9 131.5,56.4 131.3,56.7 C131.1,57 130.8,57.1 130.6,57.2 C130.5,57.3 130.3,57.3 130.2,57.4 C129.9,57.6 129.9,57.6 129.9,57.7 C129.9,57.8 129.9,57.9 129.8,58.1 C129.8,58.2 129.7,58.4 129.6,58.5 C129.6,58.6 129.5,58.7 129.5,58.7 C129.5,58.7 129.4,58.8 129.3,58.9 L129.3,58.9 C129.3,58.9 129.3,58.9 129.2,59 L129.2,59 C129.2,59 129.2,59 129.1,59.1 L129,59.2 C129,59.2 128.9,59.2 128.9,59.3 C128.9,59.4 128.8,59.4 128.8,59.4 L128.6,59.6 C128.6,59.6 128.6,59.6 128.5,59.6 L128.5,59.6 C128.2,61.2 127.9,62.3 127.8,62.8 L127.8,62.8 L127.6,62.8 L127.3,62.8 L126.8,62.8 L126.6,62.8 L126.4,62.8 C126.2,61.8 125.8,60 125.3,57.7 L125.3,57.7 C125.2,57.7 124.5,57.5 123.8,56.8 C123.4,56.4 123.1,55.9 122.9,55.6 C122.8,55.5 122.7,55.3 122.7,55.1 C122.5,54.9 122.2,54.9 121.9,54.8 C121.4,54.7 120.7,54.6 120.5,53.8 C120.3,53.1 120.4,52.2 120.8,51.6 C120.2,51.6 119.5,51.3 118.8,51 C117.9,50.5 117.3,49.9 117.1,49.3 C116.9,48.8 116.9,48.2 117.2,47.8 C117.3,47.6 117.5,47.4 117.6,47.3 C117.1,47.2 116.7,47 116.3,46.6 C115.9,46.1 115.6,45.5 115.3,44.8 C115.1,44.2 115,43.4 115.4,42.8 C115.6,42.5 115.9,42.3 116.2,42.3 C116.1,42.1 116,42 115.9,41.8 C115.4,41.2 114.8,40.3 115.6,39.5 C116.3,38.8 117.4,39.4 118.1,39.8 C118.2,39.9 118.3,39.9 118.3,39.9 L118.3,39.9 C118.3,39.2 118.3,38.4 119.2,38 C119.8,37.7 120.3,37.9 120.8,38.1 C122.6,38.7 122.6,40 122.6,41.4 L122.6,41.8 L122.6,41.8 C122.8,41.8 123.1,41.8 123.3,41.9 C123.7,42.2 123.9,43.2 124,43.4 C124.2,44.2 123.9,44.6 123.7,45.1 C123.7,45.1 123.7,45.2 123.6,45.2 C123.9,45.3 124.2,45.5 124.4,45.8 L124.4,45.6 C124.4,45.3 124.4,45 124.6,44.8 C124.6,44.8 124.6,44.8 124.6,44.7 C124.3,44 123.7,42.9 124.4,42.1 C123.9,41.7 123.3,40.9 123.2,40.2 C123.2,39.9 123.2,39.6 123.4,39.4 C123,39 122.1,38.2 121.7,37.4 C121.3,36.8 121.5,36.5 121.7,36.1 C121.8,36 121.8,35.8 121.9,35.7 L121.9,35.7 C120.9,34.8 120.4,33 121.2,31.9 C121.4,31.6 121.5,31.5 121.7,31.5 C121.8,31.5 121.8,31.5 121.9,31.4 C122,31.3 122.1,31.3 122.2,31.3 C122.2,31.2 122.2,31.1 122.3,30.9 C122.5,30.2 122.8,29.7 123.4,29.4 C123.9,29.1 124.6,29.1 125.2,29.4 C126.6,30 127.5,31.3 127.6,33.2 L128.2,33.2 C128.6,33.2 129,33.1 129.6,33.6 C130.3,34.2 130.4,35 130.5,35.9 L130.5,36 C130.6,37.1 130.6,37.8 130,38.8 L129.9,38.9 C129.8,39.1 129.7,39.3 129.6,39.4 C129.9,39.4 130.2,39.5 130.6,39.7 C131.2,40.1 131.8,41 131.8,41.8 C131.8,42.6 131.4,43.1 131,43.6 C130.9,43.7 130.8,43.8 130.8,43.9 C130.7,44 130.7,44.1 130.6,44.2 C130.3,44.7 129.9,45.1 129.4,45.4 C130,45.9 130.6,46.9 130.5,47.7 C130.5,47.9 130.3,48.2 130.2,48.4 C130,48.7 129.7,49 129.4,49.3 L129.9,49.3 C129.9,49 130,48.6 130.2,48.4 C130.3,48.3 130.5,48.1 130.7,48.1 C130.7,47.8 130.6,47.5 130.5,47.1 C130.4,46.4 130.2,45.8 130.5,45.3 C130.7,45 131,44.9 131.4,44.8 C131.4,43.6 131.7,43.1 132.8,42.8 L132.8,42.1 C132.8,41.2 132.7,40.3 133.3,39.4 C133.7,38.9 134.4,38.3 135.1,38.3 C135.3,38.3 135.6,38.4 135.8,38.7 C136.2,37.8 137.1,36.8 137.7,36.3 C138.5,35.7 139.5,35.5 140.4,35.8 C140.9,35.9 141.5,36.4 142.1,37 C142.4,37.4 143,38.1 142.9,38.9 C142.8,39.5 142.4,39.8 142.1,40 C142,40.1 141.9,40.2 141.8,40.2 C142.6,40.5 143.2,41.1 143.5,41.9 C143.8,42.7 143.5,44.2 142.6,45.2 L142.6,45.2 Z" id="XMLID_210_" fill="#96BF54" sketch:type="MSShapeGroup"></path>
            <path d="M133,66.9 C133,70.4 130.2,73.2 126.7,73.3 C125.7,74 125.9,75.8 125.9,75.8 C126.8,79.3 124.8,79.6 125.4,79.1 C126,78.6 126,77 125,75.9 C124.4,75.2 124.7,73.9 125,73.1 C122.2,72.4 120.2,69.9 120.2,66.9 C120.2,63.6 122.8,60.8 126.1,60.5 L126.1,60.3 C126.1,60.3 126.8,60.5 127.2,60.5 C127.7,60.5 128.4,60.3 128.4,60.3 L128.3,60.7 C130.9,61.5 133,64 133,66.9 L133,66.9 Z" id="XMLID_484_" fill="#9E5A7A" sketch:type="MSShapeGroup"></path>
            <path d="M10.3,50.5 C10.2,50.7 10.2,51 10.2,51.3 C10.2,52.2 10.1,53 9.9,53.9 C9.8,54.1 9.8,54.4 9.8,54.7 L9.8,55.2 C10,56.3 9.7,57.3 9,58.1 C8.8,58.4 8.6,58.7 8.4,59 C7.7,58.8 6.8,59 6.8,59 C6.9,58.5 7,58 7.1,57.5 C7.2,56.8 7,56.3 6.4,55.9 C6.1,55.7 5.8,55.5 5.5,55.3 C4.8,54.9 4.4,54.2 4.3,53.4 C4.2,53 4.1,52.7 4.1,52.3 C4,51.8 3.8,51.5 3.3,51.2 C3,51 2.7,50.8 2.4,50.6 C1.4,49.8 1.1,49 1.5,47.8 C1.6,47.5 1.7,47.2 1.8,46.9 C2,46.4 2,45.8 1.9,45.3 C1.8,45 1.7,44.6 1.6,44.3 C1.3,43.4 1.5,42.6 2.1,41.9 C2.5,41.3 3,40.8 3.5,40.3 C3.7,40.1 4,40 4.3,39.8 L5,39.8 C5.1,39.8 5.1,39.9 5.2,39.9 C5.9,40.2 6.4,40.7 6.7,41.4 C7.3,42.7 7.9,44.1 8.5,45.4 C8.6,45.7 8.8,46 9,46.3 C9.1,46.5 9.2,46.7 9.4,46.8 C10.5,47.9 10.7,49.1 10.3,50.5 L10.3,50.5 Z" id="XMLID_971_" fill="#6B9A4C" sketch:type="MSShapeGroup"></path>
            <path d="M12.7,62.9 C12.7,65.9 10.3,68.3 7.3,68.3 C6.4,68.9 6.6,70.4 6.6,70.4 C7.3,73.4 5.7,73.6 6.2,73.2 C6.7,72.8 6.7,71.4 5.9,70.4 C5.4,69.8 5.6,68.7 5.9,68 C3.5,67.4 1.8,65.3 1.8,62.7 C1.8,59.8 4.1,57.4 7.1,57.3 L7.3,57.3 L7.5,57.3 L7.9,57.3 L8.2,57.3 L8.4,57.3 C10.8,58.1 12.7,60.3 12.7,62.9 L12.7,62.9 Z" id="XMLID_73_" fill="#5F4A62" sketch:type="MSShapeGroup"></path>
            <path d="M99.5,75.8 L99.5,75.8 L99.1,75.8 L97.8,75.8 C96.1,75.7 94.3,75.2 92.7,74.4 C93.4,72.6 94.5,71.1 94.7,68.8 C93.7,70.5 92.8,72.3 91.4,73.6 C89.9,73 88.8,72.1 87.6,71.3 C89.1,69.2 90.3,67 91.1,64.2 C89.8,65.7 88,68.2 86.1,69.7 C84.6,68.6 84,66.4 83.1,64.7 C84.9,62.9 86.5,60.8 87.4,58.1 C86.3,59.4 84.5,61.4 82.8,62.6 C81.8,60.3 81.8,56.6 82.5,54 C80.7,57 80.6,62.9 82,66.4 C80.6,65.5 79.2,64.5 78.5,62.8 C78.7,65.5 80.3,67.6 83,68.3 C84.9,71.1 87.5,74 90.7,75.5 L90.8,75.5 C90.6,75.5 90.3,75.4 90.1,75.4 C82.9,74.2 77.6,70 76.4,62.4 L76.4,59 C77.7,50.8 83.3,47 89.7,43.9 C89.4,44.7 89.6,46 89.4,46.7 C89.9,46.9 91.2,46.8 91.7,47.4 C92,48.2 91.9,49.5 91.5,50.1 C92,50.4 92.8,50.4 93.5,50.4 C94.9,51.3 94.1,54 94.3,55.5 C95.1,62.3 104.2,63 105.1,68.8 C105.6,73.2 102.9,75.4 99.5,75.8 L99.5,75.8 Z" id="XMLID_7802_" fill="#96BF54" sketch:type="MSShapeGroup"></path>
            <path d="M89.6,47.2 C91.2,47.2 91.6,48.9 91.3,50.4 C94.3,50.4 94,53.8 93.8,56.5 C94.4,56.6 95.5,55.7 96.5,56.2 C96.7,54.5 97.7,53.6 99.5,53.5 C99.7,52.1 100.4,51.2 101.8,51 C101.9,49.3 102.5,48 104.1,47.8 C100.9,45.7 93.4,45.3 89.6,47.2 L89.6,47.2 Z" id="XMLID_1487_" fill="#6B9A4C" sketch:type="MSShapeGroup"></path>
            <path d="M107.2,69.8 C104.9,71.6 102.5,75 99.5,75.8 C101.4,74.9 103.9,70.7 105.3,69.2 C103.6,67.2 102.1,65 101.5,61.9 C102.8,63.9 104.2,65.8 106.1,67.2 C106.6,66.1 107.6,64.8 107.4,63.7 C107.2,61.9 103.3,59.6 103.4,57.1 C104.7,58.6 106,60.2 107.7,61.2 C108.4,59.6 108,56.4 107.7,54.7 C109.4,57.8 109.5,63.3 108.2,66.8 C109.4,66.4 110.9,65 111.5,63.5 C111.8,66.7 109.3,68.3 107.2,69.8 L107.2,69.8 Z" id="XMLID_399_" fill="#BED997" sketch:type="MSShapeGroup"></path>
            <path d="M114.1,59.4 L114.1,63.1 C112.7,70.4 106.5,74.8 99.5,75.9 C102.6,75.1 104.9,71.7 107.2,69.9 C109.2,68.4 111.8,66.8 111.5,63.6 C110.9,65.1 109.3,66.5 108.2,66.9 C109.5,63.4 109.4,57.8 107.7,54.8 C108,56.5 108.4,59.6 107.7,61.3 C106,60.2 104.7,58.7 103.4,57.2 C103.3,59.7 107.2,62.1 107.4,63.8 C107.5,64.9 106.6,66.1 106.1,67.3 C104.2,65.9 102.7,64 101.5,62 C102.1,65.1 103.7,67.3 105.3,69.3 C104,70.8 101.4,75 99.5,75.9 C101.9,66.8 92.9,63.6 90.7,57.5 C91.2,56.7 92.9,56.7 93.9,57.2 C93.6,55.1 94.9,53.9 96.9,54.5 C96.8,53.3 97.2,52.7 97.6,52 C98.2,51.8 98.6,51.5 99.4,51.7 C99,49.1 100.3,48.3 102.4,48.2 C102.1,47.5 101.8,45.7 102.4,45 C107,49 113,51.8 114.1,59.4 L114.1,59.4 Z" id="XMLID_273_" fill="#96BF54" sketch:type="MSShapeGroup"></path>
            <path d="M97.8,75.9 C95.3,75.9 92,75.6 90.6,75.4 C87.4,73.9 84.8,71 82.9,68.2 C80.2,67.4 78.6,65.4 78.4,62.7 C79,64.4 80.4,65.4 81.9,66.3 C80.5,62.8 80.6,56.9 82.4,53.9 C81.8,56.5 81.7,60.2 82.7,62.5 C84.5,61.3 86.2,59.3 87.3,58 C86.4,60.7 84.8,62.8 83,64.6 C83.9,66.3 84.4,68.5 86,69.6 C87.9,68.1 89.6,65.6 91,64.1 C90.3,66.9 89,69.2 87.5,71.2 C88.7,72 89.8,73 91.3,73.5 C92.7,72.2 93.6,70.4 94.6,68.7 C94.4,71.1 93.3,72.5 92.6,74.3 C94.3,75.3 96.1,75.8 97.8,75.9 L97.8,75.9 Z" id="XMLID_7800_" fill="#BED997" sketch:type="MSShapeGroup"></path>
            <path d="M23.6,2.7 C22.7,4.9 21.9,7 21,9 C19,13.8 17.5,18.8 16.9,24 C16.7,25.8 16.6,27.6 16.3,29.4 C15.8,31.7 16.1,34 16.4,36.2 C16,35 11.1,26.9 10.8,27 C10.5,27.1 9.6,28.6 9.6,28.6 C9.2,27.8 8.8,27 8.5,26.2 C5.9,20.3 3.2,14.4 0.5,8.3 C2.6,7.4 4.5,6.5 6.5,5.6 C7.7,8.7 8.8,11.7 10,14.8 L10.2,14.8 C10.2,13.6 10.2,12.5 10.1,11.3 C10,8.5 9.8,5.7 9.6,2.9 C9.5,1.9 9.8,1.2 11,1.2 C12.4,1.1 13.9,0.8 15.5,0.6 L15.5,9.6 L15.8,9.6 C16.3,7.7 16.7,5.8 17.2,3.8 C17.6,1.9 17.6,1.9 19.5,2.1 C20.8,2.3 22.1,2.5 23.6,2.7 L23.6,2.7 Z" id="XMLID_7776_" fill="#6D953E" sketch:type="MSShapeGroup"></path>
            <path d="M16.4,36.3 C16.4,36.3 16.4,36.4 16.4,36.3 C16.6,37.7 16.8,39 17,40.3 C17.6,46.5 18.4,52.6 19.2,58.7 C19.4,60.4 20,62 20.3,63.6 C20.4,63.8 20.4,64.1 20.4,64.3 C20.4,64.9 18,68.8 17.5,69.1 C17.1,69.3 16.7,69.6 16.3,69.3 C16.1,69.1 16,68.9 15.8,68.8 C15.5,68.6 15.1,68.8 14.7,68.7 L14.5,68.7 C14.4,68.6 14.4,68.5 14.4,68.5 C14.3,67.9 14,67.3 13.5,66.9 C13.1,66.5 12.6,66.1 12.5,65.5 C12.4,65.1 12.2,64.6 12.3,64.2 C13.1,61.3 12.6,58.4 12.4,55.5 C11.8,47.7 11.3,39.8 10.5,32 C10.4,30.9 10,29.9 9.6,28.9 C9.6,28.9 10.9,27 11.2,26.9 C11.5,26.6 16,35.1 16.4,36.3 L16.4,36.3 Z" id="XMLID_7778_" fill="#BED997" sketch:type="MSShapeGroup"></path>
            <path id="XMLID_7735_" fill="#000000" sketch:type="MSShapeGroup" d="M16.4,36.3 C16.4,36.3 16.4,36.4 16.4,36.3 L16.4,36.3 C16.4,36.4 16.4,36.3 16.4,36.3 L16.4,36.3 Z"></path>
            <path d="M258,41.5 L262.9,37.4 C262.9,37.4 259.2,36.2 258.4,35.6 C257.6,35 254.6,30.2 254.6,30.2 L252,32.1 L254.1,35.9 C254.1,35.9 252.6,38.8 252.4,39.2 C252.4,39.2 257.9,41.3 258,41.5 L258,41.5 Z" id="XMLID_7809_" fill="#6D953E" sketch:type="MSShapeGroup"></path>
            <path d="M278.2,70.1 L278.1,70.1 C278,70.1 277.9,70.1 277.8,70 L277.7,69.9 C275.9,72.2 274,73.5 273.4,73.8 C272.9,74 272,74.3 271.1,74.4 C270.5,74.5 269.9,74.5 269.5,74.3 C269.4,74.3 269.3,74.2 269.3,74 L269.3,74 C268.2,75.2 266.8,75.9 265.1,76.2 C262.2,76.7 260.5,75.8 259.2,72.9 C259.4,73.9 259.5,74.6 259.4,75 C259.1,76 258.3,76.4 257.4,76.6 C256.8,76.7 256.2,76.7 255.5,76.7 L255.2,76.7 C254.2,76.7 252.4,76.2 250.6,74.7 C250.7,74.8 250.7,74.9 250.6,75 C250.6,75.1 250.5,75.2 250.4,75.2 L250.3,75.2 C250.2,75.2 236.1,71.2 236.7,53.1 C236.9,47.8 239.3,43.7 243.8,41.1 C248.1,38.6 253,38.3 253.3,38.5 C253.4,38.6 253.5,38.7 253.5,38.8 C253.5,38.9 253.4,39 253.2,39.1 C253.2,39.1 253,39.1 252.7,39.2 C253.1,39.1 253.3,39.1 253.4,39.1 C253.6,39.1 255.6,38.7 256.2,39.5 C256.3,39.6 256.4,39.7 256.4,39.9 C256.5,39.7 256.7,39.4 256.8,39.3 C256.8,39.3 256.8,39.3 256.9,39.2 C257,39.2 258.4,38 261.7,38.4 C261.7,38.4 261.7,38.3 261.6,38.3 C261.5,38 261.8,37.8 262,37.7 L262.1,37.7 L262.3,37.7 L262.5,37.7 C262.5,37.7 262.7,37.7 262.6,37.6 C262.5,37.5 262.4,37.6 262.3,37.6 C262.2,37.6 262.1,37.5 262,37.3 C262,37.1 262.1,37 262.2,36.9 C262.3,36.9 269.6,34.5 276,38.1 C280.1,40.4 282.9,44.6 284.3,50.6 C287.3,64.1 278.3,70.1 278.2,70.1 L278.2,70.1 Z" id="XMLID_7779_" fill="#F19255" sketch:type="MSShapeGroup"></path>
            <path d="M265.6,29.5 C264.9,29.3 263.2,29.6 263.2,29.6 C263.3,28.6 263.2,27.6 263.4,26.6 C263.5,25.6 264.1,24.9 265.1,24.7 C265.5,24.6 265.9,24.8 266.2,25 C266.3,25 266.2,25.6 266,25.9 C265.4,26.9 264.9,27.9 265.3,29 C265.4,29.2 265.5,29.4 265.6,29.5 L265.6,29.5 Z" id="XMLID_99_" fill="#6D953E" sketch:type="MSShapeGroup"></path>
            <path d="M277.2,70.9 C275.2,71.1 273.3,70.9 271.5,69.9 C270.6,69.3 269.8,68.5 269.1,67.6 C267.5,65.5 266.4,63.2 265.5,60.8 C263.6,55.7 262.1,50.5 261.2,45.1 C260.6,41.9 260.2,38.7 259.8,35.5 C259.5,33.6 260.5,30.7 262.9,29.8 C263,29.8 263.1,29.7 263.1,29.7 C263.1,29.7 264.7,29.4 265.5,29.6 C265.5,29.6 265.6,29.6 265.6,29.7 C268.2,30.7 269.4,32.8 269.7,35.4 C270.2,39.1 271.3,42.6 272.6,46.1 C273.6,48.7 274.7,51.3 275.8,53.9 C276.6,55.8 278.1,57.3 279.5,58.9 C280.7,60.2 281.6,61.6 282.1,63.3 C283.1,66.3 281.3,70.6 277.2,70.9 L277.2,70.9 Z" id="XMLID_91_" fill="#F8BF14" sketch:type="MSShapeGroup"></path>
            <path id="XMLID_89_" sketch:type="MSShapeGroup" d="M265.6,29.6 C265.6,29.5 265.6,29.6 265.6,29.6"></path>
            <path d="M180.6,39.1 C179.7,38.8 178.9,38.8 178.7,38.9 C179.2,38.8 179.2,38.4 179,37.8 C178.7,37 178.6,36.2 178.3,35.4 C178.3,35.3 178.3,35.2 178.4,35.1 C178.5,35 178.8,35 178.9,35.1 C179.5,35.8 179.6,36.9 179.8,37.9 C180,38.5 180.2,38.8 180.6,39.1 L180.6,39.1 Z" id="XMLID_7745_" fill="#6B9A4C" sketch:type="MSShapeGroup"></path>
            <path d="M200.5,70.5 C198.1,71 195.8,70.7 193.5,69.9 C190,68.7 186.8,67 183.8,64.9 C180.9,62.8 178.9,59.9 177.1,56.9 C176.5,55.9 176.2,54.6 175.9,53.5 C175.4,51.4 174.8,49.4 174.7,47.3 C174.6,45.5 174.9,43.6 175.1,41.7 C175.4,39.9 176.4,39 178.2,39.1 L178.7,39.1 L178.7,39.1 L178.7,39.1 C179,39.1 179.7,39 180.6,39.3 C180.7,39.3 180.7,39.4 180.8,39.4 C181.7,39.9 182.5,40.7 183,41.5 C183.5,42.2 183.8,43.2 183.9,44.1 C184.3,47.1 185,49.7 187.1,51.8 C187.6,52.3 188,52.8 188.4,53.4 C189.8,55.7 192.6,56.7 195.1,57.4 C197.4,58 199.7,58.7 201.9,59.6 C204.2,60.5 205.9,63.1 205.6,65.2 C205.2,68.4 203.3,69.9 200.5,70.5 L200.5,70.5 Z" id="XMLID_7788_" fill="#6B9A4C" sketch:type="MSShapeGroup"></path>
            <path d="M241.4,26.7 C241.1,28.1 240.8,29.6 240.3,30.9 C239.4,33.4 238.5,35.9 237.5,38.4 C236.7,40.6 235.9,42.8 235.6,45.1 C235.6,45.4 235.5,45.7 235.4,45.9 L236.7,44.8 L236.8,44.9 C236.5,45.9 236.1,46.8 235.9,47.8 C235.6,48.9 235.5,50 235.3,51 C235.2,51.7 235.3,52.2 235.6,52.7 C233.5,55.5 231.8,53.3 231.5,53.5 C232.8,51.7 232.4,49.8 231.4,47.8 C230.8,46.7 230.3,45.5 229.6,44.3 C231.5,44.9 232.5,46.8 232.2,46.2 C232,45.7 231.6,45.2 231.6,44.7 C231.5,43.4 231.7,42 231.6,40.7 C231.5,39.7 231.3,38.8 231,37.9 C230.1,35.5 229.1,33.2 228.2,31 C228.5,31.3 229,31.6 229.4,32.1 C229.8,32.6 230.2,33 230.6,33.6 C231,34.1 231.3,34.7 231.7,35.3 C231.8,32.7 230.8,30.4 230,28 C230.1,28.1 230.3,28.2 230.4,28.3 C232.5,30.1 233.4,32.5 233.6,35.2 C233.7,36.8 233.5,38.4 233.6,40.1 C233.6,40.7 233.8,41.2 234,42 C235.2,39.3 236.2,36.7 237.3,34.2 C238.5,31.7 239.2,28.9 241,26.7 C241.3,26.6 241.4,26.6 241.4,26.7 L241.4,26.7 Z" id="XMLID_7784_" fill="#96BF54" sketch:type="MSShapeGroup"></path>
            <path d="M241.6,58.5 C243.7,61.5 244.4,64.6 242.7,68 C241.9,69.6 240.7,70.8 239.1,71.7 C238.5,72.1 237.8,72.3 237.2,72.6 C236.9,72.8 236.7,73 236.4,73.2 C236.4,73.2 236.3,73 236.2,72.8 L236.1,72.8 L236.1,73.5 C236,73.5 236,73.4 235.9,73.4 C235.8,73.5 235.8,73.7 235.7,73.9 C235.4,73.6 235.2,73.4 234.8,73 C234.7,73.4 234.6,73.8 234.5,74.1 L234.3,74.1 C234.3,73.8 234.2,73.5 234.2,73.2 C234,73.6 233.8,73.9 233.6,74.2 C233.5,73.9 233.4,73.7 233.3,73.5 C233,73.5 232.7,73.5 232.4,73.6 C232.4,73.5 232.5,73.3 232.5,73.1 C232.4,73.2 232.2,73.2 232.1,73.3 C232.2,73.1 232.2,73 232.3,72.8 C232.1,73 231.8,73.1 231.6,73.3 C231.7,73.2 231.7,73 231.8,72.9 C231.3,72.6 230.7,72.4 230.2,72.1 C229.7,71.9 229.2,71.6 228.7,71.3 C225.9,69.4 224.5,66.7 224.8,63.3 C225,61.5 225.9,60 227.1,58.6 C228.3,57.1 229.5,55.6 230.9,54.3 C231.2,54 231.4,53.8 231.6,53.5 L231.6,53.5 C231.7,53.4 232,53.1 232.5,52.9 C232.9,52.7 233.2,53.4 233.8,53.4 C234.1,53.4 234.6,52.4 234.9,52.5 C235.2,52.6 235.4,52.7 235.7,52.8 C235.9,53.2 236.3,53.5 236.6,53.8 C238.6,55.2 240.3,56.7 241.6,58.5 L241.6,58.5 Z" id="XMLID_7797_" fill="#EBD3BE" sketch:type="MSShapeGroup"></path>
            <path d="M211.7,81.8 C202.6,76.5 196.5,66.3 196.5,54.7 C196.5,51.5 198.2,48.9 200.2,47.9 L200.2,47.9 C201,48.2 203,48.9 204.2,48.4 L204.2,48.4 C206.2,49.9 206.8,52.9 206.2,55.5 C204,63.6 206.1,73.1 213.1,80.1 C214.2,81.2 213.3,82.7 211.7,81.8 L211.7,81.8 Z" id="XMLID_1358_" fill="#EC6635" sketch:type="MSShapeGroup"></path>
            <path d="M205.3,49 C206.3,50.5 198.4,49 199.3,48.3 C200.2,47.6 201.1,47.5 201.5,47.5 C201.5,45.8 202,42.2 205.1,39 C205.4,38.7 205.9,38.7 206.3,39 C206.6,39.3 206.7,39.9 206.4,40.1 C206,40.5 205.6,41 205.3,41.4 C203.5,43.9 203.2,46.5 203.2,47.7 C203.5,47.9 204.8,48.3 205.3,49 L205.3,49 Z" id="XMLID_1995_" fill="#96BF54" sketch:type="MSShapeGroup"></path>
            <path d="M18.2,54.2 C21.2,51.9 26,51.9 29.4,50.5 C33.8,48.7 36.2,43.5 41.4,46 C50.3,50.2 44.4,60.6 39.8,65.4 C36.5,68.8 29.1,70.4 24.4,70.3 C19,70.2 15.5,67.5 15.1,62 C14.9,58.1 16.2,55.8 18.2,54.2 L18.2,54.2 Z" id="XMLID_23_" fill="#D2AB80" sketch:type="MSShapeGroup"></path>
            <path d="M281.3,27.8 C281.1,31.3 279.7,37.3 277.4,43.9 C275.2,50.2 272.8,55.5 270.8,58.5 L270.8,58.5 C268.7,62.2 265.8,64.3 263.5,63.5 C260.6,62.5 259.8,57.1 261.7,51.5 L261.9,50.8 C263.3,48 264.8,44.2 266.3,40.1 C267.7,35.9 268.8,32.1 269.5,28.9 L269.7,28.4 C270.8,25.1 272.8,20.7 274.5,21 L275.9,21.6 L276.7,21.8 L277.2,22 L278.5,22.2 L279,22.5 L279.6,23.2 L280.8,22.3 C281.9,22.2 281.6,25.7 281.3,27.8 L281.3,27.8 Z" id="XMLID_7688_" fill="#96BF54" sketch:type="MSShapeGroup"></path>
            <path d="M281.2,18.6 L280.8,20 L280.7,22.3 L279.5,23.2 L279,24 L278.5,23.4 L276.4,22.9 L276.1,22.9 L276,21.8 L274.6,21.2 C275.5,19.9 276.1,18.9 276.8,17.5 L277.5,17.4 L278.2,16.6 L279,17.4 L279.5,17.6 L280,17.7 L281.2,18.6 L281.2,18.6 Z" id="XMLID_2987_" fill="#486732" sketch:type="MSShapeGroup"></path>
            <path d="M149.6,44.2 C149.6,44.2 159,43.1 162,43.6 C165,44.1 173.6,45 175.2,45.1 C176.8,45.2 187.7,48.8 187.7,48.8 L190.7,50 L182.9,67.7 L141.3,58.4 L149.6,44.2 L149.6,44.2 Z" id="XMLID_13_" fill="#84624B" sketch:type="MSShapeGroup"></path>
            <path d="M149.6,44.2 C147.8,47.7 146.9,51.1 148.1,54.9 C148.1,54.8 148.2,54.7 148.2,54.5 C148.9,51.3 150,48.2 152,45.5 C152.9,44.2 153.9,43.4 155.6,43.5 C157.6,43.6 159.6,43.5 161.6,43.5 C161.7,43.5 161.8,43.5 161.9,43.6 C161.8,43.8 161.7,44 161.6,44.1 C159.7,46.8 158.2,49.7 157.5,53 C157.1,55.2 157.2,57.3 158,59.4 C158.1,59.6 158.2,59.7 158.4,59.9 C158.5,59.5 158.5,59.2 158.6,58.8 C159.6,53.2 162,48.4 166,44.4 C166.4,44 166.8,43.8 167.4,43.9 C169.8,44.3 172.2,44.6 174.5,44.9 C174.7,44.9 174.9,45 175.1,45.1 C170.7,50.1 168.3,55.7 169.4,62.4 C169.5,62.4 169.5,62.4 169.6,62.5 C169.7,62.3 169.7,62.2 169.8,62 C171.1,57.3 173,52.9 176,49.1 C176.7,48.2 177.5,47.4 178.2,46.5 C178.6,46.1 178.9,45.9 179.5,46.1 C182,46.9 184.6,47.7 187.1,48.6 C187.3,48.7 187.4,48.8 187.7,48.9 C184.5,52.7 182.7,57.1 182,62 C182.1,61.9 182.1,61.8 182.2,61.6 C184.2,57.6 186.6,53.8 189.8,50.7 C190.5,50 190.3,50.1 191.1,50.5 C194.6,52.4 197.7,54.8 200,58.1 C200.9,59.4 201.5,60.8 201.6,62.4 C201.8,64.9 200.5,66.7 198.6,68.1 C196.5,69.6 194,70.4 191.5,70.9 C188.1,71.6 184.7,71.7 181.3,71.7 C172.3,71.7 163.3,70.9 154.5,68.9 C150.2,67.9 146,66.7 142.1,64.5 C139.7,63.2 137.5,61.6 136,59.2 C134.6,57 134.1,54.7 135.1,52.2 C135.8,50.5 137,49.3 138.5,48.2 C141.3,46.2 144.5,45.2 147.8,44.6 C148.4,44.4 148.9,44.3 149.6,44.2 L149.6,44.2 Z" id="XMLID_302_" fill="#D2AB80" sketch:type="MSShapeGroup"></path>
        </g>
    </g>
</svg>