<?xml version="1.0" encoding="utf-8"?>
<!-- Generator: Adobe Illustrator 19.0.0, SVG Export Plug-In . SVG Version: 6.00 Build 0)  -->
<svg version="1.1" id="Layer_1" xmlns="http://www.w3.org/2000/svg" xmlns:xlink="http://www.w3.org/1999/xlink" x="0px" y="0px"
	 viewBox="0 0 612 792" style="enable-background:new 0 0 612 792;" xml:space="preserve">
<style type="text/css">
	.st0{fill:#EC6635;}
	.st1{fill:#6B9A4C;}
	.st2{fill:#825136;}
	.st3{fill:none;}
	.st4{fill-rule:evenodd;clip-rule:evenodd;fill:#96BF54;}
	.st5{fill-rule:evenodd;clip-rule:evenodd;fill:#F19255;}
	.st6{fill-rule:evenodd;clip-rule:evenodd;fill:#D4D826;}
	.st7{fill-rule:evenodd;clip-rule:evenodd;fill:#825136;}
	.st8{fill-rule:evenodd;clip-rule:evenodd;fill:#6B9A4C;}
	.st9{fill-rule:evenodd;clip-rule:evenodd;fill:#EC6635;}
	.st10{fill:#96BF54;}
	.st11{fill:#5F4A62;}
	.st12{fill:#8E694A;}
	.st13{fill:#854D34;}
	.st14{fill:#D3BEA8;}
	.st15{fill:#D2AA91;}
	.st16{fill:#EBD3BE;}
	.st17{fill:#EDE0D3;}
	.st18{fill:#7E5137;}
	.st19{fill:#B98D6C;}
	.st20{fill:#F19255;}
	.st21{fill:#F8BF14;}
	.st22{fill:#9E5A7A;}
	.st23{fill:#BED997;}
	.st24{fill:#6D953E;}
	.st25{fill:#010101;}
	.st26{fill:#D2AB80;}
	.st27{fill:#486732;}
	.st28{fill:#84624B;}
</style>
<path id="XMLID_2008_" class="st0" d="M320,331c0,4.9-3.8,8.9-8.5,8.9c-1,0-2-0.2-2.9-0.5c-0.9,0.3-1.8,0.5-2.8,0.5
	c-4.7,0-8.5-4-8.5-8.9c0-4.9,3.8-8.9,8.5-8.9c0.8,0,1.6,0.1,2.3,0.3c0,0.1,0.1,0.1,0.2,0.2c0.1,0.1,0.3,0.1,0.4,0.1
	c0.1,0,0.2-0.1,0.2-0.2c0,0,0,0,0,0c0.8-0.3,1.7-0.4,2.6-0.4C316.2,322.1,320,326.1,320,331z"/>
<path id="XMLID_1363_" class="st1" d="M317.5,315.4c0,0-1.2,3.8-4.3,4.6c-2.8,0.7-4.2,2-4.4,2.2c0,0,0,0,0,0c-0.1,0-0.1-0.1-0.1-0.2
	c0-0.1-0.1-0.2-0.1-0.3c0-0.1,0-0.1,0.1-0.1c0,0.1,0,0.1,0,0.1s0,0,0-0.1v0c0.1-0.8,0.6-4.2,2.7-5.4
	C313.7,314.5,317.5,315.4,317.5,315.4z"/>
<path id="XMLID_1353_" class="st2" d="M308.9,322.6c-0.1,0.1-0.1,0.1-0.2,0.2c-0.1,0.1-0.3,0-0.4-0.1c-0.1-0.1-0.1-0.1-0.2-0.2
	c0,0,0,0,0.1,0c-0.2-1.4-0.7-4.7-1-5c-0.3-0.4-0.8-0.6-0.8-1.2s1.4-1.2,1.9,0c0.4,1.1,0.5,4.5,0.5,5.1c0,0,0,0.1-0.1,0.1
	c0,0.1,0,0.2,0.1,0.3c0,0.1,0.1,0.1,0.1,0.2c0,0,0,0,0,0c0,0,0,0,0,0L308.9,322.6C308.9,322.6,308.9,322.6,308.9,322.6z"/>
<path id="XMLID_1349_" class="st3" d="M308.7,321.4C308.7,321.4,308.7,321.4,308.7,321.4"/>
<path id="XMLID_1335_" class="st3" d="M308.7,321.3C308.7,321.4,308.7,321.4,308.7,321.3"/>
<path id="XMLID_704_" class="st0" d="M346.2,331c0,4.9-3.8,8.9-8.5,8.9c-1,0-2-0.2-2.9-0.5c-0.9,0.3-1.8,0.5-2.8,0.5
	c-4.7,0-8.5-4-8.5-8.9c0-4.9,3.8-8.9,8.5-8.9c0.8,0,1.6,0.1,2.3,0.3c0,0.1,0.1,0.1,0.2,0.2c0.1,0.1,0.3,0.1,0.4,0.1
	c0.1,0,0.2-0.1,0.2-0.2c0,0,0,0,0,0c0.8-0.3,1.7-0.4,2.6-0.4C342.4,322.1,346.2,326.1,346.2,331z"/>
<path id="XMLID_679_" class="st1" d="M343.7,315.4c0,0-1.2,3.8-4.3,4.6c-2.8,0.7-4.2,2-4.4,2.2c0,0,0,0,0,0c-0.1,0-0.1-0.1-0.1-0.2
	c0-0.1-0.1-0.2-0.1-0.3c0-0.1,0-0.1,0.1-0.1c0,0.1,0,0.1,0,0.1s0,0,0-0.1v0c0.1-0.8,0.6-4.2,2.7-5.4
	C339.9,314.5,343.7,315.4,343.7,315.4z"/>
<path id="XMLID_630_" class="st2" d="M335.1,322.6c-0.1,0.1-0.1,0.1-0.2,0.2c-0.1,0.1-0.3,0-0.4-0.1c-0.1-0.1-0.1-0.1-0.2-0.2
	c0,0,0,0,0.1,0c-0.2-1.4-0.7-4.7-1-5c-0.3-0.4-0.8-0.6-0.8-1.2s1.4-1.2,1.9,0c0.4,1.1,0.5,4.5,0.5,5.1c0,0,0,0.1-0.1,0.1
	c0,0.1,0,0.2,0.1,0.3c0,0.1,0.1,0.1,0.1,0.2c0,0,0,0,0,0c0,0,0,0,0,0L335.1,322.6C335,322.6,335.1,322.6,335.1,322.6z"/>
<path id="XMLID_624_" class="st3" d="M334.9,321.4C334.9,321.4,334.9,321.4,334.9,321.4"/>
<path id="XMLID_498_" class="st3" d="M334.9,321.3C334.9,321.4,334.9,321.4,334.9,321.3"/>
<path id="XMLID_7786_" class="st4" d="M217.2,328.8c0-0.1,0-0.6-0.1-0.7c-0.8-2.6-3.2-3.6-4.2-6c-0.1-0.7,0.2-1,0.9-0.9
	c-0.7-1.9-2.3-2.9-2.1-5.8c0.4-0.4,1.3-0.3,2.1-0.3c-0.8-1.8-2.6-5.8-0.6-7.6c2.3,0.9,3,3.5,3.3,6.4c0.6-0.2,0.6-0.9,1.2-0.3
	c0.9-1.8,0.1-5.1,1.8-6.1c2,0.1,1.8,2.2,1.8,4.2c0.1,0.6,1.4-1,2.1,0c0.4,1.6-0.6,3.6-1.5,4.8c3.5,0.5-0.8,5,1.5,5.8
	c-0.4,3-4.2,2.7-4.8,5.5c0.1,0.3-0.1,0.6,0.1,0.7L217.2,328.8z"/>
<path id="XMLID_7783_" class="st5" d="M219.3,328.4c0.8,0.7,2.4,0.4,3.5,1.5c0.4,0.3,0.4,1.1,0.7,1.6l-0.4,9
	c-0.7,7.4-1.6,14.7-4.8,19.7c-3.5-4.5-4-12.2-5.2-19.1l-1.7-8.8c0.3-0.5,2.8-3.8,5.9-3.9L219.3,328.4z"/>
<path id="XMLID_7766_" class="st6" d="M286,317.3c3.6,0.2,3.7,3.1,4.4,6.8c0.8,4,3.9,8.4,1.3,12.8c-4,6.8-16.5,3.4-14.7-5.7
	c0.5-2.4,2.4-4.3,3.1-6.9c1-4.1,0.2-6.7,5-6.8L286,317.3z"/>
<path id="XMLID_7763_" class="st7" d="M287.2,314.9c0.4-0.8,1.6-0.7,2.1-1.5c-1.3-2-3.3,0.8-3.9,2.1c0,0-0.3,1.8-0.5,2.1l1-0.2
	c0.1-0.7,0.4-1.6,0.8-1.9L287.2,314.9z"/>
<path id="XMLID_7760_" class="st8" d="M287,315.2c0.7-0.7,4.8-0.4,4.8,0.6c0.1,1.5-4.5,1.1-5.3,0L287,315.2z"/>
<path id="XMLID_7748_" class="st8" d="M285.5,315.8c-0.2-0.5-0.8-1.1-1.5-1.2c-0.1,1.1,0.7,1.5,1.3,2L285.5,315.8z"/>
<path id="XMLID_7723_" class="st9" d="M268.9,322.7c7.3,0.2,6.4,13.6,0.8,14.8c0.2,1.9,0.5,3.6,1.8,4.4c-2.1,0-3.4-2.7-4.4-4.6
	c-6.3-1-7.1-14.9,1-14.6H268.9z"/>
<path id="XMLID_7720_" class="st4" d="M267.8,322.9c-0.9-1.6-2.9-1.6-3.2-3.8c-0.1-0.5,0.4-0.5,0.8-0.6c-0.4-0.8-1.1-1.3-0.8-2.8
	c0.2-0.2,0.5-0.3,1-0.2c-1-1.4-2.6-2.1-2.4-4.6c0.5,0,0.6-0.3,1.2-0.2c-0.6-0.6-0.8-1.8-0.2-2.6c3.1,1.1,2.8,5.5,4,8.6
	c0.6-1.6,0.6-3.6,1.2-5.2c0.5-1.3,1.2-3.3,2.8-3.4c0.5,0.7,0.5,1.9-0.2,2.4c0.3,0.3,1,0.2,1.2,0.6c0,2.2-1.2,3.2-2.4,4.2
	c0.1,0.4,0.9,0.1,1,0.4c0.1,1.3-0.2,2.1-1,2.6c0.3,0.4,1.1,0.2,1,1c-0.5,1.8-2.3,2.1-3.2,3.6H267.8z"/>
<path id="XMLID_7619_" class="st10" d="M249.3,334.7c-0.8-0.2-1.6-0.8-2-1.2c0,0.1,0,0.2,0,0.2c-0.1,0.3-0.2,0.6-0.3,0.9
	c-0.7,1.8-1.5,3.6-2.2,5.4c0,0-0.1,0-0.2,0.1c0.1-1.9,0.3-3.7,0.4-5.6c0-0.2,0-0.4,0-0.6c0-0.2,0.2-0.4,0.4-0.4l-3.6,0.4
	c0,0.2,0,0.3,0,0.5c-0.1,1.8-0.2,3.5-0.4,5.4c-0.6-1.9-1.2-3.6-1.8-5.5c-0.1-0.3-0.2-0.6-0.3-0.9c0,0,0,0-0.6-0.8
	c-2.4,1.4-3.5,1.1-4.9,1.6c0.1,0,0.1,0,0.2,0h0c0.2,0,0.3,0.2,0.5,0.5c0.3,0.6,0.6,1.2,0.8,1.9c1.2,2.8,2,5.8,1.7,8.9
	c-0.1,1.6-0.3,3.2-0.4,4.8c-0.1,0.9,0.3,1.6,1.2,1.6c2.6,0,5.1,0,7.7,0c0.8,0,1.3-0.6,1.2-1.4c0-0.3,0-0.7-0.1-1
	c-0.3-3.2-0.4-6.4,0.8-9.4C248,338.3,248.6,336.5,249.3,334.7z"/>
<path id="XMLID_2869_" class="st1" d="M257.7,333.8c-2.6,1.8-5.3,2.1-8.4,1c-0.8-0.2-1.6-0.8-2-1.2c0-0.1,0-0.2-0.1-0.2
	c-0.1-0.1-0.2-0.1-0.3-0.1c-0.1,0-0.2,0-0.3,0c-0.4,0.1-0.9,0.2-1.3,0.4l-3.6,0.4l-1.3-0.3l-0.6-0.1l-0.7-0.1c0,0,0,0-0.6-0.8
	c-2.4,1.4-3.5,1.1-4.9,1.6c-0.1,0-0.1,0-0.2,0c-3.9,0.8-7.6-0.9-9.5-4.4c-1.8-3.4-0.9-8.1,2.1-10.5c2-1.6,3.6-2.1,6.4-2
	c0.8-1.4,1.8-2.7,3.2-3.8c3.7-3,9.2-3.1,13.2-0.4c1.7,1.2,3,2.7,3.9,4.6c0.2,0.3,0.4,0.5,0.8,0.6c3.2,0.4,5.6,2,6.9,4.9
	C262.3,327.5,260.8,331.6,257.7,333.8z"/>
<path id="XMLID_1307_" class="st1" d="M370.1,317c-0.3,0.1-0.8,0.8-1.1,0.9c-1.2-1.6-4-2.1-6.1-0.8c-0.2-0.1-0.4-0.3-0.5-0.4
	c1.8-0.6,2.3-1.4,2.6-3.8c0.3-2.4,1.8-4.5,4.2-3.8c1.1,0.6,0.1,2.3-1.1,1.7c-1.2-0.6-1.3,1.1-1.3,2
	C366.9,315.8,367.7,316.1,370.1,317z"/>
<path id="XMLID_1310_" class="st0" d="M370.4,335c-0.8,0.4-1.9,0.2-2.8-0.2c-0.1,0.1-0.1,0.2-0.2,0.3c-0.8,1-2,0.5-2.7,0.1
	c0,0,0,0,0,0c-0.1-0.1-0.2-0.1-0.3-0.2c-0.1-0.1-0.2-0.1-0.2-0.1c-0.7,0.6-1.3,0.8-2.7,0.1c-1.6-0.8-6.6-9.8-3.9-16.4
	c0.3-1.3,2.8-3,4.9-1.9c0,0,0,0,0,0c0.2,0.1,0.4,0.2,0.5,0.4c1.6-1.1,4.6-1.1,6.2,0.2c1.7-1.6,5,0,5.2,1.3
	C377,325.2,372,334.2,370.4,335z"/>
<path id="XMLID_271_" class="st11" d="M385.7,317.3c-0.1,0.2-0.5,1.1-0.6,1.3c-0.9,2.9-1,4.1-2.5,6.8c-1.1,2-1,1.9-4.5,6.6
	c-3.9,6.1,3.5,8.9,3.5,8.9c3.9,1.2,7.2-1.5,7.2-1.5s3.7-2.2,5.4-7.3c1.6-4.5,0.6-10.6,0-14.1C389.6,311,386.7,317.2,385.7,317.3z"/>
<path id="XMLID_1188_" class="st1" d="M384.8,317.4c0,0,0.5-2.8,2.3-3.9c1.6-0.9,2.1-2,2.3-2.6c0.1-0.4,0.4-0.6,0.8-0.6l0,0
	c0.4,0,0.8,0.3,0.9,0.8c0.1,0.6,0.5,1.6,1.9,2.5c2.5,1.6,1.8,4.6,1.8,4.6s-2.6-0.3-3.1-2.3c0,0,0.6,1.6-2,3.7
	c-1.7-1.6-1.5-3.7-1.5-3.7S387.2,317.4,384.8,317.4z"/>
<path id="XMLID_635_" class="st12" d="M420.1,329c0.5-0.7,0.8-1.5,0.8-2.3c-0.8-0.3-3-1.8-3.5-2.7c-0.7,0.3-1.4,0.7-2.1,1.2
	c-1.7,1.3-0.7,3.1,0.6,4.2C417.2,330.4,419.2,330.9,420.1,329z"/>
<path id="XMLID_481_" class="st13" d="M422.4,326.3c-0.4,0.6-0.9,0.7-1.5,0.4c-0.8-0.3-3-1.8-3.5-2.7c-0.3-0.5-0.4-1,0-1.6
	c0.9-1.1,2.7-1.2,4.1-0.2C422.9,323.3,423.3,325.1,422.4,326.3z"/>
<path id="XMLID_268_" class="st14" d="M414.3,329.2c0.9-3.7,0.9-7.1,0.7-9.1c-2.1,0-5.1-0.4-5.5-0.4c0,0,0,0,0,0
	c-0.2,0.7-0.4,1.6-0.6,2.6c-0.5,2.4-3.1,6.7-4,8.4c-0.9,1.6-0.5,5.4,3.1,6.2C411.5,337.7,412.9,334.8,414.3,329.2z"/>
<path id="XMLID_487_" class="st15" d="M417.2,320.1c-0.7,0-1.5,0-2.2,0c-2.1,0-5.1-0.4-5.5-0.4c0,0,0,0,0,0c-1.7-0.3-3.6-0.6-4.2-1
	c-1.1-0.6-0.5-1.8,0.8-2.7c1.3-1,3.4-2.5,6.6-2.4c4.1,0.2,5.6,2.3,6.9,4.6C420.8,320.3,418.9,320,417.2,320.1z"/>
<path id="XMLID_306_" class="st16" d="M422.5,342.9c-2.5,2.2-4.6-0.1-6.9-3.1c-0.2-1.1-2-2.9-3.6-4.1c-2.6-2.7-4.7-5-2.1-7.2
	c3.2-2.8,8.7-1.9,12.1,2.1C425.5,334.5,425.7,340,422.5,342.9z"/>
<path id="XMLID_258_" class="st17" d="M412.1,344.3c-1.7,1.5-4.2,1.2-5.5-0.7c-1-1.4-0.9-3.4,0.2-4.7c0.3-0.4,0.7-0.7,1.1-0.9
	c1.1-0.6,2.3-0.9,3.2-1.7l0.8-0.7c1.6,1.3,3.4,3.1,3.6,4.1l-0.8,0.7c-0.8,0.7-1.4,1.9-2,2.9C412.6,343.8,412.4,344,412.1,344.3z"/>
<path id="XMLID_256_" class="st18" d="M400.3,319.5c-4.8,1.2-7.8,5.7-6.6,10.5l0.1,0.4c0.3,0.5,0.8,0.9,1.8,0.8
	c2.3-0.2,2.7-0.7,3.1-0.8c0,0,3-1.4,8.3-2.1c0.4-0.1,0.9,0.1,3.1-0.8c0.9-0.4,1.2-1,1.2-1.6l-0.1-0.3
	C409.9,320.8,405.1,318.2,400.3,319.5z"/>
<path id="XMLID_469_" class="st19" d="M410.5,335.7c0.2,1.1,0,2.1-0.5,3c-0.8,1.4-2.4,2.6-4,3c-3,0.8-6-0.4-7-3.2
	c-0.6-2.7,0.4-5.8-0.4-8.1c0,0,3-1.4,8.3-2.1C407.3,330.7,409.8,333,410.5,335.7z"/>
<path id="XMLID_926_" class="st20" d="M275.8,339.6c0-9.1-4.8-14.8-14.1-14.8s-14.9,5.4-14.9,14.6s5.6,16.2,14.9,16.2
	S275.8,348.8,275.8,339.6z"/>
<path id="XMLID_284_" class="st1" d="M262,325.1C262,325.1,262,325.1,262,325.1c0.1,0.1,0.2,0.2,0.3,0.3c0.1,0.1,0.1,0.3,0.1,0.4
	c-0.1,0.2-0.2,0.2-0.4,0.2c-0.2,0-0.4,0-0.7,0c-0.1,0-0.3,0-0.4,0c-0.1,0-0.3-0.1-0.3-0.3c-0.1-0.1,0-0.3,0.1-0.4
	c0.1,0,0.1-0.1,0.2-0.1c0.3-0.1,0.1-0.6,0.1-0.9c0-0.4,0-0.9-0.1-1.4c0-0.3,0-0.5-0.1-0.8c0-0.1,0-0.2-0.1-0.4
	c0-0.1-0.1-0.2-0.1-0.3c-0.1-1.4,0-2.7,0.6-1.4c0.1,0.1,0.1,0.3,0.1,0.4c0.2,0.9,0.3,1.8,0.4,2.7c0,0.4,0.1,0.8,0.1,1.3
	C261.8,324.6,261.8,324.9,262,325.1z"/>
<path id="XMLID_438_" class="st1" d="M270.6,326.1c0,0-2.7,1.4-5.2-0.7c-2.2-1.9-3.7-2.2-4-2.2c0,0,0,0,0,0c0-0.1,0-0.1,0-0.2
	c0-0.1,0.1-0.2,0.1-0.3c0,0,0.1,0,0.1,0c0,0,0,0.1,0,0.1s0,0,0.1-0.1l0,0c0.4-0.4,2.6-2.1,4.6-1.2
	C268.6,322.5,270.6,326.1,270.6,326.1z"/>
<path id="XMLID_680_" class="st21" d="M316.8,338.8c-0.2-0.6-0.7-1.1-1.4-1.3c-0.8-0.2-1.4-0.6-2-1.1c-2.5-2.3-6.8-3-11-1.6
	c-4.2,1.3-7.2,4.4-8,7.7c-0.2,0.8-0.6,1.5-1.1,2.2c-0.4,0.5-0.6,1.2-0.4,1.8c0.2,0.6,0.7,1.1,1.4,1.3c0.8,0.2,1.6,0.6,2.2,1.1
	c2.5,2.2,6.7,3,11,1.6c4.3-1.4,7.3-4.5,8-7.8c0.2-0.8,0.6-1.4,1-2.1C316.9,340.1,317,339.4,316.8,338.8z"/>
<path id="XMLID_1286_" class="st1" d="M317,339.4C317,339.4,317,339.4,317,339.4c-0.1,0.1-0.1,0.2-0.2,0.3c-0.1,0.1-0.2,0.2-0.3,0.2
	c-0.2,0-0.2-0.2-0.3-0.4c-0.1-0.2-0.1-0.4-0.2-0.7c0-0.1-0.1-0.3-0.1-0.4c0-0.1,0-0.3,0.1-0.4c0.1-0.1,0.3-0.1,0.4,0
	c0.1,0,0.1,0.1,0.1,0.2c0.2,0.3,0.6-0.1,0.8-0.2c0.4-0.2,0.6,0.8,0.2,1C317.4,339.2,317.2,339.2,317,339.4z"/>
<path id="XMLID_210_" class="st10" d="M336.6,325.2c-1,1.1-2.1,1.1-3.2,1c-0.5,0-0.9,0-1.4,0c0.1,0.1,0.2,0.3,0.3,0.5
	c0.4,0.6,0.9,1.2,0.8,1.7c-0.1,0.5-0.8,0.9-1.2,1.1c-0.1,0-0.1,0.1-0.1,0.1c-0.8,0.5-1.6,0.7-2.8,0.8c-0.3,0-0.5,0-0.8,0
	c-0.2,0-0.3,0-0.5,0c0.3,0.5,0.6,1.1,0.7,1.7c0.1,0.8-0.1,1.4-0.8,1.9c-1.1,0.9-1.9,1.1-2.4,1.1c0,0.1,0,0.3,0.1,0.4
	c0.1,0.4,0.2,0.9,0,1.2c-0.2,0.3-0.5,0.4-0.7,0.5c-0.1,0.1-0.3,0.1-0.4,0.2c-0.3,0.2-0.3,0.2-0.3,0.3c0,0.1,0,0.2-0.1,0.4
	c0,0.1-0.1,0.3-0.2,0.4c0,0.1-0.1,0.2-0.1,0.2c0,0-0.1,0.1-0.2,0.2l0,0c0,0,0,0-0.1,0.1c0,0,0,0,0,0c0,0,0,0-0.1,0.1
	c0,0-0.1,0.1-0.1,0.1c0,0-0.1,0-0.1,0.1s-0.1,0.1-0.1,0.1c-0.1,0.1-0.2,0.2-0.2,0.2c0,0,0,0-0.1,0c0,0,0,0,0,0
	c-0.3,1.6-0.6,2.7-0.7,3.2l0,0c-0.1,0-0.1,0-0.2,0l-0.3,0c-0.2,0-0.3,0-0.5,0c-0.1,0-0.1,0-0.2,0l-0.2,0c-0.2-1-0.6-2.8-1.1-5.1
	c0,0,0,0,0,0c-0.1,0-0.8-0.2-1.5-0.9c-0.4-0.4-0.7-0.9-0.9-1.2c-0.1-0.1-0.2-0.3-0.2-0.5c-0.2-0.2-0.5-0.2-0.8-0.3
	c-0.5-0.1-1.2-0.2-1.4-1c-0.2-0.7-0.1-1.6,0.3-2.2c-0.6,0-1.3-0.3-2-0.6c-0.9-0.5-1.5-1.1-1.7-1.7c-0.2-0.5-0.2-1.1,0.1-1.5
	c0.1-0.2,0.3-0.4,0.4-0.5c-0.5-0.1-0.9-0.3-1.3-0.7c-0.4-0.5-0.7-1.1-1-1.8c-0.2-0.6-0.3-1.4,0.1-2c0.2-0.3,0.5-0.5,0.8-0.5
	c-0.1-0.2-0.2-0.3-0.3-0.5c-0.5-0.6-1.1-1.5-0.3-2.3c0.7-0.7,1.8-0.1,2.5,0.3c0.1,0.1,0.2,0.1,0.2,0.1v0c0-0.7,0-1.5,0.9-1.9
	c0.6-0.3,1.1-0.1,1.6,0.1c1.8,0.6,1.8,1.9,1.8,3.3c0,0.1,0,0.3,0,0.4h0c0.2,0,0.5,0,0.7,0.1c0.4,0.3,0.6,1.3,0.7,1.5
	c0.2,0.8-0.1,1.2-0.3,1.7c0,0,0,0.1-0.1,0.1c0.3,0.1,0.6,0.3,0.8,0.6c0-0.1,0-0.1,0-0.2c0-0.3,0-0.6,0.2-0.8c0,0,0,0,0-0.1
	c-0.3-0.7-0.9-1.8-0.2-2.6c-0.5-0.4-1.1-1.2-1.2-1.9c0-0.3,0-0.6,0.2-0.8c-0.4-0.4-1.3-1.2-1.7-2c-0.4-0.6-0.2-0.9,0-1.3
	c0.1-0.1,0.1-0.3,0.2-0.4l0,0c-1-0.9-1.5-2.7-0.7-3.8c0.2-0.3,0.3-0.4,0.5-0.4c0.1,0,0.1,0,0.2-0.1c0.1-0.1,0.2-0.1,0.3-0.1
	c0-0.1,0-0.2,0.1-0.4c0.2-0.7,0.5-1.2,1.1-1.5c0.5-0.3,1.2-0.3,1.8,0c1.4,0.6,2.3,1.9,2.4,3.8c0.2,0,0.4,0,0.6,0
	c0.4,0,0.8-0.1,1.4,0.4c0.7,0.6,0.8,1.4,0.9,2.3l0,0.1c0.1,1.1,0.1,1.8-0.5,2.8l-0.1,0.1c-0.1,0.2-0.2,0.4-0.3,0.5
	c0.3,0,0.6,0.1,1,0.3c0.6,0.4,1.2,1.3,1.2,2.1c0,0.8-0.4,1.3-0.8,1.8c-0.1,0.1-0.2,0.2-0.2,0.3c-0.1,0.1-0.1,0.2-0.2,0.3
	c-0.3,0.5-0.7,0.9-1.2,1.2c0.6,0.5,1.2,1.5,1.1,2.3c0,0.2-0.2,0.5-0.3,0.7c-0.2,0.3-0.5,0.6-0.8,0.9c0.2,0,0.3,0,0.5,0
	c0-0.3,0.1-0.7,0.3-0.9c0.1-0.1,0.3-0.3,0.5-0.3c0-0.3-0.1-0.6-0.2-1c-0.1-0.7-0.3-1.3,0-1.8c0.2-0.3,0.5-0.4,0.9-0.5
	c0-1.2,0.3-1.7,1.4-2c0-0.2,0-0.5,0-0.7c0-0.9-0.1-1.8,0.5-2.7c0.4-0.5,1.1-1.1,1.8-1.1c0.2,0,0.5,0.1,0.7,0.4
	c0.4-0.9,1.3-1.9,1.9-2.4c0.8-0.6,1.8-0.8,2.7-0.5c0.5,0.1,1.1,0.6,1.7,1.2c0.3,0.4,0.9,1.1,0.8,1.9c-0.1,0.6-0.5,0.9-0.8,1.1
	c-0.1,0.1-0.2,0.2-0.3,0.2c0.8,0.3,1.4,0.9,1.7,1.7C337.8,322.7,337.5,324.2,336.6,325.2z"/>
<path id="XMLID_484_" class="st22" d="M327,346.9c0,3.5-2.8,6.3-6.3,6.4c-1,0.7-0.8,2.5-0.8,2.5c0.9,3.5-1.1,3.8-0.5,3.3
	c0.6-0.5,0.6-2.1-0.4-3.2c-0.6-0.7-0.3-2,0-2.8c-2.8-0.7-4.8-3.2-4.8-6.2c0-3.3,2.6-6.1,5.9-6.4l0-0.2c0,0,0.7,0.2,1.1,0.2
	c0.5,0,1.2-0.2,1.2-0.2l-0.1,0.4C324.9,341.5,327,344,327,346.9z"/>
<path id="XMLID_971_" class="st1" d="M204.3,330.5c-0.1,0.2-0.1,0.5-0.1,0.8c0,0.9-0.1,1.7-0.3,2.6c-0.1,0.2-0.1,0.5-0.1,0.8
	c0,0.2,0,0.3,0,0.5c0.2,1.1-0.1,2.1-0.8,2.9c-0.2,0.3-0.4,0.6-0.6,0.9c-0.7-0.2-1.6,0-1.6,0c0.1-0.5,0.2-1,0.3-1.5
	c0.1-0.7-0.1-1.2-0.7-1.6c-0.3-0.2-0.6-0.4-0.9-0.6c-0.7-0.4-1.1-1.1-1.2-1.9c-0.1-0.4-0.2-0.7-0.2-1.1c-0.1-0.5-0.3-0.8-0.8-1.1
	c-0.3-0.2-0.6-0.4-0.9-0.6c-1-0.8-1.3-1.6-0.9-2.8c0.1-0.3,0.2-0.6,0.3-0.9c0.2-0.5,0.2-1.1,0.1-1.6c-0.1-0.3-0.2-0.7-0.3-1
	c-0.3-0.9-0.1-1.7,0.5-2.4c0.4-0.6,0.9-1.1,1.4-1.6c0.2-0.2,0.5-0.3,0.8-0.5h0.7c0.1,0,0.1,0.1,0.2,0.1c0.7,0.3,1.2,0.8,1.5,1.5
	c0.6,1.3,1.2,2.7,1.8,4c0.1,0.3,0.3,0.6,0.5,0.9c0.1,0.2,0.2,0.4,0.4,0.5C204.5,327.9,204.7,329.1,204.3,330.5z"/>
<path id="XMLID_73_" class="st11" d="M206.7,342.9c0,3-2.4,5.4-5.4,5.4c-0.9,0.6-0.7,2.1-0.7,2.1c0.7,3-0.9,3.2-0.4,2.8
	c0.5-0.4,0.5-1.8-0.3-2.8c-0.5-0.6-0.3-1.7,0-2.4c-2.4-0.6-4.1-2.7-4.1-5.3c0-2.9,2.3-5.3,5.3-5.4l0.2,0c0,0,0.1,0,0.2,0l0.4,0
	l0.3,0l0.2,0l0,0C204.8,338.1,206.7,340.3,206.7,342.9z"/>
<path id="XMLID_7802_" class="st10" d="M293.5,355.8L293.5,355.8c-0.1,0-0.3,0-0.4,0c-0.4,0-0.8,0-1.3,0c-1.7-0.1-3.5-0.6-5.1-1.4
	c0.7-1.8,1.8-3.3,2-5.6c-1,1.7-1.9,3.5-3.3,4.8c-1.5-0.6-2.6-1.5-3.8-2.3c1.5-2.1,2.7-4.3,3.5-7.1c-1.3,1.5-3.1,4-5,5.5
	c-1.5-1.1-2.1-3.3-3-5c1.8-1.8,3.4-3.9,4.3-6.6c-1.1,1.3-2.9,3.3-4.6,4.5c-1-2.3-1-6-0.3-8.6c-1.8,3-1.9,8.9-0.5,12.4
	c-1.4-0.9-2.8-1.9-3.5-3.6c0.2,2.7,1.8,4.8,4.5,5.5c1.9,2.8,4.5,5.7,7.7,7.2c0,0,0.1,0,0.1,0c-0.2,0-0.5-0.1-0.7-0.1
	c-7.2-1.2-12.5-5.4-13.7-13V339c1.3-8.2,6.9-12,13.3-15.1c-0.3,0.8-0.1,2.1-0.3,2.8c0.5,0.2,1.8,0.1,2.3,0.7
	c0.3,0.8,0.2,2.1-0.2,2.7c0.5,0.3,1.3,0.3,2,0.3c1.4,0.9,0.6,3.6,0.8,5.1c0.8,6.8,9.9,7.5,10.8,13.3
	C299.6,353.2,296.9,355.4,293.5,355.8z"/>
<path id="XMLID_1487_" class="st1" d="M283.6,327.2c1.6,0,2,1.7,1.7,3.2c3,0,2.7,3.4,2.5,6.1c0.6,0.1,1.7-0.8,2.7-0.3
	c0.2-1.7,1.2-2.6,3-2.7c0.2-1.4,0.9-2.3,2.3-2.5c0.1-1.7,0.7-3,2.3-3.2C294.9,325.7,287.4,325.3,283.6,327.2z"/>
<path id="XMLID_399_" class="st23" d="M301.2,349.8c-2.3,1.8-4.7,5.2-7.7,6c1.9-0.9,4.4-5.1,5.8-6.6c-1.7-2-3.2-4.2-3.8-7.3
	c1.3,2,2.7,3.9,4.6,5.3c0.5-1.1,1.5-2.4,1.3-3.5c-0.2-1.8-4.1-4.1-4-6.6c1.3,1.5,2.6,3.1,4.3,4.1c0.7-1.6,0.3-4.8,0-6.5
	c1.7,3.1,1.8,8.6,0.5,12.1c1.2-0.4,2.7-1.8,3.3-3.3C305.8,346.7,303.3,348.3,301.2,349.8z"/>
<path id="XMLID_273_" class="st10" d="M308.1,339.4v3.7c-1.4,7.3-7.6,11.7-14.6,12.8c3.1-0.8,5.4-4.2,7.7-6c2-1.5,4.6-3.1,4.3-6.3
	c-0.6,1.5-2.2,2.9-3.3,3.3c1.3-3.5,1.2-9.1-0.5-12.1c0.3,1.7,0.7,4.8,0,6.5c-1.7-1.1-3-2.6-4.3-4.1c-0.1,2.5,3.8,4.9,4,6.6
	c0.1,1.1-0.8,2.3-1.3,3.5c-1.9-1.4-3.4-3.3-4.6-5.3c0.6,3.1,2.2,5.3,3.8,7.3c-1.3,1.5-3.9,5.7-5.8,6.6c2.4-9.1-6.6-12.3-8.8-18.4
	c0.5-0.8,2.2-0.8,3.2-0.3c-0.3-2.1,1-3.3,3-2.7c-0.1-1.2,0.3-1.8,0.7-2.5c0.6-0.2,1-0.5,1.8-0.3c-0.4-2.6,0.9-3.4,3-3.5
	c-0.3-0.7-0.6-2.5,0-3.2C301,329,307,331.8,308.1,339.4z"/>
<path id="XMLID_7800_" class="st23" d="M291.8,355.9c-2.5,0-5.8-0.3-7.2-0.5c-3.2-1.5-5.8-4.4-7.7-7.2c-2.7-0.8-4.3-2.8-4.5-5.5
	c0.6,1.7,2,2.7,3.5,3.6c-1.4-3.5-1.3-9.4,0.5-12.4c-0.6,2.6-0.7,6.3,0.3,8.6c1.8-1.2,3.5-3.2,4.6-4.5c-0.9,2.7-2.5,4.8-4.3,6.6
	c0.9,1.7,1.4,3.9,3,5c1.9-1.5,3.6-4,5-5.5c-0.7,2.8-2,5.1-3.5,7.1c1.2,0.8,2.3,1.8,3.8,2.3c1.4-1.3,2.3-3.1,3.3-4.8
	c-0.2,2.4-1.3,3.8-2,5.6C288.3,355.3,290.1,355.8,291.8,355.9z"/>
<path id="XMLID_7776_" class="st24" d="M217.6,282.7c-0.9,2.2-1.7,4.3-2.6,6.3c-2,4.8-3.5,9.8-4.1,15c-0.2,1.8-0.3,3.6-0.6,5.4
	c-0.5,2.3-0.2,4.6,0.1,6.8c-0.4-1.2-5.3-9.3-5.6-9.2c-0.3,0.1-1.2,1.6-1.2,1.6c-0.4-0.8-0.8-1.6-1.1-2.4c-2.6-5.9-5.3-11.8-8-17.9
	c2.1-0.9,4-1.8,6-2.7c1.2,3.1,2.3,6.1,3.5,9.2c0.1,0,0.1,0,0.2,0c0-1.2,0-2.3-0.1-3.5c-0.1-2.8-0.3-5.6-0.5-8.4
	c-0.1-1,0.2-1.7,1.4-1.7c1.4-0.1,2.9-0.4,4.5-0.6c0,3.1,0,6,0,9c0.1,0,0.2,0,0.3,0c0.5-1.9,0.9-3.8,1.4-5.8c0.4-1.9,0.4-1.9,2.3-1.7
	C214.8,282.3,216.1,282.5,217.6,282.7z"/>
<path id="XMLID_7778_" class="st23" d="M210.4,316.3C210.4,316.3,210.4,316.4,210.4,316.3c0.2,1.4,0.4,2.7,0.6,4
	c0.6,6.2,1.4,12.3,2.2,18.4c0.2,1.7,0.8,3.3,1.1,4.9c0.1,0.2,0.1,0.5,0.1,0.7c0,0.6-2.4,4.5-2.9,4.8c-0.4,0.2-0.8,0.5-1.2,0.2
	c-0.2-0.2-0.3-0.4-0.5-0.5c-0.3-0.2-0.7,0-1.1-0.1c-0.1,0-0.1,0-0.2,0c-0.1-0.1-0.1-0.2-0.1-0.2c-0.1-0.6-0.4-1.2-0.9-1.6
	c-0.4-0.4-0.9-0.8-1-1.4c-0.1-0.4-0.3-0.9-0.2-1.3c0.8-2.9,0.3-5.8,0.1-8.7c-0.6-7.8-1.1-15.7-1.9-23.5c-0.1-1.1-0.5-2.1-0.9-3.1
	c0,0,1.3-1.9,1.6-2C205.5,306.6,210,315.1,210.4,316.3z"/>
<path id="XMLID_7735_" d="M210.4,316.3C210.4,316.3,210.4,316.4,210.4,316.3L210.4,316.3C210.4,316.4,210.4,316.3,210.4,316.3z"/>
<path id="XMLID_7809_" class="st24" d="M452,321.5l4.9-4.1c0,0-3.7-1.2-4.5-1.8c-0.8-0.6-3.8-5.4-3.8-5.4l-2.6,1.9l2.1,3.8
	c0,0-1.5,2.9-1.7,3.3C446.4,319.2,451.9,321.3,452,321.5z"/>
<path id="XMLID_7779_" class="st20" d="M472.2,350.1c0,0-0.1,0-0.1,0c-0.1,0-0.2,0-0.3-0.1c0,0-0.1-0.1-0.1-0.1
	c-1.8,2.3-3.7,3.6-4.3,3.9c-0.5,0.2-1.4,0.5-2.3,0.6c-0.6,0.1-1.2,0.1-1.6-0.1c-0.1,0-0.2-0.1-0.2-0.3c0,0,0,0,0,0
	c-1.1,1.2-2.5,1.9-4.2,2.2c-2.9,0.5-4.6-0.4-5.9-3.3c0.2,1,0.3,1.7,0.2,2.1c-0.3,1-1.1,1.4-2,1.6c-0.6,0.1-1.2,0.1-1.9,0.1l-0.3,0
	c-1,0-2.8-0.5-4.6-2c0.1,0.1,0.1,0.2,0,0.3c0,0.1-0.1,0.2-0.2,0.2c0,0-0.1,0-0.1,0c-0.1,0-14.2-4-13.6-22.1c0.2-5.3,2.6-9.4,7.1-12
	c4.3-2.5,9.2-2.8,9.5-2.6c0.1,0.1,0.2,0.2,0.2,0.3s-0.1,0.2-0.3,0.3c0,0-0.2,0-0.5,0.1c0.4-0.1,0.6-0.1,0.7-0.1
	c0.2,0,2.2-0.4,2.8,0.4c0.1,0.1,0.2,0.2,0.2,0.4c0.1-0.2,0.3-0.5,0.4-0.6c0,0,0,0,0.1-0.1c0.1,0,1.5-1.2,4.8-0.8c0,0,0-0.1-0.1-0.1
	c-0.1-0.3,0.2-0.5,0.4-0.6c0,0,0.1,0,0.1,0c0.1,0,0.1,0,0.2,0c0.1,0,0.1,0,0.2,0c0,0,0.2,0,0.1-0.1c-0.1-0.1-0.2,0-0.3,0
	c-0.1,0-0.2-0.1-0.3-0.3c0-0.2,0.1-0.3,0.2-0.4c0.1,0,7.4-2.4,13.8,1.2c4.1,2.3,6.9,6.5,8.3,12.5
	C481.3,344.1,472.3,350.1,472.2,350.1z"/>
<path id="XMLID_99_" class="st24" d="M459.6,309.5c-0.7-0.2-2.4,0.1-2.4,0.1c0.1-1,0-2,0.2-3c0.1-1,0.7-1.7,1.7-1.9
	c0.4-0.1,0.8,0.1,1.1,0.3c0.1,0,0,0.6-0.2,0.9c-0.6,1-1.1,2-0.7,3.1C459.4,309.2,459.5,309.4,459.6,309.5z"/>
<path id="XMLID_91_" class="st21" d="M471.2,350.9c-2,0.2-3.9,0-5.7-1c-0.9-0.6-1.7-1.4-2.4-2.3c-1.6-2.1-2.7-4.4-3.6-6.8
	c-1.9-5.1-3.4-10.3-4.3-15.7c-0.6-3.2-1-6.4-1.4-9.6c-0.3-1.9,0.7-4.8,3.1-5.7c0.1,0,0.2-0.1,0.2-0.1c0,0,1.6-0.3,2.4-0.1
	c0,0,0.1,0,0.1,0.1c2.6,1,3.8,3.1,4.1,5.7c0.5,3.7,1.6,7.2,2.9,10.7c1,2.6,2.1,5.2,3.2,7.8c0.8,1.9,2.3,3.4,3.7,5
	c1.2,1.3,2.1,2.7,2.6,4.4C477.1,346.3,475.3,350.6,471.2,350.9z"/>
<path id="XMLID_89_" class="st3" d="M459.6,309.6C459.6,309.5,459.6,309.6,459.6,309.6"/>
<path id="XMLID_7745_" class="st1" d="M374.6,319.1c-0.9-0.3-1.7-0.3-1.9-0.2c0.5-0.1,0.5-0.5,0.3-1.1c-0.3-0.8-0.4-1.6-0.7-2.4
	c0-0.1,0-0.2,0.1-0.3c0.1-0.1,0.4-0.1,0.5,0c0.6,0.7,0.7,1.8,0.9,2.8C374,318.5,374.2,318.8,374.6,319.1z"/>
<path id="XMLID_7788_" class="st1" d="M394.5,350.5c-2.4,0.5-4.7,0.2-7-0.6c-3.5-1.2-6.7-2.9-9.7-5c-2.9-2.1-4.9-5-6.7-8
	c-0.6-1-0.9-2.3-1.2-3.4c-0.5-2.1-1.1-4.1-1.2-6.2c-0.1-1.8,0.2-3.7,0.4-5.6c0.3-1.8,1.3-2.7,3.1-2.6c0.2,0,0.3,0,0.5,0l0,0
	c0,0,0,0,0,0c0,0,0,0,0,0c0.3,0,1-0.1,1.9,0.2c0.1,0,0.1,0.1,0.2,0.1c0.9,0.5,1.7,1.3,2.2,2.1c0.5,0.7,0.8,1.7,0.9,2.6
	c0.4,3,1.1,5.6,3.2,7.7c0.5,0.5,0.9,1,1.3,1.6c1.4,2.3,4.2,3.3,6.7,4c2.3,0.6,4.6,1.3,6.8,2.2c2.3,0.9,4,3.5,3.7,5.6
	C399.2,348.4,397.3,349.9,394.5,350.5z"/>
<path id="XMLID_7784_" class="st10" d="M435.4,306.7c-0.3,1.4-0.6,2.9-1.1,4.2c-0.9,2.5-1.8,5-2.8,7.5c-0.8,2.2-1.6,4.4-1.9,6.7
	c0,0.3-0.1,0.6-0.2,0.8l1.3-1.1c0,0,0.1,0.1,0.1,0.1c-0.3,1-0.7,1.9-0.9,2.9c-0.3,1.1-0.4,2.2-0.6,3.2c-0.1,0.7,0,1.2,0.3,1.7
	c-2.1,2.8-3.8,0.6-4.1,0.8c1.3-1.8,0.9-3.7-0.1-5.7c-0.6-1.1-1.1-2.3-1.8-3.5c1.9,0.6,2.9,2.5,2.6,1.9c-0.2-0.5-0.6-1-0.6-1.5
	c-0.1-1.3,0.1-2.7,0-4c-0.1-1-0.3-1.9-0.6-2.8c-0.9-2.4-1.9-4.7-2.8-6.9c0.3,0.3,0.8,0.6,1.2,1.1c0.4,0.5,0.8,0.9,1.2,1.5
	c0.4,0.5,0.7,1.1,1.1,1.7c0.1-2.6-0.9-4.9-1.7-7.3c0.1,0.1,0.3,0.2,0.4,0.3c2.1,1.8,3,4.2,3.2,6.9c0.1,1.6-0.1,3.2,0,4.9
	c0,0.6,0.2,1.1,0.4,1.9c1.2-2.7,2.2-5.3,3.3-7.8c1.2-2.5,1.9-5.3,3.7-7.5C435.3,306.6,435.4,306.6,435.4,306.7z"/>
<path id="XMLID_7797_" class="st16" d="M435.6,338.5c2.1,3,2.8,6.1,1.1,9.5c-0.8,1.6-2,2.8-3.6,3.7c-0.6,0.4-1.3,0.6-1.9,0.9
	c-0.3,0.2-0.5,0.4-0.8,0.6c0,0-0.1-0.2-0.2-0.4c0,0-0.1,0-0.1,0c0,0.2,0,0.4,0,0.7c-0.1,0-0.1-0.1-0.2-0.1c-0.1,0.1-0.1,0.3-0.2,0.5
	c-0.3-0.3-0.5-0.5-0.9-0.9c-0.1,0.4-0.2,0.8-0.3,1.1c-0.1,0-0.1,0-0.2,0c0-0.3-0.1-0.6-0.1-0.9c-0.2,0.4-0.4,0.7-0.6,1
	c-0.1-0.3-0.2-0.5-0.3-0.7c-0.3,0-0.6,0-0.9,0.1c0-0.1,0.1-0.3,0.1-0.5c-0.1,0.1-0.3,0.1-0.4,0.2c0.1-0.2,0.1-0.3,0.2-0.5
	c-0.2,0.2-0.5,0.3-0.7,0.5c0.1-0.1,0.1-0.3,0.2-0.4c-0.5-0.3-1.1-0.5-1.6-0.8c-0.5-0.2-1-0.5-1.5-0.8c-2.8-1.9-4.2-4.6-3.9-8
	c0.2-1.8,1.1-3.3,2.3-4.7c1.2-1.5,2.4-3,3.8-4.3c0.3-0.3,0.5-0.5,0.7-0.8l0,0c0.1-0.1,0.4-0.4,0.9-0.6c0.4-0.2,0.7,0.5,1.3,0.5
	c0.3,0,0.8-1,1.1-0.9c0.3,0.1,0.5,0.2,0.8,0.3c0.2,0.4,0.6,0.7,0.9,1C432.6,335.2,434.3,336.7,435.6,338.5z"/>
<path id="XMLID_1358_" class="st0" d="M405.7,361.8c-9.1-5.3-15.2-15.5-15.2-27.1c0-3.2,1.7-5.8,3.7-6.8l0,0c0.8,0.3,2.8,1,4,0.5
	l0,0c2,1.5,2.6,4.5,2,7.1c-2.2,8.1-0.1,17.6,6.9,24.6C408.2,361.2,407.3,362.7,405.7,361.8z"/>
<path id="XMLID_1995_" class="st10" d="M399.3,329c1,1.5-6.9,0-6-0.7c0.9-0.7,1.8-0.8,2.2-0.8c0-1.7,0.5-5.3,3.6-8.5
	c0.3-0.3,0.8-0.3,1.2,0c0.3,0.3,0.4,0.9,0.1,1.1c-0.4,0.4-0.8,0.9-1.1,1.3c-1.8,2.5-2.1,5.1-2.1,6.3
	C397.5,327.9,398.8,328.3,399.3,329z"/>
<polygon id="XMLID_1993_" class="st25" points="398.2,328.4 398.2,328.4 398.2,328.4 "/>
<path id="XMLID_23_" class="st26" d="M212.2,334.2c3-2.3,7.8-2.3,11.2-3.7c4.4-1.8,6.8-7,12-4.5c8.9,4.2,3,14.6-1.6,19.4
	c-3.3,3.4-10.7,5-15.4,4.9c-5.4-0.1-8.9-2.8-9.3-8.3C208.9,338.1,210.2,335.8,212.2,334.2z"/>
<path id="XMLID_7688_" class="st10" d="M475.3,307.8c-0.2,3.5-1.6,9.5-3.9,16.1c-2.2,6.3-4.6,11.6-6.6,14.6l0,0
	c-2.1,3.7-5,5.8-7.3,5c-2.9-1-3.7-6.4-1.8-12l0.2-0.7c1.4-2.8,2.9-6.6,4.4-10.7c1.4-4.2,2.5-8,3.2-11.2l0.2-0.5
	c1.1-3.3,3.1-7.7,4.8-7.4l1.4,0.6l0,0l0.8,0.2l0.5,0.2l1.3,0.2l0.5,0.3l0.6,0.7l1.2-0.9C475.9,302.2,475.6,305.7,475.3,307.8z"/>
<path id="XMLID_2987_" class="st27" d="M475.2,298.6l-0.4,1.4l-0.1,2.3l-1.2,0.9L473,304l-0.5-0.6l0,0l-2.1-0.5l-0.3,0l-0.1-1.1l0,0
	l0,0l-1.4-0.6c0.9-1.3,1.5-2.3,2.2-3.7l0.7-0.1l0.7-0.8l0.8,0.8l0.5,0.2l0.5,0.1L475.2,298.6z"/>
<path id="XMLID_13_" class="st28" d="M343.6,324.2c0,0,9.4-1.1,12.4-0.6c3,0.5,11.6,1.4,13.2,1.5c1.6,0.1,12.5,3.7,12.5,3.7l3,1.2
	l-7.8,17.7l-41.6-9.3L343.6,324.2z"/>
<path id="XMLID_302_" class="st26" d="M343.6,324.2c-1.8,3.5-2.7,6.9-1.5,10.7c0-0.1,0.1-0.2,0.1-0.4c0.7-3.2,1.8-6.3,3.8-9
	c0.9-1.3,1.9-2.1,3.6-2c2,0.1,4,0,6,0c0.1,0,0.2,0,0.3,0.1c-0.1,0.2-0.2,0.4-0.3,0.5c-1.9,2.7-3.4,5.6-4.1,8.9
	c-0.4,2.2-0.3,4.3,0.5,6.4c0.1,0.2,0.2,0.3,0.4,0.5c0.1-0.4,0.1-0.7,0.2-1.1c1-5.6,3.4-10.4,7.4-14.4c0.4-0.4,0.8-0.6,1.4-0.5
	c2.4,0.4,4.8,0.7,7.1,1c0.2,0,0.4,0.1,0.6,0.2c-4.4,5-6.8,10.6-5.7,17.3c0.1,0,0.1,0,0.2,0.1c0.1-0.2,0.1-0.3,0.2-0.5
	c1.3-4.7,3.2-9.1,6.2-12.9c0.7-0.9,1.5-1.7,2.2-2.6c0.4-0.4,0.7-0.6,1.3-0.4c2.5,0.8,5.1,1.6,7.6,2.5c0.2,0.1,0.3,0.2,0.6,0.3
	c-3.2,3.8-5,8.2-5.7,13.1c0.1-0.1,0.1-0.2,0.2-0.4c2-4,4.4-7.8,7.6-10.9c0.7-0.7,0.5-0.6,1.3-0.2c3.5,1.9,6.6,4.3,8.9,7.6
	c0.9,1.3,1.5,2.7,1.6,4.3c0.2,2.5-1.1,4.3-3,5.7c-2.1,1.5-4.6,2.3-7.1,2.8c-3.4,0.7-6.8,0.8-10.2,0.8c-9,0-18-0.8-26.8-2.8
	c-4.3-1-8.5-2.2-12.4-4.4c-2.4-1.3-4.6-2.9-6.1-5.3c-1.4-2.2-1.9-4.5-0.9-7c0.7-1.7,1.9-2.9,3.4-4c2.8-2,6-3,9.3-3.6
	C342.4,324.4,342.9,324.3,343.6,324.2z"/>
</svg>
