<?xml version="1.0" encoding="utf-8"?>
<!-- Generator: Adobe Illustrator 19.0.0, SVG Export Plug-In . SVG Version: 6.00 Build 0)  -->
<svg version="1.1" id="Layer_1" xmlns="http://www.w3.org/2000/svg" xmlns:xlink="http://www.w3.org/1999/xlink" x="0px" y="0px"
	 viewBox="0 0 612 792" style="enable-background:new 0 0 612 792;" xml:space="preserve">
<style type="text/css">
	.st0{fill:#D2AB80;}
	.st1{fill:none;stroke:#EDBA80;stroke-width:9;stroke-miterlimit:10;}
	.st2{fill-rule:evenodd;clip-rule:evenodd;fill:#96BF54;}
	.st3{fill-rule:evenodd;clip-rule:evenodd;fill:#F19255;}
	.st4{fill:#96BF54;}
	.st5{fill:#6B9A4C;}
	.st6{fill:#EC6635;}
	.st7{fill:#5F4A62;}
	.st8{fill:#9E5A7A;}
	.st9{fill:#6D953E;}
	.st10{fill:#BED997;}
	.st11{fill:#F8BF14;}
	.st12{fill:none;}
	.st13{fill:#EBD3BE;}
	.st14{fill:#486732;}
	.st15{fill:#EDBA80;}
	.st16{fill:#7E5137;}
	.st17{fill:url(#XMLID_8_);}
</style>
<path id="XMLID_7_" class="st0" d="M253.8,364.2c9-6.8,23.4-6.8,33.6-11c13-5.4,20.3-21,36-13.5c26.6,12.6,9,43.6-4.9,57.9
	c-10,10.3-32.1,14.9-46.2,14.6c-16.1-0.4-26.6-8.4-27.7-24.7C243.8,375.8,247.6,368.9,253.8,364.2z"/>
<circle id="XMLID_2_" class="st1" cx="320.9" cy="353.2" r="111.8"/>
<g id="XMLID_7769_">
	<path id="XMLID_7786_" class="st2" d="M194.1,333.4c-0.2-0.3-0.8-1.5-1-1.8c-5.5-6-13.2-5.8-18.9-11c-1-1.7-0.6-2.9,1.3-3.6
		c-4.4-4.1-10-4.9-13.1-12.8c0.5-1.6,3.2-2.5,5.3-3.5c-4.4-3.8-14.5-12.4-11.3-19.7c7.5-0.6,12.5,5.7,17.2,12.9
		c1.5-1.2,0.4-3.2,2.9-2.4c0-5.9-6.1-14-2.9-18.7c5.4-2.4,7.8,3.6,10.3,9.1c1.1,1.4,2.6-4.6,5.7-2.7c3.2,3.7,2.9,10.6,2.1,15
		c10.1-3.1,4.3,14.4,11.5,13.6c2.7,8.7-7.7,12.7-6.1,20.9c0.6,0.6,0.6,1.7,1.2,1.8L194.1,333.4z"/>
	<path id="XMLID_7783_" class="st3" d="M199.3,329.6c3.1,0.8,7-1.9,11.5-0.4c1.4,0.5,2.5,2.5,4,3.4l10.4,24.8
		c7.5,21,14.5,41.9,12.1,59.4c-15.4-7.8-26.4-27.8-38.4-45l-15.8-21.8c0-1.7,2.6-13.7,11-18.1L199.3,329.6z"/>
</g>
<g id="XMLID_274_">
	<g id="XMLID_2834_">
		<g id="XMLID_2835_">
			<path id="XMLID_7619_" class="st4" d="M272,360.3c-2-0.6-4-2-5.2-2.9c0,0.2,0,0.5-0.1,0.6c-0.3,0.7-0.6,1.4-0.9,2.2
				c-1.9,4.6-3.7,9.2-5.6,13.7c0,0.1-0.2,0.1-0.4,0.3c0.3-4.8,0.7-9.5,1-14.1c0-0.5,0.1-0.9,0.1-1.4c0-0.4,0.5-0.9,0.9-1.1l-9.1,1
				c0,0.4-0.1,0.9-0.1,1.3c-0.3,4.4-0.6,8.9-1,13.6c-1.6-4.7-3.1-9.2-4.6-13.8c-0.3-0.8-0.5-1.6-0.8-2.4c0,0,0,0-1.6-2
				c-6.1,3.6-8.8,2.8-12.3,4c0.1,0,0.3,0,0.4,0h0c0.6,0.1,0.9,0.5,1.2,1.2c0.6,1.6,1.4,3.1,2.1,4.7c3,7.1,5,14.5,4.4,22.4
				c-0.3,4-0.7,8-1.1,12c-0.2,2.3,0.8,4,3,4c6.4,0.1,12.9,0.1,19.3,0c2,0,3.2-1.5,3.1-3.6c0-0.8-0.1-1.7-0.2-2.5
				c-0.8-8.1-1.1-16.1,2.1-23.8C268.5,369.2,270.2,364.7,272,360.3z"/>
			<path id="XMLID_2869_" class="st5" d="M293.2,357.9c-6.5,4.6-13.4,5.2-21.2,2.4c-2-0.6-4-2-5.2-2.9c0-0.2-0.1-0.4-0.1-0.5
				c-0.3-0.1-0.6-0.3-0.9-0.4c-0.2-0.1-0.5-0.1-0.7,0c-1.1,0.2-2.2,0.6-3.2,1l-9.1,1l-3.3-0.6l-1.5-0.3l-1.7-0.3c0,0,0,0-1.6-2
				c-6.1,3.6-8.8,2.8-12.3,4c-0.2,0-0.3,0-0.5,0.1c-9.9,2.1-19.1-2.2-23.9-11.1c-4.7-8.6-2.3-20.3,5.3-26.4c5-4,9-5.2,16.3-5
				c2.1-3.6,4.7-6.9,8-9.5c9.5-7.5,23.3-7.9,33.4-1c4.4,3,7.6,6.9,9.9,11.6c0.4,0.9,0.9,1.3,2,1.4c8.1,0.9,14.1,5.1,17.4,12.4
				C304.8,341.9,300.9,352.4,293.2,357.9z"/>
		</g>
	</g>
</g>
<g id="XMLID_1251_">
	<path id="XMLID_1307_" class="st5" d="M334.9,372.2c-0.9,0.2-2.3,2.3-3.2,2.7c-3.7-4.6-12.1-6.2-18.1-2.3c-0.5-0.4-1.1-0.8-1.6-1.1
		c5.3-1.9,6.9-4.1,7.9-11.3c1-7.1,5.4-13.6,12.7-11.2c3.2,1.8,0.2,7-3.4,5.2c-3.6-1.8-3.9,3.2-3.8,6.1
		C325.4,368.6,327.7,369.7,334.9,372.2z"/>
	<path id="XMLID_1310_" class="st6" d="M335.8,426.3c-2.4,1.2-5.7,0.5-8.5-0.7c-0.2,0.3-0.4,0.7-0.5,0.9c-2.3,2.9-6.1,1.5-8.1,0.4
		c0,0,0,0,0,0c-0.3-0.2-0.6-0.3-0.8-0.5c-0.3-0.2-0.6-0.3-0.7-0.4c-2.1,1.8-3.7,2.5-8,0.3c-4.6-2.4-19.7-29.4-11.8-49.1
		c1-3.9,8.3-8.8,14.5-5.5c0,0,0,0,0,0c0.6,0.3,1.1,0.7,1.6,1.1c4.9-3.4,13.6-3.4,18.6,0.5c5.1-4.7,14.8,0,15.5,3.9
		C355.5,396.9,340.4,423.9,335.8,426.3z"/>
</g>
<g id="XMLID_1253_">
	<path id="XMLID_271_" class="st7" d="M284.1,352.4c-0.3,0.7-1.6,3.2-1.9,4c-2.7,8.8-3.1,12.4-7.6,20.4c-3.3,6-3,5.7-13.6,19.7
		c-11.6,18.1,10.5,26.5,10.5,26.5c11.7,3.7,21.6-4.4,21.6-4.4s11-6.7,16.2-21.9c4.6-13.5,1.7-31.8,0-42.3
		C295.8,333.6,287.2,352.2,284.1,352.4z"/>
	<path id="XMLID_1188_" class="st5" d="M281.3,352.6c0,0,1.4-8.3,6.9-11.6c4.6-2.7,6.2-5.9,6.8-7.9c0.3-1.1,1.3-1.8,2.4-1.8l0,0
		c1.3,0,2.5,1,2.7,2.3c0.3,1.9,1.5,4.8,5.8,7.6c7.4,4.8,5.3,13.7,5.3,13.7s-7.7-0.9-9.2-7c0,0,1.7,4.9-6.1,11.2
		c-5.1-4.9-4.4-11.1-4.4-11.1S288.5,352.8,281.3,352.6z"/>
</g>
<g id="XMLID_122_">
	<path id="XMLID_210_" class="st4" d="M401.3,343.2c-2.9,3.3-6.2,3.1-9.5,3c-1.4,0-2.8-0.1-4.2,0.1c0.3,0.4,0.6,0.9,1,1.4
		c1.2,1.7,2.6,3.5,2.3,5.2c-0.3,1.4-2.3,2.6-3.6,3.3c-0.2,0.1-0.3,0.2-0.4,0.2c-2.5,1.5-4.9,2.1-8.4,2.3c-0.8,0-1.6-0.1-2.4-0.1
		c-0.5,0-0.9-0.1-1.4-0.1c0.9,1.6,1.8,3.3,2,4.9c0.4,2.3-0.4,4.1-2.4,5.7c-3.4,2.6-5.7,3.2-7.3,3.2c0,0.3,0.1,0.8,0.2,1.2
		c0.2,1.3,0.5,2.7-0.1,3.7c-0.5,0.9-1.4,1.3-2.2,1.6c-0.4,0.2-0.8,0.3-1.1,0.5c-0.8,0.5-0.8,0.5-0.8,0.9c0,0.3-0.1,0.6-0.2,1.1
		c-0.1,0.4-0.4,0.9-0.6,1.3c-0.1,0.2-0.2,0.5-0.3,0.6c0,0.1-0.2,0.3-0.6,0.6l0,0c0,0-0.1,0.1-0.2,0.2c0,0,0,0-0.1,0.1
		c-0.1,0-0.1,0.1-0.2,0.2c-0.1,0.1-0.2,0.2-0.2,0.2c-0.1,0.1-0.2,0.1-0.2,0.2s-0.2,0.2-0.3,0.2c-0.3,0.3-0.5,0.5-0.7,0.6
		c-0.1,0.1-0.1,0.1-0.2,0.1c0,0,0,0,0,0c-1,4.7-1.7,8.2-1.9,9.6l-0.1,0c-0.2,0-0.4,0-0.7-0.1l-1-0.1c-0.5,0-1-0.1-1.4-0.1
		c-0.2,0-0.4,0-0.5,0l-0.6,0c-0.5-2.9-1.6-8.4-3.3-15.1c0,0,0,0,0,0c-0.3,0-2.5-0.7-4.4-2.7c-1.1-1.2-2.2-2.6-2.7-3.5
		c-0.2-0.4-0.5-1-0.5-1.5c-0.6-0.5-1.5-0.7-2.4-0.8c-1.6-0.2-3.5-0.5-4.1-3c-0.6-2.2-0.3-4.7,0.8-6.6c-1.8-0.1-3.9-0.8-6-1.9
		c-2.6-1.4-4.5-3.3-5.1-5c-0.6-1.6-0.5-3.2,0.2-4.6c0.3-0.6,0.8-1.2,1.3-1.6c-1.5-0.3-2.8-1-3.8-2.1c-1.3-1.4-2.1-3.3-3-5.4
		c-0.7-1.7-0.9-4.3,0.3-6.1c0.5-0.8,1.4-1.4,2.3-1.6c-0.3-0.5-0.6-0.9-1-1.5c-1.4-1.9-3.3-4.5-0.9-6.8c2.2-2.2,5.3-0.3,7.6,1
		c0.2,0.2,0.5,0.3,0.7,0.4v-0.1c0-2.2,0-4.5,2.7-5.8c1.7-0.8,3.2-0.4,4.8,0.2c5.3,1.9,5.4,5.8,5.5,9.8c0,0.4,0,0.8,0,1.2h0.1
		c0.7-0.1,1.6-0.1,2.2,0.4c1.1,0.8,1.9,4,2,4.6c0.5,2.4-0.2,3.6-1,5.1c-0.1,0.1-0.1,0.2-0.2,0.3c0.8,0.3,1.7,1,2.3,1.8
		c0-0.2,0-0.4,0-0.6c0-0.8,0.1-1.9,0.6-2.5c0,0-0.1-0.1-0.1-0.2c-1-2.1-2.6-5.5-0.6-7.7c-1.4-1.2-3.3-3.5-3.6-5.8
		c-0.1-0.9,0.1-1.8,0.5-2.5c-1.3-1.2-3.8-3.6-5.2-6c-1.1-1.9-0.6-2.8-0.1-3.9c0.2-0.4,0.4-0.8,0.6-1.3l0-0.1
		c-2.9-2.6-4.5-8-2.2-11.3c0.7-0.9,0.9-1.1,1.5-1.3c0.2-0.1,0.4-0.1,0.7-0.3c0.4-0.2,0.7-0.3,0.9-0.3c0-0.2,0.1-0.5,0.2-1.1
		c0.5-2.1,1.6-3.7,3.1-4.4c1.5-0.8,3.4-0.8,5.5,0c4.3,1.6,6.9,5.8,7.1,11.2c0.7,0.1,1.3,0,1.8,0c1.2-0.1,2.4-0.2,4.1,1.1
		c2.1,1.7,2.4,4.3,2.7,6.7l0.1,0.4c0.4,3.1,0.3,5.5-1.4,8.2l-0.2,0.3c-0.4,0.5-0.7,1.1-1,1.6c1-0.1,1.9,0.2,2.9,0.8
		c1.9,1.3,3.5,4,3.6,6.3c0.1,2.3-1.2,3.9-2.4,5.4c-0.2,0.3-0.5,0.6-0.7,0.8c-0.2,0.3-0.4,0.5-0.6,0.8c-1,1.4-2,2.7-3.6,3.6
		c1.9,1.4,3.7,4.5,3.2,7c-0.1,0.7-0.5,1.4-0.9,2c-0.7,1-1.6,1.9-2.5,2.6c0.5-0.1,1-0.1,1.6,0.1c0.1-1,0.3-2,0.9-2.7
		c0.3-0.4,0.8-0.8,1.5-1c0-0.9-0.2-1.9-0.5-2.9c-0.4-2-0.9-4,0.1-5.4c0.5-0.8,1.5-1.2,2.8-1.5c0-3.5,1-5,4.1-5.9c0-0.7,0-1.5,0-2.2
		c-0.1-2.7-0.2-5.4,1.6-7.9c1.2-1.6,3.3-3.3,5.3-3.2c0.7,0.1,1.5,0.3,2.2,1.2c1.1-2.7,3.9-5.7,5.8-7.2c2.4-1.8,5.3-2.4,8.1-1.6
		c1.5,0.4,3.4,1.8,4.9,3.5c1,1.2,2.7,3.4,2.5,5.7c-0.2,1.7-1.4,2.6-2.5,3.4c-0.3,0.2-0.6,0.5-0.9,0.7c2.5,0.9,4.2,2.6,5.1,5.2
		C404.8,335.8,403.8,340.2,401.3,343.2z"/>
	<path id="XMLID_484_" class="st8" d="M372.4,408.1c0,10.4-8.5,18.9-18.9,19.1c-3,2-2.3,7.5-2.3,7.5c2.6,10.4-3.1,11.3-1.5,9.8
		c1.7-1.5,1.9-6.3-1.1-9.7c-1.9-2.1-1-5.9-0.1-8.3c-8.3-2.1-14.4-9.6-14.4-18.5c0-10,7.7-18.2,17.6-19l-0.1-0.7c0,0,2,0.6,3.3,0.7
		c1.6,0.1,3.7-0.6,3.7-0.6l-0.3,1.2C366.4,391.9,372.4,399.3,372.4,408.1z"/>
</g>
<g id="XMLID_68_">
	<path id="XMLID_971_" class="st5" d="M428.2,341.8c-0.2,0.7-0.2,1.5-0.2,2.3c0,2.6-0.2,5.1-1,7.6c-0.3,0.7-0.2,1.6-0.2,2.4
		c0,0.5,0.1,0.9,0.1,1.4c0.5,3.2-0.2,6.2-2.3,8.7c-0.7,0.8-1.1,1.8-1.8,2.8c-2.2-0.6-4.9,0-4.9,0c0.3-1.5,0.7-3.1,1-4.6
		c0.4-2-0.3-3.6-2-4.7c-0.9-0.6-1.8-1.3-2.8-1.9c-2-1.3-3.2-3.2-3.7-5.6c-0.2-1.1-0.5-2.2-0.7-3.3c-0.3-1.4-1-2.5-2.3-3.2
		c-0.9-0.5-1.8-1.1-2.6-1.7c-3.1-2.3-3.8-4.6-2.6-8.3c0.3-0.9,0.7-1.8,1-2.6c0.6-1.6,0.7-3.2,0.2-4.8c-0.3-1-0.5-2-0.8-3.1
		c-0.8-2.6-0.2-5,1.4-7.1c1.3-1.7,2.8-3.4,4.3-4.9c0.6-0.6,1.6-1,2.4-1.5h2.1c0.2,0.1,0.4,0.3,0.6,0.4c2.1,0.9,3.5,2.4,4.5,4.5
		c1.7,4,3.5,7.9,5.2,11.9c0.4,0.9,0.9,1.8,1.5,2.6c0.3,0.5,0.7,1.1,1.2,1.5C428.8,333.9,429.5,337.6,428.2,341.8z"/>
	<path id="XMLID_73_" class="st7" d="M435.6,379c0,8.9-7.2,16.2-16.2,16.3c-2.6,1.7-2,6.4-2,6.4c2.2,8.9-2.7,9.7-1.3,8.4
		c1.4-1.3,1.6-5.4-1-8.2c-1.6-1.8-0.8-5-0.1-7.1c-7.1-1.8-12.3-8.2-12.3-15.7c0-8.8,7-16,15.8-16.2l0.5,0c0.1,0,0.3,0,0.5,0l1.2,0.1
		l0.8,0.1l0.6,0l0.1,0C429.9,364.5,435.6,371,435.6,379z"/>
</g>
<g id="XMLID_1311_">
	<path id="XMLID_7776_" class="st9" d="M538.3,303.9c-6.5,2.9-12.5,5.8-18.6,8.5c-14.3,6.3-27.6,14.3-39.7,24.3
		c-4.2,3.5-8,7.4-12.5,10.5c-5.8,4.1-9.9,9.6-13.7,15.2c1.6-3.5,7.7-31.1,6.8-31.5c-1-0.3-5.9,1-5.9,1c0.9-2.5,1.6-5,2.5-7.5
		c6.4-18.2,12.7-36.5,19.2-55.3c6.4,2.2,12.3,4.3,18.6,6.5c-3.8,9.1-7.5,18.1-11.2,27c0.1,0.1,0.2,0.2,0.4,0.3
		c2.4-2.6,4.8-5.1,7.1-7.8c5.4-6.4,10.8-12.8,16.1-19.2c2-2.4,3.8-3.2,6.6-0.9c3.3,2.7,6.9,5.1,11,8c-6.3,6.6-12.3,13.1-18.4,19.6
		c0.2,0.2,0.4,0.5,0.6,0.7c4.9-3.2,9.9-6.4,14.8-9.7c4.8-3.2,4.8-3.2,8.5,1C533,297.4,535.4,300.4,538.3,303.9z"/>
	<path id="XMLID_7778_" class="st10" d="M453.8,362.4c0,0.1-0.1,0.1-0.1,0.2c-2.2,3.3-4.4,6.5-6.8,9.6c-11.3,14.6-22.2,29.5-33,44.5
		c-2.9,4-5.1,8.7-7.6,13c-0.4,0.6-0.8,1.3-1.2,1.9c-1.1,1.3-14.4,5-16.1,4.5c-1.2-0.4-2.8-0.5-2.9-2.1c-0.1-0.7,0.1-1.5-0.1-2.2
		c-0.3-1-1.4-1.6-2.2-2.3c-0.1-0.1-0.2-0.2-0.3-0.4c-0.1-0.3,0.1-0.5,0.2-0.8c1-1.6,1.5-3.5,1.5-5.4c0-1.6-0.3-3.6,0.6-5.1
		c0.6-1.2,1.2-2.7,2.3-3.4c7.6-4.8,12.6-12,18-18.7c14.9-18.2,29.8-36.4,44.1-55.1c1.9-2.5,3.3-5.6,4.4-8.8c0,0,6.7-1.4,7.6-1
		C463.2,331.2,455.4,358.9,453.8,362.4z"/>
	<path id="XMLID_7735_" d="M453.8,362.4c0,0.1-0.1,0.2-0.1,0.2l0,0C453.7,362.5,453.8,362.4,453.8,362.4z"/>
</g>
<g id="XMLID_32_">
	<path id="XMLID_99_" class="st9" d="M374.4,290.8c-2.2-0.6-7.1,0.3-7.1,0.3c0.2-3,0.1-6,0.5-8.8c0.4-2.9,2.1-5.2,5.2-5.7
		c1.1-0.2,2.4,0.3,3.3,0.8c0.3,0.1-0.1,1.9-0.6,2.7c-1.9,2.9-3.2,5.8-2.2,9.4C373.7,289.8,374,290.4,374.4,290.8z"/>
	<path id="XMLID_91_" class="st11" d="M409.2,414.4c-5.9,0.5-11.8,0.1-16.9-3.1c-2.7-1.7-5.2-4.2-7.1-6.8
		c-4.7-6.2-7.9-13.2-10.7-20.4c-5.8-15.2-10.2-30.8-13-46.8c-1.7-9.5-2.9-19.1-4.3-28.6c-0.8-5.7,2.1-14.2,9.4-17.2
		c0.3-0.1,0.5-0.3,0.7-0.4c0,0,4.9-0.8,7.1-0.3c0.1,0.1,0.2,0.1,0.3,0.2c7.7,3.1,11.3,9.1,12.4,17c1.5,11,4.8,21.5,8.6,31.9
		c2.9,7.9,6.4,15.6,9.7,23.3c2.5,5.8,6.8,10.3,10.9,14.8c3.5,3.9,6.3,8.1,7.8,13.3C426.8,400.6,421.2,413.4,409.2,414.4z"/>
	<path id="XMLID_89_" class="st12" d="M374.4,290.8C374.4,290.8,374.4,290.8,374.4,290.8"/>
</g>
<g id="XMLID_4_">
	<path id="XMLID_6_" class="st4" d="M402.8,289.2c-1,4.3-1.8,8.6-3.2,12.7c-2.6,7.5-5.5,14.9-8.3,22.3c-2.5,6.5-4.7,13.1-5.6,20.1
		c-0.1,0.9-0.4,1.7-0.6,2.5l3.9-3.2c0.1,0.1,0.3,0.2,0.4,0.3c-0.9,2.9-1.9,5.7-2.7,8.7c-0.8,3.2-1.3,6.4-1.9,9.7
		c-0.3,2,0.1,3.7,1,5.1c-6.3,8.3-11.5,1.7-12.1,2.3c4-5.4,2.6-11.1-0.4-17.1c-1.7-3.4-3.4-6.8-5.3-10.6c5.8,1.9,8.7,7.5,7.8,5.6
		c-0.7-1.4-1.6-2.9-1.7-4.5c-0.2-3.9,0.3-7.9,0-11.9c-0.2-2.8-0.8-5.8-1.8-8.5c-2.7-7-5.7-14-8.3-20.5c0.9,0.8,2.4,1.9,3.7,3.3
		c1.3,1.4,2.5,2.8,3.5,4.4c1.1,1.6,2,3.3,3.2,4.9c0.3-7.7-2.7-14.6-5.2-21.8c0.4,0.3,0.9,0.5,1.3,0.9c6.2,5.5,9.1,12.6,9.5,20.7
		c0.2,4.8-0.2,9.7-0.1,14.5c0,1.7,0.7,3.3,1.2,5.6c3.5-8.2,6.5-15.9,10-23.5c3.5-7.5,5.6-15.8,10.9-22.4
		C402.3,289.1,402.6,289.2,402.8,289.2z"/>
	<path id="XMLID_5_" class="st13" d="M403.4,384.5c6.4,8.8,8.3,18.2,3.3,28.3c-2.3,4.8-6.1,8.3-10.6,11c-1.8,1.1-3.8,1.7-5.7,2.7
		c-0.9,0.5-1.6,1.2-2.4,1.9c-0.1-0.1-0.3-0.6-0.6-1.1c-0.1,0-0.3,0.1-0.4,0.1c0,0.7,0.1,1.3,0.1,2c-0.2-0.1-0.3-0.2-0.5-0.2
		c-0.2,0.4-0.4,0.8-0.7,1.4c-0.8-0.8-1.6-1.6-2.6-2.7c-0.3,1.2-0.7,2.3-1,3.3c-0.2,0-0.4,0-0.6,0.1c-0.1-0.8-0.3-1.7-0.4-2.8
		c-0.7,1.1-1.2,2-1.8,3c-0.4-0.9-0.7-1.6-0.9-2c-1,0.1-1.8,0.1-2.6,0.2c0.1-0.4,0.2-0.8,0.3-1.4c-0.4,0.2-0.8,0.4-1.3,0.7
		c0.2-0.5,0.3-0.8,0.6-1.5c-0.7,0.5-1.4,1-2.1,1.5c0.2-0.4,0.3-0.8,0.6-1.2c-1.5-0.9-3.2-1.5-4.8-2.3c-1.5-0.7-3-1.5-4.4-2.4
		c-8.4-5.7-12.6-13.7-11.5-24c0.5-5.4,3.4-9.9,6.8-14c3.7-4.4,7.3-9,11.5-12.9c0.8-0.7,1.5-1.5,2-2.3l0.1,0c0.2-0.2,1.2-1.1,2.5-1.9
		c1.1-0.7,2.2,1.6,3.9,1.3c0.9-0.1,2.3-3,3.3-2.7c0.8,0.2,1.6,0.5,2.5,1c0.7,1.1,1.7,2.1,2.8,2.9
		C394.2,374.4,399.3,378.9,403.4,384.5z"/>
</g>
<g id="XMLID_646_">
	<g id="XMLID_77_">
		<g id="XMLID_83_" transform="translate(0,-952.36216)">
			<path id="XMLID_84_" class="st4" d="M449.1,1268.9c-0.6,10.5-4.7,28.4-11.6,48.2c-6.5,18.8-13.8,34.8-19.7,43.7l0,0
				c-6.3,11-15,17.4-21.9,15c-8.8-3-11.2-19.1-5.4-36l0.7-2.1c4.2-8.5,8.8-19.7,13.1-32.1c4.3-12.4,7.5-24.1,9.5-33.4l0.6-1.6
				c3.4-9.9,9.2-23,14.5-22l4.1,1.7l0,0l2.4,0.5l1.4,0.5l3.8,0.6l1.6,1l1.6,2.2l3.4-2.7C450.8,1252.1,449.8,1262.4,449.1,1268.9z"/>
		</g>
		<g id="XMLID_79_">
			<path id="XMLID_81_" class="st14" d="M448.8,288.9l-1.1,4.3l-0.3,6.9l-3.4,2.7l-1.7,2.1l-1.4-1.8l-0.1,0l-6.3-1.6l-1-0.1
				l-0.4-3.3l0,0l0,0l-4.1-1.7c2.7-3.8,4.5-7,6.7-11.2l2.1-0.2l2.1-2.5l2.5,2.5l1.6,0.6l1.4,0.3L448.8,288.9z"/>
		</g>
	</g>
</g>
<path id="XMLID_1_" class="st15" d="M413.1,475.8H236.7l-47.3-112.9c146.2,79.5,263.1,0,263.1,0L413.1,475.8z"/>
<g id="XMLID_11_">
	<g id="XMLID_70_">
		<g id="XMLID_74_">
			<path id="XMLID_75_" class="st16" d="M150.6,411.4c0,0,28.2-3.3,37.1-1.7c8.9,1.6,34.8,4.1,39.4,4.5s37.4,10.9,37.4,10.9l8.8,3.6
				l-23.2,52.9l-124.5-27.9L150.6,411.4z"/>
		</g>
		<g id="XMLID_71_">
			<linearGradient id="XMLID_8_" gradientUnits="userSpaceOnUse" x1="105.8951" y1="451.3164" x2="306.2287" y2="451.3164">
				<stop  offset="0" style="stop-color:#C18B63"/>
				<stop  offset="1" style="stop-color:#B98D6C"/>
			</linearGradient>
			<path id="XMLID_72_" class="st17" d="M150.6,411.4c-5.3,10.4-8,20.7-4.4,32c0.1-0.4,0.2-0.7,0.3-1.1c2.1-9.6,5.4-18.7,11.3-26.8
				c2.7-3.7,5.7-6.3,10.8-6c6,0.3,12,0,18.1,0c0.3,0,0.5,0.1,1,0.2c-0.4,0.6-0.7,1.2-1,1.6c-5.7,8.1-10.3,16.7-12.1,26.6
				c-1.2,6.5-1,12.9,1.4,19.2c0.2,0.5,0.5,1,1.1,1.4c0.2-1.1,0.4-2.1,0.5-3.2c2.9-16.7,10.3-31.1,22.1-43.1c1.2-1.2,2.3-1.8,4.1-1.5
				c7.1,1.1,14.2,2,21.3,3c0.6,0.1,1.1,0.3,1.9,0.5c-13.1,15-20.3,31.7-17.1,51.7c0.2,0.1,0.4,0.1,0.5,0.2c0.2-0.5,0.3-1,0.5-1.5
				c3.9-13.9,9.6-27.1,18.4-38.7c2.1-2.7,4.5-5.2,6.7-7.8c1.1-1.2,2.2-1.7,3.9-1.1c7.6,2.5,15.2,4.9,22.7,7.4c0.5,0.2,1,0.5,1.7,0.8
				c-9.7,11.4-15,24.6-17,39.2c0.2-0.4,0.4-0.7,0.6-1.1c5.9-12.1,13-23.3,22.8-32.7c2.2-2.1,1.6-1.8,4-0.6
				c10.5,5.6,19.8,12.7,26.5,22.8c2.6,3.9,4.6,8,4.9,12.7c0.5,7.5-3.2,12.8-9,16.9c-6.4,4.6-13.6,6.9-21.2,8.5
				c-10.1,2.2-20.3,2.4-30.6,2.3c-27-0.1-53.7-2.5-80-8.3c-12.9-2.9-25.4-6.7-37.1-13c-7.2-3.9-13.8-8.7-18.3-15.8
				c-4.1-6.6-5.7-13.6-2.5-21c2.1-5,5.8-8.8,10.2-11.8c8.4-5.9,17.9-8.8,27.8-10.9C147.1,412,148.7,411.7,150.6,411.4z"/>
		</g>
	</g>
</g>
</svg>
