<?xml version="1.0" encoding="UTF-8" standalone="no"?>
<svg width="434px" height="258px" viewBox="0 0 434 258" version="1.1" xmlns="http://www.w3.org/2000/svg" xmlns:xlink="http://www.w3.org/1999/xlink" xmlns:sketch="http://www.bohemiancoding.com/sketch/ns">
    <!-- Generator: Sketch 3.3.3 (12081) - http://www.bohemiancoding.com/sketch -->
    <title>Untitled 2</title>
    <desc>Created with Sketch.</desc>
    <defs>
        <linearGradient x1="0.0960392606%" y1="49.9619138%" x2="100.04171%" y2="49.9619138%" id="linearGradient-1">
            <stop stop-color="#C18B63" offset="0%"></stop>
            <stop stop-color="#B98D6C" offset="100%"></stop>
        </linearGradient>
    </defs>
    <g id="Page-1" stroke="none" stroke-width="1" fill="none" fill-rule="evenodd" sketch:type="MSPage">
        <g id="panier" sketch:type="MSLayerGroup" transform="translate(0.000000, 5.000000)">
            <path d="M148.8,123.2 C157.8,116.4 172.2,116.4 182.4,112.2 C195.4,106.8 202.7,91.2 218.4,98.7 C245,111.3 227.4,142.3 213.5,156.6 C203.5,166.9 181.4,171.5 167.3,171.2 C151.2,170.8 140.7,162.8 139.6,146.5 C138.8,134.8 142.6,127.9 148.8,123.2 L148.8,123.2 Z" id="XMLID_7_" fill="#D2AB80" sketch:type="MSShapeGroup"></path>
            <circle id="XMLID_2_" stroke="#EDBA80" stroke-width="9" sketch:type="MSShapeGroup" cx="215.9" cy="112.2" r="111.8"></circle>
            <g id="XMLID_7769_" transform="translate(50.000000, 31.000000)" sketch:type="MSShapeGroup">
                <path d="M39.1,61.4 C38.9,61.1 38.3,59.9 38.1,59.6 C32.6,53.6 24.9,53.8 19.2,48.6 C18.2,46.9 18.6,45.7 20.5,45 C16.1,40.9 10.5,40.1 7.4,32.2 C7.9,30.6 10.6,29.7 12.7,28.7 C8.3,24.9 -1.8,16.3 1.4,9 C8.9,8.4 13.9,14.7 18.6,21.9 C20.1,20.7 19,18.7 21.5,19.5 C21.5,13.6 15.4,5.5 18.6,0.8 C24,-1.6 26.4,4.4 28.9,9.9 C30,11.3 31.5,5.3 34.6,7.2 C37.8,10.9 37.5,17.8 36.7,22.2 C46.8,19.1 41,36.6 48.2,35.8 C50.9,44.5 40.5,48.5 42.1,56.7 C42.7,57.3 42.7,58.4 43.3,58.5 L39.1,61.4 L39.1,61.4 Z" id="XMLID_7786_" fill="#96BF54"></path>
                <path d="M44.3,57.6 C47.4,58.4 51.3,55.7 55.8,57.2 C57.2,57.7 58.3,59.7 59.8,60.6 L70.2,85.4 C77.7,106.4 84.7,127.3 82.3,144.8 C66.9,137 55.9,117 43.9,99.8 L28.1,78 C28.1,76.3 30.7,64.3 39.1,59.9 L44.3,57.6 L44.3,57.6 Z" id="XMLID_7783_" fill="#F19255"></path>
            </g>
            <g id="XMLID_274_" transform="translate(100.000000, 60.000000)" sketch:type="MSShapeGroup">
                <g id="XMLID_2834_">
                    <g id="XMLID_2835_">
                        <path d="M67,59.3 C65,58.7 63,57.3 61.8,56.4 C61.8,56.6 61.8,56.9 61.7,57 C61.4,57.7 61.1,58.4 60.8,59.2 C58.9,63.8 57.1,68.4 55.2,72.9 C55.2,73 55,73 54.8,73.2 C55.1,68.4 55.5,63.7 55.8,59.1 C55.8,58.6 55.9,58.2 55.9,57.7 C55.9,57.3 56.4,56.8 56.8,56.6 L47.7,57.6 C47.7,58 47.6,58.5 47.6,58.9 C47.3,63.3 47,67.8 46.6,72.5 C45,67.8 43.5,63.3 42,58.7 C41.7,57.9 41.5,57.1 41.2,56.3 C41.2,56.3 41.2,56.3 39.6,54.3 C33.5,57.9 30.8,57.1 27.3,58.3 L27.7,58.3 L27.7,58.3 C28.3,58.4 28.6,58.8 28.9,59.5 C29.5,61.1 30.3,62.6 31,64.2 C34,71.3 36,78.7 35.4,86.6 C35.1,90.6 34.7,94.6 34.3,98.6 C34.1,100.9 35.1,102.6 37.3,102.6 C43.7,102.7 50.2,102.7 56.6,102.6 C58.6,102.6 59.8,101.1 59.7,99 C59.7,98.2 59.6,97.3 59.5,96.5 C58.7,88.4 58.4,80.4 61.6,72.7 C63.5,68.2 65.2,63.7 67,59.3 L67,59.3 Z" id="XMLID_7619_" fill="#96BF54"></path>
                        <path d="M88.2,56.9 C81.7,61.5 74.8,62.1 67,59.3 C65,58.7 63,57.3 61.8,56.4 C61.8,56.2 61.7,56 61.7,55.9 C61.4,55.8 61.1,55.6 60.8,55.5 C60.6,55.4 60.3,55.4 60.1,55.5 C59,55.7 57.9,56.1 56.9,56.5 L47.8,57.5 L44.5,56.9 L43,56.6 L41.3,56.3 C41.3,56.3 41.3,56.3 39.7,54.3 C33.6,57.9 30.9,57.1 27.4,58.3 C27.2,58.3 27.1,58.3 26.9,58.4 C17,60.5 7.8,56.2 3,47.3 C-1.7,38.7 0.7,27 8.3,20.9 C13.3,16.9 17.3,15.7 24.6,15.9 C26.7,12.3 29.3,9 32.6,6.4 C42.1,-1.1 55.9,-1.5 66,5.4 C70.4,8.4 73.6,12.3 75.9,17 C76.3,17.9 76.8,18.3 77.9,18.4 C86,19.3 92,23.5 95.3,30.8 C99.8,40.9 95.9,51.4 88.2,56.9 L88.2,56.9 Z" id="XMLID_2869_" fill="#6B9A4C"></path>
                    </g>
                </g>
            </g>
            <g id="XMLID_1251_" transform="translate(190.000000, 107.000000)" sketch:type="MSShapeGroup">
                <path d="M39.9,24.2 C39,24.4 37.6,26.5 36.7,26.9 C33,22.3 24.6,20.7 18.6,24.6 C18.1,24.2 17.5,23.8 17,23.5 C22.3,21.6 23.9,19.4 24.9,12.2 C25.9,5.1 30.3,-1.4 37.6,1 C40.8,2.8 37.8,8 34.2,6.2 C30.6,4.4 30.3,9.4 30.4,12.3 C30.4,20.6 32.7,21.7 39.9,24.2 L39.9,24.2 Z" id="XMLID_1307_" fill="#6B9A4C"></path>
                <path d="M40.8,78.3 C38.4,79.5 35.1,78.8 32.3,77.6 C32.1,77.9 31.9,78.3 31.8,78.5 C29.5,81.4 25.7,80 23.7,78.9 L23.7,78.9 C23.4,78.7 23.1,78.6 22.9,78.4 C22.6,78.2 22.3,78.1 22.2,78 C20.1,79.8 18.5,80.5 14.2,78.3 C9.6,75.9 -5.5,48.9 2.4,29.2 C3.4,25.3 10.7,20.4 16.9,23.7 L16.9,23.7 C17.5,24 18,24.4 18.5,24.8 C23.4,21.4 32.1,21.4 37.1,25.3 C42.2,20.6 51.9,25.3 52.6,29.2 C60.5,48.9 45.4,75.9 40.8,78.3 L40.8,78.3 Z" id="XMLID_1310_" fill="#EC6635"></path>
            </g>
            <g id="XMLID_1253_" transform="translate(152.000000, 90.000000)" sketch:type="MSShapeGroup">
                <path d="M27.1,21.4 C26.8,22.1 25.5,24.6 25.2,25.4 C22.5,34.2 22.1,37.8 17.6,45.8 C14.3,51.8 14.6,51.5 4,65.5 C-7.6,83.6 14.5,92 14.5,92 C26.2,95.7 36.1,87.6 36.1,87.6 C36.1,87.6 47.1,80.9 52.3,65.7 C56.9,52.2 54,33.9 52.3,23.4 C38.8,2.6 30.2,21.2 27.1,21.4 L27.1,21.4 Z" id="XMLID_271_" fill="#5F4A62"></path>
                <path d="M24.3,21.6 C24.3,21.6 25.7,13.3 31.2,10 C35.8,7.3 37.4,4.1 38,2.1 C38.3,1 39.3,0.3 40.4,0.3 L40.4,0.3 C41.7,0.3 42.9,1.3 43.1,2.6 C43.4,4.5 44.6,7.4 48.9,10.2 C56.3,15 54.2,23.9 54.2,23.9 C54.2,23.9 46.5,23 45,16.9 C45,16.9 46.7,21.8 38.9,28.1 C33.8,23.2 34.5,17 34.5,17 C34.5,17 31.5,21.8 24.3,21.6 L24.3,21.6 Z" id="XMLID_1188_" fill="#6B9A4C"></path>
            </g>
            <g id="XMLID_122_" transform="translate(214.000000, 53.000000)" sketch:type="MSShapeGroup">
                <path d="M82.3,49.2 C79.4,52.5 76.1,52.3 72.8,52.2 C71.4,52.2 70,52.1 68.6,52.3 C68.9,52.7 69.2,53.2 69.6,53.7 C70.8,55.4 72.2,57.2 71.9,58.9 C71.6,60.3 69.6,61.5 68.3,62.2 C68.1,62.3 68,62.4 67.9,62.4 C65.4,63.9 63,64.5 59.5,64.7 C58.7,64.7 57.9,64.6 57.1,64.6 C56.6,64.6 56.2,64.5 55.7,64.5 C56.6,66.1 57.5,67.8 57.7,69.4 C58.1,71.7 57.3,73.5 55.3,75.1 C51.9,77.7 49.6,78.3 48,78.3 C48,78.6 48.1,79.1 48.2,79.5 C48.4,80.8 48.7,82.2 48.1,83.2 C47.6,84.1 46.7,84.5 45.9,84.8 C45.5,85 45.1,85.1 44.8,85.3 C44,85.8 44,85.8 44,86.2 C44,86.5 43.9,86.8 43.8,87.3 C43.7,87.7 43.4,88.2 43.2,88.6 C43.1,88.8 43,89.1 42.9,89.2 C42.9,89.3 42.7,89.5 42.3,89.8 L42.3,89.8 L42.1,90 C42.1,90 42.1,90 42,90.1 C41.9,90.1 41.9,90.2 41.8,90.3 L41.6,90.5 C41.5,90.6 41.4,90.6 41.4,90.7 C41.4,90.8 41.2,90.9 41.1,90.9 C40.8,91.2 40.6,91.4 40.4,91.5 C40.3,91.6 40.3,91.6 40.2,91.6 L40.2,91.6 C39.2,96.3 38.5,99.8 38.3,101.2 L38.2,101.2 C38,101.2 37.8,101.2 37.5,101.1 L36.5,101 C36,101 35.5,100.9 35.1,100.9 L34.6,100.9 L34,100.9 C33.5,98 32.4,92.5 30.7,85.8 L30.7,85.8 C30.4,85.8 28.2,85.1 26.3,83.1 C25.2,81.9 24.1,80.5 23.6,79.6 C23.4,79.2 23.1,78.6 23.1,78.1 C22.5,77.6 21.6,77.4 20.7,77.3 C19.1,77.1 17.2,76.8 16.6,74.3 C16,72.1 16.3,69.6 17.4,67.7 C15.6,67.6 13.5,66.9 11.4,65.8 C8.8,64.4 6.9,62.5 6.3,60.8 C5.7,59.2 5.8,57.6 6.5,56.2 C6.8,55.6 7.3,55 7.8,54.6 C6.3,54.3 5,53.6 4,52.5 C2.7,51.1 1.9,49.2 1,47.1 C0.3,45.4 0.1,42.8 1.3,41 C1.8,40.2 2.7,39.6 3.6,39.4 C3.3,38.9 3,38.5 2.6,37.9 C1.2,36 -0.7,33.4 1.7,31.1 C3.9,28.9 7,30.8 9.3,32.1 C9.5,32.3 9.8,32.4 10,32.5 L10,32.4 C10,30.2 10,27.9 12.7,26.6 C14.4,25.8 15.9,26.2 17.5,26.8 C22.8,28.7 22.9,32.6 23,36.6 L23,37.8 L23.1,37.8 C23.8,37.7 24.7,37.7 25.3,38.2 C26.4,39 27.2,42.2 27.3,42.8 C27.8,45.2 27.1,46.4 26.3,47.9 C26.2,48 26.2,48.1 26.1,48.2 C26.9,48.5 27.8,49.2 28.4,50 L28.4,49.4 C28.4,48.6 28.5,47.5 29,46.9 C29,46.9 28.9,46.8 28.9,46.7 C27.9,44.6 26.3,41.2 28.3,39 C26.9,37.8 25,35.5 24.7,33.2 C24.6,32.3 24.8,31.4 25.2,30.7 C23.9,29.5 21.4,27.1 20,24.7 C18.9,22.8 19.4,21.9 19.9,20.8 C20.1,20.4 20.3,20 20.5,19.5 L20.5,19.4 C17.6,16.8 16,11.4 18.3,8.1 C19,7.2 19.2,7 19.8,6.8 C20,6.7 20.2,6.7 20.5,6.5 C20.9,6.3 21.2,6.2 21.4,6.2 C21.4,6 21.5,5.7 21.6,5.1 C22.1,3 23.2,1.4 24.7,0.7 C26.2,-0.1 28.1,-0.1 30.2,0.7 C34.5,2.3 37.1,6.5 37.3,11.9 C38,12 38.6,11.9 39.1,11.9 C40.3,11.8 41.5,11.7 43.2,13 C45.3,14.7 45.6,17.3 45.9,19.7 L46,20.1 C46.4,23.2 46.3,25.6 44.6,28.3 L44.4,28.6 C44,29.1 43.7,29.7 43.4,30.2 C44.4,30.1 45.3,30.4 46.3,31 C48.2,32.3 49.8,35 49.9,37.3 C50,39.6 48.7,41.2 47.5,42.7 C47.3,43 47,43.3 46.8,43.5 C46.6,43.8 46.4,44 46.2,44.3 C45.2,45.7 44.2,47 42.6,47.9 C44.5,49.3 46.3,52.4 45.8,54.9 C45.7,55.6 45.3,56.3 44.9,56.9 C44.2,57.9 43.3,58.8 42.4,59.5 C42.9,59.4 43.4,59.4 44,59.6 C44.1,58.6 44.3,57.6 44.9,56.9 C45.2,56.5 45.7,56.1 46.4,55.9 C46.4,55 46.2,54 45.9,53 C45.5,51 45,49 46,47.6 C46.5,46.8 47.5,46.4 48.8,46.1 C48.8,42.6 49.8,41.1 52.9,40.2 L52.9,38 C52.8,35.3 52.7,32.6 54.5,30.1 C55.7,28.5 57.8,26.8 59.8,26.9 C60.5,27 61.3,27.2 62,28.1 C63.1,25.4 65.9,22.4 67.8,20.9 C70.2,19.1 73.1,18.5 75.9,19.3 C77.4,19.7 79.3,21.1 80.8,22.8 C81.8,24 83.5,26.2 83.3,28.5 C83.1,30.2 81.9,31.1 80.8,31.9 C80.5,32.1 80.2,32.4 79.9,32.6 C82.4,33.5 84.1,35.2 85,37.8 C85.8,41.8 84.8,46.2 82.3,49.2 L82.3,49.2 Z" id="XMLID_210_" fill="#96BF54"></path>
                <path d="M53.4,114.1 C53.4,124.5 44.9,133 34.5,133.2 C31.5,135.2 32.2,140.7 32.2,140.7 C34.8,151.1 29.1,152 30.7,150.5 C32.4,149 32.6,144.2 29.6,140.8 C27.7,138.7 28.6,134.9 29.5,132.5 C21.2,130.4 15.1,122.9 15.1,114 C15.1,104 22.8,95.8 32.7,95 L32.6,94.3 C32.6,94.3 34.6,94.9 35.9,95 C37.5,95.1 39.6,94.4 39.6,94.4 L39.3,95.6 C47.4,97.9 53.4,105.3 53.4,114.1 L53.4,114.1 Z" id="XMLID_484_" fill="#9E5A7A"></path>
            </g>
            <g id="XMLID_68_" transform="translate(296.000000, 68.000000)" sketch:type="MSShapeGroup">
                <path d="M27.2,32.8 C27,33.5 27,34.3 27,35.1 C27,37.7 26.8,40.2 26,42.7 C25.7,43.4 25.8,44.3 25.8,45.1 C25.8,45.6 25.9,46 25.9,46.5 C26.4,49.7 25.7,52.7 23.6,55.2 C22.9,56 22.5,57 21.8,58 C19.6,57.4 16.9,58 16.9,58 C17.2,56.5 17.6,54.9 17.9,53.4 C18.3,51.4 17.6,49.8 15.9,48.7 C15,48.1 14.1,47.4 13.1,46.8 C11.1,45.5 9.9,43.6 9.4,41.2 C9.2,40.1 8.9,39 8.7,37.9 C8.4,36.5 7.7,35.4 6.4,34.7 C5.5,34.2 4.6,33.6 3.8,33 C0.7,30.7 1.02140518e-14,28.4 1.2,24.7 C1.5,23.8 1.9,22.9 2.2,22.1 C2.8,20.5 2.9,18.9 2.4,17.3 C2.1,16.3 1.9,15.3 1.6,14.2 C0.8,11.6 1.4,9.2 3,7.1 C4.3,5.4 5.8,3.7 7.3,2.2 C7.9,1.6 8.9,1.2 9.7,0.7 L11.8,0.7 C12,0.8 12.2,1 12.4,1.1 C14.5,2 15.9,3.5 16.9,5.6 C18.6,9.6 20.4,13.5 22.1,17.5 C22.5,18.4 23,19.3 23.6,20.1 C23.9,20.6 24.3,21.2 24.8,21.6 C27.8,24.9 28.5,28.6 27.2,32.8 L27.2,32.8 Z" id="XMLID_971_" fill="#6B9A4C"></path>
                <path d="M34.6,70 C34.6,78.9 27.4,86.2 18.4,86.3 C15.8,88 16.4,92.7 16.4,92.7 C18.6,101.6 13.7,102.4 15.1,101.1 C16.5,99.8 16.7,95.7 14.1,92.9 C12.5,91.1 13.3,87.9 14,85.8 C6.9,84 1.7,77.6 1.7,70.1 C1.7,61.3 8.7,54.1 17.5,53.9 L18,53.9 L18.5,53.9 L19.7,54 L20.5,54.1 L21.1,54.1 L21.2,54.1 C28.9,55.5 34.6,62 34.6,70 L34.6,70 Z" id="XMLID_73_" fill="#5F4A62"></path>
            </g>
            <g id="XMLID_1311_" transform="translate(278.000000, 28.000000)" sketch:type="MSShapeGroup">
                <path d="M155.3,34.9 C148.8,37.8 142.8,40.7 136.7,43.4 C122.4,49.7 109.1,57.7 97,67.7 C92.8,71.2 89,75.1 84.5,78.2 C78.7,82.3 74.6,87.8 70.8,93.4 C72.4,89.9 78.5,62.3 77.6,61.9 C76.6,61.6 71.7,62.9 71.7,62.9 C72.6,60.4 73.3,57.9 74.2,55.4 C80.6,37.2 86.9,18.9 93.4,0.1 C99.8,2.3 105.7,4.4 112,6.6 C108.2,15.7 104.5,24.7 100.8,33.6 C100.9,33.7 101,33.8 101.2,33.9 C103.6,31.3 106,28.8 108.3,26.1 C113.7,19.7 119.1,13.3 124.4,6.9 C126.4,4.5 128.2,3.7 131,6 C134.3,8.7 137.9,11.1 142,14 C135.7,20.6 129.7,27.1 123.6,33.6 C123.8,33.8 124,34.1 124.2,34.3 C129.1,31.1 134.1,27.9 139,24.6 C143.8,21.4 143.8,21.4 147.5,25.6 C150,28.4 152.4,31.4 155.3,34.9 L155.3,34.9 Z" id="XMLID_7776_" fill="#6D953E"></path>
                <path d="M70.8,93.4 C70.8,93.5 70.7,93.5 70.7,93.6 C68.5,96.9 66.3,100.1 63.9,103.2 C52.6,117.8 41.7,132.7 30.9,147.7 C28,151.7 25.8,156.4 23.3,160.7 C22.9,161.3 22.5,162 22.1,162.6 C21,163.9 7.7,167.6 6,167.1 C4.8,166.7 3.2,166.6 3.1,165 C3,164.3 3.2,163.5 3,162.8 C2.7,161.8 1.6,161.2 0.8,160.5 C0.7,160.4 0.6,160.3 0.5,160.1 C0.4,159.8 0.6,159.6 0.7,159.3 C1.7,157.7 2.2,155.8 2.2,153.9 C2.2,152.3 1.9,150.3 2.8,148.8 C3.4,147.6 4,146.1 5.1,145.4 C12.7,140.6 17.7,133.4 23.1,126.7 C38,108.5 52.9,90.3 67.2,71.6 C69.1,69.1 70.5,66 71.6,62.8 C71.6,62.8 78.3,61.4 79.2,61.8 C80.2,62.2 72.4,89.9 70.8,93.4 L70.8,93.4 Z" id="XMLID_7778_" fill="#BED997"></path>
                <path id="XMLID_7735_" fill="#000000" d="M70.8,93.4 C70.8,93.5 70.7,93.6 70.7,93.6 L70.7,93.6 C70.7,93.5 70.8,93.4 70.8,93.4 L70.8,93.4 Z"></path>
            </g>
            <g id="XMLID_32_" transform="translate(252.000000, 35.000000)" sketch:type="MSShapeGroup">
                <path d="M17.4,14.8 C15.2,14.2 10.3,15.1 10.3,15.1 C10.5,12.1 10.4,9.1 10.8,6.3 C11.2,3.4 12.9,1.1 16,0.6 C17.1,0.4 18.4,0.9 19.3,1.4 C19.6,1.5 19.2,3.3 18.7,4.1 C16.8,7 15.5,9.9 16.5,13.5 C16.7,13.8 17,14.4 17.4,14.8 L17.4,14.8 Z" id="XMLID_99_" fill="#6D953E"></path>
                <path d="M52.2,138.4 C46.3,138.9 40.4,138.5 35.3,135.3 C32.6,133.6 30.1,131.1 28.2,128.5 C23.5,122.3 20.3,115.3 17.5,108.1 C11.7,92.9 7.3,77.3 4.5,61.3 C2.8,51.8 1.6,42.2 0.2,32.7 C-0.6,27 2.3,18.5 9.6,15.5 C9.9,15.4 10.1,15.2 10.3,15.1 C10.3,15.1 15.2,14.3 17.4,14.8 C17.5,14.9 17.6,14.9 17.7,15 C25.4,18.1 29,24.1 30.1,32 C31.6,43 34.9,53.5 38.7,63.9 C41.6,71.8 45.1,79.5 48.4,87.2 C50.9,93 55.2,97.5 59.3,102 C62.8,105.9 65.6,110.1 67.1,115.3 C69.8,124.6 64.2,137.4 52.2,138.4 L52.2,138.4 Z" id="XMLID_91_" fill="#F8BF14"></path>
            </g>
            <g id="XMLID_4_" transform="translate(248.000000, 47.000000)" sketch:type="MSShapeGroup">
                <path d="M49.8,1.2 C48.8,5.5 48,9.8 46.6,13.9 C44,21.4 41.1,28.8 38.3,36.2 C35.8,42.7 33.6,49.3 32.7,56.3 C32.6,57.2 32.3,58 32.1,58.8 L36,55.6 C36.1,55.7 36.3,55.8 36.4,55.9 C35.5,58.8 34.5,61.6 33.7,64.6 C32.9,67.8 32.4,71 31.8,74.3 C31.5,76.3 31.9,78 32.8,79.4 C26.5,87.7 21.3,81.1 20.7,81.7 C24.7,76.3 23.3,70.6 20.3,64.6 C18.6,61.2 16.9,57.8 15,54 C20.8,55.9 23.7,61.5 22.8,59.6 C22.1,58.2 21.2,56.7 21.1,55.1 C20.9,51.2 21.4,47.2 21.1,43.2 C20.9,40.4 20.3,37.4 19.3,34.7 C16.6,27.7 13.6,20.7 11,14.2 C11.9,15 13.4,16.1 14.7,17.5 C16,18.9 17.2,20.3 18.2,21.9 C19.3,23.5 20.2,25.2 21.4,26.8 C21.7,19.1 18.7,12.2 16.2,5 C16.6,5.3 17.1,5.5 17.5,5.9 C23.7,11.4 26.6,18.5 27,26.6 C27.2,31.4 26.8,36.3 26.9,41.1 C26.9,42.8 27.6,44.4 28.1,46.7 C31.6,38.5 34.6,30.8 38.1,23.2 C41.6,15.7 43.7,7.4 49,0.8 C49.3,1.1 49.6,1.2 49.8,1.2 L49.8,1.2 Z" id="XMLID_6_" fill="#96BF54"></path>
                <path d="M50.4,96.5 C56.8,105.3 58.7,114.7 53.7,124.8 C51.4,129.6 47.6,133.1 43.1,135.8 C41.3,136.9 39.3,137.5 37.4,138.5 C36.5,139 35.8,139.7 35,140.4 C34.9,140.3 34.7,139.8 34.4,139.3 C34.3,139.3 34.1,139.4 34,139.4 C34,140.1 34.1,140.7 34.1,141.4 C33.9,141.3 33.8,141.2 33.6,141.2 C33.4,141.6 33.2,142 32.9,142.6 C32.1,141.8 31.3,141 30.3,139.9 C30,141.1 29.6,142.2 29.3,143.2 C29.1,143.2 28.9,143.2 28.7,143.3 C28.6,142.5 28.4,141.6 28.3,140.5 C27.6,141.6 27.1,142.5 26.5,143.5 C26.1,142.6 25.8,141.9 25.6,141.5 C24.6,141.6 23.8,141.6 23,141.7 C23.1,141.3 23.2,140.9 23.3,140.3 C22.9,140.5 22.5,140.7 22,141 C22.2,140.5 22.3,140.2 22.6,139.5 C21.9,140 21.2,140.5 20.5,141 C20.7,140.6 20.8,140.2 21.1,139.8 C19.6,138.9 17.9,138.3 16.3,137.5 C14.8,136.8 13.3,136 11.9,135.1 C3.5,129.4 -0.7,121.4 0.4,111.1 C0.9,105.7 3.8,101.2 7.2,97.1 C10.9,92.7 14.5,88.1 18.7,84.2 C19.5,83.5 20.2,82.7 20.7,81.9 L20.8,81.9 C21,81.7 22,80.8 23.3,80 C24.4,79.3 25.5,81.6 27.2,81.3 C28.1,81.2 29.5,78.3 30.5,78.6 C31.3,78.8 32.1,79.1 33,79.6 C33.7,80.7 34.7,81.7 35.8,82.5 C41.2,86.4 46.3,90.9 50.4,96.5 L50.4,96.5 Z" id="XMLID_5_" fill="#EBD3BE"></path>
            </g>
            <g id="XMLID_646_" transform="translate(282.000000, 41.000000)" sketch:type="MSShapeGroup">
                <g id="XMLID_77_">
                    <g id="XMLID_83_" transform="translate(0.000000, 13.637840)" fill="#96BF54">
                        <path d="M62.1,20.9 C61.5,31.4 57.4,49.3 50.5,69.1 C44,87.9 36.7,103.9 30.8,112.8 L30.8,112.8 C24.5,123.8 15.8,130.2 8.9,127.8 C0.1,124.8 -2.3,108.7 3.5,91.8 L4.2,89.7 C8.4,81.2 13,70 17.3,57.6 C21.6,45.2 24.8,33.5 26.8,24.2 L27.4,22.6 C30.8,12.7 36.6,-0.4 41.9,0.6 L46,2.3 L48.4,2.8 L49.8,3.3 L53.6,3.9 L55.2,4.9 L56.8,7.1 L60.2,4.4 C63.8,4.1 62.8,14.4 62.1,20.9 L62.1,20.9 Z" id="XMLID_84_"></path>
                    </g>
                    <g id="XMLID_79_" transform="translate(42.000000, 0.000000)" fill="#486732">
                        <path d="M19.8,6.9 L18.7,11.2 L18.4,18.1 L15,20.8 L13.3,22.9 L11.9,21.1 L11.8,21.1 L5.5,19.5 L4.5,19.4 L4.1,16.1 L0,14.4 C2.7,10.6 4.5,7.4 6.7,3.2 L8.8,3 L10.9,0.5 L13.4,3 L15,3.6 L16.4,3.9 L19.8,6.9 L19.8,6.9 Z" id="XMLID_81_"></path>
                    </g>
                </g>
            </g>
            <path d="M308.1,234.8 L131.7,234.8 L84.4,121.9 C230.6,201.4 347.5,121.9 347.5,121.9 L308.1,234.8 L308.1,234.8 Z" id="XMLID_1_" fill="#EDBA80" sketch:type="MSShapeGroup"></path>
            <g id="XMLID_11_" transform="translate(0.000000, 168.000000)" sketch:type="MSShapeGroup">
                <g id="XMLID_70_">
                    <g id="XMLID_74_" transform="translate(20.000000, 0.000000)" fill="#7E5137">
                        <path d="M25.6,2.4 C25.6,2.4 53.8,-0.9 62.7,0.7 C71.6,2.3 97.5,4.8 102.1,5.2 C106.7,5.6 139.5,16.1 139.5,16.1 L148.3,19.7 L125.1,72.6 L0.6,44.7 L25.6,2.4 L25.6,2.4 Z" id="XMLID_75_"></path>
                    </g>
                    <g id="XMLID_71_" fill="url(#linearGradient-1)">
                        <path d="M45.6,2.4 C40.3,12.8 37.6,23.1 41.2,34.4 C41.3,34 41.4,33.7 41.5,33.3 C43.6,23.7 46.9,14.6 52.8,6.5 C55.5,2.8 58.5,0.2 63.6,0.5 C69.6,0.8 75.6,0.5 81.7,0.5 C82,0.5 82.2,0.6 82.7,0.7 C82.3,1.3 82,1.9 81.7,2.3 C76,10.4 71.4,19 69.6,28.9 C68.4,35.4 68.6,41.8 71,48.1 C71.2,48.6 71.5,49.1 72.1,49.5 C72.3,48.4 72.5,47.4 72.6,46.3 C75.5,29.6 82.9,15.2 94.7,3.2 C95.9,2 97,1.4 98.8,1.7 C105.9,2.8 113,3.7 120.1,4.7 C120.7,4.8 121.2,5 122,5.2 C108.9,20.2 101.7,36.9 104.9,56.9 C105.1,57 105.3,57 105.4,57.1 C105.6,56.6 105.7,56.1 105.9,55.6 C109.8,41.7 115.5,28.5 124.3,16.9 C126.4,14.2 128.8,11.7 131,9.1 C132.1,7.9 133.2,7.4 134.9,8 C142.5,10.5 150.1,12.9 157.6,15.4 C158.1,15.6 158.6,15.9 159.3,16.2 C149.6,27.6 144.3,40.8 142.3,55.4 C142.5,55 142.7,54.7 142.9,54.3 C148.8,42.2 155.9,31 165.7,21.6 C167.9,19.5 167.3,19.8 169.7,21 C180.2,26.6 189.5,33.7 196.2,43.8 C198.8,47.7 200.8,51.8 201.1,56.5 C201.6,64 197.9,69.3 192.1,73.4 C185.7,78 178.5,80.3 170.9,81.9 C160.8,84.1 150.6,84.3 140.3,84.2 C113.3,84.1 86.6,81.7 60.3,75.9 C47.4,73 34.9,69.2 23.2,62.9 C16,59 9.4,54.2 4.9,47.1 C0.8,40.5 -0.8,33.5 2.4,26.1 C4.5,21.1 8.2,17.3 12.6,14.3 C21,8.4 30.5,5.5 40.4,3.4 C42.1,3 43.7,2.7 45.6,2.4 L45.6,2.4 Z" id="XMLID_72_"></path>
                    </g>
                </g>
            </g>
        </g>
    </g>
</svg>